%TF.GenerationSoftware,KiCad,Pcbnew,8.0.2*%
%TF.CreationDate,2025-04-13T16:48:02+02:00*%
%TF.ProjectId,AES-DAC,4145532d-4441-4432-9e6b-696361645f70,rev?*%
%TF.SameCoordinates,Original*%
%TF.FileFunction,Soldermask,Top*%
%TF.FilePolarity,Negative*%
%FSLAX46Y46*%
G04 Gerber Fmt 4.6, Leading zero omitted, Abs format (unit mm)*
G04 Created by KiCad (PCBNEW 8.0.2) date 2025-04-13 16:48:02*
%MOMM*%
%LPD*%
G01*
G04 APERTURE LIST*
G04 Aperture macros list*
%AMRoundRect*
0 Rectangle with rounded corners*
0 $1 Rounding radius*
0 $2 $3 $4 $5 $6 $7 $8 $9 X,Y pos of 4 corners*
0 Add a 4 corners polygon primitive as box body*
4,1,4,$2,$3,$4,$5,$6,$7,$8,$9,$2,$3,0*
0 Add four circle primitives for the rounded corners*
1,1,$1+$1,$2,$3*
1,1,$1+$1,$4,$5*
1,1,$1+$1,$6,$7*
1,1,$1+$1,$8,$9*
0 Add four rect primitives between the rounded corners*
20,1,$1+$1,$2,$3,$4,$5,0*
20,1,$1+$1,$4,$5,$6,$7,0*
20,1,$1+$1,$6,$7,$8,$9,0*
20,1,$1+$1,$8,$9,$2,$3,0*%
G04 Aperture macros list end*
%ADD10C,1.600000*%
%ADD11C,2.000000*%
%ADD12RoundRect,0.237500X0.237500X-0.250000X0.237500X0.250000X-0.237500X0.250000X-0.237500X-0.250000X0*%
%ADD13RoundRect,0.250000X-0.450000X0.350000X-0.450000X-0.350000X0.450000X-0.350000X0.450000X0.350000X0*%
%ADD14RoundRect,0.237500X-0.237500X0.250000X-0.237500X-0.250000X0.237500X-0.250000X0.237500X0.250000X0*%
%ADD15RoundRect,0.250000X-0.300000X0.300000X-0.300000X-0.300000X0.300000X-0.300000X0.300000X0.300000X0*%
%ADD16C,1.000000*%
%ADD17RoundRect,0.250000X1.500000X0.550000X-1.500000X0.550000X-1.500000X-0.550000X1.500000X-0.550000X0*%
%ADD18RoundRect,0.250000X-0.350000X-0.450000X0.350000X-0.450000X0.350000X0.450000X-0.350000X0.450000X0*%
%ADD19RoundRect,0.250000X-0.475000X0.337500X-0.475000X-0.337500X0.475000X-0.337500X0.475000X0.337500X0*%
%ADD20C,3.400000*%
%ADD21C,2.900000*%
%ADD22RoundRect,0.250000X0.475000X-0.337500X0.475000X0.337500X-0.475000X0.337500X-0.475000X-0.337500X0*%
%ADD23RoundRect,0.100000X0.100000X-0.637500X0.100000X0.637500X-0.100000X0.637500X-0.100000X-0.637500X0*%
%ADD24RoundRect,0.250000X0.337500X0.475000X-0.337500X0.475000X-0.337500X-0.475000X0.337500X-0.475000X0*%
%ADD25RoundRect,0.250000X0.450000X-0.350000X0.450000X0.350000X-0.450000X0.350000X-0.450000X-0.350000X0*%
%ADD26RoundRect,0.150000X0.150000X-0.825000X0.150000X0.825000X-0.150000X0.825000X-0.150000X-0.825000X0*%
%ADD27RoundRect,0.250000X-0.275000X-0.700000X0.275000X-0.700000X0.275000X0.700000X-0.275000X0.700000X0*%
%ADD28RoundRect,0.125000X0.600000X0.125000X-0.600000X0.125000X-0.600000X-0.125000X0.600000X-0.125000X0*%
%ADD29R,1.570000X1.890000*%
%ADD30RoundRect,0.100000X-0.100000X0.637500X-0.100000X-0.637500X0.100000X-0.637500X0.100000X0.637500X0*%
%ADD31R,3.048000X1.270000*%
%ADD32RoundRect,0.250000X0.550000X-1.500000X0.550000X1.500000X-0.550000X1.500000X-0.550000X-1.500000X0*%
%ADD33R,2.000000X4.600000*%
%ADD34O,2.000000X4.200000*%
%ADD35O,4.200000X2.000000*%
%ADD36RoundRect,0.150000X-0.150000X0.587500X-0.150000X-0.587500X0.150000X-0.587500X0.150000X0.587500X0*%
%ADD37R,1.800000X1.800000*%
%ADD38C,1.800000*%
%ADD39RoundRect,0.250000X0.350000X0.450000X-0.350000X0.450000X-0.350000X-0.450000X0.350000X-0.450000X0*%
G04 APERTURE END LIST*
D10*
%TO.C,C3*%
X91500000Y-68390000D03*
X91500000Y-63390000D03*
%TD*%
D11*
%TO.C,J4*%
X114250000Y-90250000D03*
%TD*%
D12*
%TO.C,R17*%
X45775000Y-29375000D03*
X45775000Y-27550000D03*
%TD*%
D13*
%TO.C,R2*%
X76230000Y-53500000D03*
X76230000Y-55500000D03*
%TD*%
D10*
%TO.C,C28*%
X91500000Y-45500000D03*
X91500000Y-50500000D03*
%TD*%
D14*
%TO.C,R28*%
X48275000Y-31550000D03*
X48275000Y-33375000D03*
%TD*%
D15*
%TO.C,D6*%
X35250000Y-86850000D03*
X35250000Y-89650000D03*
%TD*%
D16*
%TO.C,TP3*%
X53953708Y-27962500D03*
%TD*%
D13*
%TO.C,R40*%
X76230000Y-23000000D03*
X76230000Y-25000000D03*
%TD*%
D17*
%TO.C,C34*%
X33200000Y-75375000D03*
X27800000Y-75375000D03*
%TD*%
D18*
%TO.C,R41*%
X69000000Y-24000000D03*
X71000000Y-24000000D03*
%TD*%
D16*
%TO.C,TP5*%
X59250000Y-41750000D03*
%TD*%
D12*
%TO.C,R21*%
X54775000Y-61462500D03*
X54775000Y-59637500D03*
%TD*%
D19*
%TO.C,R4*%
X40500000Y-60462500D03*
X40500000Y-62537500D03*
%TD*%
D18*
%TO.C,R58*%
X43850000Y-90855000D03*
X45850000Y-90855000D03*
%TD*%
D16*
%TO.C,TP1*%
X43500000Y-54250000D03*
%TD*%
D12*
%TO.C,R34*%
X44275000Y-49375000D03*
X44275000Y-47550000D03*
%TD*%
%TO.C,R6*%
X53775000Y-41875000D03*
X53775000Y-40050000D03*
%TD*%
D10*
%TO.C,J3*%
X109390000Y-45310000D03*
X114470000Y-37690000D03*
D20*
X100500000Y-45310000D03*
X100500000Y-37690000D03*
D21*
X100500000Y-41500000D03*
X105580000Y-41500000D03*
%TD*%
D10*
%TO.C,J1*%
X28000000Y-33500000D03*
X22920000Y-41120000D03*
D20*
X31810000Y-41120000D03*
X32445000Y-33500000D03*
D21*
X36260000Y-37310000D03*
%TD*%
D12*
%TO.C,R14*%
X43275000Y-38375000D03*
X43275000Y-36550000D03*
%TD*%
D22*
%TO.C,C35*%
X38500000Y-77375000D03*
X38500000Y-75300000D03*
%TD*%
D14*
%TO.C,R32*%
X42862500Y-56637500D03*
X42862500Y-58462500D03*
%TD*%
D10*
%TO.C,C29*%
X71000000Y-40500000D03*
X71000000Y-45500000D03*
%TD*%
D13*
%TO.C,R8*%
X81230000Y-53500000D03*
X81230000Y-55500000D03*
%TD*%
D23*
%TO.C,U3*%
X50700000Y-36325000D03*
X51350000Y-36325000D03*
X52000000Y-36325000D03*
X52650000Y-36325000D03*
X53300000Y-36325000D03*
X53950000Y-36325000D03*
X54600000Y-36325000D03*
X55250000Y-36325000D03*
X55900000Y-36325000D03*
X56550000Y-36325000D03*
X57200000Y-36325000D03*
X57850000Y-36325000D03*
X57850000Y-30600000D03*
X57200000Y-30600000D03*
X56550000Y-30600000D03*
X55900000Y-30600000D03*
X55250000Y-30600000D03*
X54600000Y-30600000D03*
X53950000Y-30600000D03*
X53300000Y-30600000D03*
X52650000Y-30600000D03*
X52000000Y-30600000D03*
X51350000Y-30600000D03*
X50700000Y-30600000D03*
%TD*%
D13*
%TO.C,R30*%
X84500000Y-79000000D03*
X84500000Y-81000000D03*
%TD*%
D18*
%TO.C,R50*%
X43850000Y-78470000D03*
X45850000Y-78470000D03*
%TD*%
D10*
%TO.C,J2*%
X109390000Y-76010000D03*
X114470000Y-68390000D03*
D20*
X100500000Y-76010000D03*
X100500000Y-68390000D03*
D21*
X100500000Y-72200000D03*
X105580000Y-72200000D03*
%TD*%
D19*
%TO.C,C41*%
X53000000Y-87150000D03*
X53000000Y-89225000D03*
%TD*%
D24*
%TO.C,C1*%
X25471000Y-53000000D03*
X23396000Y-53000000D03*
%TD*%
D22*
%TO.C,C36*%
X41350000Y-77375000D03*
X41350000Y-75300000D03*
%TD*%
D18*
%TO.C,R7*%
X69000000Y-54500000D03*
X71000000Y-54500000D03*
%TD*%
D16*
%TO.C,TP8*%
X42500000Y-52250000D03*
%TD*%
D12*
%TO.C,R10*%
X49975000Y-41875000D03*
X49975000Y-40050000D03*
%TD*%
%TO.C,R1*%
X40500000Y-58325000D03*
X40500000Y-56500000D03*
%TD*%
D25*
%TO.C,R45*%
X52000000Y-56962500D03*
X52000000Y-54962500D03*
%TD*%
D10*
%TO.C,C12*%
X91500000Y-37690000D03*
X91500000Y-32690000D03*
%TD*%
D11*
%TO.C,J5*%
X114250000Y-23250000D03*
%TD*%
D10*
%TO.C,C8*%
X91500000Y-76000000D03*
X91500000Y-81000000D03*
%TD*%
D13*
%TO.C,R59*%
X56000000Y-83000000D03*
X56000000Y-85000000D03*
%TD*%
D16*
%TO.C,TP7*%
X41500000Y-50250000D03*
%TD*%
D26*
%TO.C,U5*%
X76230000Y-38975000D03*
X77500000Y-38975000D03*
X78770000Y-38975000D03*
X80040000Y-38975000D03*
X80040000Y-34025000D03*
X78770000Y-34025000D03*
X77500000Y-34025000D03*
X76230000Y-34025000D03*
%TD*%
D14*
%TO.C,R26*%
X43275000Y-31550000D03*
X43275000Y-33375000D03*
%TD*%
D13*
%TO.C,R48*%
X84500000Y-48500000D03*
X84500000Y-50500000D03*
%TD*%
D18*
%TO.C,R54*%
X48350000Y-78470000D03*
X50350000Y-78470000D03*
%TD*%
D12*
%TO.C,R38*%
X54775000Y-65375000D03*
X54775000Y-63550000D03*
%TD*%
%TO.C,R33*%
X57275000Y-49375000D03*
X57275000Y-47550000D03*
%TD*%
D27*
%TO.C,L2*%
X35350000Y-83855000D03*
X38500000Y-83855000D03*
%TD*%
D25*
%TO.C,R44*%
X76230000Y-50000000D03*
X76230000Y-48000000D03*
%TD*%
D19*
%TO.C,C31*%
X53015000Y-74650000D03*
X53015000Y-76725000D03*
%TD*%
D25*
%TO.C,R24*%
X81230000Y-80500000D03*
X81230000Y-78500000D03*
%TD*%
D13*
%TO.C,R61*%
X53000000Y-83000000D03*
X53000000Y-85000000D03*
%TD*%
D19*
%TO.C,C44*%
X56000000Y-87150000D03*
X56000000Y-89225000D03*
%TD*%
D10*
%TO.C,C9*%
X71000000Y-71000000D03*
X71000000Y-76000000D03*
%TD*%
D14*
%TO.C,R27*%
X45775000Y-31550000D03*
X45775000Y-33375000D03*
%TD*%
%TO.C,R5*%
X40500000Y-64587500D03*
X40500000Y-66412500D03*
%TD*%
D10*
%TO.C,C4*%
X71000000Y-63000000D03*
X71000000Y-58000000D03*
%TD*%
D27*
%TO.C,L1*%
X35350000Y-71750000D03*
X38500000Y-71750000D03*
%TD*%
D22*
%TO.C,C25*%
X54500000Y-57000000D03*
X54500000Y-54925000D03*
%TD*%
D28*
%TO.C,U7*%
X49000000Y-87800000D03*
X49000000Y-87150000D03*
X49000000Y-86500000D03*
X49000000Y-85850000D03*
X44700000Y-85850000D03*
X44700000Y-86500000D03*
X44700000Y-87150000D03*
X44700000Y-87800000D03*
D29*
X46850000Y-86825000D03*
%TD*%
D13*
%TO.C,R55*%
X53000000Y-70500000D03*
X53000000Y-72500000D03*
%TD*%
D30*
%TO.C,U1*%
X55225000Y-45600000D03*
X54575000Y-45600000D03*
X53925000Y-45600000D03*
X53275000Y-45600000D03*
X52625000Y-45600000D03*
X51975000Y-45600000D03*
X51325000Y-45600000D03*
X50675000Y-45600000D03*
X50025000Y-45600000D03*
X49375000Y-45600000D03*
X48725000Y-45600000D03*
X48075000Y-45600000D03*
X47425000Y-45600000D03*
X46775000Y-45600000D03*
X46775000Y-51325000D03*
X47425000Y-51325000D03*
X48075000Y-51325000D03*
X48725000Y-51325000D03*
X49375000Y-51325000D03*
X50025000Y-51325000D03*
X50675000Y-51325000D03*
X51325000Y-51325000D03*
X51975000Y-51325000D03*
X52625000Y-51325000D03*
X53275000Y-51325000D03*
X53925000Y-51325000D03*
X54575000Y-51325000D03*
X55225000Y-51325000D03*
%TD*%
D16*
%TO.C,TP6*%
X56275000Y-27962500D03*
%TD*%
D31*
%TO.C,T1*%
X23396000Y-57690000D03*
X23396000Y-60230000D03*
X23396000Y-62770000D03*
X23396000Y-65310000D03*
X36604000Y-65310000D03*
X36604000Y-62770000D03*
X36604000Y-60230000D03*
X36604000Y-57690000D03*
%TD*%
D10*
%TO.C,C2*%
X76230000Y-59500000D03*
X81230000Y-59500000D03*
%TD*%
D16*
%TO.C,TP9*%
X59250000Y-46250000D03*
%TD*%
D12*
%TO.C,R13*%
X48075000Y-41875000D03*
X48075000Y-40050000D03*
%TD*%
D19*
%TO.C,C38*%
X59000000Y-74650000D03*
X59000000Y-76725000D03*
%TD*%
D32*
%TO.C,C39*%
X64500000Y-76725000D03*
X64500000Y-71325000D03*
%TD*%
D12*
%TO.C,R15*%
X45275000Y-38375000D03*
X45275000Y-36550000D03*
%TD*%
D18*
%TO.C,R53*%
X96500000Y-57000000D03*
X98500000Y-57000000D03*
%TD*%
D32*
%TO.C,C46*%
X64500000Y-89225000D03*
X64500000Y-83825000D03*
%TD*%
D18*
%TO.C,R23*%
X69000000Y-79500000D03*
X71000000Y-79500000D03*
%TD*%
%TO.C,R60*%
X48350000Y-90855000D03*
X50350000Y-90855000D03*
%TD*%
D19*
%TO.C,C45*%
X59000000Y-87150000D03*
X59000000Y-89225000D03*
%TD*%
D28*
%TO.C,U6*%
X49015000Y-75300000D03*
X49015000Y-74650000D03*
X49015000Y-74000000D03*
X49015000Y-73350000D03*
X44715000Y-73350000D03*
X44715000Y-74000000D03*
X44715000Y-74650000D03*
X44715000Y-75300000D03*
D29*
X46865000Y-74325000D03*
%TD*%
D22*
%TO.C,C43*%
X41350000Y-89875000D03*
X41350000Y-87800000D03*
%TD*%
D25*
%TO.C,R47*%
X81230000Y-50000000D03*
X81230000Y-48000000D03*
%TD*%
D33*
%TO.C,J6*%
X30500000Y-84700000D03*
D34*
X24200000Y-84700000D03*
D35*
X27600000Y-89500000D03*
%TD*%
D12*
%TO.C,R20*%
X57275000Y-61462500D03*
X57275000Y-59637500D03*
%TD*%
D25*
%TO.C,R16*%
X76230000Y-80500000D03*
X76230000Y-78500000D03*
%TD*%
D10*
%TO.C,C11*%
X76230000Y-29000000D03*
X81230000Y-29000000D03*
%TD*%
D12*
%TO.C,R18*%
X49775000Y-61462500D03*
X49775000Y-59637500D03*
%TD*%
D14*
%TO.C,R3*%
X43000000Y-60462500D03*
X43000000Y-62287500D03*
%TD*%
D19*
%TO.C,C37*%
X56000000Y-74650000D03*
X56000000Y-76725000D03*
%TD*%
D36*
%TO.C,U4*%
X46725000Y-56587500D03*
X44825000Y-56587500D03*
X45775000Y-58462500D03*
%TD*%
D12*
%TO.C,R12*%
X51875000Y-41875000D03*
X51875000Y-40050000D03*
%TD*%
%TO.C,R35*%
X49775000Y-65375000D03*
X49775000Y-63550000D03*
%TD*%
D10*
%TO.C,C7*%
X76230000Y-74500000D03*
X81230000Y-74500000D03*
%TD*%
D12*
%TO.C,R39*%
X59775000Y-65375000D03*
X59775000Y-63550000D03*
%TD*%
D19*
%TO.C,C47*%
X41350000Y-83317500D03*
X41350000Y-85392500D03*
%TD*%
D14*
%TO.C,R25*%
X43275000Y-27550000D03*
X43275000Y-29375000D03*
%TD*%
D25*
%TO.C,R43*%
X84500000Y-34690000D03*
X84500000Y-32690000D03*
%TD*%
D12*
%TO.C,R19*%
X52275000Y-61462500D03*
X52275000Y-59637500D03*
%TD*%
D18*
%TO.C,R49*%
X96500000Y-24750000D03*
X98500000Y-24750000D03*
%TD*%
D22*
%TO.C,C42*%
X38500000Y-89875000D03*
X38500000Y-87800000D03*
%TD*%
D19*
%TO.C,C27*%
X49500000Y-54925000D03*
X49500000Y-57000000D03*
%TD*%
D10*
%TO.C,C13*%
X71000000Y-32500000D03*
X71000000Y-27500000D03*
%TD*%
D19*
%TO.C,C40*%
X41350000Y-70932500D03*
X41350000Y-73007500D03*
%TD*%
D12*
%TO.C,R22*%
X59775000Y-61462500D03*
X59775000Y-59637500D03*
%TD*%
D13*
%TO.C,R51*%
X56000000Y-70500000D03*
X56000000Y-72500000D03*
%TD*%
D37*
%TO.C,D5*%
X24250000Y-70710000D03*
D38*
X24250000Y-73250000D03*
%TD*%
D12*
%TO.C,R9*%
X43000000Y-66412500D03*
X43000000Y-64587500D03*
%TD*%
D18*
%TO.C,R46*%
X69000000Y-49000000D03*
X71000000Y-49000000D03*
%TD*%
D12*
%TO.C,R37*%
X57275000Y-65375000D03*
X57275000Y-63550000D03*
%TD*%
D16*
%TO.C,TP2*%
X59250000Y-44000000D03*
%TD*%
D26*
%TO.C,U2*%
X76230000Y-69475000D03*
X77500000Y-69475000D03*
X78770000Y-69475000D03*
X80040000Y-69475000D03*
X80040000Y-64525000D03*
X78770000Y-64525000D03*
X77500000Y-64525000D03*
X76230000Y-64525000D03*
%TD*%
D12*
%TO.C,R36*%
X52275000Y-65375000D03*
X52275000Y-63550000D03*
%TD*%
%TO.C,R57*%
X46700000Y-63162500D03*
X46700000Y-61337500D03*
%TD*%
D25*
%TO.C,R11*%
X84500000Y-65390000D03*
X84500000Y-63390000D03*
%TD*%
D13*
%TO.C,R42*%
X81230000Y-23000000D03*
X81230000Y-25000000D03*
%TD*%
D18*
%TO.C,R52*%
X96500000Y-88750000D03*
X98500000Y-88750000D03*
%TD*%
D36*
%TO.C,Q1*%
X46700000Y-66062500D03*
X44800000Y-66062500D03*
X45750000Y-67937500D03*
%TD*%
D39*
%TO.C,R56*%
X29000000Y-70000000D03*
X27000000Y-70000000D03*
%TD*%
D10*
%TO.C,C26*%
X76230000Y-44000000D03*
X81230000Y-44000000D03*
%TD*%
M02*
