%TF.GenerationSoftware,KiCad,Pcbnew,8.0.2*%
%TF.CreationDate,2025-04-13T16:48:02+02:00*%
%TF.ProjectId,AES-DAC,4145532d-4441-4432-9e6b-696361645f70,rev?*%
%TF.SameCoordinates,Original*%
%TF.FileFunction,Legend,Bot*%
%TF.FilePolarity,Positive*%
%FSLAX46Y46*%
G04 Gerber Fmt 4.6, Leading zero omitted, Abs format (unit mm)*
G04 Created by KiCad (PCBNEW 8.0.2) date 2025-04-13 16:48:02*
%MOMM*%
%LPD*%
G01*
G04 APERTURE LIST*
%ADD10C,0.150000*%
%ADD11C,0.100000*%
%ADD12C,0.120000*%
G04 APERTURE END LIST*
D10*
G36*
X37314967Y-48861053D02*
G01*
X37314967Y-49239141D01*
X37358506Y-49267104D01*
X37403668Y-49290816D01*
X37450452Y-49310277D01*
X37477145Y-49319253D01*
X37526838Y-49332004D01*
X37579197Y-49340582D01*
X37627977Y-49344704D01*
X37665944Y-49345631D01*
X37718025Y-49343831D01*
X37767839Y-49338432D01*
X37821992Y-49327853D01*
X37873184Y-49312572D01*
X37885519Y-49308018D01*
X37932597Y-49287211D01*
X37976133Y-49262650D01*
X38016128Y-49234333D01*
X38052581Y-49202260D01*
X38088950Y-49161922D01*
X38120295Y-49117295D01*
X38143941Y-49074026D01*
X38159071Y-49039351D01*
X38175313Y-48990639D01*
X38186914Y-48939516D01*
X38193875Y-48885981D01*
X38196159Y-48837160D01*
X38196196Y-48830034D01*
X38194466Y-48780568D01*
X38188253Y-48726411D01*
X38177522Y-48674788D01*
X38162272Y-48625699D01*
X38160048Y-48619741D01*
X38140050Y-48573824D01*
X38112955Y-48526254D01*
X38080991Y-48483011D01*
X38056977Y-48456587D01*
X38017073Y-48420809D01*
X37972648Y-48389860D01*
X37929363Y-48366405D01*
X37894556Y-48351318D01*
X37845280Y-48334969D01*
X37793195Y-48323292D01*
X37738301Y-48316285D01*
X37687965Y-48313986D01*
X37680599Y-48313949D01*
X37629876Y-48315772D01*
X37579161Y-48321772D01*
X37569469Y-48323475D01*
X37520131Y-48334893D01*
X37474702Y-48350586D01*
X37430112Y-48371407D01*
X37393858Y-48393328D01*
X37353363Y-48423639D01*
X37324004Y-48449993D01*
X37362595Y-48512030D01*
X37386286Y-48529860D01*
X37418282Y-48523265D01*
X37457117Y-48499330D01*
X37500580Y-48476294D01*
X37510118Y-48472219D01*
X37558415Y-48455805D01*
X37583879Y-48449260D01*
X37633583Y-48441256D01*
X37684995Y-48439002D01*
X37736544Y-48441697D01*
X37784944Y-48449783D01*
X37834548Y-48464903D01*
X37838868Y-48466601D01*
X37883826Y-48488404D01*
X37927406Y-48518641D01*
X37956349Y-48545736D01*
X37989643Y-48587261D01*
X38014610Y-48630696D01*
X38031088Y-48670055D01*
X38044740Y-48717463D01*
X38053337Y-48768401D01*
X38056750Y-48817264D01*
X38056977Y-48834187D01*
X38054833Y-48885653D01*
X38047420Y-48939167D01*
X38034711Y-48988817D01*
X38029866Y-49002958D01*
X38008486Y-49051547D01*
X37981622Y-49094882D01*
X37952441Y-49129720D01*
X37915340Y-49162572D01*
X37873216Y-49189593D01*
X37830564Y-49209099D01*
X37779119Y-49224535D01*
X37728744Y-49233007D01*
X37674934Y-49236184D01*
X37669364Y-49236210D01*
X37618840Y-49234012D01*
X37569144Y-49226670D01*
X37544556Y-49220579D01*
X37497365Y-49204397D01*
X37451110Y-49183633D01*
X37438066Y-49176859D01*
X37438066Y-48954842D01*
X37594870Y-48954842D01*
X37616363Y-48948004D01*
X37624423Y-48930662D01*
X37624423Y-48861053D01*
X37314967Y-48861053D01*
G37*
G36*
X36295009Y-48329581D02*
G01*
X36295009Y-49330000D01*
X36363397Y-49330000D01*
X36390508Y-49324382D01*
X36411757Y-49305331D01*
X36995009Y-48545736D01*
X36992811Y-48580174D01*
X36992078Y-48611926D01*
X36992078Y-49330000D01*
X37111757Y-49330000D01*
X37111757Y-48329581D01*
X37041416Y-48329581D01*
X37026028Y-48330802D01*
X37014793Y-48334221D01*
X37004779Y-48341304D01*
X36994277Y-48352784D01*
X36411025Y-49111891D01*
X36413711Y-49076475D01*
X36414688Y-49043503D01*
X36414688Y-48329581D01*
X36295009Y-48329581D01*
G37*
G36*
X36042951Y-49330000D02*
G01*
X35666573Y-49330000D01*
X35612213Y-49327756D01*
X35560266Y-49321024D01*
X35510730Y-49309804D01*
X35463607Y-49294096D01*
X35435558Y-49282148D01*
X35388347Y-49256977D01*
X35345347Y-49227091D01*
X35306559Y-49192491D01*
X35286825Y-49171315D01*
X35254940Y-49129953D01*
X35227731Y-49084418D01*
X35205198Y-49034710D01*
X35189490Y-48987388D01*
X35178270Y-48937501D01*
X35171538Y-48885050D01*
X35169294Y-48830034D01*
X35309245Y-48830034D01*
X35309468Y-48847173D01*
X35312817Y-48896530D01*
X35321251Y-48947744D01*
X35334646Y-48995143D01*
X35350497Y-49034169D01*
X35374489Y-49077040D01*
X35406454Y-49117752D01*
X35430893Y-49141215D01*
X35472190Y-49170971D01*
X35519050Y-49194200D01*
X35566235Y-49209219D01*
X35617113Y-49218003D01*
X35666573Y-49220579D01*
X35906419Y-49220579D01*
X35906419Y-48439002D01*
X35666573Y-48439002D01*
X35617113Y-48441601D01*
X35566235Y-48450467D01*
X35519050Y-48465624D01*
X35487191Y-48480309D01*
X35444041Y-48507947D01*
X35406454Y-48542316D01*
X35379396Y-48575957D01*
X35354482Y-48618031D01*
X35334646Y-48665415D01*
X35330107Y-48679188D01*
X35318200Y-48727578D01*
X35311255Y-48779785D01*
X35309245Y-48830034D01*
X35169294Y-48830034D01*
X35171538Y-48775126D01*
X35178270Y-48722751D01*
X35189490Y-48672910D01*
X35205198Y-48625603D01*
X35217139Y-48597466D01*
X35242270Y-48550036D01*
X35272077Y-48506740D01*
X35306559Y-48467578D01*
X35327588Y-48447633D01*
X35368716Y-48415459D01*
X35414055Y-48388076D01*
X35463607Y-48365484D01*
X35510730Y-48349777D01*
X35560266Y-48338557D01*
X35612213Y-48331825D01*
X35666573Y-48329581D01*
X36042951Y-48329581D01*
X36042951Y-49330000D01*
G37*
G36*
X34049685Y-49220579D02*
G01*
X34049685Y-49330000D01*
X34621457Y-49330000D01*
X34621457Y-48329581D01*
X34485658Y-48329581D01*
X34485658Y-49220579D01*
X34049685Y-49220579D01*
G37*
G36*
X33800557Y-48626580D02*
G01*
X33800557Y-49330000D01*
X33925854Y-49330000D01*
X33925854Y-48626580D01*
X33800557Y-48626580D01*
G37*
G36*
X33773935Y-48385024D02*
G01*
X33781506Y-48417997D01*
X33801046Y-48445108D01*
X33829866Y-48463670D01*
X33864793Y-48470265D01*
X33898743Y-48463670D01*
X33926586Y-48445108D01*
X33945637Y-48417997D01*
X33952720Y-48385024D01*
X33945637Y-48351563D01*
X33926586Y-48323719D01*
X33898743Y-48305157D01*
X33864793Y-48298318D01*
X33829866Y-48305157D01*
X33801046Y-48323719D01*
X33781506Y-48351563D01*
X33773935Y-48385024D01*
G37*
G36*
X32969399Y-48736001D02*
G01*
X32969399Y-49163182D01*
X32960037Y-49212389D01*
X32947661Y-49230104D01*
X32902221Y-49251311D01*
X32891974Y-49251842D01*
X32857291Y-49246468D01*
X32832379Y-49234989D01*
X32814793Y-49223265D01*
X32802092Y-49217892D01*
X32791834Y-49220823D01*
X32783774Y-49229860D01*
X32747138Y-49284326D01*
X32787736Y-49312611D01*
X32825295Y-49329267D01*
X32874789Y-49342035D01*
X32920062Y-49345631D01*
X32973126Y-49340148D01*
X33020679Y-49321658D01*
X33049266Y-49299225D01*
X33076950Y-49258684D01*
X33091102Y-49211445D01*
X33094695Y-49165624D01*
X33094695Y-48736001D01*
X33424423Y-48736001D01*
X33424423Y-49330000D01*
X33550452Y-49330000D01*
X33550452Y-48740642D01*
X33629099Y-48730872D01*
X33653523Y-48719392D01*
X33663048Y-48696678D01*
X33663048Y-48642212D01*
X33550452Y-48642212D01*
X33550452Y-48572358D01*
X33547180Y-48520907D01*
X33536411Y-48471591D01*
X33533355Y-48462449D01*
X33512351Y-48418119D01*
X33484018Y-48381360D01*
X33443927Y-48349092D01*
X33407082Y-48331046D01*
X33359149Y-48318224D01*
X33309221Y-48313966D01*
X33305721Y-48313949D01*
X33254339Y-48318431D01*
X33217794Y-48328115D01*
X33220480Y-48388199D01*
X33239287Y-48406517D01*
X33285205Y-48407739D01*
X33333961Y-48413543D01*
X33344067Y-48416531D01*
X33387086Y-48442220D01*
X33389496Y-48444619D01*
X33415147Y-48486460D01*
X33418561Y-48496154D01*
X33427607Y-48544350D01*
X33428820Y-48574801D01*
X33428820Y-48642212D01*
X33090299Y-48642212D01*
X33062211Y-48414822D01*
X33052197Y-48397236D01*
X33032658Y-48390397D01*
X32969399Y-48390397D01*
X32969399Y-48642212D01*
X32763991Y-48642212D01*
X32763991Y-48736001D01*
X32969399Y-48736001D01*
G37*
D11*
X47450463Y-38791683D02*
X47450463Y-38591683D01*
X47764749Y-38591683D02*
X47164749Y-38591683D01*
X47164749Y-38591683D02*
X47164749Y-38877397D01*
X47450463Y-39305969D02*
X47479035Y-39391683D01*
X47479035Y-39391683D02*
X47507606Y-39420254D01*
X47507606Y-39420254D02*
X47564749Y-39448826D01*
X47564749Y-39448826D02*
X47650463Y-39448826D01*
X47650463Y-39448826D02*
X47707606Y-39420254D01*
X47707606Y-39420254D02*
X47736178Y-39391683D01*
X47736178Y-39391683D02*
X47764749Y-39334540D01*
X47764749Y-39334540D02*
X47764749Y-39105969D01*
X47764749Y-39105969D02*
X47164749Y-39105969D01*
X47164749Y-39105969D02*
X47164749Y-39305969D01*
X47164749Y-39305969D02*
X47193320Y-39363112D01*
X47193320Y-39363112D02*
X47221892Y-39391683D01*
X47221892Y-39391683D02*
X47279035Y-39420254D01*
X47279035Y-39420254D02*
X47336178Y-39420254D01*
X47336178Y-39420254D02*
X47393320Y-39391683D01*
X47393320Y-39391683D02*
X47421892Y-39363112D01*
X47421892Y-39363112D02*
X47450463Y-39305969D01*
X47450463Y-39305969D02*
X47450463Y-39105969D01*
X47764749Y-40020254D02*
X47764749Y-39677397D01*
X47764749Y-39848826D02*
X47164749Y-39848826D01*
X47164749Y-39848826D02*
X47250463Y-39791683D01*
X47250463Y-39791683D02*
X47307606Y-39734540D01*
X47307606Y-39734540D02*
X47336178Y-39677397D01*
X93022371Y-53057143D02*
X92422371Y-53057143D01*
X92422371Y-53057143D02*
X92422371Y-53200000D01*
X92422371Y-53200000D02*
X92450942Y-53285714D01*
X92450942Y-53285714D02*
X92508085Y-53342857D01*
X92508085Y-53342857D02*
X92565228Y-53371428D01*
X92565228Y-53371428D02*
X92679514Y-53400000D01*
X92679514Y-53400000D02*
X92765228Y-53400000D01*
X92765228Y-53400000D02*
X92879514Y-53371428D01*
X92879514Y-53371428D02*
X92936657Y-53342857D01*
X92936657Y-53342857D02*
X92993800Y-53285714D01*
X92993800Y-53285714D02*
X93022371Y-53200000D01*
X93022371Y-53200000D02*
X93022371Y-53057143D01*
X92622371Y-53914286D02*
X93022371Y-53914286D01*
X92393800Y-53771428D02*
X92822371Y-53628571D01*
X92822371Y-53628571D02*
X92822371Y-54000000D01*
X47357143Y-45272371D02*
X47014286Y-45272371D01*
X47185714Y-45872371D02*
X47185714Y-45272371D01*
X46814285Y-45872371D02*
X46814285Y-45272371D01*
X46814285Y-45272371D02*
X46585714Y-45272371D01*
X46585714Y-45272371D02*
X46528571Y-45300942D01*
X46528571Y-45300942D02*
X46500000Y-45329514D01*
X46500000Y-45329514D02*
X46471428Y-45386657D01*
X46471428Y-45386657D02*
X46471428Y-45472371D01*
X46471428Y-45472371D02*
X46500000Y-45529514D01*
X46500000Y-45529514D02*
X46528571Y-45558085D01*
X46528571Y-45558085D02*
X46585714Y-45586657D01*
X46585714Y-45586657D02*
X46814285Y-45586657D01*
X45957143Y-45472371D02*
X45957143Y-45872371D01*
X46100000Y-45243800D02*
X46242857Y-45672371D01*
X46242857Y-45672371D02*
X45871428Y-45672371D01*
X36000000Y-43243800D02*
X35914286Y-43272371D01*
X35914286Y-43272371D02*
X35771428Y-43272371D01*
X35771428Y-43272371D02*
X35714286Y-43243800D01*
X35714286Y-43243800D02*
X35685714Y-43215228D01*
X35685714Y-43215228D02*
X35657143Y-43158085D01*
X35657143Y-43158085D02*
X35657143Y-43100942D01*
X35657143Y-43100942D02*
X35685714Y-43043800D01*
X35685714Y-43043800D02*
X35714286Y-43015228D01*
X35714286Y-43015228D02*
X35771428Y-42986657D01*
X35771428Y-42986657D02*
X35885714Y-42958085D01*
X35885714Y-42958085D02*
X35942857Y-42929514D01*
X35942857Y-42929514D02*
X35971428Y-42900942D01*
X35971428Y-42900942D02*
X36000000Y-42843800D01*
X36000000Y-42843800D02*
X36000000Y-42786657D01*
X36000000Y-42786657D02*
X35971428Y-42729514D01*
X35971428Y-42729514D02*
X35942857Y-42700942D01*
X35942857Y-42700942D02*
X35885714Y-42672371D01*
X35885714Y-42672371D02*
X35742857Y-42672371D01*
X35742857Y-42672371D02*
X35657143Y-42700942D01*
X35457142Y-42672371D02*
X35314285Y-43272371D01*
X35314285Y-43272371D02*
X35199999Y-42843800D01*
X35199999Y-42843800D02*
X35085714Y-43272371D01*
X35085714Y-43272371D02*
X34942857Y-42672371D01*
X34400000Y-43272371D02*
X34742857Y-43272371D01*
X34571428Y-43272371D02*
X34571428Y-42672371D01*
X34571428Y-42672371D02*
X34628571Y-42758085D01*
X34628571Y-42758085D02*
X34685714Y-42815228D01*
X34685714Y-42815228D02*
X34742857Y-42843800D01*
X54340392Y-30691517D02*
X54368964Y-30720089D01*
X54368964Y-30720089D02*
X54454678Y-30748660D01*
X54454678Y-30748660D02*
X54511821Y-30748660D01*
X54511821Y-30748660D02*
X54597535Y-30720089D01*
X54597535Y-30720089D02*
X54654678Y-30662946D01*
X54654678Y-30662946D02*
X54683249Y-30605803D01*
X54683249Y-30605803D02*
X54711821Y-30491517D01*
X54711821Y-30491517D02*
X54711821Y-30405803D01*
X54711821Y-30405803D02*
X54683249Y-30291517D01*
X54683249Y-30291517D02*
X54654678Y-30234374D01*
X54654678Y-30234374D02*
X54597535Y-30177231D01*
X54597535Y-30177231D02*
X54511821Y-30148660D01*
X54511821Y-30148660D02*
X54454678Y-30148660D01*
X54454678Y-30148660D02*
X54368964Y-30177231D01*
X54368964Y-30177231D02*
X54340392Y-30205803D01*
X53768964Y-30748660D02*
X54111821Y-30748660D01*
X53940392Y-30748660D02*
X53940392Y-30148660D01*
X53940392Y-30148660D02*
X53997535Y-30234374D01*
X53997535Y-30234374D02*
X54054678Y-30291517D01*
X54054678Y-30291517D02*
X54111821Y-30320089D01*
X53568963Y-30148660D02*
X53168963Y-30148660D01*
X53168963Y-30148660D02*
X53426106Y-30748660D01*
X51985714Y-48015228D02*
X52014286Y-48043800D01*
X52014286Y-48043800D02*
X52100000Y-48072371D01*
X52100000Y-48072371D02*
X52157143Y-48072371D01*
X52157143Y-48072371D02*
X52242857Y-48043800D01*
X52242857Y-48043800D02*
X52300000Y-47986657D01*
X52300000Y-47986657D02*
X52328571Y-47929514D01*
X52328571Y-47929514D02*
X52357143Y-47815228D01*
X52357143Y-47815228D02*
X52357143Y-47729514D01*
X52357143Y-47729514D02*
X52328571Y-47615228D01*
X52328571Y-47615228D02*
X52300000Y-47558085D01*
X52300000Y-47558085D02*
X52242857Y-47500942D01*
X52242857Y-47500942D02*
X52157143Y-47472371D01*
X52157143Y-47472371D02*
X52100000Y-47472371D01*
X52100000Y-47472371D02*
X52014286Y-47500942D01*
X52014286Y-47500942D02*
X51985714Y-47529514D01*
X51757143Y-47529514D02*
X51728571Y-47500942D01*
X51728571Y-47500942D02*
X51671429Y-47472371D01*
X51671429Y-47472371D02*
X51528571Y-47472371D01*
X51528571Y-47472371D02*
X51471429Y-47500942D01*
X51471429Y-47500942D02*
X51442857Y-47529514D01*
X51442857Y-47529514D02*
X51414286Y-47586657D01*
X51414286Y-47586657D02*
X51414286Y-47643800D01*
X51414286Y-47643800D02*
X51442857Y-47729514D01*
X51442857Y-47729514D02*
X51785714Y-48072371D01*
X51785714Y-48072371D02*
X51414286Y-48072371D01*
X51214285Y-47472371D02*
X50842857Y-47472371D01*
X50842857Y-47472371D02*
X51042857Y-47700942D01*
X51042857Y-47700942D02*
X50957142Y-47700942D01*
X50957142Y-47700942D02*
X50900000Y-47729514D01*
X50900000Y-47729514D02*
X50871428Y-47758085D01*
X50871428Y-47758085D02*
X50842857Y-47815228D01*
X50842857Y-47815228D02*
X50842857Y-47958085D01*
X50842857Y-47958085D02*
X50871428Y-48015228D01*
X50871428Y-48015228D02*
X50900000Y-48043800D01*
X50900000Y-48043800D02*
X50957142Y-48072371D01*
X50957142Y-48072371D02*
X51128571Y-48072371D01*
X51128571Y-48072371D02*
X51185714Y-48043800D01*
X51185714Y-48043800D02*
X51214285Y-48015228D01*
X75385714Y-69615228D02*
X75414286Y-69643800D01*
X75414286Y-69643800D02*
X75500000Y-69672371D01*
X75500000Y-69672371D02*
X75557143Y-69672371D01*
X75557143Y-69672371D02*
X75642857Y-69643800D01*
X75642857Y-69643800D02*
X75700000Y-69586657D01*
X75700000Y-69586657D02*
X75728571Y-69529514D01*
X75728571Y-69529514D02*
X75757143Y-69415228D01*
X75757143Y-69415228D02*
X75757143Y-69329514D01*
X75757143Y-69329514D02*
X75728571Y-69215228D01*
X75728571Y-69215228D02*
X75700000Y-69158085D01*
X75700000Y-69158085D02*
X75642857Y-69100942D01*
X75642857Y-69100942D02*
X75557143Y-69072371D01*
X75557143Y-69072371D02*
X75500000Y-69072371D01*
X75500000Y-69072371D02*
X75414286Y-69100942D01*
X75414286Y-69100942D02*
X75385714Y-69129514D01*
X74814286Y-69672371D02*
X75157143Y-69672371D01*
X74985714Y-69672371D02*
X74985714Y-69072371D01*
X74985714Y-69072371D02*
X75042857Y-69158085D01*
X75042857Y-69158085D02*
X75100000Y-69215228D01*
X75100000Y-69215228D02*
X75157143Y-69243800D01*
X74442857Y-69072371D02*
X74385714Y-69072371D01*
X74385714Y-69072371D02*
X74328571Y-69100942D01*
X74328571Y-69100942D02*
X74300000Y-69129514D01*
X74300000Y-69129514D02*
X74271428Y-69186657D01*
X74271428Y-69186657D02*
X74242857Y-69300942D01*
X74242857Y-69300942D02*
X74242857Y-69443800D01*
X74242857Y-69443800D02*
X74271428Y-69558085D01*
X74271428Y-69558085D02*
X74300000Y-69615228D01*
X74300000Y-69615228D02*
X74328571Y-69643800D01*
X74328571Y-69643800D02*
X74385714Y-69672371D01*
X74385714Y-69672371D02*
X74442857Y-69672371D01*
X74442857Y-69672371D02*
X74500000Y-69643800D01*
X74500000Y-69643800D02*
X74528571Y-69615228D01*
X74528571Y-69615228D02*
X74557142Y-69558085D01*
X74557142Y-69558085D02*
X74585714Y-69443800D01*
X74585714Y-69443800D02*
X74585714Y-69300942D01*
X74585714Y-69300942D02*
X74557142Y-69186657D01*
X74557142Y-69186657D02*
X74528571Y-69129514D01*
X74528571Y-69129514D02*
X74500000Y-69100942D01*
X74500000Y-69100942D02*
X74442857Y-69072371D01*
D10*
X56166666Y-35039580D02*
X56214285Y-35087200D01*
X56214285Y-35087200D02*
X56357142Y-35134819D01*
X56357142Y-35134819D02*
X56452380Y-35134819D01*
X56452380Y-35134819D02*
X56595237Y-35087200D01*
X56595237Y-35087200D02*
X56690475Y-34991961D01*
X56690475Y-34991961D02*
X56738094Y-34896723D01*
X56738094Y-34896723D02*
X56785713Y-34706247D01*
X56785713Y-34706247D02*
X56785713Y-34563390D01*
X56785713Y-34563390D02*
X56738094Y-34372914D01*
X56738094Y-34372914D02*
X56690475Y-34277676D01*
X56690475Y-34277676D02*
X56595237Y-34182438D01*
X56595237Y-34182438D02*
X56452380Y-34134819D01*
X56452380Y-34134819D02*
X56357142Y-34134819D01*
X56357142Y-34134819D02*
X56214285Y-34182438D01*
X56214285Y-34182438D02*
X56166666Y-34230057D01*
X55309523Y-34134819D02*
X55499999Y-34134819D01*
X55499999Y-34134819D02*
X55595237Y-34182438D01*
X55595237Y-34182438D02*
X55642856Y-34230057D01*
X55642856Y-34230057D02*
X55738094Y-34372914D01*
X55738094Y-34372914D02*
X55785713Y-34563390D01*
X55785713Y-34563390D02*
X55785713Y-34944342D01*
X55785713Y-34944342D02*
X55738094Y-35039580D01*
X55738094Y-35039580D02*
X55690475Y-35087200D01*
X55690475Y-35087200D02*
X55595237Y-35134819D01*
X55595237Y-35134819D02*
X55404761Y-35134819D01*
X55404761Y-35134819D02*
X55309523Y-35087200D01*
X55309523Y-35087200D02*
X55261904Y-35039580D01*
X55261904Y-35039580D02*
X55214285Y-34944342D01*
X55214285Y-34944342D02*
X55214285Y-34706247D01*
X55214285Y-34706247D02*
X55261904Y-34611009D01*
X55261904Y-34611009D02*
X55309523Y-34563390D01*
X55309523Y-34563390D02*
X55404761Y-34515771D01*
X55404761Y-34515771D02*
X55595237Y-34515771D01*
X55595237Y-34515771D02*
X55690475Y-34563390D01*
X55690475Y-34563390D02*
X55738094Y-34611009D01*
X55738094Y-34611009D02*
X55785713Y-34706247D01*
D11*
X47060355Y-30726669D02*
X47260355Y-30440955D01*
X47403212Y-30726669D02*
X47403212Y-30126669D01*
X47403212Y-30126669D02*
X47174641Y-30126669D01*
X47174641Y-30126669D02*
X47117498Y-30155240D01*
X47117498Y-30155240D02*
X47088927Y-30183812D01*
X47088927Y-30183812D02*
X47060355Y-30240955D01*
X47060355Y-30240955D02*
X47060355Y-30326669D01*
X47060355Y-30326669D02*
X47088927Y-30383812D01*
X47088927Y-30383812D02*
X47117498Y-30412383D01*
X47117498Y-30412383D02*
X47174641Y-30440955D01*
X47174641Y-30440955D02*
X47403212Y-30440955D01*
X46860355Y-30126669D02*
X46488927Y-30126669D01*
X46488927Y-30126669D02*
X46688927Y-30355240D01*
X46688927Y-30355240D02*
X46603212Y-30355240D01*
X46603212Y-30355240D02*
X46546070Y-30383812D01*
X46546070Y-30383812D02*
X46517498Y-30412383D01*
X46517498Y-30412383D02*
X46488927Y-30469526D01*
X46488927Y-30469526D02*
X46488927Y-30612383D01*
X46488927Y-30612383D02*
X46517498Y-30669526D01*
X46517498Y-30669526D02*
X46546070Y-30698098D01*
X46546070Y-30698098D02*
X46603212Y-30726669D01*
X46603212Y-30726669D02*
X46774641Y-30726669D01*
X46774641Y-30726669D02*
X46831784Y-30698098D01*
X46831784Y-30698098D02*
X46860355Y-30669526D01*
X45917498Y-30726669D02*
X46260355Y-30726669D01*
X46088926Y-30726669D02*
X46088926Y-30126669D01*
X46088926Y-30126669D02*
X46146069Y-30212383D01*
X46146069Y-30212383D02*
X46203212Y-30269526D01*
X46203212Y-30269526D02*
X46260355Y-30298098D01*
X93022371Y-83557143D02*
X92422371Y-83557143D01*
X92422371Y-83557143D02*
X92422371Y-83700000D01*
X92422371Y-83700000D02*
X92450942Y-83785714D01*
X92450942Y-83785714D02*
X92508085Y-83842857D01*
X92508085Y-83842857D02*
X92565228Y-83871428D01*
X92565228Y-83871428D02*
X92679514Y-83900000D01*
X92679514Y-83900000D02*
X92765228Y-83900000D01*
X92765228Y-83900000D02*
X92879514Y-83871428D01*
X92879514Y-83871428D02*
X92936657Y-83842857D01*
X92936657Y-83842857D02*
X92993800Y-83785714D01*
X92993800Y-83785714D02*
X93022371Y-83700000D01*
X93022371Y-83700000D02*
X93022371Y-83557143D01*
X92479514Y-84128571D02*
X92450942Y-84157143D01*
X92450942Y-84157143D02*
X92422371Y-84214286D01*
X92422371Y-84214286D02*
X92422371Y-84357143D01*
X92422371Y-84357143D02*
X92450942Y-84414286D01*
X92450942Y-84414286D02*
X92479514Y-84442857D01*
X92479514Y-84442857D02*
X92536657Y-84471428D01*
X92536657Y-84471428D02*
X92593800Y-84471428D01*
X92593800Y-84471428D02*
X92679514Y-84442857D01*
X92679514Y-84442857D02*
X93022371Y-84100000D01*
X93022371Y-84100000D02*
X93022371Y-84471428D01*
X52675488Y-40633572D02*
X52704060Y-40662144D01*
X52704060Y-40662144D02*
X52789774Y-40690715D01*
X52789774Y-40690715D02*
X52846917Y-40690715D01*
X52846917Y-40690715D02*
X52932631Y-40662144D01*
X52932631Y-40662144D02*
X52989774Y-40605001D01*
X52989774Y-40605001D02*
X53018345Y-40547858D01*
X53018345Y-40547858D02*
X53046917Y-40433572D01*
X53046917Y-40433572D02*
X53046917Y-40347858D01*
X53046917Y-40347858D02*
X53018345Y-40233572D01*
X53018345Y-40233572D02*
X52989774Y-40176429D01*
X52989774Y-40176429D02*
X52932631Y-40119286D01*
X52932631Y-40119286D02*
X52846917Y-40090715D01*
X52846917Y-40090715D02*
X52789774Y-40090715D01*
X52789774Y-40090715D02*
X52704060Y-40119286D01*
X52704060Y-40119286D02*
X52675488Y-40147858D01*
X52104060Y-40690715D02*
X52446917Y-40690715D01*
X52275488Y-40690715D02*
X52275488Y-40090715D01*
X52275488Y-40090715D02*
X52332631Y-40176429D01*
X52332631Y-40176429D02*
X52389774Y-40233572D01*
X52389774Y-40233572D02*
X52446917Y-40262144D01*
X51561202Y-40090715D02*
X51846916Y-40090715D01*
X51846916Y-40090715D02*
X51875488Y-40376429D01*
X51875488Y-40376429D02*
X51846916Y-40347858D01*
X51846916Y-40347858D02*
X51789774Y-40319286D01*
X51789774Y-40319286D02*
X51646916Y-40319286D01*
X51646916Y-40319286D02*
X51589774Y-40347858D01*
X51589774Y-40347858D02*
X51561202Y-40376429D01*
X51561202Y-40376429D02*
X51532631Y-40433572D01*
X51532631Y-40433572D02*
X51532631Y-40576429D01*
X51532631Y-40576429D02*
X51561202Y-40633572D01*
X51561202Y-40633572D02*
X51589774Y-40662144D01*
X51589774Y-40662144D02*
X51646916Y-40690715D01*
X51646916Y-40690715D02*
X51789774Y-40690715D01*
X51789774Y-40690715D02*
X51846916Y-40662144D01*
X51846916Y-40662144D02*
X51875488Y-40633572D01*
X51984954Y-41766048D02*
X52013526Y-41794620D01*
X52013526Y-41794620D02*
X52099240Y-41823191D01*
X52099240Y-41823191D02*
X52156383Y-41823191D01*
X52156383Y-41823191D02*
X52242097Y-41794620D01*
X52242097Y-41794620D02*
X52299240Y-41737477D01*
X52299240Y-41737477D02*
X52327811Y-41680334D01*
X52327811Y-41680334D02*
X52356383Y-41566048D01*
X52356383Y-41566048D02*
X52356383Y-41480334D01*
X52356383Y-41480334D02*
X52327811Y-41366048D01*
X52327811Y-41366048D02*
X52299240Y-41308905D01*
X52299240Y-41308905D02*
X52242097Y-41251762D01*
X52242097Y-41251762D02*
X52156383Y-41223191D01*
X52156383Y-41223191D02*
X52099240Y-41223191D01*
X52099240Y-41223191D02*
X52013526Y-41251762D01*
X52013526Y-41251762D02*
X51984954Y-41280334D01*
X51756383Y-41280334D02*
X51727811Y-41251762D01*
X51727811Y-41251762D02*
X51670669Y-41223191D01*
X51670669Y-41223191D02*
X51527811Y-41223191D01*
X51527811Y-41223191D02*
X51470669Y-41251762D01*
X51470669Y-41251762D02*
X51442097Y-41280334D01*
X51442097Y-41280334D02*
X51413526Y-41337477D01*
X51413526Y-41337477D02*
X51413526Y-41394620D01*
X51413526Y-41394620D02*
X51442097Y-41480334D01*
X51442097Y-41480334D02*
X51784954Y-41823191D01*
X51784954Y-41823191D02*
X51413526Y-41823191D01*
X50899240Y-41423191D02*
X50899240Y-41823191D01*
X51042097Y-41194620D02*
X51184954Y-41623191D01*
X51184954Y-41623191D02*
X50813525Y-41623191D01*
X51984954Y-55694487D02*
X52013526Y-55723059D01*
X52013526Y-55723059D02*
X52099240Y-55751630D01*
X52099240Y-55751630D02*
X52156383Y-55751630D01*
X52156383Y-55751630D02*
X52242097Y-55723059D01*
X52242097Y-55723059D02*
X52299240Y-55665916D01*
X52299240Y-55665916D02*
X52327811Y-55608773D01*
X52327811Y-55608773D02*
X52356383Y-55494487D01*
X52356383Y-55494487D02*
X52356383Y-55408773D01*
X52356383Y-55408773D02*
X52327811Y-55294487D01*
X52327811Y-55294487D02*
X52299240Y-55237344D01*
X52299240Y-55237344D02*
X52242097Y-55180201D01*
X52242097Y-55180201D02*
X52156383Y-55151630D01*
X52156383Y-55151630D02*
X52099240Y-55151630D01*
X52099240Y-55151630D02*
X52013526Y-55180201D01*
X52013526Y-55180201D02*
X51984954Y-55208773D01*
X51756383Y-55208773D02*
X51727811Y-55180201D01*
X51727811Y-55180201D02*
X51670669Y-55151630D01*
X51670669Y-55151630D02*
X51527811Y-55151630D01*
X51527811Y-55151630D02*
X51470669Y-55180201D01*
X51470669Y-55180201D02*
X51442097Y-55208773D01*
X51442097Y-55208773D02*
X51413526Y-55265916D01*
X51413526Y-55265916D02*
X51413526Y-55323059D01*
X51413526Y-55323059D02*
X51442097Y-55408773D01*
X51442097Y-55408773D02*
X51784954Y-55751630D01*
X51784954Y-55751630D02*
X51413526Y-55751630D01*
X50842097Y-55751630D02*
X51184954Y-55751630D01*
X51013525Y-55751630D02*
X51013525Y-55151630D01*
X51013525Y-55151630D02*
X51070668Y-55237344D01*
X51070668Y-55237344D02*
X51127811Y-55294487D01*
X51127811Y-55294487D02*
X51184954Y-55323059D01*
X80433279Y-64737035D02*
X80461851Y-64765607D01*
X80461851Y-64765607D02*
X80547565Y-64794178D01*
X80547565Y-64794178D02*
X80604708Y-64794178D01*
X80604708Y-64794178D02*
X80690422Y-64765607D01*
X80690422Y-64765607D02*
X80747565Y-64708464D01*
X80747565Y-64708464D02*
X80776136Y-64651321D01*
X80776136Y-64651321D02*
X80804708Y-64537035D01*
X80804708Y-64537035D02*
X80804708Y-64451321D01*
X80804708Y-64451321D02*
X80776136Y-64337035D01*
X80776136Y-64337035D02*
X80747565Y-64279892D01*
X80747565Y-64279892D02*
X80690422Y-64222749D01*
X80690422Y-64222749D02*
X80604708Y-64194178D01*
X80604708Y-64194178D02*
X80547565Y-64194178D01*
X80547565Y-64194178D02*
X80461851Y-64222749D01*
X80461851Y-64222749D02*
X80433279Y-64251321D01*
X79890422Y-64194178D02*
X80176136Y-64194178D01*
X80176136Y-64194178D02*
X80204708Y-64479892D01*
X80204708Y-64479892D02*
X80176136Y-64451321D01*
X80176136Y-64451321D02*
X80118994Y-64422749D01*
X80118994Y-64422749D02*
X79976136Y-64422749D01*
X79976136Y-64422749D02*
X79918994Y-64451321D01*
X79918994Y-64451321D02*
X79890422Y-64479892D01*
X79890422Y-64479892D02*
X79861851Y-64537035D01*
X79861851Y-64537035D02*
X79861851Y-64679892D01*
X79861851Y-64679892D02*
X79890422Y-64737035D01*
X79890422Y-64737035D02*
X79918994Y-64765607D01*
X79918994Y-64765607D02*
X79976136Y-64794178D01*
X79976136Y-64794178D02*
X80118994Y-64794178D01*
X80118994Y-64794178D02*
X80176136Y-64765607D01*
X80176136Y-64765607D02*
X80204708Y-64737035D01*
X52820864Y-28745926D02*
X53020864Y-28460212D01*
X53163721Y-28745926D02*
X53163721Y-28145926D01*
X53163721Y-28145926D02*
X52935150Y-28145926D01*
X52935150Y-28145926D02*
X52878007Y-28174497D01*
X52878007Y-28174497D02*
X52849436Y-28203069D01*
X52849436Y-28203069D02*
X52820864Y-28260212D01*
X52820864Y-28260212D02*
X52820864Y-28345926D01*
X52820864Y-28345926D02*
X52849436Y-28403069D01*
X52849436Y-28403069D02*
X52878007Y-28431640D01*
X52878007Y-28431640D02*
X52935150Y-28460212D01*
X52935150Y-28460212D02*
X53163721Y-28460212D01*
X52592293Y-28203069D02*
X52563721Y-28174497D01*
X52563721Y-28174497D02*
X52506579Y-28145926D01*
X52506579Y-28145926D02*
X52363721Y-28145926D01*
X52363721Y-28145926D02*
X52306579Y-28174497D01*
X52306579Y-28174497D02*
X52278007Y-28203069D01*
X52278007Y-28203069D02*
X52249436Y-28260212D01*
X52249436Y-28260212D02*
X52249436Y-28317355D01*
X52249436Y-28317355D02*
X52278007Y-28403069D01*
X52278007Y-28403069D02*
X52620864Y-28745926D01*
X52620864Y-28745926D02*
X52249436Y-28745926D01*
X51963721Y-28745926D02*
X51849435Y-28745926D01*
X51849435Y-28745926D02*
X51792292Y-28717355D01*
X51792292Y-28717355D02*
X51763721Y-28688783D01*
X51763721Y-28688783D02*
X51706578Y-28603069D01*
X51706578Y-28603069D02*
X51678007Y-28488783D01*
X51678007Y-28488783D02*
X51678007Y-28260212D01*
X51678007Y-28260212D02*
X51706578Y-28203069D01*
X51706578Y-28203069D02*
X51735150Y-28174497D01*
X51735150Y-28174497D02*
X51792292Y-28145926D01*
X51792292Y-28145926D02*
X51906578Y-28145926D01*
X51906578Y-28145926D02*
X51963721Y-28174497D01*
X51963721Y-28174497D02*
X51992292Y-28203069D01*
X51992292Y-28203069D02*
X52020864Y-28260212D01*
X52020864Y-28260212D02*
X52020864Y-28403069D01*
X52020864Y-28403069D02*
X51992292Y-28460212D01*
X51992292Y-28460212D02*
X51963721Y-28488783D01*
X51963721Y-28488783D02*
X51906578Y-28517355D01*
X51906578Y-28517355D02*
X51792292Y-28517355D01*
X51792292Y-28517355D02*
X51735150Y-28488783D01*
X51735150Y-28488783D02*
X51706578Y-28460212D01*
X51706578Y-28460212D02*
X51678007Y-28403069D01*
X93072371Y-29307143D02*
X92472371Y-29307143D01*
X92472371Y-29307143D02*
X92472371Y-29450000D01*
X92472371Y-29450000D02*
X92500942Y-29535714D01*
X92500942Y-29535714D02*
X92558085Y-29592857D01*
X92558085Y-29592857D02*
X92615228Y-29621428D01*
X92615228Y-29621428D02*
X92729514Y-29650000D01*
X92729514Y-29650000D02*
X92815228Y-29650000D01*
X92815228Y-29650000D02*
X92929514Y-29621428D01*
X92929514Y-29621428D02*
X92986657Y-29592857D01*
X92986657Y-29592857D02*
X93043800Y-29535714D01*
X93043800Y-29535714D02*
X93072371Y-29450000D01*
X93072371Y-29450000D02*
X93072371Y-29307143D01*
X92472371Y-29850000D02*
X92472371Y-30221428D01*
X92472371Y-30221428D02*
X92700942Y-30021428D01*
X92700942Y-30021428D02*
X92700942Y-30107143D01*
X92700942Y-30107143D02*
X92729514Y-30164286D01*
X92729514Y-30164286D02*
X92758085Y-30192857D01*
X92758085Y-30192857D02*
X92815228Y-30221428D01*
X92815228Y-30221428D02*
X92958085Y-30221428D01*
X92958085Y-30221428D02*
X93015228Y-30192857D01*
X93015228Y-30192857D02*
X93043800Y-30164286D01*
X93043800Y-30164286D02*
X93072371Y-30107143D01*
X93072371Y-30107143D02*
X93072371Y-29935714D01*
X93072371Y-29935714D02*
X93043800Y-29878571D01*
X93043800Y-29878571D02*
X93015228Y-29850000D01*
X57291164Y-40651744D02*
X57319736Y-40680316D01*
X57319736Y-40680316D02*
X57405450Y-40708887D01*
X57405450Y-40708887D02*
X57462593Y-40708887D01*
X57462593Y-40708887D02*
X57548307Y-40680316D01*
X57548307Y-40680316D02*
X57605450Y-40623173D01*
X57605450Y-40623173D02*
X57634021Y-40566030D01*
X57634021Y-40566030D02*
X57662593Y-40451744D01*
X57662593Y-40451744D02*
X57662593Y-40366030D01*
X57662593Y-40366030D02*
X57634021Y-40251744D01*
X57634021Y-40251744D02*
X57605450Y-40194601D01*
X57605450Y-40194601D02*
X57548307Y-40137458D01*
X57548307Y-40137458D02*
X57462593Y-40108887D01*
X57462593Y-40108887D02*
X57405450Y-40108887D01*
X57405450Y-40108887D02*
X57319736Y-40137458D01*
X57319736Y-40137458D02*
X57291164Y-40166030D01*
X56719736Y-40708887D02*
X57062593Y-40708887D01*
X56891164Y-40708887D02*
X56891164Y-40108887D01*
X56891164Y-40108887D02*
X56948307Y-40194601D01*
X56948307Y-40194601D02*
X57005450Y-40251744D01*
X57005450Y-40251744D02*
X57062593Y-40280316D01*
X56376878Y-40366030D02*
X56434021Y-40337458D01*
X56434021Y-40337458D02*
X56462592Y-40308887D01*
X56462592Y-40308887D02*
X56491164Y-40251744D01*
X56491164Y-40251744D02*
X56491164Y-40223173D01*
X56491164Y-40223173D02*
X56462592Y-40166030D01*
X56462592Y-40166030D02*
X56434021Y-40137458D01*
X56434021Y-40137458D02*
X56376878Y-40108887D01*
X56376878Y-40108887D02*
X56262592Y-40108887D01*
X56262592Y-40108887D02*
X56205450Y-40137458D01*
X56205450Y-40137458D02*
X56176878Y-40166030D01*
X56176878Y-40166030D02*
X56148307Y-40223173D01*
X56148307Y-40223173D02*
X56148307Y-40251744D01*
X56148307Y-40251744D02*
X56176878Y-40308887D01*
X56176878Y-40308887D02*
X56205450Y-40337458D01*
X56205450Y-40337458D02*
X56262592Y-40366030D01*
X56262592Y-40366030D02*
X56376878Y-40366030D01*
X56376878Y-40366030D02*
X56434021Y-40394601D01*
X56434021Y-40394601D02*
X56462592Y-40423173D01*
X56462592Y-40423173D02*
X56491164Y-40480316D01*
X56491164Y-40480316D02*
X56491164Y-40594601D01*
X56491164Y-40594601D02*
X56462592Y-40651744D01*
X56462592Y-40651744D02*
X56434021Y-40680316D01*
X56434021Y-40680316D02*
X56376878Y-40708887D01*
X56376878Y-40708887D02*
X56262592Y-40708887D01*
X56262592Y-40708887D02*
X56205450Y-40680316D01*
X56205450Y-40680316D02*
X56176878Y-40651744D01*
X56176878Y-40651744D02*
X56148307Y-40594601D01*
X56148307Y-40594601D02*
X56148307Y-40480316D01*
X56148307Y-40480316D02*
X56176878Y-40423173D01*
X56176878Y-40423173D02*
X56205450Y-40394601D01*
X56205450Y-40394601D02*
X56262592Y-40366030D01*
X56758085Y-44011392D02*
X56758085Y-43811392D01*
X57072371Y-43811392D02*
X56472371Y-43811392D01*
X56472371Y-43811392D02*
X56472371Y-44097106D01*
X56758085Y-44525678D02*
X56786657Y-44611392D01*
X56786657Y-44611392D02*
X56815228Y-44639963D01*
X56815228Y-44639963D02*
X56872371Y-44668535D01*
X56872371Y-44668535D02*
X56958085Y-44668535D01*
X56958085Y-44668535D02*
X57015228Y-44639963D01*
X57015228Y-44639963D02*
X57043800Y-44611392D01*
X57043800Y-44611392D02*
X57072371Y-44554249D01*
X57072371Y-44554249D02*
X57072371Y-44325678D01*
X57072371Y-44325678D02*
X56472371Y-44325678D01*
X56472371Y-44325678D02*
X56472371Y-44525678D01*
X56472371Y-44525678D02*
X56500942Y-44582821D01*
X56500942Y-44582821D02*
X56529514Y-44611392D01*
X56529514Y-44611392D02*
X56586657Y-44639963D01*
X56586657Y-44639963D02*
X56643800Y-44639963D01*
X56643800Y-44639963D02*
X56700942Y-44611392D01*
X56700942Y-44611392D02*
X56729514Y-44582821D01*
X56729514Y-44582821D02*
X56758085Y-44525678D01*
X56758085Y-44525678D02*
X56758085Y-44325678D01*
X56472371Y-44868535D02*
X56472371Y-45239963D01*
X56472371Y-45239963D02*
X56700942Y-45039963D01*
X56700942Y-45039963D02*
X56700942Y-45125678D01*
X56700942Y-45125678D02*
X56729514Y-45182821D01*
X56729514Y-45182821D02*
X56758085Y-45211392D01*
X56758085Y-45211392D02*
X56815228Y-45239963D01*
X56815228Y-45239963D02*
X56958085Y-45239963D01*
X56958085Y-45239963D02*
X57015228Y-45211392D01*
X57015228Y-45211392D02*
X57043800Y-45182821D01*
X57043800Y-45182821D02*
X57072371Y-45125678D01*
X57072371Y-45125678D02*
X57072371Y-44954249D01*
X57072371Y-44954249D02*
X57043800Y-44897106D01*
X57043800Y-44897106D02*
X57015228Y-44868535D01*
X49095613Y-51642141D02*
X49124185Y-51670713D01*
X49124185Y-51670713D02*
X49209899Y-51699284D01*
X49209899Y-51699284D02*
X49267042Y-51699284D01*
X49267042Y-51699284D02*
X49352756Y-51670713D01*
X49352756Y-51670713D02*
X49409899Y-51613570D01*
X49409899Y-51613570D02*
X49438470Y-51556427D01*
X49438470Y-51556427D02*
X49467042Y-51442141D01*
X49467042Y-51442141D02*
X49467042Y-51356427D01*
X49467042Y-51356427D02*
X49438470Y-51242141D01*
X49438470Y-51242141D02*
X49409899Y-51184998D01*
X49409899Y-51184998D02*
X49352756Y-51127855D01*
X49352756Y-51127855D02*
X49267042Y-51099284D01*
X49267042Y-51099284D02*
X49209899Y-51099284D01*
X49209899Y-51099284D02*
X49124185Y-51127855D01*
X49124185Y-51127855D02*
X49095613Y-51156427D01*
X48867042Y-51156427D02*
X48838470Y-51127855D01*
X48838470Y-51127855D02*
X48781328Y-51099284D01*
X48781328Y-51099284D02*
X48638470Y-51099284D01*
X48638470Y-51099284D02*
X48581328Y-51127855D01*
X48581328Y-51127855D02*
X48552756Y-51156427D01*
X48552756Y-51156427D02*
X48524185Y-51213570D01*
X48524185Y-51213570D02*
X48524185Y-51270713D01*
X48524185Y-51270713D02*
X48552756Y-51356427D01*
X48552756Y-51356427D02*
X48895613Y-51699284D01*
X48895613Y-51699284D02*
X48524185Y-51699284D01*
X48295613Y-51156427D02*
X48267041Y-51127855D01*
X48267041Y-51127855D02*
X48209899Y-51099284D01*
X48209899Y-51099284D02*
X48067041Y-51099284D01*
X48067041Y-51099284D02*
X48009899Y-51127855D01*
X48009899Y-51127855D02*
X47981327Y-51156427D01*
X47981327Y-51156427D02*
X47952756Y-51213570D01*
X47952756Y-51213570D02*
X47952756Y-51270713D01*
X47952756Y-51270713D02*
X47981327Y-51356427D01*
X47981327Y-51356427D02*
X48324184Y-51699284D01*
X48324184Y-51699284D02*
X47952756Y-51699284D01*
X82785714Y-67215228D02*
X82814286Y-67243800D01*
X82814286Y-67243800D02*
X82900000Y-67272371D01*
X82900000Y-67272371D02*
X82957143Y-67272371D01*
X82957143Y-67272371D02*
X83042857Y-67243800D01*
X83042857Y-67243800D02*
X83100000Y-67186657D01*
X83100000Y-67186657D02*
X83128571Y-67129514D01*
X83128571Y-67129514D02*
X83157143Y-67015228D01*
X83157143Y-67015228D02*
X83157143Y-66929514D01*
X83157143Y-66929514D02*
X83128571Y-66815228D01*
X83128571Y-66815228D02*
X83100000Y-66758085D01*
X83100000Y-66758085D02*
X83042857Y-66700942D01*
X83042857Y-66700942D02*
X82957143Y-66672371D01*
X82957143Y-66672371D02*
X82900000Y-66672371D01*
X82900000Y-66672371D02*
X82814286Y-66700942D01*
X82814286Y-66700942D02*
X82785714Y-66729514D01*
X82585714Y-66672371D02*
X82214286Y-66672371D01*
X82214286Y-66672371D02*
X82414286Y-66900942D01*
X82414286Y-66900942D02*
X82328571Y-66900942D01*
X82328571Y-66900942D02*
X82271429Y-66929514D01*
X82271429Y-66929514D02*
X82242857Y-66958085D01*
X82242857Y-66958085D02*
X82214286Y-67015228D01*
X82214286Y-67015228D02*
X82214286Y-67158085D01*
X82214286Y-67158085D02*
X82242857Y-67215228D01*
X82242857Y-67215228D02*
X82271429Y-67243800D01*
X82271429Y-67243800D02*
X82328571Y-67272371D01*
X82328571Y-67272371D02*
X82500000Y-67272371D01*
X82500000Y-67272371D02*
X82557143Y-67243800D01*
X82557143Y-67243800D02*
X82585714Y-67215228D01*
X81985714Y-66729514D02*
X81957142Y-66700942D01*
X81957142Y-66700942D02*
X81900000Y-66672371D01*
X81900000Y-66672371D02*
X81757142Y-66672371D01*
X81757142Y-66672371D02*
X81700000Y-66700942D01*
X81700000Y-66700942D02*
X81671428Y-66729514D01*
X81671428Y-66729514D02*
X81642857Y-66786657D01*
X81642857Y-66786657D02*
X81642857Y-66843800D01*
X81642857Y-66843800D02*
X81671428Y-66929514D01*
X81671428Y-66929514D02*
X82014285Y-67272371D01*
X82014285Y-67272371D02*
X81642857Y-67272371D01*
X60185714Y-28215228D02*
X60214286Y-28243800D01*
X60214286Y-28243800D02*
X60300000Y-28272371D01*
X60300000Y-28272371D02*
X60357143Y-28272371D01*
X60357143Y-28272371D02*
X60442857Y-28243800D01*
X60442857Y-28243800D02*
X60500000Y-28186657D01*
X60500000Y-28186657D02*
X60528571Y-28129514D01*
X60528571Y-28129514D02*
X60557143Y-28015228D01*
X60557143Y-28015228D02*
X60557143Y-27929514D01*
X60557143Y-27929514D02*
X60528571Y-27815228D01*
X60528571Y-27815228D02*
X60500000Y-27758085D01*
X60500000Y-27758085D02*
X60442857Y-27700942D01*
X60442857Y-27700942D02*
X60357143Y-27672371D01*
X60357143Y-27672371D02*
X60300000Y-27672371D01*
X60300000Y-27672371D02*
X60214286Y-27700942D01*
X60214286Y-27700942D02*
X60185714Y-27729514D01*
X59614286Y-28272371D02*
X59957143Y-28272371D01*
X59785714Y-28272371D02*
X59785714Y-27672371D01*
X59785714Y-27672371D02*
X59842857Y-27758085D01*
X59842857Y-27758085D02*
X59900000Y-27815228D01*
X59900000Y-27815228D02*
X59957143Y-27843800D01*
X59328571Y-28272371D02*
X59214285Y-28272371D01*
X59214285Y-28272371D02*
X59157142Y-28243800D01*
X59157142Y-28243800D02*
X59128571Y-28215228D01*
X59128571Y-28215228D02*
X59071428Y-28129514D01*
X59071428Y-28129514D02*
X59042857Y-28015228D01*
X59042857Y-28015228D02*
X59042857Y-27786657D01*
X59042857Y-27786657D02*
X59071428Y-27729514D01*
X59071428Y-27729514D02*
X59100000Y-27700942D01*
X59100000Y-27700942D02*
X59157142Y-27672371D01*
X59157142Y-27672371D02*
X59271428Y-27672371D01*
X59271428Y-27672371D02*
X59328571Y-27700942D01*
X59328571Y-27700942D02*
X59357142Y-27729514D01*
X59357142Y-27729514D02*
X59385714Y-27786657D01*
X59385714Y-27786657D02*
X59385714Y-27929514D01*
X59385714Y-27929514D02*
X59357142Y-27986657D01*
X59357142Y-27986657D02*
X59328571Y-28015228D01*
X59328571Y-28015228D02*
X59271428Y-28043800D01*
X59271428Y-28043800D02*
X59157142Y-28043800D01*
X59157142Y-28043800D02*
X59100000Y-28015228D01*
X59100000Y-28015228D02*
X59071428Y-27986657D01*
X59071428Y-27986657D02*
X59042857Y-27929514D01*
X93072371Y-60057143D02*
X92472371Y-60057143D01*
X92472371Y-60057143D02*
X92472371Y-60200000D01*
X92472371Y-60200000D02*
X92500942Y-60285714D01*
X92500942Y-60285714D02*
X92558085Y-60342857D01*
X92558085Y-60342857D02*
X92615228Y-60371428D01*
X92615228Y-60371428D02*
X92729514Y-60400000D01*
X92729514Y-60400000D02*
X92815228Y-60400000D01*
X92815228Y-60400000D02*
X92929514Y-60371428D01*
X92929514Y-60371428D02*
X92986657Y-60342857D01*
X92986657Y-60342857D02*
X93043800Y-60285714D01*
X93043800Y-60285714D02*
X93072371Y-60200000D01*
X93072371Y-60200000D02*
X93072371Y-60057143D01*
X93072371Y-60971428D02*
X93072371Y-60628571D01*
X93072371Y-60800000D02*
X92472371Y-60800000D01*
X92472371Y-60800000D02*
X92558085Y-60742857D01*
X92558085Y-60742857D02*
X92615228Y-60685714D01*
X92615228Y-60685714D02*
X92643800Y-60628571D01*
X82799002Y-36709276D02*
X82827574Y-36737848D01*
X82827574Y-36737848D02*
X82913288Y-36766419D01*
X82913288Y-36766419D02*
X82970431Y-36766419D01*
X82970431Y-36766419D02*
X83056145Y-36737848D01*
X83056145Y-36737848D02*
X83113288Y-36680705D01*
X83113288Y-36680705D02*
X83141859Y-36623562D01*
X83141859Y-36623562D02*
X83170431Y-36509276D01*
X83170431Y-36509276D02*
X83170431Y-36423562D01*
X83170431Y-36423562D02*
X83141859Y-36309276D01*
X83141859Y-36309276D02*
X83113288Y-36252133D01*
X83113288Y-36252133D02*
X83056145Y-36194990D01*
X83056145Y-36194990D02*
X82970431Y-36166419D01*
X82970431Y-36166419D02*
X82913288Y-36166419D01*
X82913288Y-36166419D02*
X82827574Y-36194990D01*
X82827574Y-36194990D02*
X82799002Y-36223562D01*
X82599002Y-36166419D02*
X82227574Y-36166419D01*
X82227574Y-36166419D02*
X82427574Y-36394990D01*
X82427574Y-36394990D02*
X82341859Y-36394990D01*
X82341859Y-36394990D02*
X82284717Y-36423562D01*
X82284717Y-36423562D02*
X82256145Y-36452133D01*
X82256145Y-36452133D02*
X82227574Y-36509276D01*
X82227574Y-36509276D02*
X82227574Y-36652133D01*
X82227574Y-36652133D02*
X82256145Y-36709276D01*
X82256145Y-36709276D02*
X82284717Y-36737848D01*
X82284717Y-36737848D02*
X82341859Y-36766419D01*
X82341859Y-36766419D02*
X82513288Y-36766419D01*
X82513288Y-36766419D02*
X82570431Y-36737848D01*
X82570431Y-36737848D02*
X82599002Y-36709276D01*
X82027573Y-36166419D02*
X81656145Y-36166419D01*
X81656145Y-36166419D02*
X81856145Y-36394990D01*
X81856145Y-36394990D02*
X81770430Y-36394990D01*
X81770430Y-36394990D02*
X81713288Y-36423562D01*
X81713288Y-36423562D02*
X81684716Y-36452133D01*
X81684716Y-36452133D02*
X81656145Y-36509276D01*
X81656145Y-36509276D02*
X81656145Y-36652133D01*
X81656145Y-36652133D02*
X81684716Y-36709276D01*
X81684716Y-36709276D02*
X81713288Y-36737848D01*
X81713288Y-36737848D02*
X81770430Y-36766419D01*
X81770430Y-36766419D02*
X81941859Y-36766419D01*
X81941859Y-36766419D02*
X81999002Y-36737848D01*
X81999002Y-36737848D02*
X82027573Y-36709276D01*
X75275814Y-34256062D02*
X75304386Y-34284634D01*
X75304386Y-34284634D02*
X75390100Y-34313205D01*
X75390100Y-34313205D02*
X75447243Y-34313205D01*
X75447243Y-34313205D02*
X75532957Y-34284634D01*
X75532957Y-34284634D02*
X75590100Y-34227491D01*
X75590100Y-34227491D02*
X75618671Y-34170348D01*
X75618671Y-34170348D02*
X75647243Y-34056062D01*
X75647243Y-34056062D02*
X75647243Y-33970348D01*
X75647243Y-33970348D02*
X75618671Y-33856062D01*
X75618671Y-33856062D02*
X75590100Y-33798919D01*
X75590100Y-33798919D02*
X75532957Y-33741776D01*
X75532957Y-33741776D02*
X75447243Y-33713205D01*
X75447243Y-33713205D02*
X75390100Y-33713205D01*
X75390100Y-33713205D02*
X75304386Y-33741776D01*
X75304386Y-33741776D02*
X75275814Y-33770348D01*
X74704386Y-34313205D02*
X75047243Y-34313205D01*
X74875814Y-34313205D02*
X74875814Y-33713205D01*
X74875814Y-33713205D02*
X74932957Y-33798919D01*
X74932957Y-33798919D02*
X74990100Y-33856062D01*
X74990100Y-33856062D02*
X75047243Y-33884634D01*
X74190100Y-33913205D02*
X74190100Y-34313205D01*
X74332957Y-33684634D02*
X74475814Y-34113205D01*
X74475814Y-34113205D02*
X74104385Y-34113205D01*
X52675488Y-35200158D02*
X52704060Y-35228730D01*
X52704060Y-35228730D02*
X52789774Y-35257301D01*
X52789774Y-35257301D02*
X52846917Y-35257301D01*
X52846917Y-35257301D02*
X52932631Y-35228730D01*
X52932631Y-35228730D02*
X52989774Y-35171587D01*
X52989774Y-35171587D02*
X53018345Y-35114444D01*
X53018345Y-35114444D02*
X53046917Y-35000158D01*
X53046917Y-35000158D02*
X53046917Y-34914444D01*
X53046917Y-34914444D02*
X53018345Y-34800158D01*
X53018345Y-34800158D02*
X52989774Y-34743015D01*
X52989774Y-34743015D02*
X52932631Y-34685872D01*
X52932631Y-34685872D02*
X52846917Y-34657301D01*
X52846917Y-34657301D02*
X52789774Y-34657301D01*
X52789774Y-34657301D02*
X52704060Y-34685872D01*
X52704060Y-34685872D02*
X52675488Y-34714444D01*
X52104060Y-35257301D02*
X52446917Y-35257301D01*
X52275488Y-35257301D02*
X52275488Y-34657301D01*
X52275488Y-34657301D02*
X52332631Y-34743015D01*
X52332631Y-34743015D02*
X52389774Y-34800158D01*
X52389774Y-34800158D02*
X52446917Y-34828730D01*
X51589774Y-34657301D02*
X51704059Y-34657301D01*
X51704059Y-34657301D02*
X51761202Y-34685872D01*
X51761202Y-34685872D02*
X51789774Y-34714444D01*
X51789774Y-34714444D02*
X51846916Y-34800158D01*
X51846916Y-34800158D02*
X51875488Y-34914444D01*
X51875488Y-34914444D02*
X51875488Y-35143015D01*
X51875488Y-35143015D02*
X51846916Y-35200158D01*
X51846916Y-35200158D02*
X51818345Y-35228730D01*
X51818345Y-35228730D02*
X51761202Y-35257301D01*
X51761202Y-35257301D02*
X51646916Y-35257301D01*
X51646916Y-35257301D02*
X51589774Y-35228730D01*
X51589774Y-35228730D02*
X51561202Y-35200158D01*
X51561202Y-35200158D02*
X51532631Y-35143015D01*
X51532631Y-35143015D02*
X51532631Y-35000158D01*
X51532631Y-35000158D02*
X51561202Y-34943015D01*
X51561202Y-34943015D02*
X51589774Y-34914444D01*
X51589774Y-34914444D02*
X51646916Y-34885872D01*
X51646916Y-34885872D02*
X51761202Y-34885872D01*
X51761202Y-34885872D02*
X51818345Y-34914444D01*
X51818345Y-34914444D02*
X51846916Y-34943015D01*
X51846916Y-34943015D02*
X51875488Y-35000158D01*
X60125989Y-36672086D02*
X60154561Y-36700658D01*
X60154561Y-36700658D02*
X60240275Y-36729229D01*
X60240275Y-36729229D02*
X60297418Y-36729229D01*
X60297418Y-36729229D02*
X60383132Y-36700658D01*
X60383132Y-36700658D02*
X60440275Y-36643515D01*
X60440275Y-36643515D02*
X60468846Y-36586372D01*
X60468846Y-36586372D02*
X60497418Y-36472086D01*
X60497418Y-36472086D02*
X60497418Y-36386372D01*
X60497418Y-36386372D02*
X60468846Y-36272086D01*
X60468846Y-36272086D02*
X60440275Y-36214943D01*
X60440275Y-36214943D02*
X60383132Y-36157800D01*
X60383132Y-36157800D02*
X60297418Y-36129229D01*
X60297418Y-36129229D02*
X60240275Y-36129229D01*
X60240275Y-36129229D02*
X60154561Y-36157800D01*
X60154561Y-36157800D02*
X60125989Y-36186372D01*
X59897418Y-36186372D02*
X59868846Y-36157800D01*
X59868846Y-36157800D02*
X59811704Y-36129229D01*
X59811704Y-36129229D02*
X59668846Y-36129229D01*
X59668846Y-36129229D02*
X59611704Y-36157800D01*
X59611704Y-36157800D02*
X59583132Y-36186372D01*
X59583132Y-36186372D02*
X59554561Y-36243515D01*
X59554561Y-36243515D02*
X59554561Y-36300658D01*
X59554561Y-36300658D02*
X59583132Y-36386372D01*
X59583132Y-36386372D02*
X59925989Y-36729229D01*
X59925989Y-36729229D02*
X59554561Y-36729229D01*
X59183132Y-36129229D02*
X59125989Y-36129229D01*
X59125989Y-36129229D02*
X59068846Y-36157800D01*
X59068846Y-36157800D02*
X59040275Y-36186372D01*
X59040275Y-36186372D02*
X59011703Y-36243515D01*
X59011703Y-36243515D02*
X58983132Y-36357800D01*
X58983132Y-36357800D02*
X58983132Y-36500658D01*
X58983132Y-36500658D02*
X59011703Y-36614943D01*
X59011703Y-36614943D02*
X59040275Y-36672086D01*
X59040275Y-36672086D02*
X59068846Y-36700658D01*
X59068846Y-36700658D02*
X59125989Y-36729229D01*
X59125989Y-36729229D02*
X59183132Y-36729229D01*
X59183132Y-36729229D02*
X59240275Y-36700658D01*
X59240275Y-36700658D02*
X59268846Y-36672086D01*
X59268846Y-36672086D02*
X59297417Y-36614943D01*
X59297417Y-36614943D02*
X59325989Y-36500658D01*
X59325989Y-36500658D02*
X59325989Y-36357800D01*
X59325989Y-36357800D02*
X59297417Y-36243515D01*
X59297417Y-36243515D02*
X59268846Y-36186372D01*
X59268846Y-36186372D02*
X59240275Y-36157800D01*
X59240275Y-36157800D02*
X59183132Y-36129229D01*
X55228060Y-49164234D02*
X55228060Y-48964234D01*
X55542346Y-48964234D02*
X54942346Y-48964234D01*
X54942346Y-48964234D02*
X54942346Y-49249948D01*
X55228060Y-49678520D02*
X55256632Y-49764234D01*
X55256632Y-49764234D02*
X55285203Y-49792805D01*
X55285203Y-49792805D02*
X55342346Y-49821377D01*
X55342346Y-49821377D02*
X55428060Y-49821377D01*
X55428060Y-49821377D02*
X55485203Y-49792805D01*
X55485203Y-49792805D02*
X55513775Y-49764234D01*
X55513775Y-49764234D02*
X55542346Y-49707091D01*
X55542346Y-49707091D02*
X55542346Y-49478520D01*
X55542346Y-49478520D02*
X54942346Y-49478520D01*
X54942346Y-49478520D02*
X54942346Y-49678520D01*
X54942346Y-49678520D02*
X54970917Y-49735663D01*
X54970917Y-49735663D02*
X54999489Y-49764234D01*
X54999489Y-49764234D02*
X55056632Y-49792805D01*
X55056632Y-49792805D02*
X55113775Y-49792805D01*
X55113775Y-49792805D02*
X55170917Y-49764234D01*
X55170917Y-49764234D02*
X55199489Y-49735663D01*
X55199489Y-49735663D02*
X55228060Y-49678520D01*
X55228060Y-49678520D02*
X55228060Y-49478520D01*
X54999489Y-50049948D02*
X54970917Y-50078520D01*
X54970917Y-50078520D02*
X54942346Y-50135663D01*
X54942346Y-50135663D02*
X54942346Y-50278520D01*
X54942346Y-50278520D02*
X54970917Y-50335663D01*
X54970917Y-50335663D02*
X54999489Y-50364234D01*
X54999489Y-50364234D02*
X55056632Y-50392805D01*
X55056632Y-50392805D02*
X55113775Y-50392805D01*
X55113775Y-50392805D02*
X55199489Y-50364234D01*
X55199489Y-50364234D02*
X55542346Y-50021377D01*
X55542346Y-50021377D02*
X55542346Y-50392805D01*
X75985714Y-39215228D02*
X76014286Y-39243800D01*
X76014286Y-39243800D02*
X76100000Y-39272371D01*
X76100000Y-39272371D02*
X76157143Y-39272371D01*
X76157143Y-39272371D02*
X76242857Y-39243800D01*
X76242857Y-39243800D02*
X76300000Y-39186657D01*
X76300000Y-39186657D02*
X76328571Y-39129514D01*
X76328571Y-39129514D02*
X76357143Y-39015228D01*
X76357143Y-39015228D02*
X76357143Y-38929514D01*
X76357143Y-38929514D02*
X76328571Y-38815228D01*
X76328571Y-38815228D02*
X76300000Y-38758085D01*
X76300000Y-38758085D02*
X76242857Y-38700942D01*
X76242857Y-38700942D02*
X76157143Y-38672371D01*
X76157143Y-38672371D02*
X76100000Y-38672371D01*
X76100000Y-38672371D02*
X76014286Y-38700942D01*
X76014286Y-38700942D02*
X75985714Y-38729514D01*
X75785714Y-38672371D02*
X75414286Y-38672371D01*
X75414286Y-38672371D02*
X75614286Y-38900942D01*
X75614286Y-38900942D02*
X75528571Y-38900942D01*
X75528571Y-38900942D02*
X75471429Y-38929514D01*
X75471429Y-38929514D02*
X75442857Y-38958085D01*
X75442857Y-38958085D02*
X75414286Y-39015228D01*
X75414286Y-39015228D02*
X75414286Y-39158085D01*
X75414286Y-39158085D02*
X75442857Y-39215228D01*
X75442857Y-39215228D02*
X75471429Y-39243800D01*
X75471429Y-39243800D02*
X75528571Y-39272371D01*
X75528571Y-39272371D02*
X75700000Y-39272371D01*
X75700000Y-39272371D02*
X75757143Y-39243800D01*
X75757143Y-39243800D02*
X75785714Y-39215228D01*
X75042857Y-38672371D02*
X74985714Y-38672371D01*
X74985714Y-38672371D02*
X74928571Y-38700942D01*
X74928571Y-38700942D02*
X74900000Y-38729514D01*
X74900000Y-38729514D02*
X74871428Y-38786657D01*
X74871428Y-38786657D02*
X74842857Y-38900942D01*
X74842857Y-38900942D02*
X74842857Y-39043800D01*
X74842857Y-39043800D02*
X74871428Y-39158085D01*
X74871428Y-39158085D02*
X74900000Y-39215228D01*
X74900000Y-39215228D02*
X74928571Y-39243800D01*
X74928571Y-39243800D02*
X74985714Y-39272371D01*
X74985714Y-39272371D02*
X75042857Y-39272371D01*
X75042857Y-39272371D02*
X75100000Y-39243800D01*
X75100000Y-39243800D02*
X75128571Y-39215228D01*
X75128571Y-39215228D02*
X75157142Y-39158085D01*
X75157142Y-39158085D02*
X75185714Y-39043800D01*
X75185714Y-39043800D02*
X75185714Y-38900942D01*
X75185714Y-38900942D02*
X75157142Y-38786657D01*
X75157142Y-38786657D02*
X75128571Y-38729514D01*
X75128571Y-38729514D02*
X75100000Y-38700942D01*
X75100000Y-38700942D02*
X75042857Y-38672371D01*
D12*
%TO.C,FB1*%
X46765000Y-41772936D02*
X46765000Y-42227064D01*
X48235000Y-41772936D02*
X48235000Y-42227064D01*
%TO.C,D4*%
X90900000Y-52240000D02*
X90900000Y-54200000D01*
X92100000Y-52240000D02*
X90900000Y-52240000D01*
X92100000Y-52240000D02*
X92100000Y-54200000D01*
%TO.C,TP4*%
X49195570Y-45598024D02*
G75*
G02*
X47795570Y-45598024I-700000J0D01*
G01*
X47795570Y-45598024D02*
G75*
G02*
X49195570Y-45598024I700000J0D01*
G01*
%TO.C,SW1*%
X31790000Y-43690000D02*
X38610000Y-43690000D01*
X31790000Y-45000000D02*
X31790000Y-43690000D01*
X31790000Y-47910000D02*
X31790000Y-46600000D01*
X31790000Y-47910000D02*
X38610000Y-47910000D01*
X33390000Y-45165000D02*
X33390000Y-46435000D01*
X33390000Y-46435000D02*
X37010000Y-46435000D01*
X35803333Y-45285000D02*
X37010000Y-45285000D01*
X35803333Y-45405000D02*
X37010000Y-45405000D01*
X35803333Y-45525000D02*
X37010000Y-45525000D01*
X35803333Y-45645000D02*
X37010000Y-45645000D01*
X35803333Y-45765000D02*
X37010000Y-45765000D01*
X35803333Y-45885000D02*
X37010000Y-45885000D01*
X35803333Y-46005000D02*
X37010000Y-46005000D01*
X35803333Y-46125000D02*
X37010000Y-46125000D01*
X35803333Y-46245000D02*
X37010000Y-46245000D01*
X35803333Y-46365000D02*
X37010000Y-46365000D01*
X35803333Y-46435000D02*
X35803333Y-45165000D01*
X37010000Y-45165000D02*
X33390000Y-45165000D01*
X37010000Y-46435000D02*
X37010000Y-45165000D01*
X37467000Y-43450000D02*
X38850000Y-43450000D01*
X38610000Y-45000000D02*
X38610000Y-43690000D01*
X38610000Y-47910000D02*
X38610000Y-46600000D01*
X38850000Y-44833000D02*
X38850000Y-43450000D01*
%TO.C,C17*%
X56679905Y-29735510D02*
X57202409Y-29735510D01*
X56679905Y-31205510D02*
X57202409Y-31205510D01*
%TO.C,C23*%
X51845657Y-44776392D02*
X51323153Y-44776392D01*
X51845657Y-46246392D02*
X51323153Y-46246392D01*
%TO.C,C10*%
X78276248Y-68740000D02*
X78798752Y-68740000D01*
X78276248Y-70210000D02*
X78798752Y-70210000D01*
%TO.C,C6*%
X56261252Y-32265000D02*
X55738748Y-32265000D01*
X56261252Y-33735000D02*
X55738748Y-33735000D01*
%TO.C,R31*%
X50042311Y-29940000D02*
X49532863Y-29940000D01*
X50042311Y-30985000D02*
X49532863Y-30985000D01*
%TO.C,D2*%
X90900000Y-82740000D02*
X90900000Y-84700000D01*
X92100000Y-82740000D02*
X90900000Y-82740000D01*
X92100000Y-82740000D02*
X92100000Y-84700000D01*
%TO.C,C15*%
X52536252Y-38227500D02*
X52013748Y-38227500D01*
X52536252Y-39697500D02*
X52013748Y-39697500D01*
%TO.C,C24*%
X51845657Y-42227500D02*
X51323153Y-42227500D01*
X51845657Y-43697500D02*
X51323153Y-43697500D01*
%TO.C,C21*%
X51848752Y-53227500D02*
X51326248Y-53227500D01*
X51848752Y-54697500D02*
X51326248Y-54697500D01*
%TO.C,C5*%
X78009866Y-63789222D02*
X77487362Y-63789222D01*
X78009866Y-65259222D02*
X77487362Y-65259222D01*
%TO.C,R29*%
X50042311Y-27940000D02*
X49532863Y-27940000D01*
X50042311Y-28985000D02*
X49532863Y-28985000D01*
%TO.C,D3*%
X90900000Y-31010000D02*
X90900000Y-29050000D01*
X90900000Y-31010000D02*
X92100000Y-31010000D01*
X92100000Y-31010000D02*
X92100000Y-29050000D01*
%TO.C,C18*%
X56653188Y-38227500D02*
X57175692Y-38227500D01*
X56653188Y-39697500D02*
X57175692Y-39697500D01*
%TO.C,FB3*%
X54540000Y-44738456D02*
X54540000Y-44284328D01*
X56010000Y-44738456D02*
X56010000Y-44284328D01*
%TO.C,C22*%
X51848752Y-50727500D02*
X51326248Y-50727500D01*
X51848752Y-52197500D02*
X51326248Y-52197500D01*
%TO.C,C32*%
X78276248Y-66265000D02*
X78798752Y-66265000D01*
X78276248Y-67735000D02*
X78798752Y-67735000D01*
%TO.C,C19*%
X56679905Y-27235510D02*
X57202409Y-27235510D01*
X56679905Y-28705510D02*
X57202409Y-28705510D01*
%TO.C,D1*%
X90900000Y-61760000D02*
X90900000Y-59800000D01*
X90900000Y-61760000D02*
X92100000Y-61760000D01*
X92100000Y-61760000D02*
X92100000Y-59800000D01*
%TO.C,C33*%
X78238748Y-35765000D02*
X78761252Y-35765000D01*
X78238748Y-37235000D02*
X78761252Y-37235000D01*
%TO.C,C14*%
X77972697Y-33309052D02*
X77450193Y-33309052D01*
X77972697Y-34779052D02*
X77450193Y-34779052D01*
%TO.C,C16*%
X52536252Y-35727500D02*
X52013748Y-35727500D01*
X52536252Y-37197500D02*
X52013748Y-37197500D01*
%TO.C,C20*%
X56653188Y-35727500D02*
X57175692Y-35727500D01*
X56653188Y-37197500D02*
X57175692Y-37197500D01*
%TO.C,FB2*%
X54540000Y-52235436D02*
X54540000Y-52689564D01*
X56010000Y-52235436D02*
X56010000Y-52689564D01*
%TO.C,C30*%
X78238748Y-38265000D02*
X78761252Y-38265000D01*
X78238748Y-39735000D02*
X78761252Y-39735000D01*
%TD*%
M02*
