%TF.GenerationSoftware,KiCad,Pcbnew,8.0.2*%
%TF.CreationDate,2025-04-13T16:48:03+02:00*%
%TF.ProjectId,AES-DAC,4145532d-4441-4432-9e6b-696361645f70,rev?*%
%TF.SameCoordinates,Original*%
%TF.FileFunction,Plated,1,4,PTH,Mixed*%
%TF.FilePolarity,Positive*%
%FSLAX46Y46*%
G04 Gerber Fmt 4.6, Leading zero omitted, Abs format (unit mm)*
G04 Created by KiCad (PCBNEW 8.0.2) date 2025-04-13 16:48:03*
%MOMM*%
%LPD*%
G01*
G04 APERTURE LIST*
%TA.AperFunction,ViaDrill*%
%ADD10C,0.200000*%
%TD*%
%TA.AperFunction,ViaDrill*%
%ADD11C,0.300000*%
%TD*%
%TA.AperFunction,ComponentDrill*%
%ADD12C,0.300000*%
%TD*%
%TA.AperFunction,ViaDrill*%
%ADD13C,0.400000*%
%TD*%
%TA.AperFunction,ComponentDrill*%
%ADD14C,0.800000*%
%TD*%
%TA.AperFunction,ComponentDrill*%
%ADD15C,0.900000*%
%TD*%
G04 aperture for slot hole*
%TA.AperFunction,ComponentDrill*%
%ADD16C,1.000000*%
%TD*%
%TA.AperFunction,ComponentDrill*%
%ADD17C,1.000000*%
%TD*%
%TA.AperFunction,ComponentDrill*%
%ADD18C,1.200000*%
%TD*%
%TA.AperFunction,ComponentDrill*%
%ADD19C,1.600000*%
%TD*%
G04 APERTURE END LIST*
D10*
X25500000Y-51500000D03*
X25747384Y-65294686D03*
X42999999Y-63418077D03*
X43284988Y-39327247D03*
X44227247Y-27540012D03*
X44227247Y-31540012D03*
X44275000Y-37962500D03*
X44699736Y-85212889D03*
X44800000Y-41600000D03*
X44800000Y-43800000D03*
X44800000Y-46000000D03*
X44800000Y-64750000D03*
X45803896Y-59857793D03*
X46275000Y-37462500D03*
X46500000Y-49500000D03*
X46500000Y-53000000D03*
X46600000Y-39600000D03*
X46727247Y-27540012D03*
X46727247Y-31540012D03*
X46775000Y-46600000D03*
X46800000Y-42000000D03*
X46800000Y-44200000D03*
X47098762Y-90860210D03*
X47211517Y-34557724D03*
X47360876Y-33376624D03*
X47400000Y-37800000D03*
X47425000Y-46962500D03*
X47677247Y-56577512D03*
X47754407Y-28451541D03*
X47754407Y-30451541D03*
X48250000Y-52500000D03*
X48500000Y-46750000D03*
X49000000Y-39000000D03*
X49227247Y-31540012D03*
X49775000Y-62462500D03*
X50700087Y-31962500D03*
X50750000Y-59637500D03*
X50750000Y-65375000D03*
X51350000Y-31600000D03*
X52200000Y-38400000D03*
X52275000Y-62462500D03*
X53250000Y-59637500D03*
X53250000Y-65375000D03*
X54775000Y-58662500D03*
X55750000Y-65375000D03*
X57275000Y-58575000D03*
X58250000Y-65287500D03*
X59101322Y-58000000D03*
X59200000Y-26000000D03*
X60400000Y-28400000D03*
X60600000Y-24600000D03*
X60750000Y-65375000D03*
X60800000Y-37400000D03*
X61800000Y-38400000D03*
X61800000Y-40200000D03*
X61800000Y-42800000D03*
X61800000Y-45200000D03*
X61800000Y-47800000D03*
X61800000Y-49800000D03*
X61800000Y-51800000D03*
X61800000Y-53800000D03*
X62000000Y-23400000D03*
X62000000Y-26800000D03*
X62200000Y-33000000D03*
X62600000Y-36000000D03*
X62600000Y-55400000D03*
X63600000Y-25200000D03*
X64000000Y-38600000D03*
X64000000Y-41400000D03*
X64000000Y-43800000D03*
X64000000Y-46200000D03*
X64000000Y-48800000D03*
X64000000Y-51400000D03*
X64000000Y-56600000D03*
X64200000Y-53800000D03*
X64800000Y-33000000D03*
X65600000Y-58200000D03*
X65800000Y-34800000D03*
X66000000Y-38000000D03*
X66000000Y-41400000D03*
X66000000Y-43800000D03*
X66000000Y-46200000D03*
X66000000Y-48800000D03*
X66000000Y-51400000D03*
X66000000Y-55600000D03*
X67200000Y-59600000D03*
X67400000Y-25200000D03*
X67600000Y-57200000D03*
X68000000Y-62000000D03*
X68000000Y-64200000D03*
X68000000Y-66200000D03*
X68000000Y-68200000D03*
X68000000Y-70400000D03*
X68000000Y-72800000D03*
X68000000Y-75400000D03*
X68000000Y-77800000D03*
X68200000Y-51400000D03*
X68400000Y-81200000D03*
X70400000Y-51400000D03*
X71400000Y-81200000D03*
X72400000Y-51400000D03*
X73400000Y-81800000D03*
X76200000Y-82000000D03*
X78600000Y-51600000D03*
X79000000Y-82000000D03*
D11*
X40500000Y-55500000D03*
X40500000Y-67412500D03*
X43486091Y-67736091D03*
X48181049Y-54924244D03*
X49750000Y-38250000D03*
X50000000Y-36500000D03*
X50400000Y-73000000D03*
X50400000Y-85600000D03*
X52795062Y-33831750D03*
X53250000Y-57000000D03*
X53323060Y-34910908D03*
X54602353Y-37868060D03*
X55250000Y-35000000D03*
X55919287Y-31907166D03*
X56000000Y-33000000D03*
X56801940Y-37800000D03*
X56970980Y-28970980D03*
X58000000Y-26750000D03*
X59250000Y-29975000D03*
X59283782Y-38959617D03*
X59340317Y-37037429D03*
X60200000Y-77750000D03*
X60200000Y-78750000D03*
X61500000Y-74500000D03*
X61500000Y-75500000D03*
X61500000Y-77750000D03*
X61500000Y-78750000D03*
X62500000Y-86250000D03*
X62750000Y-74500000D03*
X62750000Y-75500000D03*
X62750000Y-77750000D03*
X62750000Y-78750000D03*
X63750000Y-86250000D03*
X64500000Y-74250000D03*
X65000000Y-86250000D03*
X66250000Y-74250000D03*
X66250000Y-86250000D03*
X66250000Y-87500000D03*
X66250000Y-88750000D03*
X66250000Y-90000000D03*
X66250000Y-91000000D03*
X67416666Y-86250000D03*
X67416666Y-87500000D03*
X67416666Y-88750000D03*
X67416666Y-90000000D03*
X67416666Y-91000000D03*
X68583332Y-86250000D03*
X68583332Y-87500000D03*
X68583332Y-88750000D03*
X68583332Y-90000000D03*
X68583332Y-91000000D03*
X69750000Y-86250000D03*
X69750000Y-87500000D03*
X69750000Y-88750000D03*
X69750000Y-90000000D03*
X69750000Y-91000000D03*
D12*
%TO.C,U7*%
X46365000Y-86180000D03*
X46365000Y-87470000D03*
%TO.C,U6*%
X46380000Y-73680000D03*
X46380000Y-74970000D03*
%TO.C,U7*%
X47335000Y-86180000D03*
X47335000Y-87470000D03*
%TO.C,U6*%
X47350000Y-73680000D03*
X47350000Y-74970000D03*
%TD*%
D13*
X22840461Y-78500000D03*
X24476974Y-78500000D03*
X25250000Y-75375000D03*
X26113487Y-78500000D03*
X27500000Y-82250000D03*
X27500000Y-83886513D03*
X27500000Y-85523026D03*
X27500000Y-87159539D03*
X27750000Y-73625000D03*
X27750000Y-76875000D03*
X27750000Y-78500000D03*
X38500000Y-78500000D03*
X38500000Y-91000000D03*
X41000000Y-23998354D03*
X41000000Y-25634870D03*
X41000000Y-27271383D03*
X41000000Y-28907896D03*
X41000000Y-30544409D03*
X41000000Y-32180922D03*
X41000000Y-33817435D03*
X41000000Y-35453948D03*
X41000000Y-37090461D03*
X41000000Y-38726974D03*
X41000000Y-40363487D03*
X41000000Y-42000000D03*
X41000000Y-43636513D03*
X41000000Y-45273026D03*
X41000000Y-46909539D03*
X41000000Y-48546052D03*
X41000000Y-53000000D03*
X41350000Y-69807500D03*
X41350000Y-78500000D03*
X41350000Y-82192500D03*
X41350000Y-91000000D03*
X41375000Y-22500000D03*
X43011513Y-22500000D03*
X43800000Y-69800000D03*
X43800000Y-82200000D03*
X44648026Y-22500000D03*
X44722575Y-72248601D03*
X45300000Y-69800000D03*
X45300000Y-82200000D03*
X46284539Y-22500000D03*
X46800000Y-69800000D03*
X46800000Y-82200000D03*
X47099325Y-78470000D03*
X47921052Y-22500000D03*
X48300000Y-69800000D03*
X48300000Y-82200000D03*
X49000000Y-53250000D03*
X49557565Y-22500000D03*
X49800000Y-69800000D03*
X49800000Y-82200000D03*
X49821630Y-49928370D03*
X50546905Y-44250000D03*
X50546905Y-46911909D03*
X51194078Y-22500000D03*
X51475000Y-78470000D03*
X51475000Y-90855000D03*
X51500000Y-46915004D03*
X51500000Y-50000000D03*
X52625000Y-46915004D03*
X52625000Y-50009996D03*
X52830591Y-22500000D03*
X53000000Y-69375000D03*
X53000000Y-81875000D03*
X54467104Y-22500000D03*
X54481828Y-24699891D03*
X54500000Y-26862353D03*
X54875000Y-74650000D03*
X54875000Y-87150000D03*
X56103617Y-22500000D03*
X57740130Y-22500000D03*
X59070681Y-32957591D03*
X59376643Y-22500000D03*
X60125000Y-74650000D03*
X60125000Y-87150000D03*
X60500000Y-48500000D03*
X60500000Y-50000000D03*
X60500000Y-51500000D03*
X60500000Y-53000000D03*
X60500000Y-54500000D03*
X61013156Y-22500000D03*
X62649669Y-22500000D03*
X63000000Y-71275000D03*
X63000000Y-83775000D03*
X64286182Y-22500000D03*
X64500000Y-60000000D03*
X64500000Y-61500000D03*
X64500000Y-63000000D03*
X64500000Y-64500000D03*
X64500000Y-66000000D03*
X64500000Y-68775000D03*
X64500000Y-81275000D03*
X65922695Y-22500000D03*
X66000000Y-71275000D03*
X66000000Y-83775000D03*
X67559208Y-22500000D03*
X68500000Y-37000000D03*
X69195721Y-22500000D03*
X70000000Y-37000000D03*
X70832234Y-22500000D03*
X71500000Y-37000000D03*
X72468750Y-22500000D03*
X72907896Y-91000000D03*
X73000000Y-37000000D03*
X73400000Y-64000000D03*
X73400000Y-65500000D03*
X73400000Y-67000000D03*
X73400000Y-68500000D03*
X73400000Y-70000000D03*
X74500000Y-37000000D03*
X74544409Y-91000000D03*
X76180922Y-91000000D03*
X76230000Y-36230000D03*
X76230000Y-66730000D03*
X76673945Y-32500000D03*
X76711114Y-62980170D03*
X77500000Y-41000000D03*
X77500000Y-71500000D03*
X77817435Y-91000000D03*
X78500000Y-24000000D03*
X78500000Y-25500000D03*
X78500000Y-27000000D03*
X78500000Y-28500000D03*
X78500000Y-30000000D03*
X78500000Y-43500000D03*
X78500000Y-45000000D03*
X78500000Y-46500000D03*
X78500000Y-54500000D03*
X78500000Y-56000000D03*
X78500000Y-57500000D03*
X78500000Y-59000000D03*
X78500000Y-60500000D03*
X78500000Y-74000000D03*
X78500000Y-75500000D03*
X78500000Y-77000000D03*
X78786114Y-31950178D03*
X78786114Y-62450178D03*
X79453948Y-91000000D03*
X80040000Y-40519052D03*
X80040000Y-71019052D03*
X81081552Y-36500000D03*
X81081552Y-39000000D03*
X81090461Y-91000000D03*
X81119052Y-67000000D03*
X81119052Y-69475000D03*
X82726974Y-91000000D03*
X84363487Y-91000000D03*
X84406250Y-22500000D03*
X85500000Y-39000000D03*
X85500000Y-40500000D03*
X85500000Y-42000000D03*
X85500000Y-43500000D03*
X85500000Y-45000000D03*
X85500000Y-54000000D03*
X85500000Y-55500000D03*
X85500000Y-57000000D03*
X85500000Y-58500000D03*
X85500000Y-60000000D03*
X85500000Y-69500000D03*
X85500000Y-71000000D03*
X85500000Y-72500000D03*
X85500000Y-74000000D03*
X85500000Y-75500000D03*
X86000000Y-22500000D03*
X86000000Y-91000000D03*
X87593750Y-22500000D03*
X87636513Y-91000000D03*
X89187500Y-22500000D03*
X89273026Y-91000000D03*
X90781250Y-22500000D03*
X90909539Y-91000000D03*
X91500000Y-28000000D03*
X91500000Y-55250000D03*
X91500000Y-58750000D03*
X91500000Y-85750000D03*
X92375000Y-22500000D03*
X92546052Y-91000000D03*
X94500000Y-22750000D03*
X94500000Y-23750000D03*
X94500000Y-24750000D03*
X94500000Y-25750000D03*
X94500000Y-26750000D03*
X94500000Y-55000000D03*
X94500000Y-56000000D03*
X94500000Y-57000000D03*
X94500000Y-58000000D03*
X94500000Y-59000000D03*
X94500000Y-86750000D03*
X94500000Y-87750000D03*
X94500000Y-88750000D03*
X94500000Y-89750000D03*
X94500000Y-90750000D03*
X95500000Y-22500000D03*
X95500000Y-27000000D03*
X95500000Y-54750000D03*
X95500000Y-59250000D03*
X95500000Y-86500000D03*
X95500000Y-91000000D03*
X96500000Y-22500000D03*
X96500000Y-27000000D03*
X96500000Y-54750000D03*
X96500000Y-59250000D03*
X96500000Y-86500000D03*
X96500000Y-91000000D03*
X99250000Y-22500000D03*
X99250000Y-27625000D03*
X99250000Y-29250000D03*
X99250000Y-30875000D03*
X99250000Y-32500000D03*
X99250000Y-34125000D03*
X99250000Y-49250000D03*
X99250000Y-50875000D03*
X99250000Y-52500000D03*
X99250000Y-54125000D03*
X99250000Y-59750000D03*
X99250000Y-61375000D03*
X99250000Y-63000000D03*
X99250000Y-64625000D03*
X99250000Y-79625000D03*
X99250000Y-81250000D03*
X99250000Y-82875000D03*
X99250000Y-84500000D03*
X99250000Y-86125000D03*
X99250000Y-91000000D03*
X100843750Y-22500000D03*
X100843750Y-91000000D03*
X102437500Y-22500000D03*
X102437500Y-91000000D03*
X104000000Y-52125000D03*
X104000000Y-53750000D03*
X104000000Y-55375000D03*
X104000000Y-57000000D03*
X104000000Y-58625000D03*
X104000000Y-60250000D03*
X104000000Y-61875000D03*
X104031250Y-22500000D03*
X104031250Y-91000000D03*
X105625000Y-22500000D03*
X105625000Y-91000000D03*
X107218750Y-22500000D03*
X107218750Y-91000000D03*
X108812500Y-22500000D03*
X108812500Y-91000000D03*
X110406250Y-22500000D03*
X110406250Y-91000000D03*
X112000000Y-22500000D03*
X112000000Y-91000000D03*
X114250000Y-25750000D03*
X114250000Y-27375000D03*
X114250000Y-29000000D03*
X114250000Y-30625000D03*
X114250000Y-32250000D03*
X114250000Y-33875000D03*
X114250000Y-35500000D03*
X114250000Y-39500000D03*
X114250000Y-41029411D03*
X114250000Y-42558822D03*
X114250000Y-44088233D03*
X114250000Y-45617644D03*
X114250000Y-47147055D03*
X114250000Y-48676466D03*
X114250000Y-50205877D03*
X114250000Y-51735288D03*
X114250000Y-53264699D03*
X114250000Y-54794110D03*
X114250000Y-56323521D03*
X114250000Y-57852932D03*
X114250000Y-59382343D03*
X114250000Y-60911754D03*
X114250000Y-62441165D03*
X114250000Y-63970576D03*
X114250000Y-65500000D03*
X114250000Y-70250000D03*
X114250000Y-71729166D03*
X114250000Y-73208332D03*
X114250000Y-74687498D03*
X114250000Y-76166664D03*
X114250000Y-77645830D03*
X114250000Y-79124996D03*
X114250000Y-80604162D03*
X114250000Y-82083328D03*
X114250000Y-83562494D03*
X114250000Y-85041660D03*
X114250000Y-86520826D03*
X114250000Y-88000000D03*
D14*
%TO.C,C13*%
X71000000Y-27500000D03*
X71000000Y-32500000D03*
%TO.C,C29*%
X71000000Y-40500000D03*
X71000000Y-45500000D03*
%TO.C,C4*%
X71000000Y-58000000D03*
X71000000Y-63000000D03*
%TO.C,C9*%
X71000000Y-71000000D03*
X71000000Y-76000000D03*
%TO.C,C11*%
X76230000Y-29000000D03*
%TO.C,C26*%
X76230000Y-44000000D03*
%TO.C,C2*%
X76230000Y-59500000D03*
%TO.C,C7*%
X76230000Y-74500000D03*
%TO.C,C11*%
X81230000Y-29000000D03*
%TO.C,C26*%
X81230000Y-44000000D03*
%TO.C,C2*%
X81230000Y-59500000D03*
%TO.C,C7*%
X81230000Y-74500000D03*
%TO.C,C12*%
X91500000Y-32690000D03*
X91500000Y-37690000D03*
%TO.C,C28*%
X91500000Y-45500000D03*
X91500000Y-50500000D03*
%TO.C,C3*%
X91500000Y-63390000D03*
X91500000Y-68390000D03*
%TO.C,C8*%
X91500000Y-76000000D03*
X91500000Y-81000000D03*
D15*
%TO.C,D5*%
X24250000Y-70710000D03*
X24250000Y-73250000D03*
D16*
%TO.C,J6*%
X24200000Y-85800000D02*
X24200000Y-83600000D01*
X26500000Y-89500000D02*
X28700000Y-89500000D01*
X30500000Y-86000000D02*
X30500000Y-83400000D01*
D17*
%TO.C,J5*%
X114250000Y-23250000D03*
%TO.C,J4*%
X114250000Y-90250000D03*
D18*
%TO.C,J1*%
X36260000Y-37310000D03*
%TO.C,J3*%
X100500000Y-41500000D03*
%TO.C,J2*%
X100500000Y-72200000D03*
%TO.C,J3*%
X105580000Y-41500000D03*
%TO.C,J2*%
X105580000Y-72200000D03*
D19*
%TO.C,J1*%
X31810000Y-41120000D03*
X32445000Y-33500000D03*
%TO.C,J3*%
X100500000Y-37690000D03*
X100500000Y-45310000D03*
%TO.C,J2*%
X100500000Y-68390000D03*
X100500000Y-76010000D03*
M02*
