%TF.GenerationSoftware,KiCad,Pcbnew,8.0.2*%
%TF.CreationDate,2025-04-13T16:41:33+02:00*%
%TF.ProjectId,AES-DAC,4145532d-4441-4432-9e6b-696361645f70,rev?*%
%TF.SameCoordinates,Original*%
%TF.FileFunction,Drillmap*%
%TF.FilePolarity,Positive*%
%FSLAX45Y45*%
G04 Gerber Fmt 4.5, Leading zero omitted, Abs format (unit mm)*
G04 Created by KiCad (PCBNEW 8.0.2) date 2025-04-13 16:41:33*
%MOMM*%
%LPD*%
G01*
G04 APERTURE LIST*
%ADD10C,0.200000*%
%ADD11C,0.100000*%
%ADD12C,0.120000*%
%ADD13C,0.160000*%
G04 APERTURE END LIST*
D10*
X2070000Y-2000000D02*
X11670000Y-2000000D01*
X11670000Y-9400000D01*
X2070000Y-9400000D01*
X2070000Y-2000000D01*
D11*
X2540000Y-5140000D02*
X2560000Y-5160000D01*
X2560000Y-5140000D02*
X2540000Y-5160000D01*
X2564738Y-6519469D02*
X2584738Y-6539469D01*
X2584738Y-6519469D02*
X2564738Y-6539469D01*
X4290000Y-6331808D02*
X4310000Y-6351808D01*
X4310000Y-6331808D02*
X4290000Y-6351808D01*
X4318499Y-3922725D02*
X4338499Y-3942725D01*
X4338499Y-3922725D02*
X4318499Y-3942725D01*
X4412725Y-2744001D02*
X4432725Y-2764001D01*
X4432725Y-2744001D02*
X4412725Y-2764001D01*
X4412725Y-3144001D02*
X4432725Y-3164001D01*
X4432725Y-3144001D02*
X4412725Y-3164001D01*
X4417500Y-3786250D02*
X4437500Y-3806250D01*
X4437500Y-3786250D02*
X4417500Y-3806250D01*
X4459974Y-8511289D02*
X4479974Y-8531289D01*
X4479974Y-8511289D02*
X4459974Y-8531289D01*
X4470000Y-4150000D02*
X4490000Y-4170000D01*
X4490000Y-4150000D02*
X4470000Y-4170000D01*
X4470000Y-4370000D02*
X4490000Y-4390000D01*
X4490000Y-4370000D02*
X4470000Y-4390000D01*
X4470000Y-4590000D02*
X4490000Y-4610000D01*
X4490000Y-4590000D02*
X4470000Y-4610000D01*
X4470000Y-6465000D02*
X4490000Y-6485000D01*
X4490000Y-6465000D02*
X4470000Y-6485000D01*
X4570390Y-5975779D02*
X4590390Y-5995779D01*
X4590390Y-5975779D02*
X4570390Y-5995779D01*
X4617500Y-3736250D02*
X4637500Y-3756250D01*
X4637500Y-3736250D02*
X4617500Y-3756250D01*
X4640000Y-4940000D02*
X4660000Y-4960000D01*
X4660000Y-4940000D02*
X4640000Y-4960000D01*
X4640000Y-5290000D02*
X4660000Y-5310000D01*
X4660000Y-5290000D02*
X4640000Y-5310000D01*
X4650000Y-3950000D02*
X4670000Y-3970000D01*
X4670000Y-3950000D02*
X4650000Y-3970000D01*
X4662725Y-2744001D02*
X4682725Y-2764001D01*
X4682725Y-2744001D02*
X4662725Y-2764001D01*
X4662725Y-3144001D02*
X4682725Y-3164001D01*
X4682725Y-3144001D02*
X4662725Y-3164001D01*
X4667500Y-4650000D02*
X4687500Y-4670000D01*
X4687500Y-4650000D02*
X4667500Y-4670000D01*
X4670000Y-4190000D02*
X4690000Y-4210000D01*
X4690000Y-4190000D02*
X4670000Y-4210000D01*
X4670000Y-4410000D02*
X4690000Y-4430000D01*
X4690000Y-4410000D02*
X4670000Y-4430000D01*
X4699876Y-9076021D02*
X4719876Y-9096021D01*
X4719876Y-9076021D02*
X4699876Y-9096021D01*
X4711152Y-3445772D02*
X4731152Y-3465772D01*
X4731152Y-3445772D02*
X4711152Y-3465772D01*
X4726088Y-3327662D02*
X4746088Y-3347662D01*
X4746088Y-3327662D02*
X4726088Y-3347662D01*
X4730000Y-3770000D02*
X4750000Y-3790000D01*
X4750000Y-3770000D02*
X4730000Y-3790000D01*
X4732500Y-4686250D02*
X4752500Y-4706250D01*
X4752500Y-4686250D02*
X4732500Y-4706250D01*
X4757725Y-5647751D02*
X4777725Y-5667751D01*
X4777725Y-5647751D02*
X4757725Y-5667751D01*
X4765441Y-2835154D02*
X4785441Y-2855154D01*
X4785441Y-2835154D02*
X4765441Y-2855154D01*
X4765441Y-3035154D02*
X4785441Y-3055154D01*
X4785441Y-3035154D02*
X4765441Y-3055154D01*
X4815000Y-5240000D02*
X4835000Y-5260000D01*
X4835000Y-5240000D02*
X4815000Y-5260000D01*
X4840000Y-4665000D02*
X4860000Y-4685000D01*
X4860000Y-4665000D02*
X4840000Y-4685000D01*
X4890000Y-3890000D02*
X4910000Y-3910000D01*
X4910000Y-3890000D02*
X4890000Y-3910000D01*
X4912725Y-3144001D02*
X4932725Y-3164001D01*
X4932725Y-3144001D02*
X4912725Y-3164001D01*
X4967500Y-6236250D02*
X4987500Y-6256250D01*
X4987500Y-6236250D02*
X4967500Y-6256250D01*
X5060009Y-3186250D02*
X5080009Y-3206250D01*
X5080009Y-3186250D02*
X5060009Y-3206250D01*
X5065000Y-5953750D02*
X5085000Y-5973750D01*
X5085000Y-5953750D02*
X5065000Y-5973750D01*
X5065000Y-6527500D02*
X5085000Y-6547500D01*
X5085000Y-6527500D02*
X5065000Y-6547500D01*
X5125000Y-3150000D02*
X5145000Y-3170000D01*
X5145000Y-3150000D02*
X5125000Y-3170000D01*
X5210000Y-3830000D02*
X5230000Y-3850000D01*
X5230000Y-3830000D02*
X5210000Y-3850000D01*
X5217500Y-6236250D02*
X5237500Y-6256250D01*
X5237500Y-6236250D02*
X5217500Y-6256250D01*
X5315000Y-5953750D02*
X5335000Y-5973750D01*
X5335000Y-5953750D02*
X5315000Y-5973750D01*
X5315000Y-6527500D02*
X5335000Y-6547500D01*
X5335000Y-6527500D02*
X5315000Y-6547500D01*
X5467500Y-5856250D02*
X5487500Y-5876250D01*
X5487500Y-5856250D02*
X5467500Y-5876250D01*
X5565000Y-6527500D02*
X5585000Y-6547500D01*
X5585000Y-6527500D02*
X5565000Y-6547500D01*
X5717500Y-5847500D02*
X5737500Y-5867500D01*
X5737500Y-5847500D02*
X5717500Y-5867500D01*
X5815000Y-6518750D02*
X5835000Y-6538750D01*
X5835000Y-6518750D02*
X5815000Y-6538750D01*
X5900132Y-5790000D02*
X5920132Y-5810000D01*
X5920132Y-5790000D02*
X5900132Y-5810000D01*
X5910000Y-2590000D02*
X5930000Y-2610000D01*
X5930000Y-2590000D02*
X5910000Y-2610000D01*
X6030000Y-2830000D02*
X6050000Y-2850000D01*
X6050000Y-2830000D02*
X6030000Y-2850000D01*
X6050000Y-2450000D02*
X6070000Y-2470000D01*
X6070000Y-2450000D02*
X6050000Y-2470000D01*
X6065000Y-6527500D02*
X6085000Y-6547500D01*
X6085000Y-6527500D02*
X6065000Y-6547500D01*
X6070000Y-3730000D02*
X6090000Y-3750000D01*
X6090000Y-3730000D02*
X6070000Y-3750000D01*
X6170000Y-3830000D02*
X6190000Y-3850000D01*
X6190000Y-3830000D02*
X6170000Y-3850000D01*
X6170000Y-4010000D02*
X6190000Y-4030000D01*
X6190000Y-4010000D02*
X6170000Y-4030000D01*
X6170000Y-4270000D02*
X6190000Y-4290000D01*
X6190000Y-4270000D02*
X6170000Y-4290000D01*
X6170000Y-4510000D02*
X6190000Y-4530000D01*
X6190000Y-4510000D02*
X6170000Y-4530000D01*
X6170000Y-4770000D02*
X6190000Y-4790000D01*
X6190000Y-4770000D02*
X6170000Y-4790000D01*
X6170000Y-4970000D02*
X6190000Y-4990000D01*
X6190000Y-4970000D02*
X6170000Y-4990000D01*
X6170000Y-5170000D02*
X6190000Y-5190000D01*
X6190000Y-5170000D02*
X6170000Y-5190000D01*
X6170000Y-5370000D02*
X6190000Y-5390000D01*
X6190000Y-5370000D02*
X6170000Y-5390000D01*
X6190000Y-2330000D02*
X6210000Y-2350000D01*
X6210000Y-2330000D02*
X6190000Y-2350000D01*
X6190000Y-2670000D02*
X6210000Y-2690000D01*
X6210000Y-2670000D02*
X6190000Y-2690000D01*
X6210000Y-3290000D02*
X6230000Y-3310000D01*
X6230000Y-3290000D02*
X6210000Y-3310000D01*
X6250000Y-3590000D02*
X6270000Y-3610000D01*
X6270000Y-3590000D02*
X6250000Y-3610000D01*
X6250000Y-5530000D02*
X6270000Y-5550000D01*
X6270000Y-5530000D02*
X6250000Y-5550000D01*
X6350000Y-2510000D02*
X6370000Y-2530000D01*
X6370000Y-2510000D02*
X6350000Y-2530000D01*
X6390000Y-3850000D02*
X6410000Y-3870000D01*
X6410000Y-3850000D02*
X6390000Y-3870000D01*
X6390000Y-4130000D02*
X6410000Y-4150000D01*
X6410000Y-4130000D02*
X6390000Y-4150000D01*
X6390000Y-4370000D02*
X6410000Y-4390000D01*
X6410000Y-4370000D02*
X6390000Y-4390000D01*
X6390000Y-4610000D02*
X6410000Y-4630000D01*
X6410000Y-4610000D02*
X6390000Y-4630000D01*
X6390000Y-4870000D02*
X6410000Y-4890000D01*
X6410000Y-4870000D02*
X6390000Y-4890000D01*
X6390000Y-5130000D02*
X6410000Y-5150000D01*
X6410000Y-5130000D02*
X6390000Y-5150000D01*
X6390000Y-5650000D02*
X6410000Y-5670000D01*
X6410000Y-5650000D02*
X6390000Y-5670000D01*
X6410000Y-5370000D02*
X6430000Y-5390000D01*
X6430000Y-5370000D02*
X6410000Y-5390000D01*
X6470000Y-3290000D02*
X6490000Y-3310000D01*
X6490000Y-3290000D02*
X6470000Y-3310000D01*
X6550000Y-5810000D02*
X6570000Y-5830000D01*
X6570000Y-5810000D02*
X6550000Y-5830000D01*
X6570000Y-3470000D02*
X6590000Y-3490000D01*
X6590000Y-3470000D02*
X6570000Y-3490000D01*
X6590000Y-3790000D02*
X6610000Y-3810000D01*
X6610000Y-3790000D02*
X6590000Y-3810000D01*
X6590000Y-4130000D02*
X6610000Y-4150000D01*
X6610000Y-4130000D02*
X6590000Y-4150000D01*
X6590000Y-4370000D02*
X6610000Y-4390000D01*
X6610000Y-4370000D02*
X6590000Y-4390000D01*
X6590000Y-4610000D02*
X6610000Y-4630000D01*
X6610000Y-4610000D02*
X6590000Y-4630000D01*
X6590000Y-4870000D02*
X6610000Y-4890000D01*
X6610000Y-4870000D02*
X6590000Y-4890000D01*
X6590000Y-5130000D02*
X6610000Y-5150000D01*
X6610000Y-5130000D02*
X6590000Y-5150000D01*
X6590000Y-5550000D02*
X6610000Y-5570000D01*
X6610000Y-5550000D02*
X6590000Y-5570000D01*
X6710000Y-5950000D02*
X6730000Y-5970000D01*
X6730000Y-5950000D02*
X6710000Y-5970000D01*
X6730000Y-2510000D02*
X6750000Y-2530000D01*
X6750000Y-2510000D02*
X6730000Y-2530000D01*
X6750000Y-5710000D02*
X6770000Y-5730000D01*
X6770000Y-5710000D02*
X6750000Y-5730000D01*
X6790000Y-6190000D02*
X6810000Y-6210000D01*
X6810000Y-6190000D02*
X6790000Y-6210000D01*
X6790000Y-6410000D02*
X6810000Y-6430000D01*
X6810000Y-6410000D02*
X6790000Y-6430000D01*
X6790000Y-6610000D02*
X6810000Y-6630000D01*
X6810000Y-6610000D02*
X6790000Y-6630000D01*
X6790000Y-6810000D02*
X6810000Y-6830000D01*
X6810000Y-6810000D02*
X6790000Y-6830000D01*
X6790000Y-7030000D02*
X6810000Y-7050000D01*
X6810000Y-7030000D02*
X6790000Y-7050000D01*
X6790000Y-7270000D02*
X6810000Y-7290000D01*
X6810000Y-7270000D02*
X6790000Y-7290000D01*
X6790000Y-7530000D02*
X6810000Y-7550000D01*
X6810000Y-7530000D02*
X6790000Y-7550000D01*
X6790000Y-7770000D02*
X6810000Y-7790000D01*
X6810000Y-7770000D02*
X6790000Y-7790000D01*
X6810000Y-5130000D02*
X6830000Y-5150000D01*
X6830000Y-5130000D02*
X6810000Y-5150000D01*
X6830000Y-8110000D02*
X6850000Y-8130000D01*
X6850000Y-8110000D02*
X6830000Y-8130000D01*
X7030000Y-5130000D02*
X7050000Y-5150000D01*
X7050000Y-5130000D02*
X7030000Y-5150000D01*
X7130000Y-8110000D02*
X7150000Y-8130000D01*
X7150000Y-8110000D02*
X7130000Y-8130000D01*
X7230000Y-5130000D02*
X7250000Y-5150000D01*
X7250000Y-5130000D02*
X7230000Y-5150000D01*
X7330000Y-8170000D02*
X7350000Y-8190000D01*
X7350000Y-8170000D02*
X7330000Y-8190000D01*
X7610000Y-8190000D02*
X7630000Y-8210000D01*
X7630000Y-8190000D02*
X7610000Y-8210000D01*
X7850000Y-5150000D02*
X7870000Y-5170000D01*
X7870000Y-5150000D02*
X7850000Y-5170000D01*
X7890000Y-8190000D02*
X7910000Y-8210000D01*
X7910000Y-8190000D02*
X7890000Y-8210000D01*
X4065000Y-5550000D02*
G75*
G02*
X4035000Y-5550000I-15000J0D01*
G01*
X4035000Y-5550000D02*
G75*
G02*
X4065000Y-5550000I15000J0D01*
G01*
X4065000Y-6741250D02*
G75*
G02*
X4035000Y-6741250I-15000J0D01*
G01*
X4035000Y-6741250D02*
G75*
G02*
X4065000Y-6741250I15000J0D01*
G01*
X4363609Y-6773609D02*
G75*
G02*
X4333609Y-6773609I-15000J0D01*
G01*
X4333609Y-6773609D02*
G75*
G02*
X4363609Y-6773609I15000J0D01*
G01*
X4833105Y-5492424D02*
G75*
G02*
X4803105Y-5492424I-15000J0D01*
G01*
X4803105Y-5492424D02*
G75*
G02*
X4833105Y-5492424I15000J0D01*
G01*
X4990000Y-3825000D02*
G75*
G02*
X4960000Y-3825000I-15000J0D01*
G01*
X4960000Y-3825000D02*
G75*
G02*
X4990000Y-3825000I15000J0D01*
G01*
X5015000Y-3650000D02*
G75*
G02*
X4985000Y-3650000I-15000J0D01*
G01*
X4985000Y-3650000D02*
G75*
G02*
X5015000Y-3650000I15000J0D01*
G01*
X5055000Y-7300000D02*
G75*
G02*
X5025000Y-7300000I-15000J0D01*
G01*
X5025000Y-7300000D02*
G75*
G02*
X5055000Y-7300000I15000J0D01*
G01*
X5055000Y-8560000D02*
G75*
G02*
X5025000Y-8560000I-15000J0D01*
G01*
X5025000Y-8560000D02*
G75*
G02*
X5055000Y-8560000I15000J0D01*
G01*
X5294506Y-3383175D02*
G75*
G02*
X5264506Y-3383175I-15000J0D01*
G01*
X5264506Y-3383175D02*
G75*
G02*
X5294506Y-3383175I15000J0D01*
G01*
X5340000Y-5700000D02*
G75*
G02*
X5310000Y-5700000I-15000J0D01*
G01*
X5310000Y-5700000D02*
G75*
G02*
X5340000Y-5700000I15000J0D01*
G01*
X5347306Y-3491091D02*
G75*
G02*
X5317306Y-3491091I-15000J0D01*
G01*
X5317306Y-3491091D02*
G75*
G02*
X5347306Y-3491091I15000J0D01*
G01*
X5475235Y-3786806D02*
G75*
G02*
X5445235Y-3786806I-15000J0D01*
G01*
X5445235Y-3786806D02*
G75*
G02*
X5475235Y-3786806I15000J0D01*
G01*
X5540000Y-3500000D02*
G75*
G02*
X5510000Y-3500000I-15000J0D01*
G01*
X5510000Y-3500000D02*
G75*
G02*
X5540000Y-3500000I15000J0D01*
G01*
X5606929Y-3190717D02*
G75*
G02*
X5576929Y-3190717I-15000J0D01*
G01*
X5576929Y-3190717D02*
G75*
G02*
X5606929Y-3190717I15000J0D01*
G01*
X5615000Y-3300000D02*
G75*
G02*
X5585000Y-3300000I-15000J0D01*
G01*
X5585000Y-3300000D02*
G75*
G02*
X5615000Y-3300000I15000J0D01*
G01*
X5695194Y-3780000D02*
G75*
G02*
X5665194Y-3780000I-15000J0D01*
G01*
X5665194Y-3780000D02*
G75*
G02*
X5695194Y-3780000I15000J0D01*
G01*
X5712098Y-2897098D02*
G75*
G02*
X5682098Y-2897098I-15000J0D01*
G01*
X5682098Y-2897098D02*
G75*
G02*
X5712098Y-2897098I15000J0D01*
G01*
X5815000Y-2675000D02*
G75*
G02*
X5785000Y-2675000I-15000J0D01*
G01*
X5785000Y-2675000D02*
G75*
G02*
X5815000Y-2675000I15000J0D01*
G01*
X5940000Y-2997500D02*
G75*
G02*
X5910000Y-2997500I-15000J0D01*
G01*
X5910000Y-2997500D02*
G75*
G02*
X5940000Y-2997500I15000J0D01*
G01*
X5943378Y-3895962D02*
G75*
G02*
X5913378Y-3895962I-15000J0D01*
G01*
X5913378Y-3895962D02*
G75*
G02*
X5943378Y-3895962I15000J0D01*
G01*
X5949032Y-3703743D02*
G75*
G02*
X5919032Y-3703743I-15000J0D01*
G01*
X5919032Y-3703743D02*
G75*
G02*
X5949032Y-3703743I15000J0D01*
G01*
X6035000Y-7775000D02*
G75*
G02*
X6005000Y-7775000I-15000J0D01*
G01*
X6005000Y-7775000D02*
G75*
G02*
X6035000Y-7775000I15000J0D01*
G01*
X6035000Y-7875000D02*
G75*
G02*
X6005000Y-7875000I-15000J0D01*
G01*
X6005000Y-7875000D02*
G75*
G02*
X6035000Y-7875000I15000J0D01*
G01*
X6165000Y-7450000D02*
G75*
G02*
X6135000Y-7450000I-15000J0D01*
G01*
X6135000Y-7450000D02*
G75*
G02*
X6165000Y-7450000I15000J0D01*
G01*
X6165000Y-7550000D02*
G75*
G02*
X6135000Y-7550000I-15000J0D01*
G01*
X6135000Y-7550000D02*
G75*
G02*
X6165000Y-7550000I15000J0D01*
G01*
X6165000Y-7775000D02*
G75*
G02*
X6135000Y-7775000I-15000J0D01*
G01*
X6135000Y-7775000D02*
G75*
G02*
X6165000Y-7775000I15000J0D01*
G01*
X6165000Y-7875000D02*
G75*
G02*
X6135000Y-7875000I-15000J0D01*
G01*
X6135000Y-7875000D02*
G75*
G02*
X6165000Y-7875000I15000J0D01*
G01*
X6265000Y-8625000D02*
G75*
G02*
X6235000Y-8625000I-15000J0D01*
G01*
X6235000Y-8625000D02*
G75*
G02*
X6265000Y-8625000I15000J0D01*
G01*
X6290000Y-7450000D02*
G75*
G02*
X6260000Y-7450000I-15000J0D01*
G01*
X6260000Y-7450000D02*
G75*
G02*
X6290000Y-7450000I15000J0D01*
G01*
X6290000Y-7550000D02*
G75*
G02*
X6260000Y-7550000I-15000J0D01*
G01*
X6260000Y-7550000D02*
G75*
G02*
X6290000Y-7550000I15000J0D01*
G01*
X6290000Y-7775000D02*
G75*
G02*
X6260000Y-7775000I-15000J0D01*
G01*
X6260000Y-7775000D02*
G75*
G02*
X6290000Y-7775000I15000J0D01*
G01*
X6290000Y-7875000D02*
G75*
G02*
X6260000Y-7875000I-15000J0D01*
G01*
X6260000Y-7875000D02*
G75*
G02*
X6290000Y-7875000I15000J0D01*
G01*
X6390000Y-8625000D02*
G75*
G02*
X6360000Y-8625000I-15000J0D01*
G01*
X6360000Y-8625000D02*
G75*
G02*
X6390000Y-8625000I15000J0D01*
G01*
X6465000Y-7425000D02*
G75*
G02*
X6435000Y-7425000I-15000J0D01*
G01*
X6435000Y-7425000D02*
G75*
G02*
X6465000Y-7425000I15000J0D01*
G01*
X6515000Y-8625000D02*
G75*
G02*
X6485000Y-8625000I-15000J0D01*
G01*
X6485000Y-8625000D02*
G75*
G02*
X6515000Y-8625000I15000J0D01*
G01*
X6640000Y-7425000D02*
G75*
G02*
X6610000Y-7425000I-15000J0D01*
G01*
X6610000Y-7425000D02*
G75*
G02*
X6640000Y-7425000I15000J0D01*
G01*
X6640000Y-8625000D02*
G75*
G02*
X6610000Y-8625000I-15000J0D01*
G01*
X6610000Y-8625000D02*
G75*
G02*
X6640000Y-8625000I15000J0D01*
G01*
X6640000Y-8750000D02*
G75*
G02*
X6610000Y-8750000I-15000J0D01*
G01*
X6610000Y-8750000D02*
G75*
G02*
X6640000Y-8750000I15000J0D01*
G01*
X6640000Y-8875000D02*
G75*
G02*
X6610000Y-8875000I-15000J0D01*
G01*
X6610000Y-8875000D02*
G75*
G02*
X6640000Y-8875000I15000J0D01*
G01*
X6640000Y-9000000D02*
G75*
G02*
X6610000Y-9000000I-15000J0D01*
G01*
X6610000Y-9000000D02*
G75*
G02*
X6640000Y-9000000I15000J0D01*
G01*
X6640000Y-9100000D02*
G75*
G02*
X6610000Y-9100000I-15000J0D01*
G01*
X6610000Y-9100000D02*
G75*
G02*
X6640000Y-9100000I15000J0D01*
G01*
X6756667Y-8625000D02*
G75*
G02*
X6726667Y-8625000I-15000J0D01*
G01*
X6726667Y-8625000D02*
G75*
G02*
X6756667Y-8625000I15000J0D01*
G01*
X6756667Y-8750000D02*
G75*
G02*
X6726667Y-8750000I-15000J0D01*
G01*
X6726667Y-8750000D02*
G75*
G02*
X6756667Y-8750000I15000J0D01*
G01*
X6756667Y-8875000D02*
G75*
G02*
X6726667Y-8875000I-15000J0D01*
G01*
X6726667Y-8875000D02*
G75*
G02*
X6756667Y-8875000I15000J0D01*
G01*
X6756667Y-9000000D02*
G75*
G02*
X6726667Y-9000000I-15000J0D01*
G01*
X6726667Y-9000000D02*
G75*
G02*
X6756667Y-9000000I15000J0D01*
G01*
X6756667Y-9100000D02*
G75*
G02*
X6726667Y-9100000I-15000J0D01*
G01*
X6726667Y-9100000D02*
G75*
G02*
X6756667Y-9100000I15000J0D01*
G01*
X6873333Y-8625000D02*
G75*
G02*
X6843333Y-8625000I-15000J0D01*
G01*
X6843333Y-8625000D02*
G75*
G02*
X6873333Y-8625000I15000J0D01*
G01*
X6873333Y-8750000D02*
G75*
G02*
X6843333Y-8750000I-15000J0D01*
G01*
X6843333Y-8750000D02*
G75*
G02*
X6873333Y-8750000I15000J0D01*
G01*
X6873333Y-8875000D02*
G75*
G02*
X6843333Y-8875000I-15000J0D01*
G01*
X6843333Y-8875000D02*
G75*
G02*
X6873333Y-8875000I15000J0D01*
G01*
X6873333Y-9000000D02*
G75*
G02*
X6843333Y-9000000I-15000J0D01*
G01*
X6843333Y-9000000D02*
G75*
G02*
X6873333Y-9000000I15000J0D01*
G01*
X6873333Y-9100000D02*
G75*
G02*
X6843333Y-9100000I-15000J0D01*
G01*
X6843333Y-9100000D02*
G75*
G02*
X6873333Y-9100000I15000J0D01*
G01*
X6990000Y-8625000D02*
G75*
G02*
X6960000Y-8625000I-15000J0D01*
G01*
X6960000Y-8625000D02*
G75*
G02*
X6990000Y-8625000I15000J0D01*
G01*
X6990000Y-8750000D02*
G75*
G02*
X6960000Y-8750000I-15000J0D01*
G01*
X6960000Y-8750000D02*
G75*
G02*
X6990000Y-8750000I15000J0D01*
G01*
X6990000Y-8875000D02*
G75*
G02*
X6960000Y-8875000I-15000J0D01*
G01*
X6960000Y-8875000D02*
G75*
G02*
X6990000Y-8875000I15000J0D01*
G01*
X6990000Y-9000000D02*
G75*
G02*
X6960000Y-9000000I-15000J0D01*
G01*
X6960000Y-9000000D02*
G75*
G02*
X6990000Y-9000000I15000J0D01*
G01*
X6990000Y-9100000D02*
G75*
G02*
X6960000Y-9100000I-15000J0D01*
G01*
X6960000Y-9100000D02*
G75*
G02*
X6990000Y-9100000I15000J0D01*
G01*
X4636500Y-8603000D02*
X4636500Y-8633000D01*
X4621500Y-8618000D02*
X4651500Y-8618000D01*
X4636500Y-8732000D02*
X4636500Y-8762000D01*
X4621500Y-8747000D02*
X4651500Y-8747000D01*
X4638000Y-7353000D02*
X4638000Y-7383000D01*
X4623000Y-7368000D02*
X4653000Y-7368000D01*
X4638000Y-7482000D02*
X4638000Y-7512000D01*
X4623000Y-7497000D02*
X4653000Y-7497000D01*
X4733500Y-8603000D02*
X4733500Y-8633000D01*
X4718500Y-8618000D02*
X4748500Y-8618000D01*
X4733500Y-8732000D02*
X4733500Y-8762000D01*
X4718500Y-8747000D02*
X4748500Y-8747000D01*
X4735000Y-7353000D02*
X4735000Y-7383000D01*
X4720000Y-7368000D02*
X4750000Y-7368000D01*
X4735000Y-7482000D02*
X4735000Y-7512000D01*
X4720000Y-7497000D02*
X4750000Y-7497000D01*
X2298188Y-7864142D02*
X2298188Y-7835858D01*
X2269904Y-7835858D01*
X2269904Y-7864142D01*
X2298188Y-7864142D01*
X2461840Y-7864142D02*
X2461840Y-7835858D01*
X2433555Y-7835858D01*
X2433555Y-7864142D01*
X2461840Y-7864142D01*
X2539142Y-7551642D02*
X2539142Y-7523358D01*
X2510858Y-7523358D01*
X2510858Y-7551642D01*
X2539142Y-7551642D01*
X2625491Y-7864142D02*
X2625491Y-7835858D01*
X2597206Y-7835858D01*
X2597206Y-7864142D01*
X2625491Y-7864142D01*
X2764142Y-8239142D02*
X2764142Y-8210858D01*
X2735858Y-8210858D01*
X2735858Y-8239142D01*
X2764142Y-8239142D01*
X2764142Y-8402794D02*
X2764142Y-8374509D01*
X2735858Y-8374509D01*
X2735858Y-8402794D01*
X2764142Y-8402794D01*
X2764142Y-8566445D02*
X2764142Y-8538160D01*
X2735858Y-8538160D01*
X2735858Y-8566445D01*
X2764142Y-8566445D01*
X2764142Y-8730096D02*
X2764142Y-8701812D01*
X2735858Y-8701812D01*
X2735858Y-8730096D01*
X2764142Y-8730096D01*
X2789142Y-7376642D02*
X2789142Y-7348358D01*
X2760858Y-7348358D01*
X2760858Y-7376642D01*
X2789142Y-7376642D01*
X2789142Y-7701642D02*
X2789142Y-7673358D01*
X2760858Y-7673358D01*
X2760858Y-7701642D01*
X2789142Y-7701642D01*
X2789142Y-7864142D02*
X2789142Y-7835858D01*
X2760858Y-7835858D01*
X2760858Y-7864142D01*
X2789142Y-7864142D01*
X3864142Y-7864142D02*
X3864142Y-7835858D01*
X3835858Y-7835858D01*
X3835858Y-7864142D01*
X3864142Y-7864142D01*
X3864142Y-9114142D02*
X3864142Y-9085858D01*
X3835858Y-9085858D01*
X3835858Y-9114142D01*
X3864142Y-9114142D01*
X4114142Y-2413978D02*
X4114142Y-2385693D01*
X4085858Y-2385693D01*
X4085858Y-2413978D01*
X4114142Y-2413978D01*
X4114142Y-2577629D02*
X4114142Y-2549345D01*
X4085858Y-2549345D01*
X4085858Y-2577629D01*
X4114142Y-2577629D01*
X4114142Y-2741281D02*
X4114142Y-2712996D01*
X4085858Y-2712996D01*
X4085858Y-2741281D01*
X4114142Y-2741281D01*
X4114142Y-2904932D02*
X4114142Y-2876647D01*
X4085858Y-2876647D01*
X4085858Y-2904932D01*
X4114142Y-2904932D01*
X4114142Y-3068583D02*
X4114142Y-3040299D01*
X4085858Y-3040299D01*
X4085858Y-3068583D01*
X4114142Y-3068583D01*
X4114142Y-3232234D02*
X4114142Y-3203950D01*
X4085858Y-3203950D01*
X4085858Y-3232234D01*
X4114142Y-3232234D01*
X4114142Y-3395886D02*
X4114142Y-3367601D01*
X4085858Y-3367601D01*
X4085858Y-3395886D01*
X4114142Y-3395886D01*
X4114142Y-3559537D02*
X4114142Y-3531252D01*
X4085858Y-3531252D01*
X4085858Y-3559537D01*
X4114142Y-3559537D01*
X4114142Y-3723188D02*
X4114142Y-3694904D01*
X4085858Y-3694904D01*
X4085858Y-3723188D01*
X4114142Y-3723188D01*
X4114142Y-3886840D02*
X4114142Y-3858555D01*
X4085858Y-3858555D01*
X4085858Y-3886840D01*
X4114142Y-3886840D01*
X4114142Y-4050491D02*
X4114142Y-4022206D01*
X4085858Y-4022206D01*
X4085858Y-4050491D01*
X4114142Y-4050491D01*
X4114142Y-4214142D02*
X4114142Y-4185858D01*
X4085858Y-4185858D01*
X4085858Y-4214142D01*
X4114142Y-4214142D01*
X4114142Y-4377794D02*
X4114142Y-4349509D01*
X4085858Y-4349509D01*
X4085858Y-4377794D01*
X4114142Y-4377794D01*
X4114142Y-4541445D02*
X4114142Y-4513160D01*
X4085858Y-4513160D01*
X4085858Y-4541445D01*
X4114142Y-4541445D01*
X4114142Y-4705096D02*
X4114142Y-4676812D01*
X4085858Y-4676812D01*
X4085858Y-4705096D01*
X4114142Y-4705096D01*
X4114142Y-4868748D02*
X4114142Y-4840463D01*
X4085858Y-4840463D01*
X4085858Y-4868748D01*
X4114142Y-4868748D01*
X4114142Y-5314142D02*
X4114142Y-5285858D01*
X4085858Y-5285858D01*
X4085858Y-5314142D01*
X4114142Y-5314142D01*
X4149142Y-6994892D02*
X4149142Y-6966608D01*
X4120858Y-6966608D01*
X4120858Y-6994892D01*
X4149142Y-6994892D01*
X4149142Y-7864142D02*
X4149142Y-7835858D01*
X4120858Y-7835858D01*
X4120858Y-7864142D01*
X4149142Y-7864142D01*
X4149142Y-8233392D02*
X4149142Y-8205108D01*
X4120858Y-8205108D01*
X4120858Y-8233392D01*
X4149142Y-8233392D01*
X4149142Y-9114142D02*
X4149142Y-9085858D01*
X4120858Y-9085858D01*
X4120858Y-9114142D01*
X4149142Y-9114142D01*
X4151642Y-2264142D02*
X4151642Y-2235858D01*
X4123358Y-2235858D01*
X4123358Y-2264142D01*
X4151642Y-2264142D01*
X4315294Y-2264142D02*
X4315294Y-2235858D01*
X4287009Y-2235858D01*
X4287009Y-2264142D01*
X4315294Y-2264142D01*
X4394142Y-6994142D02*
X4394142Y-6965858D01*
X4365858Y-6965858D01*
X4365858Y-6994142D01*
X4394142Y-6994142D01*
X4394142Y-8234142D02*
X4394142Y-8205858D01*
X4365858Y-8205858D01*
X4365858Y-8234142D01*
X4394142Y-8234142D01*
X4478945Y-2264142D02*
X4478945Y-2235858D01*
X4450660Y-2235858D01*
X4450660Y-2264142D01*
X4478945Y-2264142D01*
X4486400Y-7239002D02*
X4486400Y-7210718D01*
X4458115Y-7210718D01*
X4458115Y-7239002D01*
X4486400Y-7239002D01*
X4544142Y-6994142D02*
X4544142Y-6965858D01*
X4515858Y-6965858D01*
X4515858Y-6994142D01*
X4544142Y-6994142D01*
X4544142Y-8234142D02*
X4544142Y-8205858D01*
X4515858Y-8205858D01*
X4515858Y-8234142D01*
X4544142Y-8234142D01*
X4642596Y-2264142D02*
X4642596Y-2235858D01*
X4614312Y-2235858D01*
X4614312Y-2264142D01*
X4642596Y-2264142D01*
X4694142Y-6994142D02*
X4694142Y-6965858D01*
X4665858Y-6965858D01*
X4665858Y-6994142D01*
X4694142Y-6994142D01*
X4694142Y-8234142D02*
X4694142Y-8205858D01*
X4665858Y-8205858D01*
X4665858Y-8234142D01*
X4694142Y-8234142D01*
X4724075Y-7861142D02*
X4724075Y-7832858D01*
X4695790Y-7832858D01*
X4695790Y-7861142D01*
X4724075Y-7861142D01*
X4806248Y-2264142D02*
X4806248Y-2235858D01*
X4777963Y-2235858D01*
X4777963Y-2264142D01*
X4806248Y-2264142D01*
X4844142Y-6994142D02*
X4844142Y-6965858D01*
X4815858Y-6965858D01*
X4815858Y-6994142D01*
X4844142Y-6994142D01*
X4844142Y-8234142D02*
X4844142Y-8205858D01*
X4815858Y-8205858D01*
X4815858Y-8234142D01*
X4844142Y-8234142D01*
X4914142Y-5339142D02*
X4914142Y-5310858D01*
X4885858Y-5310858D01*
X4885858Y-5339142D01*
X4914142Y-5339142D01*
X4969899Y-2264142D02*
X4969899Y-2235858D01*
X4941614Y-2235858D01*
X4941614Y-2264142D01*
X4969899Y-2264142D01*
X4994142Y-6994142D02*
X4994142Y-6965858D01*
X4965858Y-6965858D01*
X4965858Y-6994142D01*
X4994142Y-6994142D01*
X4994142Y-8234142D02*
X4994142Y-8205858D01*
X4965858Y-8205858D01*
X4965858Y-8234142D01*
X4994142Y-8234142D01*
X4996305Y-5006979D02*
X4996305Y-4978695D01*
X4968021Y-4978695D01*
X4968021Y-5006979D01*
X4996305Y-5006979D01*
X5068833Y-4439142D02*
X5068833Y-4410858D01*
X5040548Y-4410858D01*
X5040548Y-4439142D01*
X5068833Y-4439142D01*
X5068833Y-4705333D02*
X5068833Y-4677049D01*
X5040548Y-4677049D01*
X5040548Y-4705333D01*
X5068833Y-4705333D01*
X5133550Y-2264142D02*
X5133550Y-2235858D01*
X5105266Y-2235858D01*
X5105266Y-2264142D01*
X5133550Y-2264142D01*
X5161642Y-7861142D02*
X5161642Y-7832858D01*
X5133358Y-7832858D01*
X5133358Y-7861142D01*
X5161642Y-7861142D01*
X5161642Y-9099642D02*
X5161642Y-9071358D01*
X5133358Y-9071358D01*
X5133358Y-9099642D01*
X5161642Y-9099642D01*
X5164142Y-4705643D02*
X5164142Y-4677358D01*
X5135858Y-4677358D01*
X5135858Y-4705643D01*
X5164142Y-4705643D01*
X5164142Y-5014142D02*
X5164142Y-4985858D01*
X5135858Y-4985858D01*
X5135858Y-5014142D01*
X5164142Y-5014142D01*
X5276642Y-4705643D02*
X5276642Y-4677358D01*
X5248358Y-4677358D01*
X5248358Y-4705643D01*
X5276642Y-4705643D01*
X5276642Y-5015142D02*
X5276642Y-4986857D01*
X5248358Y-4986857D01*
X5248358Y-5015142D01*
X5276642Y-5015142D01*
X5297201Y-2264142D02*
X5297201Y-2235858D01*
X5268917Y-2235858D01*
X5268917Y-2264142D01*
X5297201Y-2264142D01*
X5314142Y-6951642D02*
X5314142Y-6923358D01*
X5285858Y-6923358D01*
X5285858Y-6951642D01*
X5314142Y-6951642D01*
X5314142Y-8201642D02*
X5314142Y-8173358D01*
X5285858Y-8173358D01*
X5285858Y-8201642D01*
X5314142Y-8201642D01*
X5460853Y-2264142D02*
X5460853Y-2235858D01*
X5432568Y-2235858D01*
X5432568Y-2264142D01*
X5460853Y-2264142D01*
X5462325Y-2484131D02*
X5462325Y-2455847D01*
X5434041Y-2455847D01*
X5434041Y-2484131D01*
X5462325Y-2484131D01*
X5464142Y-2700378D02*
X5464142Y-2672093D01*
X5435858Y-2672093D01*
X5435858Y-2700378D01*
X5464142Y-2700378D01*
X5501642Y-7479142D02*
X5501642Y-7450858D01*
X5473358Y-7450858D01*
X5473358Y-7479142D01*
X5501642Y-7479142D01*
X5501642Y-8729142D02*
X5501642Y-8700858D01*
X5473358Y-8700858D01*
X5473358Y-8729142D01*
X5501642Y-8729142D01*
X5624504Y-2264142D02*
X5624504Y-2235858D01*
X5596219Y-2235858D01*
X5596219Y-2264142D01*
X5624504Y-2264142D01*
X5788155Y-2264142D02*
X5788155Y-2235858D01*
X5759871Y-2235858D01*
X5759871Y-2264142D01*
X5788155Y-2264142D01*
X5921210Y-3309901D02*
X5921210Y-3281617D01*
X5892926Y-3281617D01*
X5892926Y-3309901D01*
X5921210Y-3309901D01*
X5951807Y-2264142D02*
X5951807Y-2235858D01*
X5923522Y-2235858D01*
X5923522Y-2264142D01*
X5951807Y-2264142D01*
X6026642Y-7479142D02*
X6026642Y-7450858D01*
X5998358Y-7450858D01*
X5998358Y-7479142D01*
X6026642Y-7479142D01*
X6026642Y-8729142D02*
X6026642Y-8700858D01*
X5998358Y-8700858D01*
X5998358Y-8729142D01*
X6026642Y-8729142D01*
X6064142Y-4864142D02*
X6064142Y-4835858D01*
X6035858Y-4835858D01*
X6035858Y-4864142D01*
X6064142Y-4864142D01*
X6064142Y-5014142D02*
X6064142Y-4985858D01*
X6035858Y-4985858D01*
X6035858Y-5014142D01*
X6064142Y-5014142D01*
X6064142Y-5164142D02*
X6064142Y-5135858D01*
X6035858Y-5135858D01*
X6035858Y-5164142D01*
X6064142Y-5164142D01*
X6064142Y-5314142D02*
X6064142Y-5285858D01*
X6035858Y-5285858D01*
X6035858Y-5314142D01*
X6064142Y-5314142D01*
X6064142Y-5464142D02*
X6064142Y-5435858D01*
X6035858Y-5435858D01*
X6035858Y-5464142D01*
X6064142Y-5464142D01*
X6115458Y-2264142D02*
X6115458Y-2235858D01*
X6087173Y-2235858D01*
X6087173Y-2264142D01*
X6115458Y-2264142D01*
X6279109Y-2264142D02*
X6279109Y-2235858D01*
X6250825Y-2235858D01*
X6250825Y-2264142D01*
X6279109Y-2264142D01*
X6314142Y-7141642D02*
X6314142Y-7113358D01*
X6285858Y-7113358D01*
X6285858Y-7141642D01*
X6314142Y-7141642D01*
X6314142Y-8391642D02*
X6314142Y-8363358D01*
X6285858Y-8363358D01*
X6285858Y-8391642D01*
X6314142Y-8391642D01*
X6442760Y-2264142D02*
X6442760Y-2235858D01*
X6414476Y-2235858D01*
X6414476Y-2264142D01*
X6442760Y-2264142D01*
X6464142Y-6014142D02*
X6464142Y-5985858D01*
X6435858Y-5985858D01*
X6435858Y-6014142D01*
X6464142Y-6014142D01*
X6464142Y-6164142D02*
X6464142Y-6135858D01*
X6435858Y-6135858D01*
X6435858Y-6164142D01*
X6464142Y-6164142D01*
X6464142Y-6314142D02*
X6464142Y-6285858D01*
X6435858Y-6285858D01*
X6435858Y-6314142D01*
X6464142Y-6314142D01*
X6464142Y-6464142D02*
X6464142Y-6435858D01*
X6435858Y-6435858D01*
X6435858Y-6464142D01*
X6464142Y-6464142D01*
X6464142Y-6614142D02*
X6464142Y-6585858D01*
X6435858Y-6585858D01*
X6435858Y-6614142D01*
X6464142Y-6614142D01*
X6464142Y-6891642D02*
X6464142Y-6863358D01*
X6435858Y-6863358D01*
X6435858Y-6891642D01*
X6464142Y-6891642D01*
X6464142Y-8141642D02*
X6464142Y-8113358D01*
X6435858Y-8113358D01*
X6435858Y-8141642D01*
X6464142Y-8141642D01*
X6606412Y-2264142D02*
X6606412Y-2235858D01*
X6578127Y-2235858D01*
X6578127Y-2264142D01*
X6606412Y-2264142D01*
X6614142Y-7141642D02*
X6614142Y-7113358D01*
X6585858Y-7113358D01*
X6585858Y-7141642D01*
X6614142Y-7141642D01*
X6614142Y-8391642D02*
X6614142Y-8363358D01*
X6585858Y-8363358D01*
X6585858Y-8391642D01*
X6614142Y-8391642D01*
X6770063Y-2264142D02*
X6770063Y-2235858D01*
X6741778Y-2235858D01*
X6741778Y-2264142D01*
X6770063Y-2264142D01*
X6864142Y-3714142D02*
X6864142Y-3685858D01*
X6835858Y-3685858D01*
X6835858Y-3714142D01*
X6864142Y-3714142D01*
X6933714Y-2264142D02*
X6933714Y-2235858D01*
X6905430Y-2235858D01*
X6905430Y-2264142D01*
X6933714Y-2264142D01*
X7014142Y-3714142D02*
X7014142Y-3685858D01*
X6985858Y-3685858D01*
X6985858Y-3714142D01*
X7014142Y-3714142D01*
X7097366Y-2264142D02*
X7097366Y-2235858D01*
X7069081Y-2235858D01*
X7069081Y-2264142D01*
X7097366Y-2264142D01*
X7164142Y-3714142D02*
X7164142Y-3685858D01*
X7135858Y-3685858D01*
X7135858Y-3714142D01*
X7164142Y-3714142D01*
X7261017Y-2264142D02*
X7261017Y-2235858D01*
X7232733Y-2235858D01*
X7232733Y-2264142D01*
X7261017Y-2264142D01*
X7304932Y-9114142D02*
X7304932Y-9085858D01*
X7276647Y-9085858D01*
X7276647Y-9114142D01*
X7304932Y-9114142D01*
X7314142Y-3714142D02*
X7314142Y-3685858D01*
X7285858Y-3685858D01*
X7285858Y-3714142D01*
X7314142Y-3714142D01*
X7354142Y-6414142D02*
X7354142Y-6385858D01*
X7325858Y-6385858D01*
X7325858Y-6414142D01*
X7354142Y-6414142D01*
X7354142Y-6564142D02*
X7354142Y-6535858D01*
X7325858Y-6535858D01*
X7325858Y-6564142D01*
X7354142Y-6564142D01*
X7354142Y-6714142D02*
X7354142Y-6685858D01*
X7325858Y-6685858D01*
X7325858Y-6714142D01*
X7354142Y-6714142D01*
X7354142Y-6864142D02*
X7354142Y-6835858D01*
X7325858Y-6835858D01*
X7325858Y-6864142D01*
X7354142Y-6864142D01*
X7354142Y-7014142D02*
X7354142Y-6985858D01*
X7325858Y-6985858D01*
X7325858Y-7014142D01*
X7354142Y-7014142D01*
X7464142Y-3714142D02*
X7464142Y-3685858D01*
X7435858Y-3685858D01*
X7435858Y-3714142D01*
X7464142Y-3714142D01*
X7468583Y-9114142D02*
X7468583Y-9085858D01*
X7440299Y-9085858D01*
X7440299Y-9114142D01*
X7468583Y-9114142D01*
X7632234Y-9114142D02*
X7632234Y-9085858D01*
X7603950Y-9085858D01*
X7603950Y-9114142D01*
X7632234Y-9114142D01*
X7637142Y-3637142D02*
X7637142Y-3608858D01*
X7608858Y-3608858D01*
X7608858Y-3637142D01*
X7637142Y-3637142D01*
X7637142Y-6687142D02*
X7637142Y-6658858D01*
X7608858Y-6658858D01*
X7608858Y-6687142D01*
X7637142Y-6687142D01*
X7681537Y-3264142D02*
X7681537Y-3235858D01*
X7653252Y-3235858D01*
X7653252Y-3264142D01*
X7681537Y-3264142D01*
X7685254Y-6312159D02*
X7685254Y-6283875D01*
X7656969Y-6283875D01*
X7656969Y-6312159D01*
X7685254Y-6312159D01*
X7764142Y-4114142D02*
X7764142Y-4085858D01*
X7735858Y-4085858D01*
X7735858Y-4114142D01*
X7764142Y-4114142D01*
X7764142Y-7164142D02*
X7764142Y-7135858D01*
X7735858Y-7135858D01*
X7735858Y-7164142D01*
X7764142Y-7164142D01*
X7795886Y-9114142D02*
X7795886Y-9085858D01*
X7767601Y-9085858D01*
X7767601Y-9114142D01*
X7795886Y-9114142D01*
X7864142Y-2414142D02*
X7864142Y-2385858D01*
X7835858Y-2385858D01*
X7835858Y-2414142D01*
X7864142Y-2414142D01*
X7864142Y-2564142D02*
X7864142Y-2535858D01*
X7835858Y-2535858D01*
X7835858Y-2564142D01*
X7864142Y-2564142D01*
X7864142Y-2714142D02*
X7864142Y-2685858D01*
X7835858Y-2685858D01*
X7835858Y-2714142D01*
X7864142Y-2714142D01*
X7864142Y-2864142D02*
X7864142Y-2835858D01*
X7835858Y-2835858D01*
X7835858Y-2864142D01*
X7864142Y-2864142D01*
X7864142Y-3014142D02*
X7864142Y-2985858D01*
X7835858Y-2985858D01*
X7835858Y-3014142D01*
X7864142Y-3014142D01*
X7864142Y-4364142D02*
X7864142Y-4335858D01*
X7835858Y-4335858D01*
X7835858Y-4364142D01*
X7864142Y-4364142D01*
X7864142Y-4514142D02*
X7864142Y-4485858D01*
X7835858Y-4485858D01*
X7835858Y-4514142D01*
X7864142Y-4514142D01*
X7864142Y-4664142D02*
X7864142Y-4635858D01*
X7835858Y-4635858D01*
X7835858Y-4664142D01*
X7864142Y-4664142D01*
X7864142Y-5464142D02*
X7864142Y-5435858D01*
X7835858Y-5435858D01*
X7835858Y-5464142D01*
X7864142Y-5464142D01*
X7864142Y-5614142D02*
X7864142Y-5585858D01*
X7835858Y-5585858D01*
X7835858Y-5614142D01*
X7864142Y-5614142D01*
X7864142Y-5764142D02*
X7864142Y-5735858D01*
X7835858Y-5735858D01*
X7835858Y-5764142D01*
X7864142Y-5764142D01*
X7864142Y-5914142D02*
X7864142Y-5885858D01*
X7835858Y-5885858D01*
X7835858Y-5914142D01*
X7864142Y-5914142D01*
X7864142Y-6064142D02*
X7864142Y-6035858D01*
X7835858Y-6035858D01*
X7835858Y-6064142D01*
X7864142Y-6064142D01*
X7864142Y-7414142D02*
X7864142Y-7385858D01*
X7835858Y-7385858D01*
X7835858Y-7414142D01*
X7864142Y-7414142D01*
X7864142Y-7564142D02*
X7864142Y-7535858D01*
X7835858Y-7535858D01*
X7835858Y-7564142D01*
X7864142Y-7564142D01*
X7864142Y-7714142D02*
X7864142Y-7685858D01*
X7835858Y-7685858D01*
X7835858Y-7714142D01*
X7864142Y-7714142D01*
X7892754Y-3209160D02*
X7892754Y-3180875D01*
X7864469Y-3180875D01*
X7864469Y-3209160D01*
X7892754Y-3209160D01*
X7892754Y-6259160D02*
X7892754Y-6230875D01*
X7864469Y-6230875D01*
X7864469Y-6259160D01*
X7892754Y-6259160D01*
X7959537Y-9114142D02*
X7959537Y-9085858D01*
X7931252Y-9085858D01*
X7931252Y-9114142D01*
X7959537Y-9114142D01*
X8018142Y-4066047D02*
X8018142Y-4037763D01*
X7989858Y-4037763D01*
X7989858Y-4066047D01*
X8018142Y-4066047D01*
X8018142Y-7116047D02*
X8018142Y-7087763D01*
X7989858Y-7087763D01*
X7989858Y-7116047D01*
X8018142Y-7116047D01*
X8122297Y-3664142D02*
X8122297Y-3635858D01*
X8094013Y-3635858D01*
X8094013Y-3664142D01*
X8122297Y-3664142D01*
X8122297Y-3914142D02*
X8122297Y-3885858D01*
X8094013Y-3885858D01*
X8094013Y-3914142D01*
X8122297Y-3914142D01*
X8123188Y-9114142D02*
X8123188Y-9085858D01*
X8094904Y-9085858D01*
X8094904Y-9114142D01*
X8123188Y-9114142D01*
X8126047Y-6714142D02*
X8126047Y-6685858D01*
X8097763Y-6685858D01*
X8097763Y-6714142D01*
X8126047Y-6714142D01*
X8126047Y-6961642D02*
X8126047Y-6933358D01*
X8097763Y-6933358D01*
X8097763Y-6961642D01*
X8126047Y-6961642D01*
X8286840Y-9114142D02*
X8286840Y-9085858D01*
X8258555Y-9085858D01*
X8258555Y-9114142D01*
X8286840Y-9114142D01*
X8450491Y-9114142D02*
X8450491Y-9085858D01*
X8422206Y-9085858D01*
X8422206Y-9114142D01*
X8450491Y-9114142D01*
X8454767Y-2264142D02*
X8454767Y-2235858D01*
X8426483Y-2235858D01*
X8426483Y-2264142D01*
X8454767Y-2264142D01*
X8564142Y-3914142D02*
X8564142Y-3885858D01*
X8535858Y-3885858D01*
X8535858Y-3914142D01*
X8564142Y-3914142D01*
X8564142Y-4064142D02*
X8564142Y-4035858D01*
X8535858Y-4035858D01*
X8535858Y-4064142D01*
X8564142Y-4064142D01*
X8564142Y-4214142D02*
X8564142Y-4185858D01*
X8535858Y-4185858D01*
X8535858Y-4214142D01*
X8564142Y-4214142D01*
X8564142Y-4364142D02*
X8564142Y-4335858D01*
X8535858Y-4335858D01*
X8535858Y-4364142D01*
X8564142Y-4364142D01*
X8564142Y-4514142D02*
X8564142Y-4485858D01*
X8535858Y-4485858D01*
X8535858Y-4514142D01*
X8564142Y-4514142D01*
X8564142Y-5414142D02*
X8564142Y-5385858D01*
X8535858Y-5385858D01*
X8535858Y-5414142D01*
X8564142Y-5414142D01*
X8564142Y-5564142D02*
X8564142Y-5535858D01*
X8535858Y-5535858D01*
X8535858Y-5564142D01*
X8564142Y-5564142D01*
X8564142Y-5714142D02*
X8564142Y-5685858D01*
X8535858Y-5685858D01*
X8535858Y-5714142D01*
X8564142Y-5714142D01*
X8564142Y-5864142D02*
X8564142Y-5835858D01*
X8535858Y-5835858D01*
X8535858Y-5864142D01*
X8564142Y-5864142D01*
X8564142Y-6014142D02*
X8564142Y-5985858D01*
X8535858Y-5985858D01*
X8535858Y-6014142D01*
X8564142Y-6014142D01*
X8564142Y-6964142D02*
X8564142Y-6935858D01*
X8535858Y-6935858D01*
X8535858Y-6964142D01*
X8564142Y-6964142D01*
X8564142Y-7114142D02*
X8564142Y-7085858D01*
X8535858Y-7085858D01*
X8535858Y-7114142D01*
X8564142Y-7114142D01*
X8564142Y-7264142D02*
X8564142Y-7235858D01*
X8535858Y-7235858D01*
X8535858Y-7264142D01*
X8564142Y-7264142D01*
X8564142Y-7414142D02*
X8564142Y-7385858D01*
X8535858Y-7385858D01*
X8535858Y-7414142D01*
X8564142Y-7414142D01*
X8564142Y-7564142D02*
X8564142Y-7535858D01*
X8535858Y-7535858D01*
X8535858Y-7564142D01*
X8564142Y-7564142D01*
X8614142Y-2264142D02*
X8614142Y-2235858D01*
X8585858Y-2235858D01*
X8585858Y-2264142D01*
X8614142Y-2264142D01*
X8614142Y-9114142D02*
X8614142Y-9085858D01*
X8585858Y-9085858D01*
X8585858Y-9114142D01*
X8614142Y-9114142D01*
X8773517Y-2264142D02*
X8773517Y-2235858D01*
X8745233Y-2235858D01*
X8745233Y-2264142D01*
X8773517Y-2264142D01*
X8777794Y-9114142D02*
X8777794Y-9085858D01*
X8749509Y-9085858D01*
X8749509Y-9114142D01*
X8777794Y-9114142D01*
X8932892Y-2264142D02*
X8932892Y-2235858D01*
X8904608Y-2235858D01*
X8904608Y-2264142D01*
X8932892Y-2264142D01*
X8941445Y-9114142D02*
X8941445Y-9085858D01*
X8913160Y-9085858D01*
X8913160Y-9114142D01*
X8941445Y-9114142D01*
X9092267Y-2264142D02*
X9092267Y-2235858D01*
X9063983Y-2235858D01*
X9063983Y-2264142D01*
X9092267Y-2264142D01*
X9105096Y-9114142D02*
X9105096Y-9085858D01*
X9076812Y-9085858D01*
X9076812Y-9114142D01*
X9105096Y-9114142D01*
X9164142Y-2814142D02*
X9164142Y-2785858D01*
X9135858Y-2785858D01*
X9135858Y-2814142D01*
X9164142Y-2814142D01*
X9164142Y-5539142D02*
X9164142Y-5510858D01*
X9135858Y-5510858D01*
X9135858Y-5539142D01*
X9164142Y-5539142D01*
X9164142Y-5889142D02*
X9164142Y-5860858D01*
X9135858Y-5860858D01*
X9135858Y-5889142D01*
X9164142Y-5889142D01*
X9164142Y-8589142D02*
X9164142Y-8560858D01*
X9135858Y-8560858D01*
X9135858Y-8589142D01*
X9164142Y-8589142D01*
X9251642Y-2264142D02*
X9251642Y-2235858D01*
X9223358Y-2235858D01*
X9223358Y-2264142D01*
X9251642Y-2264142D01*
X9268748Y-9114142D02*
X9268748Y-9085858D01*
X9240463Y-9085858D01*
X9240463Y-9114142D01*
X9268748Y-9114142D01*
X9464142Y-2289142D02*
X9464142Y-2260858D01*
X9435858Y-2260858D01*
X9435858Y-2289142D01*
X9464142Y-2289142D01*
X9464142Y-2389142D02*
X9464142Y-2360858D01*
X9435858Y-2360858D01*
X9435858Y-2389142D01*
X9464142Y-2389142D01*
X9464142Y-2489142D02*
X9464142Y-2460858D01*
X9435858Y-2460858D01*
X9435858Y-2489142D01*
X9464142Y-2489142D01*
X9464142Y-2589142D02*
X9464142Y-2560858D01*
X9435858Y-2560858D01*
X9435858Y-2589142D01*
X9464142Y-2589142D01*
X9464142Y-2689142D02*
X9464142Y-2660858D01*
X9435858Y-2660858D01*
X9435858Y-2689142D01*
X9464142Y-2689142D01*
X9464142Y-5514142D02*
X9464142Y-5485858D01*
X9435858Y-5485858D01*
X9435858Y-5514142D01*
X9464142Y-5514142D01*
X9464142Y-5614142D02*
X9464142Y-5585858D01*
X9435858Y-5585858D01*
X9435858Y-5614142D01*
X9464142Y-5614142D01*
X9464142Y-5714142D02*
X9464142Y-5685858D01*
X9435858Y-5685858D01*
X9435858Y-5714142D01*
X9464142Y-5714142D01*
X9464142Y-5814142D02*
X9464142Y-5785858D01*
X9435858Y-5785858D01*
X9435858Y-5814142D01*
X9464142Y-5814142D01*
X9464142Y-5914142D02*
X9464142Y-5885858D01*
X9435858Y-5885858D01*
X9435858Y-5914142D01*
X9464142Y-5914142D01*
X9464142Y-8689142D02*
X9464142Y-8660858D01*
X9435858Y-8660858D01*
X9435858Y-8689142D01*
X9464142Y-8689142D01*
X9464142Y-8789142D02*
X9464142Y-8760858D01*
X9435858Y-8760858D01*
X9435858Y-8789142D01*
X9464142Y-8789142D01*
X9464142Y-8889142D02*
X9464142Y-8860858D01*
X9435858Y-8860858D01*
X9435858Y-8889142D01*
X9464142Y-8889142D01*
X9464142Y-8989142D02*
X9464142Y-8960858D01*
X9435858Y-8960858D01*
X9435858Y-8989142D01*
X9464142Y-8989142D01*
X9464142Y-9089142D02*
X9464142Y-9060858D01*
X9435858Y-9060858D01*
X9435858Y-9089142D01*
X9464142Y-9089142D01*
X9564142Y-2264142D02*
X9564142Y-2235858D01*
X9535858Y-2235858D01*
X9535858Y-2264142D01*
X9564142Y-2264142D01*
X9564142Y-2714142D02*
X9564142Y-2685858D01*
X9535858Y-2685858D01*
X9535858Y-2714142D01*
X9564142Y-2714142D01*
X9564142Y-5489142D02*
X9564142Y-5460858D01*
X9535858Y-5460858D01*
X9535858Y-5489142D01*
X9564142Y-5489142D01*
X9564142Y-5939142D02*
X9564142Y-5910858D01*
X9535858Y-5910858D01*
X9535858Y-5939142D01*
X9564142Y-5939142D01*
X9564142Y-8664142D02*
X9564142Y-8635858D01*
X9535858Y-8635858D01*
X9535858Y-8664142D01*
X9564142Y-8664142D01*
X9564142Y-9114142D02*
X9564142Y-9085858D01*
X9535858Y-9085858D01*
X9535858Y-9114142D01*
X9564142Y-9114142D01*
X9664142Y-2264142D02*
X9664142Y-2235858D01*
X9635858Y-2235858D01*
X9635858Y-2264142D01*
X9664142Y-2264142D01*
X9664142Y-2714142D02*
X9664142Y-2685858D01*
X9635858Y-2685858D01*
X9635858Y-2714142D01*
X9664142Y-2714142D01*
X9664142Y-5489142D02*
X9664142Y-5460858D01*
X9635858Y-5460858D01*
X9635858Y-5489142D01*
X9664142Y-5489142D01*
X9664142Y-5939142D02*
X9664142Y-5910858D01*
X9635858Y-5910858D01*
X9635858Y-5939142D01*
X9664142Y-5939142D01*
X9664142Y-8664142D02*
X9664142Y-8635858D01*
X9635858Y-8635858D01*
X9635858Y-8664142D01*
X9664142Y-8664142D01*
X9664142Y-9114142D02*
X9664142Y-9085858D01*
X9635858Y-9085858D01*
X9635858Y-9114142D01*
X9664142Y-9114142D01*
X9939142Y-2264142D02*
X9939142Y-2235858D01*
X9910858Y-2235858D01*
X9910858Y-2264142D01*
X9939142Y-2264142D01*
X9939142Y-2776642D02*
X9939142Y-2748358D01*
X9910858Y-2748358D01*
X9910858Y-2776642D01*
X9939142Y-2776642D01*
X9939142Y-2939142D02*
X9939142Y-2910858D01*
X9910858Y-2910858D01*
X9910858Y-2939142D01*
X9939142Y-2939142D01*
X9939142Y-3101642D02*
X9939142Y-3073358D01*
X9910858Y-3073358D01*
X9910858Y-3101642D01*
X9939142Y-3101642D01*
X9939142Y-3264142D02*
X9939142Y-3235858D01*
X9910858Y-3235858D01*
X9910858Y-3264142D01*
X9939142Y-3264142D01*
X9939142Y-3426642D02*
X9939142Y-3398358D01*
X9910858Y-3398358D01*
X9910858Y-3426642D01*
X9939142Y-3426642D01*
X9939142Y-4939142D02*
X9939142Y-4910858D01*
X9910858Y-4910858D01*
X9910858Y-4939142D01*
X9939142Y-4939142D01*
X9939142Y-5101642D02*
X9939142Y-5073358D01*
X9910858Y-5073358D01*
X9910858Y-5101642D01*
X9939142Y-5101642D01*
X9939142Y-5264142D02*
X9939142Y-5235858D01*
X9910858Y-5235858D01*
X9910858Y-5264142D01*
X9939142Y-5264142D01*
X9939142Y-5426642D02*
X9939142Y-5398358D01*
X9910858Y-5398358D01*
X9910858Y-5426642D01*
X9939142Y-5426642D01*
X9939142Y-5989142D02*
X9939142Y-5960858D01*
X9910858Y-5960858D01*
X9910858Y-5989142D01*
X9939142Y-5989142D01*
X9939142Y-6151642D02*
X9939142Y-6123358D01*
X9910858Y-6123358D01*
X9910858Y-6151642D01*
X9939142Y-6151642D01*
X9939142Y-6314142D02*
X9939142Y-6285858D01*
X9910858Y-6285858D01*
X9910858Y-6314142D01*
X9939142Y-6314142D01*
X9939142Y-6476642D02*
X9939142Y-6448358D01*
X9910858Y-6448358D01*
X9910858Y-6476642D01*
X9939142Y-6476642D01*
X9939142Y-7976642D02*
X9939142Y-7948358D01*
X9910858Y-7948358D01*
X9910858Y-7976642D01*
X9939142Y-7976642D01*
X9939142Y-8139142D02*
X9939142Y-8110858D01*
X9910858Y-8110858D01*
X9910858Y-8139142D01*
X9939142Y-8139142D01*
X9939142Y-8301642D02*
X9939142Y-8273358D01*
X9910858Y-8273358D01*
X9910858Y-8301642D01*
X9939142Y-8301642D01*
X9939142Y-8464142D02*
X9939142Y-8435858D01*
X9910858Y-8435858D01*
X9910858Y-8464142D01*
X9939142Y-8464142D01*
X9939142Y-8626642D02*
X9939142Y-8598358D01*
X9910858Y-8598358D01*
X9910858Y-8626642D01*
X9939142Y-8626642D01*
X9939142Y-9114142D02*
X9939142Y-9085858D01*
X9910858Y-9085858D01*
X9910858Y-9114142D01*
X9939142Y-9114142D01*
X10098517Y-2264142D02*
X10098517Y-2235858D01*
X10070233Y-2235858D01*
X10070233Y-2264142D01*
X10098517Y-2264142D01*
X10098517Y-9114142D02*
X10098517Y-9085858D01*
X10070233Y-9085858D01*
X10070233Y-9114142D01*
X10098517Y-9114142D01*
X10257892Y-2264142D02*
X10257892Y-2235858D01*
X10229608Y-2235858D01*
X10229608Y-2264142D01*
X10257892Y-2264142D01*
X10257892Y-9114142D02*
X10257892Y-9085858D01*
X10229608Y-9085858D01*
X10229608Y-9114142D01*
X10257892Y-9114142D01*
X10414142Y-5226642D02*
X10414142Y-5198358D01*
X10385858Y-5198358D01*
X10385858Y-5226642D01*
X10414142Y-5226642D01*
X10414142Y-5389142D02*
X10414142Y-5360858D01*
X10385858Y-5360858D01*
X10385858Y-5389142D01*
X10414142Y-5389142D01*
X10414142Y-5551642D02*
X10414142Y-5523358D01*
X10385858Y-5523358D01*
X10385858Y-5551642D01*
X10414142Y-5551642D01*
X10414142Y-5714142D02*
X10414142Y-5685858D01*
X10385858Y-5685858D01*
X10385858Y-5714142D01*
X10414142Y-5714142D01*
X10414142Y-5876642D02*
X10414142Y-5848358D01*
X10385858Y-5848358D01*
X10385858Y-5876642D01*
X10414142Y-5876642D01*
X10414142Y-6039142D02*
X10414142Y-6010858D01*
X10385858Y-6010858D01*
X10385858Y-6039142D01*
X10414142Y-6039142D01*
X10414142Y-6201642D02*
X10414142Y-6173358D01*
X10385858Y-6173358D01*
X10385858Y-6201642D01*
X10414142Y-6201642D01*
X10417267Y-2264142D02*
X10417267Y-2235858D01*
X10388983Y-2235858D01*
X10388983Y-2264142D01*
X10417267Y-2264142D01*
X10417267Y-9114142D02*
X10417267Y-9085858D01*
X10388983Y-9085858D01*
X10388983Y-9114142D01*
X10417267Y-9114142D01*
X10576642Y-2264142D02*
X10576642Y-2235858D01*
X10548358Y-2235858D01*
X10548358Y-2264142D01*
X10576642Y-2264142D01*
X10576642Y-9114142D02*
X10576642Y-9085858D01*
X10548358Y-9085858D01*
X10548358Y-9114142D01*
X10576642Y-9114142D01*
X10736017Y-2264142D02*
X10736017Y-2235858D01*
X10707733Y-2235858D01*
X10707733Y-2264142D01*
X10736017Y-2264142D01*
X10736017Y-9114142D02*
X10736017Y-9085858D01*
X10707733Y-9085858D01*
X10707733Y-9114142D01*
X10736017Y-9114142D01*
X10895392Y-2264142D02*
X10895392Y-2235858D01*
X10867108Y-2235858D01*
X10867108Y-2264142D01*
X10895392Y-2264142D01*
X10895392Y-9114142D02*
X10895392Y-9085858D01*
X10867108Y-9085858D01*
X10867108Y-9114142D01*
X10895392Y-9114142D01*
X11054767Y-2264142D02*
X11054767Y-2235858D01*
X11026483Y-2235858D01*
X11026483Y-2264142D01*
X11054767Y-2264142D01*
X11054767Y-9114142D02*
X11054767Y-9085858D01*
X11026483Y-9085858D01*
X11026483Y-9114142D01*
X11054767Y-9114142D01*
X11214142Y-2264142D02*
X11214142Y-2235858D01*
X11185858Y-2235858D01*
X11185858Y-2264142D01*
X11214142Y-2264142D01*
X11214142Y-9114142D02*
X11214142Y-9085858D01*
X11185858Y-9085858D01*
X11185858Y-9114142D01*
X11214142Y-9114142D01*
X11439142Y-2589142D02*
X11439142Y-2560858D01*
X11410858Y-2560858D01*
X11410858Y-2589142D01*
X11439142Y-2589142D01*
X11439142Y-2751642D02*
X11439142Y-2723358D01*
X11410858Y-2723358D01*
X11410858Y-2751642D01*
X11439142Y-2751642D01*
X11439142Y-2914142D02*
X11439142Y-2885858D01*
X11410858Y-2885858D01*
X11410858Y-2914142D01*
X11439142Y-2914142D01*
X11439142Y-3076642D02*
X11439142Y-3048358D01*
X11410858Y-3048358D01*
X11410858Y-3076642D01*
X11439142Y-3076642D01*
X11439142Y-3239142D02*
X11439142Y-3210858D01*
X11410858Y-3210858D01*
X11410858Y-3239142D01*
X11439142Y-3239142D01*
X11439142Y-3401642D02*
X11439142Y-3373358D01*
X11410858Y-3373358D01*
X11410858Y-3401642D01*
X11439142Y-3401642D01*
X11439142Y-3564142D02*
X11439142Y-3535858D01*
X11410858Y-3535858D01*
X11410858Y-3564142D01*
X11439142Y-3564142D01*
X11439142Y-3964142D02*
X11439142Y-3935858D01*
X11410858Y-3935858D01*
X11410858Y-3964142D01*
X11439142Y-3964142D01*
X11439142Y-4117083D02*
X11439142Y-4088799D01*
X11410858Y-4088799D01*
X11410858Y-4117083D01*
X11439142Y-4117083D01*
X11439142Y-4270025D02*
X11439142Y-4241740D01*
X11410858Y-4241740D01*
X11410858Y-4270025D01*
X11439142Y-4270025D01*
X11439142Y-4422966D02*
X11439142Y-4394681D01*
X11410858Y-4394681D01*
X11410858Y-4422966D01*
X11439142Y-4422966D01*
X11439142Y-4575907D02*
X11439142Y-4547622D01*
X11410858Y-4547622D01*
X11410858Y-4575907D01*
X11439142Y-4575907D01*
X11439142Y-4728848D02*
X11439142Y-4700563D01*
X11410858Y-4700563D01*
X11410858Y-4728848D01*
X11439142Y-4728848D01*
X11439142Y-4881789D02*
X11439142Y-4853504D01*
X11410858Y-4853504D01*
X11410858Y-4881789D01*
X11439142Y-4881789D01*
X11439142Y-5034730D02*
X11439142Y-5006445D01*
X11410858Y-5006445D01*
X11410858Y-5034730D01*
X11439142Y-5034730D01*
X11439142Y-5187671D02*
X11439142Y-5159387D01*
X11410858Y-5159387D01*
X11410858Y-5187671D01*
X11439142Y-5187671D01*
X11439142Y-5340612D02*
X11439142Y-5312328D01*
X11410858Y-5312328D01*
X11410858Y-5340612D01*
X11439142Y-5340612D01*
X11439142Y-5493553D02*
X11439142Y-5465269D01*
X11410858Y-5465269D01*
X11410858Y-5493553D01*
X11439142Y-5493553D01*
X11439142Y-5646494D02*
X11439142Y-5618210D01*
X11410858Y-5618210D01*
X11410858Y-5646494D01*
X11439142Y-5646494D01*
X11439142Y-5799435D02*
X11439142Y-5771151D01*
X11410858Y-5771151D01*
X11410858Y-5799435D01*
X11439142Y-5799435D01*
X11439142Y-5952377D02*
X11439142Y-5924092D01*
X11410858Y-5924092D01*
X11410858Y-5952377D01*
X11439142Y-5952377D01*
X11439142Y-6105318D02*
X11439142Y-6077033D01*
X11410858Y-6077033D01*
X11410858Y-6105318D01*
X11439142Y-6105318D01*
X11439142Y-6258259D02*
X11439142Y-6229974D01*
X11410858Y-6229974D01*
X11410858Y-6258259D01*
X11439142Y-6258259D01*
X11439142Y-6411200D02*
X11439142Y-6382915D01*
X11410858Y-6382915D01*
X11410858Y-6411200D01*
X11439142Y-6411200D01*
X11439142Y-6564142D02*
X11439142Y-6535858D01*
X11410858Y-6535858D01*
X11410858Y-6564142D01*
X11439142Y-6564142D01*
X11439142Y-7039142D02*
X11439142Y-7010858D01*
X11410858Y-7010858D01*
X11410858Y-7039142D01*
X11439142Y-7039142D01*
X11439142Y-7187059D02*
X11439142Y-7158774D01*
X11410858Y-7158774D01*
X11410858Y-7187059D01*
X11439142Y-7187059D01*
X11439142Y-7334975D02*
X11439142Y-7306691D01*
X11410858Y-7306691D01*
X11410858Y-7334975D01*
X11439142Y-7334975D01*
X11439142Y-7482892D02*
X11439142Y-7454607D01*
X11410858Y-7454607D01*
X11410858Y-7482892D01*
X11439142Y-7482892D01*
X11439142Y-7630809D02*
X11439142Y-7602524D01*
X11410858Y-7602524D01*
X11410858Y-7630809D01*
X11439142Y-7630809D01*
X11439142Y-7778725D02*
X11439142Y-7750441D01*
X11410858Y-7750441D01*
X11410858Y-7778725D01*
X11439142Y-7778725D01*
X11439142Y-7926642D02*
X11439142Y-7898357D01*
X11410858Y-7898357D01*
X11410858Y-7926642D01*
X11439142Y-7926642D01*
X11439142Y-8074558D02*
X11439142Y-8046274D01*
X11410858Y-8046274D01*
X11410858Y-8074558D01*
X11439142Y-8074558D01*
X11439142Y-8222475D02*
X11439142Y-8194190D01*
X11410858Y-8194190D01*
X11410858Y-8222475D01*
X11439142Y-8222475D01*
X11439142Y-8370392D02*
X11439142Y-8342107D01*
X11410858Y-8342107D01*
X11410858Y-8370392D01*
X11439142Y-8370392D01*
X11439142Y-8518308D02*
X11439142Y-8490024D01*
X11410858Y-8490024D01*
X11410858Y-8518308D01*
X11439142Y-8518308D01*
X11439142Y-8666225D02*
X11439142Y-8637940D01*
X11410858Y-8637940D01*
X11410858Y-8666225D01*
X11439142Y-8666225D01*
X11439142Y-8814142D02*
X11439142Y-8785858D01*
X11410858Y-8785858D01*
X11410858Y-8814142D01*
X11439142Y-8814142D01*
X7100000Y-2790000D02*
X7140000Y-2750000D01*
X7100000Y-2710000D01*
X7060000Y-2750000D01*
X7100000Y-2790000D01*
X7100000Y-3290000D02*
X7140000Y-3250000D01*
X7100000Y-3210000D01*
X7060000Y-3250000D01*
X7100000Y-3290000D01*
X7100000Y-4090000D02*
X7140000Y-4050000D01*
X7100000Y-4010000D01*
X7060000Y-4050000D01*
X7100000Y-4090000D01*
X7100000Y-4590000D02*
X7140000Y-4550000D01*
X7100000Y-4510000D01*
X7060000Y-4550000D01*
X7100000Y-4590000D01*
X7100000Y-5840000D02*
X7140000Y-5800000D01*
X7100000Y-5760000D01*
X7060000Y-5800000D01*
X7100000Y-5840000D01*
X7100000Y-6340000D02*
X7140000Y-6300000D01*
X7100000Y-6260000D01*
X7060000Y-6300000D01*
X7100000Y-6340000D01*
X7100000Y-7140000D02*
X7140000Y-7100000D01*
X7100000Y-7060000D01*
X7060000Y-7100000D01*
X7100000Y-7140000D01*
X7100000Y-7640000D02*
X7140000Y-7600000D01*
X7100000Y-7560000D01*
X7060000Y-7600000D01*
X7100000Y-7640000D01*
X7623000Y-2940000D02*
X7663000Y-2900000D01*
X7623000Y-2860000D01*
X7583000Y-2900000D01*
X7623000Y-2940000D01*
X7623000Y-4440000D02*
X7663000Y-4400000D01*
X7623000Y-4360000D01*
X7583000Y-4400000D01*
X7623000Y-4440000D01*
X7623000Y-5990000D02*
X7663000Y-5950000D01*
X7623000Y-5910000D01*
X7583000Y-5950000D01*
X7623000Y-5990000D01*
X7623000Y-7490000D02*
X7663000Y-7450000D01*
X7623000Y-7410000D01*
X7583000Y-7450000D01*
X7623000Y-7490000D01*
X8123000Y-2940000D02*
X8163000Y-2900000D01*
X8123000Y-2860000D01*
X8083000Y-2900000D01*
X8123000Y-2940000D01*
X8123000Y-4440000D02*
X8163000Y-4400000D01*
X8123000Y-4360000D01*
X8083000Y-4400000D01*
X8123000Y-4440000D01*
X8123000Y-5990000D02*
X8163000Y-5950000D01*
X8123000Y-5910000D01*
X8083000Y-5950000D01*
X8123000Y-5990000D01*
X8123000Y-7490000D02*
X8163000Y-7450000D01*
X8123000Y-7410000D01*
X8083000Y-7450000D01*
X8123000Y-7490000D01*
X9150000Y-3309000D02*
X9190000Y-3269000D01*
X9150000Y-3229000D01*
X9110000Y-3269000D01*
X9150000Y-3309000D01*
X9150000Y-3809000D02*
X9190000Y-3769000D01*
X9150000Y-3729000D01*
X9110000Y-3769000D01*
X9150000Y-3809000D01*
X9150000Y-4590000D02*
X9190000Y-4550000D01*
X9150000Y-4510000D01*
X9110000Y-4550000D01*
X9150000Y-4590000D01*
X9150000Y-5090000D02*
X9190000Y-5050000D01*
X9150000Y-5010000D01*
X9110000Y-5050000D01*
X9150000Y-5090000D01*
X9150000Y-6379000D02*
X9190000Y-6339000D01*
X9150000Y-6299000D01*
X9110000Y-6339000D01*
X9150000Y-6379000D01*
X9150000Y-6879000D02*
X9190000Y-6839000D01*
X9150000Y-6799000D01*
X9110000Y-6839000D01*
X9150000Y-6879000D01*
X9150000Y-7640000D02*
X9190000Y-7600000D01*
X9150000Y-7560000D01*
X9110000Y-7600000D01*
X9150000Y-7640000D01*
X9150000Y-8140000D02*
X9190000Y-8100000D01*
X9150000Y-8060000D01*
X9110000Y-8100000D01*
X9150000Y-8140000D01*
X2380000Y-7026000D02*
X2470000Y-7116000D01*
X2470000Y-7026000D02*
X2380000Y-7116000D01*
X2470000Y-7071000D02*
G75*
G02*
X2380000Y-7071000I-45000J0D01*
G01*
X2380000Y-7071000D02*
G75*
G02*
X2470000Y-7071000I45000J0D01*
G01*
X2380000Y-7280000D02*
X2470000Y-7370000D01*
X2470000Y-7280000D02*
X2380000Y-7370000D01*
X2470000Y-7325000D02*
G75*
G02*
X2380000Y-7325000I-45000J0D01*
G01*
X2380000Y-7325000D02*
G75*
G02*
X2470000Y-7325000I45000J0D01*
G01*
X2370000Y-8420000D02*
X2470000Y-8520000D01*
X2470000Y-8420000D02*
X2370000Y-8520000D01*
X2420000Y-8420000D02*
X2420000Y-8520000D01*
X2370000Y-8470000D02*
X2470000Y-8470000D01*
X2370000Y-8360000D02*
X2370000Y-8580000D01*
X2470000Y-8580000D02*
G75*
G02*
X2370000Y-8580000I-50000J0D01*
G01*
X2470000Y-8580000D02*
X2470000Y-8360000D01*
X2470000Y-8360000D02*
G75*
G03*
X2370000Y-8360000I-50000J0D01*
G01*
X2710000Y-8900000D02*
X2810000Y-9000000D01*
X2810000Y-8900000D02*
X2710000Y-9000000D01*
X2760000Y-8900000D02*
X2760000Y-9000000D01*
X2710000Y-8950000D02*
X2810000Y-8950000D01*
X2870000Y-8900000D02*
X2650000Y-8900000D01*
X2650000Y-9000000D02*
G75*
G02*
X2650000Y-8900000I0J50000D01*
G01*
X2650000Y-9000000D02*
X2870000Y-9000000D01*
X2870000Y-9000000D02*
G75*
G03*
X2870000Y-8900000I0J50000D01*
G01*
X3000000Y-8420000D02*
X3100000Y-8520000D01*
X3100000Y-8420000D02*
X3000000Y-8520000D01*
X3050000Y-8420000D02*
X3050000Y-8520000D01*
X3000000Y-8470000D02*
X3100000Y-8470000D01*
X3000000Y-8340000D02*
X3000000Y-8600000D01*
X3100000Y-8600000D02*
G75*
G02*
X3000000Y-8600000I-50000J0D01*
G01*
X3100000Y-8600000D02*
X3100000Y-8340000D01*
X3100000Y-8340000D02*
G75*
G03*
X3000000Y-8340000I-50000J0D01*
G01*
X11375000Y-2275000D02*
X11475000Y-2375000D01*
X11475000Y-2275000D02*
X11375000Y-2375000D01*
X11425000Y-2275000D02*
X11425000Y-2375000D01*
X11375000Y-2325000D02*
X11475000Y-2325000D01*
X11375000Y-8975000D02*
X11475000Y-9075000D01*
X11475000Y-8975000D02*
X11375000Y-9075000D01*
X11425000Y-8975000D02*
X11425000Y-9075000D01*
X11375000Y-9025000D02*
X11475000Y-9025000D01*
D12*
X3566000Y-3671000D02*
X3686000Y-3791000D01*
X3686000Y-3671000D02*
X3566000Y-3791000D01*
X3668427Y-3773427D02*
X3668427Y-3688573D01*
X3583573Y-3688573D01*
X3583573Y-3773427D01*
X3668427Y-3773427D01*
X9990000Y-4090000D02*
X10110000Y-4210000D01*
X10110000Y-4090000D02*
X9990000Y-4210000D01*
X10092427Y-4192427D02*
X10092427Y-4107573D01*
X10007573Y-4107573D01*
X10007573Y-4192427D01*
X10092427Y-4192427D01*
X9990000Y-7160000D02*
X10110000Y-7280000D01*
X10110000Y-7160000D02*
X9990000Y-7280000D01*
X10092427Y-7262427D02*
X10092427Y-7177573D01*
X10007573Y-7177573D01*
X10007573Y-7262427D01*
X10092427Y-7262427D01*
X10498000Y-4090000D02*
X10618000Y-4210000D01*
X10618000Y-4090000D02*
X10498000Y-4210000D01*
X10600427Y-4192427D02*
X10600427Y-4107573D01*
X10515573Y-4107573D01*
X10515573Y-4192427D01*
X10600427Y-4192427D01*
X10498000Y-7160000D02*
X10618000Y-7280000D01*
X10618000Y-7160000D02*
X10498000Y-7280000D01*
X10600427Y-7262427D02*
X10600427Y-7177573D01*
X10515573Y-7177573D01*
X10515573Y-7262427D01*
X10600427Y-7262427D01*
D13*
X3101000Y-4032000D02*
X3261000Y-4192000D01*
X3261000Y-4032000D02*
X3101000Y-4192000D01*
X3181000Y-4192000D02*
X3261000Y-4112000D01*
X3181000Y-4032000D01*
X3101000Y-4112000D01*
X3181000Y-4192000D01*
X3164500Y-3270000D02*
X3324500Y-3430000D01*
X3324500Y-3270000D02*
X3164500Y-3430000D01*
X3244500Y-3430000D02*
X3324500Y-3350000D01*
X3244500Y-3270000D01*
X3164500Y-3350000D01*
X3244500Y-3430000D01*
X9970000Y-3689000D02*
X10130000Y-3849000D01*
X10130000Y-3689000D02*
X9970000Y-3849000D01*
X10050000Y-3849000D02*
X10130000Y-3769000D01*
X10050000Y-3689000D01*
X9970000Y-3769000D01*
X10050000Y-3849000D01*
X9970000Y-4451000D02*
X10130000Y-4611000D01*
X10130000Y-4451000D02*
X9970000Y-4611000D01*
X10050000Y-4611000D02*
X10130000Y-4531000D01*
X10050000Y-4451000D01*
X9970000Y-4531000D01*
X10050000Y-4611000D01*
X9970000Y-6759000D02*
X10130000Y-6919000D01*
X10130000Y-6759000D02*
X9970000Y-6919000D01*
X10050000Y-6919000D02*
X10130000Y-6839000D01*
X10050000Y-6759000D01*
X9970000Y-6839000D01*
X10050000Y-6919000D01*
X9970000Y-7521000D02*
X10130000Y-7681000D01*
X10130000Y-7521000D02*
X9970000Y-7681000D01*
X10050000Y-7681000D02*
X10130000Y-7601000D01*
X10050000Y-7521000D01*
X9970000Y-7601000D01*
X10050000Y-7681000D01*
D10*
X2320777Y-9721484D02*
X2320777Y-9521484D01*
X2320777Y-9521484D02*
X2368396Y-9521484D01*
X2368396Y-9521484D02*
X2396967Y-9531008D01*
X2396967Y-9531008D02*
X2416015Y-9550055D01*
X2416015Y-9550055D02*
X2425539Y-9569103D01*
X2425539Y-9569103D02*
X2435063Y-9607198D01*
X2435063Y-9607198D02*
X2435063Y-9635770D01*
X2435063Y-9635770D02*
X2425539Y-9673865D01*
X2425539Y-9673865D02*
X2416015Y-9692912D01*
X2416015Y-9692912D02*
X2396967Y-9711960D01*
X2396967Y-9711960D02*
X2368396Y-9721484D01*
X2368396Y-9721484D02*
X2320777Y-9721484D01*
X2520777Y-9721484D02*
X2520777Y-9588150D01*
X2520777Y-9626246D02*
X2530301Y-9607198D01*
X2530301Y-9607198D02*
X2539824Y-9597674D01*
X2539824Y-9597674D02*
X2558872Y-9588150D01*
X2558872Y-9588150D02*
X2577920Y-9588150D01*
X2644586Y-9721484D02*
X2644586Y-9588150D01*
X2644586Y-9521484D02*
X2635063Y-9531008D01*
X2635063Y-9531008D02*
X2644586Y-9540531D01*
X2644586Y-9540531D02*
X2654110Y-9531008D01*
X2654110Y-9531008D02*
X2644586Y-9521484D01*
X2644586Y-9521484D02*
X2644586Y-9540531D01*
X2768396Y-9721484D02*
X2749348Y-9711960D01*
X2749348Y-9711960D02*
X2739824Y-9692912D01*
X2739824Y-9692912D02*
X2739824Y-9521484D01*
X2873158Y-9721484D02*
X2854110Y-9711960D01*
X2854110Y-9711960D02*
X2844586Y-9692912D01*
X2844586Y-9692912D02*
X2844586Y-9521484D01*
X3101729Y-9721484D02*
X3101729Y-9521484D01*
X3101729Y-9521484D02*
X3168396Y-9664341D01*
X3168396Y-9664341D02*
X3235062Y-9521484D01*
X3235062Y-9521484D02*
X3235062Y-9721484D01*
X3416015Y-9721484D02*
X3416015Y-9616722D01*
X3416015Y-9616722D02*
X3406491Y-9597674D01*
X3406491Y-9597674D02*
X3387443Y-9588150D01*
X3387443Y-9588150D02*
X3349348Y-9588150D01*
X3349348Y-9588150D02*
X3330301Y-9597674D01*
X3416015Y-9711960D02*
X3396967Y-9721484D01*
X3396967Y-9721484D02*
X3349348Y-9721484D01*
X3349348Y-9721484D02*
X3330301Y-9711960D01*
X3330301Y-9711960D02*
X3320777Y-9692912D01*
X3320777Y-9692912D02*
X3320777Y-9673865D01*
X3320777Y-9673865D02*
X3330301Y-9654817D01*
X3330301Y-9654817D02*
X3349348Y-9645293D01*
X3349348Y-9645293D02*
X3396967Y-9645293D01*
X3396967Y-9645293D02*
X3416015Y-9635770D01*
X3511253Y-9588150D02*
X3511253Y-9788150D01*
X3511253Y-9597674D02*
X3530301Y-9588150D01*
X3530301Y-9588150D02*
X3568396Y-9588150D01*
X3568396Y-9588150D02*
X3587443Y-9597674D01*
X3587443Y-9597674D02*
X3596967Y-9607198D01*
X3596967Y-9607198D02*
X3606491Y-9626246D01*
X3606491Y-9626246D02*
X3606491Y-9683389D01*
X3606491Y-9683389D02*
X3596967Y-9702436D01*
X3596967Y-9702436D02*
X3587443Y-9711960D01*
X3587443Y-9711960D02*
X3568396Y-9721484D01*
X3568396Y-9721484D02*
X3530301Y-9721484D01*
X3530301Y-9721484D02*
X3511253Y-9711960D01*
X3692205Y-9702436D02*
X3701729Y-9711960D01*
X3701729Y-9711960D02*
X3692205Y-9721484D01*
X3692205Y-9721484D02*
X3682682Y-9711960D01*
X3682682Y-9711960D02*
X3692205Y-9702436D01*
X3692205Y-9702436D02*
X3692205Y-9721484D01*
X3692205Y-9597674D02*
X3701729Y-9607198D01*
X3701729Y-9607198D02*
X3692205Y-9616722D01*
X3692205Y-9616722D02*
X3682682Y-9607198D01*
X3682682Y-9607198D02*
X3692205Y-9597674D01*
X3692205Y-9597674D02*
X3692205Y-9616722D01*
D11*
X2040000Y-10040000D02*
X2060000Y-10060000D01*
X2060000Y-10040000D02*
X2040000Y-10060000D01*
D10*
X2358872Y-9941484D02*
X2377920Y-9941484D01*
X2377920Y-9941484D02*
X2396967Y-9951008D01*
X2396967Y-9951008D02*
X2406491Y-9960531D01*
X2406491Y-9960531D02*
X2416015Y-9979579D01*
X2416015Y-9979579D02*
X2425539Y-10017674D01*
X2425539Y-10017674D02*
X2425539Y-10065293D01*
X2425539Y-10065293D02*
X2416015Y-10103389D01*
X2416015Y-10103389D02*
X2406491Y-10122436D01*
X2406491Y-10122436D02*
X2396967Y-10131960D01*
X2396967Y-10131960D02*
X2377920Y-10141484D01*
X2377920Y-10141484D02*
X2358872Y-10141484D01*
X2358872Y-10141484D02*
X2339824Y-10131960D01*
X2339824Y-10131960D02*
X2330301Y-10122436D01*
X2330301Y-10122436D02*
X2320777Y-10103389D01*
X2320777Y-10103389D02*
X2311253Y-10065293D01*
X2311253Y-10065293D02*
X2311253Y-10017674D01*
X2311253Y-10017674D02*
X2320777Y-9979579D01*
X2320777Y-9979579D02*
X2330301Y-9960531D01*
X2330301Y-9960531D02*
X2339824Y-9951008D01*
X2339824Y-9951008D02*
X2358872Y-9941484D01*
X2511253Y-10122436D02*
X2520777Y-10131960D01*
X2520777Y-10131960D02*
X2511253Y-10141484D01*
X2511253Y-10141484D02*
X2501729Y-10131960D01*
X2501729Y-10131960D02*
X2511253Y-10122436D01*
X2511253Y-10122436D02*
X2511253Y-10141484D01*
X2596967Y-9960531D02*
X2606491Y-9951008D01*
X2606491Y-9951008D02*
X2625539Y-9941484D01*
X2625539Y-9941484D02*
X2673158Y-9941484D01*
X2673158Y-9941484D02*
X2692205Y-9951008D01*
X2692205Y-9951008D02*
X2701729Y-9960531D01*
X2701729Y-9960531D02*
X2711253Y-9979579D01*
X2711253Y-9979579D02*
X2711253Y-9998627D01*
X2711253Y-9998627D02*
X2701729Y-10027198D01*
X2701729Y-10027198D02*
X2587444Y-10141484D01*
X2587444Y-10141484D02*
X2711253Y-10141484D01*
X2835062Y-9941484D02*
X2854110Y-9941484D01*
X2854110Y-9941484D02*
X2873158Y-9951008D01*
X2873158Y-9951008D02*
X2882682Y-9960531D01*
X2882682Y-9960531D02*
X2892205Y-9979579D01*
X2892205Y-9979579D02*
X2901729Y-10017674D01*
X2901729Y-10017674D02*
X2901729Y-10065293D01*
X2901729Y-10065293D02*
X2892205Y-10103389D01*
X2892205Y-10103389D02*
X2882682Y-10122436D01*
X2882682Y-10122436D02*
X2873158Y-10131960D01*
X2873158Y-10131960D02*
X2854110Y-10141484D01*
X2854110Y-10141484D02*
X2835062Y-10141484D01*
X2835062Y-10141484D02*
X2816015Y-10131960D01*
X2816015Y-10131960D02*
X2806491Y-10122436D01*
X2806491Y-10122436D02*
X2796967Y-10103389D01*
X2796967Y-10103389D02*
X2787444Y-10065293D01*
X2787444Y-10065293D02*
X2787444Y-10017674D01*
X2787444Y-10017674D02*
X2796967Y-9979579D01*
X2796967Y-9979579D02*
X2806491Y-9960531D01*
X2806491Y-9960531D02*
X2816015Y-9951008D01*
X2816015Y-9951008D02*
X2835062Y-9941484D01*
X3025539Y-9941484D02*
X3044586Y-9941484D01*
X3044586Y-9941484D02*
X3063634Y-9951008D01*
X3063634Y-9951008D02*
X3073158Y-9960531D01*
X3073158Y-9960531D02*
X3082682Y-9979579D01*
X3082682Y-9979579D02*
X3092205Y-10017674D01*
X3092205Y-10017674D02*
X3092205Y-10065293D01*
X3092205Y-10065293D02*
X3082682Y-10103389D01*
X3082682Y-10103389D02*
X3073158Y-10122436D01*
X3073158Y-10122436D02*
X3063634Y-10131960D01*
X3063634Y-10131960D02*
X3044586Y-10141484D01*
X3044586Y-10141484D02*
X3025539Y-10141484D01*
X3025539Y-10141484D02*
X3006491Y-10131960D01*
X3006491Y-10131960D02*
X2996967Y-10122436D01*
X2996967Y-10122436D02*
X2987443Y-10103389D01*
X2987443Y-10103389D02*
X2977920Y-10065293D01*
X2977920Y-10065293D02*
X2977920Y-10017674D01*
X2977920Y-10017674D02*
X2987443Y-9979579D01*
X2987443Y-9979579D02*
X2996967Y-9960531D01*
X2996967Y-9960531D02*
X3006491Y-9951008D01*
X3006491Y-9951008D02*
X3025539Y-9941484D01*
X3177920Y-10141484D02*
X3177920Y-10008150D01*
X3177920Y-10027198D02*
X3187443Y-10017674D01*
X3187443Y-10017674D02*
X3206491Y-10008150D01*
X3206491Y-10008150D02*
X3235063Y-10008150D01*
X3235063Y-10008150D02*
X3254110Y-10017674D01*
X3254110Y-10017674D02*
X3263634Y-10036722D01*
X3263634Y-10036722D02*
X3263634Y-10141484D01*
X3263634Y-10036722D02*
X3273158Y-10017674D01*
X3273158Y-10017674D02*
X3292205Y-10008150D01*
X3292205Y-10008150D02*
X3320777Y-10008150D01*
X3320777Y-10008150D02*
X3339824Y-10017674D01*
X3339824Y-10017674D02*
X3349348Y-10036722D01*
X3349348Y-10036722D02*
X3349348Y-10141484D01*
X3444586Y-10141484D02*
X3444586Y-10008150D01*
X3444586Y-10027198D02*
X3454110Y-10017674D01*
X3454110Y-10017674D02*
X3473158Y-10008150D01*
X3473158Y-10008150D02*
X3501729Y-10008150D01*
X3501729Y-10008150D02*
X3520777Y-10017674D01*
X3520777Y-10017674D02*
X3530301Y-10036722D01*
X3530301Y-10036722D02*
X3530301Y-10141484D01*
X3530301Y-10036722D02*
X3539824Y-10017674D01*
X3539824Y-10017674D02*
X3558872Y-10008150D01*
X3558872Y-10008150D02*
X3587443Y-10008150D01*
X3587443Y-10008150D02*
X3606491Y-10017674D01*
X3606491Y-10017674D02*
X3616015Y-10036722D01*
X3616015Y-10036722D02*
X3616015Y-10141484D01*
X4006491Y-9931960D02*
X3835063Y-10189103D01*
X4263634Y-9941484D02*
X4282682Y-9941484D01*
X4282682Y-9941484D02*
X4301729Y-9951008D01*
X4301729Y-9951008D02*
X4311253Y-9960531D01*
X4311253Y-9960531D02*
X4320777Y-9979579D01*
X4320777Y-9979579D02*
X4330301Y-10017674D01*
X4330301Y-10017674D02*
X4330301Y-10065293D01*
X4330301Y-10065293D02*
X4320777Y-10103389D01*
X4320777Y-10103389D02*
X4311253Y-10122436D01*
X4311253Y-10122436D02*
X4301729Y-10131960D01*
X4301729Y-10131960D02*
X4282682Y-10141484D01*
X4282682Y-10141484D02*
X4263634Y-10141484D01*
X4263634Y-10141484D02*
X4244587Y-10131960D01*
X4244587Y-10131960D02*
X4235063Y-10122436D01*
X4235063Y-10122436D02*
X4225539Y-10103389D01*
X4225539Y-10103389D02*
X4216015Y-10065293D01*
X4216015Y-10065293D02*
X4216015Y-10017674D01*
X4216015Y-10017674D02*
X4225539Y-9979579D01*
X4225539Y-9979579D02*
X4235063Y-9960531D01*
X4235063Y-9960531D02*
X4244587Y-9951008D01*
X4244587Y-9951008D02*
X4263634Y-9941484D01*
X4416015Y-10122436D02*
X4425539Y-10131960D01*
X4425539Y-10131960D02*
X4416015Y-10141484D01*
X4416015Y-10141484D02*
X4406491Y-10131960D01*
X4406491Y-10131960D02*
X4416015Y-10122436D01*
X4416015Y-10122436D02*
X4416015Y-10141484D01*
X4549348Y-9941484D02*
X4568396Y-9941484D01*
X4568396Y-9941484D02*
X4587444Y-9951008D01*
X4587444Y-9951008D02*
X4596968Y-9960531D01*
X4596968Y-9960531D02*
X4606491Y-9979579D01*
X4606491Y-9979579D02*
X4616015Y-10017674D01*
X4616015Y-10017674D02*
X4616015Y-10065293D01*
X4616015Y-10065293D02*
X4606491Y-10103389D01*
X4606491Y-10103389D02*
X4596968Y-10122436D01*
X4596968Y-10122436D02*
X4587444Y-10131960D01*
X4587444Y-10131960D02*
X4568396Y-10141484D01*
X4568396Y-10141484D02*
X4549348Y-10141484D01*
X4549348Y-10141484D02*
X4530301Y-10131960D01*
X4530301Y-10131960D02*
X4520777Y-10122436D01*
X4520777Y-10122436D02*
X4511253Y-10103389D01*
X4511253Y-10103389D02*
X4501729Y-10065293D01*
X4501729Y-10065293D02*
X4501729Y-10017674D01*
X4501729Y-10017674D02*
X4511253Y-9979579D01*
X4511253Y-9979579D02*
X4520777Y-9960531D01*
X4520777Y-9960531D02*
X4530301Y-9951008D01*
X4530301Y-9951008D02*
X4549348Y-9941484D01*
X4739825Y-9941484D02*
X4758872Y-9941484D01*
X4758872Y-9941484D02*
X4777920Y-9951008D01*
X4777920Y-9951008D02*
X4787444Y-9960531D01*
X4787444Y-9960531D02*
X4796968Y-9979579D01*
X4796968Y-9979579D02*
X4806491Y-10017674D01*
X4806491Y-10017674D02*
X4806491Y-10065293D01*
X4806491Y-10065293D02*
X4796968Y-10103389D01*
X4796968Y-10103389D02*
X4787444Y-10122436D01*
X4787444Y-10122436D02*
X4777920Y-10131960D01*
X4777920Y-10131960D02*
X4758872Y-10141484D01*
X4758872Y-10141484D02*
X4739825Y-10141484D01*
X4739825Y-10141484D02*
X4720777Y-10131960D01*
X4720777Y-10131960D02*
X4711253Y-10122436D01*
X4711253Y-10122436D02*
X4701729Y-10103389D01*
X4701729Y-10103389D02*
X4692206Y-10065293D01*
X4692206Y-10065293D02*
X4692206Y-10017674D01*
X4692206Y-10017674D02*
X4701729Y-9979579D01*
X4701729Y-9979579D02*
X4711253Y-9960531D01*
X4711253Y-9960531D02*
X4720777Y-9951008D01*
X4720777Y-9951008D02*
X4739825Y-9941484D01*
X4873158Y-9941484D02*
X5006491Y-9941484D01*
X5006491Y-9941484D02*
X4920777Y-10141484D01*
X5092206Y-10141484D02*
X5130301Y-10141484D01*
X5130301Y-10141484D02*
X5149349Y-10131960D01*
X5149349Y-10131960D02*
X5158872Y-10122436D01*
X5158872Y-10122436D02*
X5177920Y-10093865D01*
X5177920Y-10093865D02*
X5187444Y-10055770D01*
X5187444Y-10055770D02*
X5187444Y-9979579D01*
X5187444Y-9979579D02*
X5177920Y-9960531D01*
X5177920Y-9960531D02*
X5168396Y-9951008D01*
X5168396Y-9951008D02*
X5149349Y-9941484D01*
X5149349Y-9941484D02*
X5111253Y-9941484D01*
X5111253Y-9941484D02*
X5092206Y-9951008D01*
X5092206Y-9951008D02*
X5082682Y-9960531D01*
X5082682Y-9960531D02*
X5073158Y-9979579D01*
X5073158Y-9979579D02*
X5073158Y-10027198D01*
X5073158Y-10027198D02*
X5082682Y-10046246D01*
X5082682Y-10046246D02*
X5092206Y-10055770D01*
X5092206Y-10055770D02*
X5111253Y-10065293D01*
X5111253Y-10065293D02*
X5149349Y-10065293D01*
X5149349Y-10065293D02*
X5168396Y-10055770D01*
X5168396Y-10055770D02*
X5177920Y-10046246D01*
X5177920Y-10046246D02*
X5187444Y-10027198D01*
X5263634Y-9941484D02*
X5263634Y-9979579D01*
X5339825Y-9941484D02*
X5339825Y-9979579D01*
X5635063Y-10217674D02*
X5625539Y-10208150D01*
X5625539Y-10208150D02*
X5606491Y-10179579D01*
X5606491Y-10179579D02*
X5596968Y-10160531D01*
X5596968Y-10160531D02*
X5587444Y-10131960D01*
X5587444Y-10131960D02*
X5577920Y-10084341D01*
X5577920Y-10084341D02*
X5577920Y-10046246D01*
X5577920Y-10046246D02*
X5587444Y-9998627D01*
X5587444Y-9998627D02*
X5596968Y-9970055D01*
X5596968Y-9970055D02*
X5606491Y-9951008D01*
X5606491Y-9951008D02*
X5625539Y-9922436D01*
X5625539Y-9922436D02*
X5635063Y-9912912D01*
X5816015Y-10141484D02*
X5701729Y-10141484D01*
X5758872Y-10141484D02*
X5758872Y-9941484D01*
X5758872Y-9941484D02*
X5739825Y-9970055D01*
X5739825Y-9970055D02*
X5720777Y-9989103D01*
X5720777Y-9989103D02*
X5701729Y-9998627D01*
X5939825Y-9941484D02*
X5958872Y-9941484D01*
X5958872Y-9941484D02*
X5977920Y-9951008D01*
X5977920Y-9951008D02*
X5987444Y-9960531D01*
X5987444Y-9960531D02*
X5996968Y-9979579D01*
X5996968Y-9979579D02*
X6006491Y-10017674D01*
X6006491Y-10017674D02*
X6006491Y-10065293D01*
X6006491Y-10065293D02*
X5996968Y-10103389D01*
X5996968Y-10103389D02*
X5987444Y-10122436D01*
X5987444Y-10122436D02*
X5977920Y-10131960D01*
X5977920Y-10131960D02*
X5958872Y-10141484D01*
X5958872Y-10141484D02*
X5939825Y-10141484D01*
X5939825Y-10141484D02*
X5920777Y-10131960D01*
X5920777Y-10131960D02*
X5911253Y-10122436D01*
X5911253Y-10122436D02*
X5901729Y-10103389D01*
X5901729Y-10103389D02*
X5892206Y-10065293D01*
X5892206Y-10065293D02*
X5892206Y-10017674D01*
X5892206Y-10017674D02*
X5901729Y-9979579D01*
X5901729Y-9979579D02*
X5911253Y-9960531D01*
X5911253Y-9960531D02*
X5920777Y-9951008D01*
X5920777Y-9951008D02*
X5939825Y-9941484D01*
X6187444Y-9941484D02*
X6092206Y-9941484D01*
X6092206Y-9941484D02*
X6082682Y-10036722D01*
X6082682Y-10036722D02*
X6092206Y-10027198D01*
X6092206Y-10027198D02*
X6111253Y-10017674D01*
X6111253Y-10017674D02*
X6158872Y-10017674D01*
X6158872Y-10017674D02*
X6177920Y-10027198D01*
X6177920Y-10027198D02*
X6187444Y-10036722D01*
X6187444Y-10036722D02*
X6196968Y-10055770D01*
X6196968Y-10055770D02*
X6196968Y-10103389D01*
X6196968Y-10103389D02*
X6187444Y-10122436D01*
X6187444Y-10122436D02*
X6177920Y-10131960D01*
X6177920Y-10131960D02*
X6158872Y-10141484D01*
X6158872Y-10141484D02*
X6111253Y-10141484D01*
X6111253Y-10141484D02*
X6092206Y-10131960D01*
X6092206Y-10131960D02*
X6082682Y-10122436D01*
X6435063Y-10141484D02*
X6435063Y-9941484D01*
X6520777Y-10141484D02*
X6520777Y-10036722D01*
X6520777Y-10036722D02*
X6511253Y-10017674D01*
X6511253Y-10017674D02*
X6492206Y-10008150D01*
X6492206Y-10008150D02*
X6463634Y-10008150D01*
X6463634Y-10008150D02*
X6444587Y-10017674D01*
X6444587Y-10017674D02*
X6435063Y-10027198D01*
X6644587Y-10141484D02*
X6625539Y-10131960D01*
X6625539Y-10131960D02*
X6616015Y-10122436D01*
X6616015Y-10122436D02*
X6606491Y-10103389D01*
X6606491Y-10103389D02*
X6606491Y-10046246D01*
X6606491Y-10046246D02*
X6616015Y-10027198D01*
X6616015Y-10027198D02*
X6625539Y-10017674D01*
X6625539Y-10017674D02*
X6644587Y-10008150D01*
X6644587Y-10008150D02*
X6673158Y-10008150D01*
X6673158Y-10008150D02*
X6692206Y-10017674D01*
X6692206Y-10017674D02*
X6701730Y-10027198D01*
X6701730Y-10027198D02*
X6711253Y-10046246D01*
X6711253Y-10046246D02*
X6711253Y-10103389D01*
X6711253Y-10103389D02*
X6701730Y-10122436D01*
X6701730Y-10122436D02*
X6692206Y-10131960D01*
X6692206Y-10131960D02*
X6673158Y-10141484D01*
X6673158Y-10141484D02*
X6644587Y-10141484D01*
X6825539Y-10141484D02*
X6806491Y-10131960D01*
X6806491Y-10131960D02*
X6796968Y-10112912D01*
X6796968Y-10112912D02*
X6796968Y-9941484D01*
X6977920Y-10131960D02*
X6958872Y-10141484D01*
X6958872Y-10141484D02*
X6920777Y-10141484D01*
X6920777Y-10141484D02*
X6901730Y-10131960D01*
X6901730Y-10131960D02*
X6892206Y-10112912D01*
X6892206Y-10112912D02*
X6892206Y-10036722D01*
X6892206Y-10036722D02*
X6901730Y-10017674D01*
X6901730Y-10017674D02*
X6920777Y-10008150D01*
X6920777Y-10008150D02*
X6958872Y-10008150D01*
X6958872Y-10008150D02*
X6977920Y-10017674D01*
X6977920Y-10017674D02*
X6987444Y-10036722D01*
X6987444Y-10036722D02*
X6987444Y-10055770D01*
X6987444Y-10055770D02*
X6892206Y-10074817D01*
X7063634Y-10131960D02*
X7082682Y-10141484D01*
X7082682Y-10141484D02*
X7120777Y-10141484D01*
X7120777Y-10141484D02*
X7139825Y-10131960D01*
X7139825Y-10131960D02*
X7149349Y-10112912D01*
X7149349Y-10112912D02*
X7149349Y-10103389D01*
X7149349Y-10103389D02*
X7139825Y-10084341D01*
X7139825Y-10084341D02*
X7120777Y-10074817D01*
X7120777Y-10074817D02*
X7092206Y-10074817D01*
X7092206Y-10074817D02*
X7073158Y-10065293D01*
X7073158Y-10065293D02*
X7063634Y-10046246D01*
X7063634Y-10046246D02*
X7063634Y-10036722D01*
X7063634Y-10036722D02*
X7073158Y-10017674D01*
X7073158Y-10017674D02*
X7092206Y-10008150D01*
X7092206Y-10008150D02*
X7120777Y-10008150D01*
X7120777Y-10008150D02*
X7139825Y-10017674D01*
X7216015Y-10217674D02*
X7225539Y-10208150D01*
X7225539Y-10208150D02*
X7244587Y-10179579D01*
X7244587Y-10179579D02*
X7254111Y-10160531D01*
X7254111Y-10160531D02*
X7263634Y-10131960D01*
X7263634Y-10131960D02*
X7273158Y-10084341D01*
X7273158Y-10084341D02*
X7273158Y-10046246D01*
X7273158Y-10046246D02*
X7263634Y-9998627D01*
X7263634Y-9998627D02*
X7254111Y-9970055D01*
X7254111Y-9970055D02*
X7244587Y-9951008D01*
X7244587Y-9951008D02*
X7225539Y-9922436D01*
X7225539Y-9922436D02*
X7216015Y-9912912D01*
D11*
X2060000Y-10314000D02*
G75*
G02*
X2030000Y-10314000I-15000J0D01*
G01*
X2030000Y-10314000D02*
G75*
G02*
X2060000Y-10314000I15000J0D01*
G01*
D10*
X2358872Y-10205484D02*
X2377920Y-10205484D01*
X2377920Y-10205484D02*
X2396967Y-10215008D01*
X2396967Y-10215008D02*
X2406491Y-10224531D01*
X2406491Y-10224531D02*
X2416015Y-10243579D01*
X2416015Y-10243579D02*
X2425539Y-10281674D01*
X2425539Y-10281674D02*
X2425539Y-10329293D01*
X2425539Y-10329293D02*
X2416015Y-10367389D01*
X2416015Y-10367389D02*
X2406491Y-10386436D01*
X2406491Y-10386436D02*
X2396967Y-10395960D01*
X2396967Y-10395960D02*
X2377920Y-10405484D01*
X2377920Y-10405484D02*
X2358872Y-10405484D01*
X2358872Y-10405484D02*
X2339824Y-10395960D01*
X2339824Y-10395960D02*
X2330301Y-10386436D01*
X2330301Y-10386436D02*
X2320777Y-10367389D01*
X2320777Y-10367389D02*
X2311253Y-10329293D01*
X2311253Y-10329293D02*
X2311253Y-10281674D01*
X2311253Y-10281674D02*
X2320777Y-10243579D01*
X2320777Y-10243579D02*
X2330301Y-10224531D01*
X2330301Y-10224531D02*
X2339824Y-10215008D01*
X2339824Y-10215008D02*
X2358872Y-10205484D01*
X2511253Y-10386436D02*
X2520777Y-10395960D01*
X2520777Y-10395960D02*
X2511253Y-10405484D01*
X2511253Y-10405484D02*
X2501729Y-10395960D01*
X2501729Y-10395960D02*
X2511253Y-10386436D01*
X2511253Y-10386436D02*
X2511253Y-10405484D01*
X2587444Y-10205484D02*
X2711253Y-10205484D01*
X2711253Y-10205484D02*
X2644586Y-10281674D01*
X2644586Y-10281674D02*
X2673158Y-10281674D01*
X2673158Y-10281674D02*
X2692205Y-10291198D01*
X2692205Y-10291198D02*
X2701729Y-10300722D01*
X2701729Y-10300722D02*
X2711253Y-10319770D01*
X2711253Y-10319770D02*
X2711253Y-10367389D01*
X2711253Y-10367389D02*
X2701729Y-10386436D01*
X2701729Y-10386436D02*
X2692205Y-10395960D01*
X2692205Y-10395960D02*
X2673158Y-10405484D01*
X2673158Y-10405484D02*
X2616015Y-10405484D01*
X2616015Y-10405484D02*
X2596967Y-10395960D01*
X2596967Y-10395960D02*
X2587444Y-10386436D01*
X2835062Y-10205484D02*
X2854110Y-10205484D01*
X2854110Y-10205484D02*
X2873158Y-10215008D01*
X2873158Y-10215008D02*
X2882682Y-10224531D01*
X2882682Y-10224531D02*
X2892205Y-10243579D01*
X2892205Y-10243579D02*
X2901729Y-10281674D01*
X2901729Y-10281674D02*
X2901729Y-10329293D01*
X2901729Y-10329293D02*
X2892205Y-10367389D01*
X2892205Y-10367389D02*
X2882682Y-10386436D01*
X2882682Y-10386436D02*
X2873158Y-10395960D01*
X2873158Y-10395960D02*
X2854110Y-10405484D01*
X2854110Y-10405484D02*
X2835062Y-10405484D01*
X2835062Y-10405484D02*
X2816015Y-10395960D01*
X2816015Y-10395960D02*
X2806491Y-10386436D01*
X2806491Y-10386436D02*
X2796967Y-10367389D01*
X2796967Y-10367389D02*
X2787444Y-10329293D01*
X2787444Y-10329293D02*
X2787444Y-10281674D01*
X2787444Y-10281674D02*
X2796967Y-10243579D01*
X2796967Y-10243579D02*
X2806491Y-10224531D01*
X2806491Y-10224531D02*
X2816015Y-10215008D01*
X2816015Y-10215008D02*
X2835062Y-10205484D01*
X3025539Y-10205484D02*
X3044586Y-10205484D01*
X3044586Y-10205484D02*
X3063634Y-10215008D01*
X3063634Y-10215008D02*
X3073158Y-10224531D01*
X3073158Y-10224531D02*
X3082682Y-10243579D01*
X3082682Y-10243579D02*
X3092205Y-10281674D01*
X3092205Y-10281674D02*
X3092205Y-10329293D01*
X3092205Y-10329293D02*
X3082682Y-10367389D01*
X3082682Y-10367389D02*
X3073158Y-10386436D01*
X3073158Y-10386436D02*
X3063634Y-10395960D01*
X3063634Y-10395960D02*
X3044586Y-10405484D01*
X3044586Y-10405484D02*
X3025539Y-10405484D01*
X3025539Y-10405484D02*
X3006491Y-10395960D01*
X3006491Y-10395960D02*
X2996967Y-10386436D01*
X2996967Y-10386436D02*
X2987443Y-10367389D01*
X2987443Y-10367389D02*
X2977920Y-10329293D01*
X2977920Y-10329293D02*
X2977920Y-10281674D01*
X2977920Y-10281674D02*
X2987443Y-10243579D01*
X2987443Y-10243579D02*
X2996967Y-10224531D01*
X2996967Y-10224531D02*
X3006491Y-10215008D01*
X3006491Y-10215008D02*
X3025539Y-10205484D01*
X3177920Y-10405484D02*
X3177920Y-10272150D01*
X3177920Y-10291198D02*
X3187443Y-10281674D01*
X3187443Y-10281674D02*
X3206491Y-10272150D01*
X3206491Y-10272150D02*
X3235063Y-10272150D01*
X3235063Y-10272150D02*
X3254110Y-10281674D01*
X3254110Y-10281674D02*
X3263634Y-10300722D01*
X3263634Y-10300722D02*
X3263634Y-10405484D01*
X3263634Y-10300722D02*
X3273158Y-10281674D01*
X3273158Y-10281674D02*
X3292205Y-10272150D01*
X3292205Y-10272150D02*
X3320777Y-10272150D01*
X3320777Y-10272150D02*
X3339824Y-10281674D01*
X3339824Y-10281674D02*
X3349348Y-10300722D01*
X3349348Y-10300722D02*
X3349348Y-10405484D01*
X3444586Y-10405484D02*
X3444586Y-10272150D01*
X3444586Y-10291198D02*
X3454110Y-10281674D01*
X3454110Y-10281674D02*
X3473158Y-10272150D01*
X3473158Y-10272150D02*
X3501729Y-10272150D01*
X3501729Y-10272150D02*
X3520777Y-10281674D01*
X3520777Y-10281674D02*
X3530301Y-10300722D01*
X3530301Y-10300722D02*
X3530301Y-10405484D01*
X3530301Y-10300722D02*
X3539824Y-10281674D01*
X3539824Y-10281674D02*
X3558872Y-10272150D01*
X3558872Y-10272150D02*
X3587443Y-10272150D01*
X3587443Y-10272150D02*
X3606491Y-10281674D01*
X3606491Y-10281674D02*
X3616015Y-10300722D01*
X3616015Y-10300722D02*
X3616015Y-10405484D01*
X4006491Y-10195960D02*
X3835063Y-10453103D01*
X4263634Y-10205484D02*
X4282682Y-10205484D01*
X4282682Y-10205484D02*
X4301729Y-10215008D01*
X4301729Y-10215008D02*
X4311253Y-10224531D01*
X4311253Y-10224531D02*
X4320777Y-10243579D01*
X4320777Y-10243579D02*
X4330301Y-10281674D01*
X4330301Y-10281674D02*
X4330301Y-10329293D01*
X4330301Y-10329293D02*
X4320777Y-10367389D01*
X4320777Y-10367389D02*
X4311253Y-10386436D01*
X4311253Y-10386436D02*
X4301729Y-10395960D01*
X4301729Y-10395960D02*
X4282682Y-10405484D01*
X4282682Y-10405484D02*
X4263634Y-10405484D01*
X4263634Y-10405484D02*
X4244587Y-10395960D01*
X4244587Y-10395960D02*
X4235063Y-10386436D01*
X4235063Y-10386436D02*
X4225539Y-10367389D01*
X4225539Y-10367389D02*
X4216015Y-10329293D01*
X4216015Y-10329293D02*
X4216015Y-10281674D01*
X4216015Y-10281674D02*
X4225539Y-10243579D01*
X4225539Y-10243579D02*
X4235063Y-10224531D01*
X4235063Y-10224531D02*
X4244587Y-10215008D01*
X4244587Y-10215008D02*
X4263634Y-10205484D01*
X4416015Y-10386436D02*
X4425539Y-10395960D01*
X4425539Y-10395960D02*
X4416015Y-10405484D01*
X4416015Y-10405484D02*
X4406491Y-10395960D01*
X4406491Y-10395960D02*
X4416015Y-10386436D01*
X4416015Y-10386436D02*
X4416015Y-10405484D01*
X4549348Y-10205484D02*
X4568396Y-10205484D01*
X4568396Y-10205484D02*
X4587444Y-10215008D01*
X4587444Y-10215008D02*
X4596968Y-10224531D01*
X4596968Y-10224531D02*
X4606491Y-10243579D01*
X4606491Y-10243579D02*
X4616015Y-10281674D01*
X4616015Y-10281674D02*
X4616015Y-10329293D01*
X4616015Y-10329293D02*
X4606491Y-10367389D01*
X4606491Y-10367389D02*
X4596968Y-10386436D01*
X4596968Y-10386436D02*
X4587444Y-10395960D01*
X4587444Y-10395960D02*
X4568396Y-10405484D01*
X4568396Y-10405484D02*
X4549348Y-10405484D01*
X4549348Y-10405484D02*
X4530301Y-10395960D01*
X4530301Y-10395960D02*
X4520777Y-10386436D01*
X4520777Y-10386436D02*
X4511253Y-10367389D01*
X4511253Y-10367389D02*
X4501729Y-10329293D01*
X4501729Y-10329293D02*
X4501729Y-10281674D01*
X4501729Y-10281674D02*
X4511253Y-10243579D01*
X4511253Y-10243579D02*
X4520777Y-10224531D01*
X4520777Y-10224531D02*
X4530301Y-10215008D01*
X4530301Y-10215008D02*
X4549348Y-10205484D01*
X4806491Y-10405484D02*
X4692206Y-10405484D01*
X4749348Y-10405484D02*
X4749348Y-10205484D01*
X4749348Y-10205484D02*
X4730301Y-10234055D01*
X4730301Y-10234055D02*
X4711253Y-10253103D01*
X4711253Y-10253103D02*
X4692206Y-10262627D01*
X4996968Y-10405484D02*
X4882682Y-10405484D01*
X4939825Y-10405484D02*
X4939825Y-10205484D01*
X4939825Y-10205484D02*
X4920777Y-10234055D01*
X4920777Y-10234055D02*
X4901729Y-10253103D01*
X4901729Y-10253103D02*
X4882682Y-10262627D01*
X5111253Y-10291198D02*
X5092206Y-10281674D01*
X5092206Y-10281674D02*
X5082682Y-10272150D01*
X5082682Y-10272150D02*
X5073158Y-10253103D01*
X5073158Y-10253103D02*
X5073158Y-10243579D01*
X5073158Y-10243579D02*
X5082682Y-10224531D01*
X5082682Y-10224531D02*
X5092206Y-10215008D01*
X5092206Y-10215008D02*
X5111253Y-10205484D01*
X5111253Y-10205484D02*
X5149349Y-10205484D01*
X5149349Y-10205484D02*
X5168396Y-10215008D01*
X5168396Y-10215008D02*
X5177920Y-10224531D01*
X5177920Y-10224531D02*
X5187444Y-10243579D01*
X5187444Y-10243579D02*
X5187444Y-10253103D01*
X5187444Y-10253103D02*
X5177920Y-10272150D01*
X5177920Y-10272150D02*
X5168396Y-10281674D01*
X5168396Y-10281674D02*
X5149349Y-10291198D01*
X5149349Y-10291198D02*
X5111253Y-10291198D01*
X5111253Y-10291198D02*
X5092206Y-10300722D01*
X5092206Y-10300722D02*
X5082682Y-10310246D01*
X5082682Y-10310246D02*
X5073158Y-10329293D01*
X5073158Y-10329293D02*
X5073158Y-10367389D01*
X5073158Y-10367389D02*
X5082682Y-10386436D01*
X5082682Y-10386436D02*
X5092206Y-10395960D01*
X5092206Y-10395960D02*
X5111253Y-10405484D01*
X5111253Y-10405484D02*
X5149349Y-10405484D01*
X5149349Y-10405484D02*
X5168396Y-10395960D01*
X5168396Y-10395960D02*
X5177920Y-10386436D01*
X5177920Y-10386436D02*
X5187444Y-10367389D01*
X5187444Y-10367389D02*
X5187444Y-10329293D01*
X5187444Y-10329293D02*
X5177920Y-10310246D01*
X5177920Y-10310246D02*
X5168396Y-10300722D01*
X5168396Y-10300722D02*
X5149349Y-10291198D01*
X5263634Y-10205484D02*
X5263634Y-10243579D01*
X5339825Y-10205484D02*
X5339825Y-10243579D01*
X5635063Y-10481674D02*
X5625539Y-10472150D01*
X5625539Y-10472150D02*
X5606491Y-10443579D01*
X5606491Y-10443579D02*
X5596968Y-10424531D01*
X5596968Y-10424531D02*
X5587444Y-10395960D01*
X5587444Y-10395960D02*
X5577920Y-10348341D01*
X5577920Y-10348341D02*
X5577920Y-10310246D01*
X5577920Y-10310246D02*
X5587444Y-10262627D01*
X5587444Y-10262627D02*
X5596968Y-10234055D01*
X5596968Y-10234055D02*
X5606491Y-10215008D01*
X5606491Y-10215008D02*
X5625539Y-10186436D01*
X5625539Y-10186436D02*
X5635063Y-10176912D01*
X5806491Y-10205484D02*
X5711253Y-10205484D01*
X5711253Y-10205484D02*
X5701729Y-10300722D01*
X5701729Y-10300722D02*
X5711253Y-10291198D01*
X5711253Y-10291198D02*
X5730301Y-10281674D01*
X5730301Y-10281674D02*
X5777920Y-10281674D01*
X5777920Y-10281674D02*
X5796968Y-10291198D01*
X5796968Y-10291198D02*
X5806491Y-10300722D01*
X5806491Y-10300722D02*
X5816015Y-10319770D01*
X5816015Y-10319770D02*
X5816015Y-10367389D01*
X5816015Y-10367389D02*
X5806491Y-10386436D01*
X5806491Y-10386436D02*
X5796968Y-10395960D01*
X5796968Y-10395960D02*
X5777920Y-10405484D01*
X5777920Y-10405484D02*
X5730301Y-10405484D01*
X5730301Y-10405484D02*
X5711253Y-10395960D01*
X5711253Y-10395960D02*
X5701729Y-10386436D01*
X5987444Y-10205484D02*
X5949348Y-10205484D01*
X5949348Y-10205484D02*
X5930301Y-10215008D01*
X5930301Y-10215008D02*
X5920777Y-10224531D01*
X5920777Y-10224531D02*
X5901729Y-10253103D01*
X5901729Y-10253103D02*
X5892206Y-10291198D01*
X5892206Y-10291198D02*
X5892206Y-10367389D01*
X5892206Y-10367389D02*
X5901729Y-10386436D01*
X5901729Y-10386436D02*
X5911253Y-10395960D01*
X5911253Y-10395960D02*
X5930301Y-10405484D01*
X5930301Y-10405484D02*
X5968396Y-10405484D01*
X5968396Y-10405484D02*
X5987444Y-10395960D01*
X5987444Y-10395960D02*
X5996968Y-10386436D01*
X5996968Y-10386436D02*
X6006491Y-10367389D01*
X6006491Y-10367389D02*
X6006491Y-10319770D01*
X6006491Y-10319770D02*
X5996968Y-10300722D01*
X5996968Y-10300722D02*
X5987444Y-10291198D01*
X5987444Y-10291198D02*
X5968396Y-10281674D01*
X5968396Y-10281674D02*
X5930301Y-10281674D01*
X5930301Y-10281674D02*
X5911253Y-10291198D01*
X5911253Y-10291198D02*
X5901729Y-10300722D01*
X5901729Y-10300722D02*
X5892206Y-10319770D01*
X6244587Y-10405484D02*
X6244587Y-10205484D01*
X6330301Y-10405484D02*
X6330301Y-10300722D01*
X6330301Y-10300722D02*
X6320777Y-10281674D01*
X6320777Y-10281674D02*
X6301730Y-10272150D01*
X6301730Y-10272150D02*
X6273158Y-10272150D01*
X6273158Y-10272150D02*
X6254110Y-10281674D01*
X6254110Y-10281674D02*
X6244587Y-10291198D01*
X6454110Y-10405484D02*
X6435063Y-10395960D01*
X6435063Y-10395960D02*
X6425539Y-10386436D01*
X6425539Y-10386436D02*
X6416015Y-10367389D01*
X6416015Y-10367389D02*
X6416015Y-10310246D01*
X6416015Y-10310246D02*
X6425539Y-10291198D01*
X6425539Y-10291198D02*
X6435063Y-10281674D01*
X6435063Y-10281674D02*
X6454110Y-10272150D01*
X6454110Y-10272150D02*
X6482682Y-10272150D01*
X6482682Y-10272150D02*
X6501730Y-10281674D01*
X6501730Y-10281674D02*
X6511253Y-10291198D01*
X6511253Y-10291198D02*
X6520777Y-10310246D01*
X6520777Y-10310246D02*
X6520777Y-10367389D01*
X6520777Y-10367389D02*
X6511253Y-10386436D01*
X6511253Y-10386436D02*
X6501730Y-10395960D01*
X6501730Y-10395960D02*
X6482682Y-10405484D01*
X6482682Y-10405484D02*
X6454110Y-10405484D01*
X6635063Y-10405484D02*
X6616015Y-10395960D01*
X6616015Y-10395960D02*
X6606491Y-10376912D01*
X6606491Y-10376912D02*
X6606491Y-10205484D01*
X6787444Y-10395960D02*
X6768396Y-10405484D01*
X6768396Y-10405484D02*
X6730301Y-10405484D01*
X6730301Y-10405484D02*
X6711253Y-10395960D01*
X6711253Y-10395960D02*
X6701730Y-10376912D01*
X6701730Y-10376912D02*
X6701730Y-10300722D01*
X6701730Y-10300722D02*
X6711253Y-10281674D01*
X6711253Y-10281674D02*
X6730301Y-10272150D01*
X6730301Y-10272150D02*
X6768396Y-10272150D01*
X6768396Y-10272150D02*
X6787444Y-10281674D01*
X6787444Y-10281674D02*
X6796968Y-10300722D01*
X6796968Y-10300722D02*
X6796968Y-10319770D01*
X6796968Y-10319770D02*
X6701730Y-10338817D01*
X6873158Y-10395960D02*
X6892206Y-10405484D01*
X6892206Y-10405484D02*
X6930301Y-10405484D01*
X6930301Y-10405484D02*
X6949349Y-10395960D01*
X6949349Y-10395960D02*
X6958872Y-10376912D01*
X6958872Y-10376912D02*
X6958872Y-10367389D01*
X6958872Y-10367389D02*
X6949349Y-10348341D01*
X6949349Y-10348341D02*
X6930301Y-10338817D01*
X6930301Y-10338817D02*
X6901730Y-10338817D01*
X6901730Y-10338817D02*
X6882682Y-10329293D01*
X6882682Y-10329293D02*
X6873158Y-10310246D01*
X6873158Y-10310246D02*
X6873158Y-10300722D01*
X6873158Y-10300722D02*
X6882682Y-10281674D01*
X6882682Y-10281674D02*
X6901730Y-10272150D01*
X6901730Y-10272150D02*
X6930301Y-10272150D01*
X6930301Y-10272150D02*
X6949349Y-10281674D01*
X7025539Y-10481674D02*
X7035063Y-10472150D01*
X7035063Y-10472150D02*
X7054111Y-10443579D01*
X7054111Y-10443579D02*
X7063634Y-10424531D01*
X7063634Y-10424531D02*
X7073158Y-10395960D01*
X7073158Y-10395960D02*
X7082682Y-10348341D01*
X7082682Y-10348341D02*
X7082682Y-10310246D01*
X7082682Y-10310246D02*
X7073158Y-10262627D01*
X7073158Y-10262627D02*
X7063634Y-10234055D01*
X7063634Y-10234055D02*
X7054111Y-10215008D01*
X7054111Y-10215008D02*
X7035063Y-10186436D01*
X7035063Y-10186436D02*
X7025539Y-10176912D01*
D11*
X2045000Y-10563000D02*
X2045000Y-10593000D01*
X2030000Y-10578000D02*
X2060000Y-10578000D01*
D10*
X2358872Y-10469484D02*
X2377920Y-10469484D01*
X2377920Y-10469484D02*
X2396967Y-10479008D01*
X2396967Y-10479008D02*
X2406491Y-10488531D01*
X2406491Y-10488531D02*
X2416015Y-10507579D01*
X2416015Y-10507579D02*
X2425539Y-10545674D01*
X2425539Y-10545674D02*
X2425539Y-10593293D01*
X2425539Y-10593293D02*
X2416015Y-10631389D01*
X2416015Y-10631389D02*
X2406491Y-10650436D01*
X2406491Y-10650436D02*
X2396967Y-10659960D01*
X2396967Y-10659960D02*
X2377920Y-10669484D01*
X2377920Y-10669484D02*
X2358872Y-10669484D01*
X2358872Y-10669484D02*
X2339824Y-10659960D01*
X2339824Y-10659960D02*
X2330301Y-10650436D01*
X2330301Y-10650436D02*
X2320777Y-10631389D01*
X2320777Y-10631389D02*
X2311253Y-10593293D01*
X2311253Y-10593293D02*
X2311253Y-10545674D01*
X2311253Y-10545674D02*
X2320777Y-10507579D01*
X2320777Y-10507579D02*
X2330301Y-10488531D01*
X2330301Y-10488531D02*
X2339824Y-10479008D01*
X2339824Y-10479008D02*
X2358872Y-10469484D01*
X2511253Y-10650436D02*
X2520777Y-10659960D01*
X2520777Y-10659960D02*
X2511253Y-10669484D01*
X2511253Y-10669484D02*
X2501729Y-10659960D01*
X2501729Y-10659960D02*
X2511253Y-10650436D01*
X2511253Y-10650436D02*
X2511253Y-10669484D01*
X2587444Y-10469484D02*
X2711253Y-10469484D01*
X2711253Y-10469484D02*
X2644586Y-10545674D01*
X2644586Y-10545674D02*
X2673158Y-10545674D01*
X2673158Y-10545674D02*
X2692205Y-10555198D01*
X2692205Y-10555198D02*
X2701729Y-10564722D01*
X2701729Y-10564722D02*
X2711253Y-10583770D01*
X2711253Y-10583770D02*
X2711253Y-10631389D01*
X2711253Y-10631389D02*
X2701729Y-10650436D01*
X2701729Y-10650436D02*
X2692205Y-10659960D01*
X2692205Y-10659960D02*
X2673158Y-10669484D01*
X2673158Y-10669484D02*
X2616015Y-10669484D01*
X2616015Y-10669484D02*
X2596967Y-10659960D01*
X2596967Y-10659960D02*
X2587444Y-10650436D01*
X2835062Y-10469484D02*
X2854110Y-10469484D01*
X2854110Y-10469484D02*
X2873158Y-10479008D01*
X2873158Y-10479008D02*
X2882682Y-10488531D01*
X2882682Y-10488531D02*
X2892205Y-10507579D01*
X2892205Y-10507579D02*
X2901729Y-10545674D01*
X2901729Y-10545674D02*
X2901729Y-10593293D01*
X2901729Y-10593293D02*
X2892205Y-10631389D01*
X2892205Y-10631389D02*
X2882682Y-10650436D01*
X2882682Y-10650436D02*
X2873158Y-10659960D01*
X2873158Y-10659960D02*
X2854110Y-10669484D01*
X2854110Y-10669484D02*
X2835062Y-10669484D01*
X2835062Y-10669484D02*
X2816015Y-10659960D01*
X2816015Y-10659960D02*
X2806491Y-10650436D01*
X2806491Y-10650436D02*
X2796967Y-10631389D01*
X2796967Y-10631389D02*
X2787444Y-10593293D01*
X2787444Y-10593293D02*
X2787444Y-10545674D01*
X2787444Y-10545674D02*
X2796967Y-10507579D01*
X2796967Y-10507579D02*
X2806491Y-10488531D01*
X2806491Y-10488531D02*
X2816015Y-10479008D01*
X2816015Y-10479008D02*
X2835062Y-10469484D01*
X3025539Y-10469484D02*
X3044586Y-10469484D01*
X3044586Y-10469484D02*
X3063634Y-10479008D01*
X3063634Y-10479008D02*
X3073158Y-10488531D01*
X3073158Y-10488531D02*
X3082682Y-10507579D01*
X3082682Y-10507579D02*
X3092205Y-10545674D01*
X3092205Y-10545674D02*
X3092205Y-10593293D01*
X3092205Y-10593293D02*
X3082682Y-10631389D01*
X3082682Y-10631389D02*
X3073158Y-10650436D01*
X3073158Y-10650436D02*
X3063634Y-10659960D01*
X3063634Y-10659960D02*
X3044586Y-10669484D01*
X3044586Y-10669484D02*
X3025539Y-10669484D01*
X3025539Y-10669484D02*
X3006491Y-10659960D01*
X3006491Y-10659960D02*
X2996967Y-10650436D01*
X2996967Y-10650436D02*
X2987443Y-10631389D01*
X2987443Y-10631389D02*
X2977920Y-10593293D01*
X2977920Y-10593293D02*
X2977920Y-10545674D01*
X2977920Y-10545674D02*
X2987443Y-10507579D01*
X2987443Y-10507579D02*
X2996967Y-10488531D01*
X2996967Y-10488531D02*
X3006491Y-10479008D01*
X3006491Y-10479008D02*
X3025539Y-10469484D01*
X3177920Y-10669484D02*
X3177920Y-10536150D01*
X3177920Y-10555198D02*
X3187443Y-10545674D01*
X3187443Y-10545674D02*
X3206491Y-10536150D01*
X3206491Y-10536150D02*
X3235063Y-10536150D01*
X3235063Y-10536150D02*
X3254110Y-10545674D01*
X3254110Y-10545674D02*
X3263634Y-10564722D01*
X3263634Y-10564722D02*
X3263634Y-10669484D01*
X3263634Y-10564722D02*
X3273158Y-10545674D01*
X3273158Y-10545674D02*
X3292205Y-10536150D01*
X3292205Y-10536150D02*
X3320777Y-10536150D01*
X3320777Y-10536150D02*
X3339824Y-10545674D01*
X3339824Y-10545674D02*
X3349348Y-10564722D01*
X3349348Y-10564722D02*
X3349348Y-10669484D01*
X3444586Y-10669484D02*
X3444586Y-10536150D01*
X3444586Y-10555198D02*
X3454110Y-10545674D01*
X3454110Y-10545674D02*
X3473158Y-10536150D01*
X3473158Y-10536150D02*
X3501729Y-10536150D01*
X3501729Y-10536150D02*
X3520777Y-10545674D01*
X3520777Y-10545674D02*
X3530301Y-10564722D01*
X3530301Y-10564722D02*
X3530301Y-10669484D01*
X3530301Y-10564722D02*
X3539824Y-10545674D01*
X3539824Y-10545674D02*
X3558872Y-10536150D01*
X3558872Y-10536150D02*
X3587443Y-10536150D01*
X3587443Y-10536150D02*
X3606491Y-10545674D01*
X3606491Y-10545674D02*
X3616015Y-10564722D01*
X3616015Y-10564722D02*
X3616015Y-10669484D01*
X4006491Y-10459960D02*
X3835063Y-10717103D01*
X4263634Y-10469484D02*
X4282682Y-10469484D01*
X4282682Y-10469484D02*
X4301729Y-10479008D01*
X4301729Y-10479008D02*
X4311253Y-10488531D01*
X4311253Y-10488531D02*
X4320777Y-10507579D01*
X4320777Y-10507579D02*
X4330301Y-10545674D01*
X4330301Y-10545674D02*
X4330301Y-10593293D01*
X4330301Y-10593293D02*
X4320777Y-10631389D01*
X4320777Y-10631389D02*
X4311253Y-10650436D01*
X4311253Y-10650436D02*
X4301729Y-10659960D01*
X4301729Y-10659960D02*
X4282682Y-10669484D01*
X4282682Y-10669484D02*
X4263634Y-10669484D01*
X4263634Y-10669484D02*
X4244587Y-10659960D01*
X4244587Y-10659960D02*
X4235063Y-10650436D01*
X4235063Y-10650436D02*
X4225539Y-10631389D01*
X4225539Y-10631389D02*
X4216015Y-10593293D01*
X4216015Y-10593293D02*
X4216015Y-10545674D01*
X4216015Y-10545674D02*
X4225539Y-10507579D01*
X4225539Y-10507579D02*
X4235063Y-10488531D01*
X4235063Y-10488531D02*
X4244587Y-10479008D01*
X4244587Y-10479008D02*
X4263634Y-10469484D01*
X4416015Y-10650436D02*
X4425539Y-10659960D01*
X4425539Y-10659960D02*
X4416015Y-10669484D01*
X4416015Y-10669484D02*
X4406491Y-10659960D01*
X4406491Y-10659960D02*
X4416015Y-10650436D01*
X4416015Y-10650436D02*
X4416015Y-10669484D01*
X4549348Y-10469484D02*
X4568396Y-10469484D01*
X4568396Y-10469484D02*
X4587444Y-10479008D01*
X4587444Y-10479008D02*
X4596968Y-10488531D01*
X4596968Y-10488531D02*
X4606491Y-10507579D01*
X4606491Y-10507579D02*
X4616015Y-10545674D01*
X4616015Y-10545674D02*
X4616015Y-10593293D01*
X4616015Y-10593293D02*
X4606491Y-10631389D01*
X4606491Y-10631389D02*
X4596968Y-10650436D01*
X4596968Y-10650436D02*
X4587444Y-10659960D01*
X4587444Y-10659960D02*
X4568396Y-10669484D01*
X4568396Y-10669484D02*
X4549348Y-10669484D01*
X4549348Y-10669484D02*
X4530301Y-10659960D01*
X4530301Y-10659960D02*
X4520777Y-10650436D01*
X4520777Y-10650436D02*
X4511253Y-10631389D01*
X4511253Y-10631389D02*
X4501729Y-10593293D01*
X4501729Y-10593293D02*
X4501729Y-10545674D01*
X4501729Y-10545674D02*
X4511253Y-10507579D01*
X4511253Y-10507579D02*
X4520777Y-10488531D01*
X4520777Y-10488531D02*
X4530301Y-10479008D01*
X4530301Y-10479008D02*
X4549348Y-10469484D01*
X4806491Y-10669484D02*
X4692206Y-10669484D01*
X4749348Y-10669484D02*
X4749348Y-10469484D01*
X4749348Y-10469484D02*
X4730301Y-10498055D01*
X4730301Y-10498055D02*
X4711253Y-10517103D01*
X4711253Y-10517103D02*
X4692206Y-10526627D01*
X4996968Y-10669484D02*
X4882682Y-10669484D01*
X4939825Y-10669484D02*
X4939825Y-10469484D01*
X4939825Y-10469484D02*
X4920777Y-10498055D01*
X4920777Y-10498055D02*
X4901729Y-10517103D01*
X4901729Y-10517103D02*
X4882682Y-10526627D01*
X5111253Y-10555198D02*
X5092206Y-10545674D01*
X5092206Y-10545674D02*
X5082682Y-10536150D01*
X5082682Y-10536150D02*
X5073158Y-10517103D01*
X5073158Y-10517103D02*
X5073158Y-10507579D01*
X5073158Y-10507579D02*
X5082682Y-10488531D01*
X5082682Y-10488531D02*
X5092206Y-10479008D01*
X5092206Y-10479008D02*
X5111253Y-10469484D01*
X5111253Y-10469484D02*
X5149349Y-10469484D01*
X5149349Y-10469484D02*
X5168396Y-10479008D01*
X5168396Y-10479008D02*
X5177920Y-10488531D01*
X5177920Y-10488531D02*
X5187444Y-10507579D01*
X5187444Y-10507579D02*
X5187444Y-10517103D01*
X5187444Y-10517103D02*
X5177920Y-10536150D01*
X5177920Y-10536150D02*
X5168396Y-10545674D01*
X5168396Y-10545674D02*
X5149349Y-10555198D01*
X5149349Y-10555198D02*
X5111253Y-10555198D01*
X5111253Y-10555198D02*
X5092206Y-10564722D01*
X5092206Y-10564722D02*
X5082682Y-10574246D01*
X5082682Y-10574246D02*
X5073158Y-10593293D01*
X5073158Y-10593293D02*
X5073158Y-10631389D01*
X5073158Y-10631389D02*
X5082682Y-10650436D01*
X5082682Y-10650436D02*
X5092206Y-10659960D01*
X5092206Y-10659960D02*
X5111253Y-10669484D01*
X5111253Y-10669484D02*
X5149349Y-10669484D01*
X5149349Y-10669484D02*
X5168396Y-10659960D01*
X5168396Y-10659960D02*
X5177920Y-10650436D01*
X5177920Y-10650436D02*
X5187444Y-10631389D01*
X5187444Y-10631389D02*
X5187444Y-10593293D01*
X5187444Y-10593293D02*
X5177920Y-10574246D01*
X5177920Y-10574246D02*
X5168396Y-10564722D01*
X5168396Y-10564722D02*
X5149349Y-10555198D01*
X5263634Y-10469484D02*
X5263634Y-10507579D01*
X5339825Y-10469484D02*
X5339825Y-10507579D01*
X5635063Y-10745674D02*
X5625539Y-10736150D01*
X5625539Y-10736150D02*
X5606491Y-10707579D01*
X5606491Y-10707579D02*
X5596968Y-10688531D01*
X5596968Y-10688531D02*
X5587444Y-10659960D01*
X5587444Y-10659960D02*
X5577920Y-10612341D01*
X5577920Y-10612341D02*
X5577920Y-10574246D01*
X5577920Y-10574246D02*
X5587444Y-10526627D01*
X5587444Y-10526627D02*
X5596968Y-10498055D01*
X5596968Y-10498055D02*
X5606491Y-10479008D01*
X5606491Y-10479008D02*
X5625539Y-10450436D01*
X5625539Y-10450436D02*
X5635063Y-10440912D01*
X5739825Y-10555198D02*
X5720777Y-10545674D01*
X5720777Y-10545674D02*
X5711253Y-10536150D01*
X5711253Y-10536150D02*
X5701729Y-10517103D01*
X5701729Y-10517103D02*
X5701729Y-10507579D01*
X5701729Y-10507579D02*
X5711253Y-10488531D01*
X5711253Y-10488531D02*
X5720777Y-10479008D01*
X5720777Y-10479008D02*
X5739825Y-10469484D01*
X5739825Y-10469484D02*
X5777920Y-10469484D01*
X5777920Y-10469484D02*
X5796968Y-10479008D01*
X5796968Y-10479008D02*
X5806491Y-10488531D01*
X5806491Y-10488531D02*
X5816015Y-10507579D01*
X5816015Y-10507579D02*
X5816015Y-10517103D01*
X5816015Y-10517103D02*
X5806491Y-10536150D01*
X5806491Y-10536150D02*
X5796968Y-10545674D01*
X5796968Y-10545674D02*
X5777920Y-10555198D01*
X5777920Y-10555198D02*
X5739825Y-10555198D01*
X5739825Y-10555198D02*
X5720777Y-10564722D01*
X5720777Y-10564722D02*
X5711253Y-10574246D01*
X5711253Y-10574246D02*
X5701729Y-10593293D01*
X5701729Y-10593293D02*
X5701729Y-10631389D01*
X5701729Y-10631389D02*
X5711253Y-10650436D01*
X5711253Y-10650436D02*
X5720777Y-10659960D01*
X5720777Y-10659960D02*
X5739825Y-10669484D01*
X5739825Y-10669484D02*
X5777920Y-10669484D01*
X5777920Y-10669484D02*
X5796968Y-10659960D01*
X5796968Y-10659960D02*
X5806491Y-10650436D01*
X5806491Y-10650436D02*
X5816015Y-10631389D01*
X5816015Y-10631389D02*
X5816015Y-10593293D01*
X5816015Y-10593293D02*
X5806491Y-10574246D01*
X5806491Y-10574246D02*
X5796968Y-10564722D01*
X5796968Y-10564722D02*
X5777920Y-10555198D01*
X6054110Y-10669484D02*
X6054110Y-10469484D01*
X6139825Y-10669484D02*
X6139825Y-10564722D01*
X6139825Y-10564722D02*
X6130301Y-10545674D01*
X6130301Y-10545674D02*
X6111253Y-10536150D01*
X6111253Y-10536150D02*
X6082682Y-10536150D01*
X6082682Y-10536150D02*
X6063634Y-10545674D01*
X6063634Y-10545674D02*
X6054110Y-10555198D01*
X6263634Y-10669484D02*
X6244587Y-10659960D01*
X6244587Y-10659960D02*
X6235063Y-10650436D01*
X6235063Y-10650436D02*
X6225539Y-10631389D01*
X6225539Y-10631389D02*
X6225539Y-10574246D01*
X6225539Y-10574246D02*
X6235063Y-10555198D01*
X6235063Y-10555198D02*
X6244587Y-10545674D01*
X6244587Y-10545674D02*
X6263634Y-10536150D01*
X6263634Y-10536150D02*
X6292206Y-10536150D01*
X6292206Y-10536150D02*
X6311253Y-10545674D01*
X6311253Y-10545674D02*
X6320777Y-10555198D01*
X6320777Y-10555198D02*
X6330301Y-10574246D01*
X6330301Y-10574246D02*
X6330301Y-10631389D01*
X6330301Y-10631389D02*
X6320777Y-10650436D01*
X6320777Y-10650436D02*
X6311253Y-10659960D01*
X6311253Y-10659960D02*
X6292206Y-10669484D01*
X6292206Y-10669484D02*
X6263634Y-10669484D01*
X6444587Y-10669484D02*
X6425539Y-10659960D01*
X6425539Y-10659960D02*
X6416015Y-10640912D01*
X6416015Y-10640912D02*
X6416015Y-10469484D01*
X6596968Y-10659960D02*
X6577920Y-10669484D01*
X6577920Y-10669484D02*
X6539825Y-10669484D01*
X6539825Y-10669484D02*
X6520777Y-10659960D01*
X6520777Y-10659960D02*
X6511253Y-10640912D01*
X6511253Y-10640912D02*
X6511253Y-10564722D01*
X6511253Y-10564722D02*
X6520777Y-10545674D01*
X6520777Y-10545674D02*
X6539825Y-10536150D01*
X6539825Y-10536150D02*
X6577920Y-10536150D01*
X6577920Y-10536150D02*
X6596968Y-10545674D01*
X6596968Y-10545674D02*
X6606491Y-10564722D01*
X6606491Y-10564722D02*
X6606491Y-10583770D01*
X6606491Y-10583770D02*
X6511253Y-10602817D01*
X6682682Y-10659960D02*
X6701730Y-10669484D01*
X6701730Y-10669484D02*
X6739825Y-10669484D01*
X6739825Y-10669484D02*
X6758872Y-10659960D01*
X6758872Y-10659960D02*
X6768396Y-10640912D01*
X6768396Y-10640912D02*
X6768396Y-10631389D01*
X6768396Y-10631389D02*
X6758872Y-10612341D01*
X6758872Y-10612341D02*
X6739825Y-10602817D01*
X6739825Y-10602817D02*
X6711253Y-10602817D01*
X6711253Y-10602817D02*
X6692206Y-10593293D01*
X6692206Y-10593293D02*
X6682682Y-10574246D01*
X6682682Y-10574246D02*
X6682682Y-10564722D01*
X6682682Y-10564722D02*
X6692206Y-10545674D01*
X6692206Y-10545674D02*
X6711253Y-10536150D01*
X6711253Y-10536150D02*
X6739825Y-10536150D01*
X6739825Y-10536150D02*
X6758872Y-10545674D01*
X6835063Y-10745674D02*
X6844587Y-10736150D01*
X6844587Y-10736150D02*
X6863634Y-10707579D01*
X6863634Y-10707579D02*
X6873158Y-10688531D01*
X6873158Y-10688531D02*
X6882682Y-10659960D01*
X6882682Y-10659960D02*
X6892206Y-10612341D01*
X6892206Y-10612341D02*
X6892206Y-10574246D01*
X6892206Y-10574246D02*
X6882682Y-10526627D01*
X6882682Y-10526627D02*
X6873158Y-10498055D01*
X6873158Y-10498055D02*
X6863634Y-10479008D01*
X6863634Y-10479008D02*
X6844587Y-10450436D01*
X6844587Y-10450436D02*
X6835063Y-10440912D01*
D11*
X2054142Y-10856142D02*
X2054142Y-10827858D01*
X2025858Y-10827858D01*
X2025858Y-10856142D01*
X2054142Y-10856142D01*
D10*
X2358872Y-10733484D02*
X2377920Y-10733484D01*
X2377920Y-10733484D02*
X2396967Y-10743008D01*
X2396967Y-10743008D02*
X2406491Y-10752531D01*
X2406491Y-10752531D02*
X2416015Y-10771579D01*
X2416015Y-10771579D02*
X2425539Y-10809674D01*
X2425539Y-10809674D02*
X2425539Y-10857293D01*
X2425539Y-10857293D02*
X2416015Y-10895389D01*
X2416015Y-10895389D02*
X2406491Y-10914436D01*
X2406491Y-10914436D02*
X2396967Y-10923960D01*
X2396967Y-10923960D02*
X2377920Y-10933484D01*
X2377920Y-10933484D02*
X2358872Y-10933484D01*
X2358872Y-10933484D02*
X2339824Y-10923960D01*
X2339824Y-10923960D02*
X2330301Y-10914436D01*
X2330301Y-10914436D02*
X2320777Y-10895389D01*
X2320777Y-10895389D02*
X2311253Y-10857293D01*
X2311253Y-10857293D02*
X2311253Y-10809674D01*
X2311253Y-10809674D02*
X2320777Y-10771579D01*
X2320777Y-10771579D02*
X2330301Y-10752531D01*
X2330301Y-10752531D02*
X2339824Y-10743008D01*
X2339824Y-10743008D02*
X2358872Y-10733484D01*
X2511253Y-10914436D02*
X2520777Y-10923960D01*
X2520777Y-10923960D02*
X2511253Y-10933484D01*
X2511253Y-10933484D02*
X2501729Y-10923960D01*
X2501729Y-10923960D02*
X2511253Y-10914436D01*
X2511253Y-10914436D02*
X2511253Y-10933484D01*
X2692205Y-10800150D02*
X2692205Y-10933484D01*
X2644586Y-10723960D02*
X2596967Y-10866817D01*
X2596967Y-10866817D02*
X2720777Y-10866817D01*
X2835062Y-10733484D02*
X2854110Y-10733484D01*
X2854110Y-10733484D02*
X2873158Y-10743008D01*
X2873158Y-10743008D02*
X2882682Y-10752531D01*
X2882682Y-10752531D02*
X2892205Y-10771579D01*
X2892205Y-10771579D02*
X2901729Y-10809674D01*
X2901729Y-10809674D02*
X2901729Y-10857293D01*
X2901729Y-10857293D02*
X2892205Y-10895389D01*
X2892205Y-10895389D02*
X2882682Y-10914436D01*
X2882682Y-10914436D02*
X2873158Y-10923960D01*
X2873158Y-10923960D02*
X2854110Y-10933484D01*
X2854110Y-10933484D02*
X2835062Y-10933484D01*
X2835062Y-10933484D02*
X2816015Y-10923960D01*
X2816015Y-10923960D02*
X2806491Y-10914436D01*
X2806491Y-10914436D02*
X2796967Y-10895389D01*
X2796967Y-10895389D02*
X2787444Y-10857293D01*
X2787444Y-10857293D02*
X2787444Y-10809674D01*
X2787444Y-10809674D02*
X2796967Y-10771579D01*
X2796967Y-10771579D02*
X2806491Y-10752531D01*
X2806491Y-10752531D02*
X2816015Y-10743008D01*
X2816015Y-10743008D02*
X2835062Y-10733484D01*
X3025539Y-10733484D02*
X3044586Y-10733484D01*
X3044586Y-10733484D02*
X3063634Y-10743008D01*
X3063634Y-10743008D02*
X3073158Y-10752531D01*
X3073158Y-10752531D02*
X3082682Y-10771579D01*
X3082682Y-10771579D02*
X3092205Y-10809674D01*
X3092205Y-10809674D02*
X3092205Y-10857293D01*
X3092205Y-10857293D02*
X3082682Y-10895389D01*
X3082682Y-10895389D02*
X3073158Y-10914436D01*
X3073158Y-10914436D02*
X3063634Y-10923960D01*
X3063634Y-10923960D02*
X3044586Y-10933484D01*
X3044586Y-10933484D02*
X3025539Y-10933484D01*
X3025539Y-10933484D02*
X3006491Y-10923960D01*
X3006491Y-10923960D02*
X2996967Y-10914436D01*
X2996967Y-10914436D02*
X2987443Y-10895389D01*
X2987443Y-10895389D02*
X2977920Y-10857293D01*
X2977920Y-10857293D02*
X2977920Y-10809674D01*
X2977920Y-10809674D02*
X2987443Y-10771579D01*
X2987443Y-10771579D02*
X2996967Y-10752531D01*
X2996967Y-10752531D02*
X3006491Y-10743008D01*
X3006491Y-10743008D02*
X3025539Y-10733484D01*
X3177920Y-10933484D02*
X3177920Y-10800150D01*
X3177920Y-10819198D02*
X3187443Y-10809674D01*
X3187443Y-10809674D02*
X3206491Y-10800150D01*
X3206491Y-10800150D02*
X3235063Y-10800150D01*
X3235063Y-10800150D02*
X3254110Y-10809674D01*
X3254110Y-10809674D02*
X3263634Y-10828722D01*
X3263634Y-10828722D02*
X3263634Y-10933484D01*
X3263634Y-10828722D02*
X3273158Y-10809674D01*
X3273158Y-10809674D02*
X3292205Y-10800150D01*
X3292205Y-10800150D02*
X3320777Y-10800150D01*
X3320777Y-10800150D02*
X3339824Y-10809674D01*
X3339824Y-10809674D02*
X3349348Y-10828722D01*
X3349348Y-10828722D02*
X3349348Y-10933484D01*
X3444586Y-10933484D02*
X3444586Y-10800150D01*
X3444586Y-10819198D02*
X3454110Y-10809674D01*
X3454110Y-10809674D02*
X3473158Y-10800150D01*
X3473158Y-10800150D02*
X3501729Y-10800150D01*
X3501729Y-10800150D02*
X3520777Y-10809674D01*
X3520777Y-10809674D02*
X3530301Y-10828722D01*
X3530301Y-10828722D02*
X3530301Y-10933484D01*
X3530301Y-10828722D02*
X3539824Y-10809674D01*
X3539824Y-10809674D02*
X3558872Y-10800150D01*
X3558872Y-10800150D02*
X3587443Y-10800150D01*
X3587443Y-10800150D02*
X3606491Y-10809674D01*
X3606491Y-10809674D02*
X3616015Y-10828722D01*
X3616015Y-10828722D02*
X3616015Y-10933484D01*
X4006491Y-10723960D02*
X3835063Y-10981103D01*
X4263634Y-10733484D02*
X4282682Y-10733484D01*
X4282682Y-10733484D02*
X4301729Y-10743008D01*
X4301729Y-10743008D02*
X4311253Y-10752531D01*
X4311253Y-10752531D02*
X4320777Y-10771579D01*
X4320777Y-10771579D02*
X4330301Y-10809674D01*
X4330301Y-10809674D02*
X4330301Y-10857293D01*
X4330301Y-10857293D02*
X4320777Y-10895389D01*
X4320777Y-10895389D02*
X4311253Y-10914436D01*
X4311253Y-10914436D02*
X4301729Y-10923960D01*
X4301729Y-10923960D02*
X4282682Y-10933484D01*
X4282682Y-10933484D02*
X4263634Y-10933484D01*
X4263634Y-10933484D02*
X4244587Y-10923960D01*
X4244587Y-10923960D02*
X4235063Y-10914436D01*
X4235063Y-10914436D02*
X4225539Y-10895389D01*
X4225539Y-10895389D02*
X4216015Y-10857293D01*
X4216015Y-10857293D02*
X4216015Y-10809674D01*
X4216015Y-10809674D02*
X4225539Y-10771579D01*
X4225539Y-10771579D02*
X4235063Y-10752531D01*
X4235063Y-10752531D02*
X4244587Y-10743008D01*
X4244587Y-10743008D02*
X4263634Y-10733484D01*
X4416015Y-10914436D02*
X4425539Y-10923960D01*
X4425539Y-10923960D02*
X4416015Y-10933484D01*
X4416015Y-10933484D02*
X4406491Y-10923960D01*
X4406491Y-10923960D02*
X4416015Y-10914436D01*
X4416015Y-10914436D02*
X4416015Y-10933484D01*
X4549348Y-10733484D02*
X4568396Y-10733484D01*
X4568396Y-10733484D02*
X4587444Y-10743008D01*
X4587444Y-10743008D02*
X4596968Y-10752531D01*
X4596968Y-10752531D02*
X4606491Y-10771579D01*
X4606491Y-10771579D02*
X4616015Y-10809674D01*
X4616015Y-10809674D02*
X4616015Y-10857293D01*
X4616015Y-10857293D02*
X4606491Y-10895389D01*
X4606491Y-10895389D02*
X4596968Y-10914436D01*
X4596968Y-10914436D02*
X4587444Y-10923960D01*
X4587444Y-10923960D02*
X4568396Y-10933484D01*
X4568396Y-10933484D02*
X4549348Y-10933484D01*
X4549348Y-10933484D02*
X4530301Y-10923960D01*
X4530301Y-10923960D02*
X4520777Y-10914436D01*
X4520777Y-10914436D02*
X4511253Y-10895389D01*
X4511253Y-10895389D02*
X4501729Y-10857293D01*
X4501729Y-10857293D02*
X4501729Y-10809674D01*
X4501729Y-10809674D02*
X4511253Y-10771579D01*
X4511253Y-10771579D02*
X4520777Y-10752531D01*
X4520777Y-10752531D02*
X4530301Y-10743008D01*
X4530301Y-10743008D02*
X4549348Y-10733484D01*
X4806491Y-10933484D02*
X4692206Y-10933484D01*
X4749348Y-10933484D02*
X4749348Y-10733484D01*
X4749348Y-10733484D02*
X4730301Y-10762055D01*
X4730301Y-10762055D02*
X4711253Y-10781103D01*
X4711253Y-10781103D02*
X4692206Y-10790627D01*
X4987444Y-10733484D02*
X4892206Y-10733484D01*
X4892206Y-10733484D02*
X4882682Y-10828722D01*
X4882682Y-10828722D02*
X4892206Y-10819198D01*
X4892206Y-10819198D02*
X4911253Y-10809674D01*
X4911253Y-10809674D02*
X4958872Y-10809674D01*
X4958872Y-10809674D02*
X4977920Y-10819198D01*
X4977920Y-10819198D02*
X4987444Y-10828722D01*
X4987444Y-10828722D02*
X4996968Y-10847770D01*
X4996968Y-10847770D02*
X4996968Y-10895389D01*
X4996968Y-10895389D02*
X4987444Y-10914436D01*
X4987444Y-10914436D02*
X4977920Y-10923960D01*
X4977920Y-10923960D02*
X4958872Y-10933484D01*
X4958872Y-10933484D02*
X4911253Y-10933484D01*
X4911253Y-10933484D02*
X4892206Y-10923960D01*
X4892206Y-10923960D02*
X4882682Y-10914436D01*
X5063634Y-10733484D02*
X5196968Y-10733484D01*
X5196968Y-10733484D02*
X5111253Y-10933484D01*
X5263634Y-10733484D02*
X5263634Y-10771579D01*
X5339825Y-10733484D02*
X5339825Y-10771579D01*
X5635063Y-11009674D02*
X5625539Y-11000150D01*
X5625539Y-11000150D02*
X5606491Y-10971579D01*
X5606491Y-10971579D02*
X5596968Y-10952531D01*
X5596968Y-10952531D02*
X5587444Y-10923960D01*
X5587444Y-10923960D02*
X5577920Y-10876341D01*
X5577920Y-10876341D02*
X5577920Y-10838246D01*
X5577920Y-10838246D02*
X5587444Y-10790627D01*
X5587444Y-10790627D02*
X5596968Y-10762055D01*
X5596968Y-10762055D02*
X5606491Y-10743008D01*
X5606491Y-10743008D02*
X5625539Y-10714436D01*
X5625539Y-10714436D02*
X5635063Y-10704912D01*
X5701729Y-10752531D02*
X5711253Y-10743008D01*
X5711253Y-10743008D02*
X5730301Y-10733484D01*
X5730301Y-10733484D02*
X5777920Y-10733484D01*
X5777920Y-10733484D02*
X5796968Y-10743008D01*
X5796968Y-10743008D02*
X5806491Y-10752531D01*
X5806491Y-10752531D02*
X5816015Y-10771579D01*
X5816015Y-10771579D02*
X5816015Y-10790627D01*
X5816015Y-10790627D02*
X5806491Y-10819198D01*
X5806491Y-10819198D02*
X5692206Y-10933484D01*
X5692206Y-10933484D02*
X5816015Y-10933484D01*
X5930301Y-10819198D02*
X5911253Y-10809674D01*
X5911253Y-10809674D02*
X5901729Y-10800150D01*
X5901729Y-10800150D02*
X5892206Y-10781103D01*
X5892206Y-10781103D02*
X5892206Y-10771579D01*
X5892206Y-10771579D02*
X5901729Y-10752531D01*
X5901729Y-10752531D02*
X5911253Y-10743008D01*
X5911253Y-10743008D02*
X5930301Y-10733484D01*
X5930301Y-10733484D02*
X5968396Y-10733484D01*
X5968396Y-10733484D02*
X5987444Y-10743008D01*
X5987444Y-10743008D02*
X5996968Y-10752531D01*
X5996968Y-10752531D02*
X6006491Y-10771579D01*
X6006491Y-10771579D02*
X6006491Y-10781103D01*
X6006491Y-10781103D02*
X5996968Y-10800150D01*
X5996968Y-10800150D02*
X5987444Y-10809674D01*
X5987444Y-10809674D02*
X5968396Y-10819198D01*
X5968396Y-10819198D02*
X5930301Y-10819198D01*
X5930301Y-10819198D02*
X5911253Y-10828722D01*
X5911253Y-10828722D02*
X5901729Y-10838246D01*
X5901729Y-10838246D02*
X5892206Y-10857293D01*
X5892206Y-10857293D02*
X5892206Y-10895389D01*
X5892206Y-10895389D02*
X5901729Y-10914436D01*
X5901729Y-10914436D02*
X5911253Y-10923960D01*
X5911253Y-10923960D02*
X5930301Y-10933484D01*
X5930301Y-10933484D02*
X5968396Y-10933484D01*
X5968396Y-10933484D02*
X5987444Y-10923960D01*
X5987444Y-10923960D02*
X5996968Y-10914436D01*
X5996968Y-10914436D02*
X6006491Y-10895389D01*
X6006491Y-10895389D02*
X6006491Y-10857293D01*
X6006491Y-10857293D02*
X5996968Y-10838246D01*
X5996968Y-10838246D02*
X5987444Y-10828722D01*
X5987444Y-10828722D02*
X5968396Y-10819198D01*
X6073158Y-10733484D02*
X6206491Y-10733484D01*
X6206491Y-10733484D02*
X6120777Y-10933484D01*
X6435063Y-10933484D02*
X6435063Y-10733484D01*
X6520777Y-10933484D02*
X6520777Y-10828722D01*
X6520777Y-10828722D02*
X6511253Y-10809674D01*
X6511253Y-10809674D02*
X6492206Y-10800150D01*
X6492206Y-10800150D02*
X6463634Y-10800150D01*
X6463634Y-10800150D02*
X6444587Y-10809674D01*
X6444587Y-10809674D02*
X6435063Y-10819198D01*
X6644587Y-10933484D02*
X6625539Y-10923960D01*
X6625539Y-10923960D02*
X6616015Y-10914436D01*
X6616015Y-10914436D02*
X6606491Y-10895389D01*
X6606491Y-10895389D02*
X6606491Y-10838246D01*
X6606491Y-10838246D02*
X6616015Y-10819198D01*
X6616015Y-10819198D02*
X6625539Y-10809674D01*
X6625539Y-10809674D02*
X6644587Y-10800150D01*
X6644587Y-10800150D02*
X6673158Y-10800150D01*
X6673158Y-10800150D02*
X6692206Y-10809674D01*
X6692206Y-10809674D02*
X6701730Y-10819198D01*
X6701730Y-10819198D02*
X6711253Y-10838246D01*
X6711253Y-10838246D02*
X6711253Y-10895389D01*
X6711253Y-10895389D02*
X6701730Y-10914436D01*
X6701730Y-10914436D02*
X6692206Y-10923960D01*
X6692206Y-10923960D02*
X6673158Y-10933484D01*
X6673158Y-10933484D02*
X6644587Y-10933484D01*
X6825539Y-10933484D02*
X6806491Y-10923960D01*
X6806491Y-10923960D02*
X6796968Y-10904912D01*
X6796968Y-10904912D02*
X6796968Y-10733484D01*
X6977920Y-10923960D02*
X6958872Y-10933484D01*
X6958872Y-10933484D02*
X6920777Y-10933484D01*
X6920777Y-10933484D02*
X6901730Y-10923960D01*
X6901730Y-10923960D02*
X6892206Y-10904912D01*
X6892206Y-10904912D02*
X6892206Y-10828722D01*
X6892206Y-10828722D02*
X6901730Y-10809674D01*
X6901730Y-10809674D02*
X6920777Y-10800150D01*
X6920777Y-10800150D02*
X6958872Y-10800150D01*
X6958872Y-10800150D02*
X6977920Y-10809674D01*
X6977920Y-10809674D02*
X6987444Y-10828722D01*
X6987444Y-10828722D02*
X6987444Y-10847770D01*
X6987444Y-10847770D02*
X6892206Y-10866817D01*
X7063634Y-10923960D02*
X7082682Y-10933484D01*
X7082682Y-10933484D02*
X7120777Y-10933484D01*
X7120777Y-10933484D02*
X7139825Y-10923960D01*
X7139825Y-10923960D02*
X7149349Y-10904912D01*
X7149349Y-10904912D02*
X7149349Y-10895389D01*
X7149349Y-10895389D02*
X7139825Y-10876341D01*
X7139825Y-10876341D02*
X7120777Y-10866817D01*
X7120777Y-10866817D02*
X7092206Y-10866817D01*
X7092206Y-10866817D02*
X7073158Y-10857293D01*
X7073158Y-10857293D02*
X7063634Y-10838246D01*
X7063634Y-10838246D02*
X7063634Y-10828722D01*
X7063634Y-10828722D02*
X7073158Y-10809674D01*
X7073158Y-10809674D02*
X7092206Y-10800150D01*
X7092206Y-10800150D02*
X7120777Y-10800150D01*
X7120777Y-10800150D02*
X7139825Y-10809674D01*
X7216015Y-11009674D02*
X7225539Y-11000150D01*
X7225539Y-11000150D02*
X7244587Y-10971579D01*
X7244587Y-10971579D02*
X7254111Y-10952531D01*
X7254111Y-10952531D02*
X7263634Y-10923960D01*
X7263634Y-10923960D02*
X7273158Y-10876341D01*
X7273158Y-10876341D02*
X7273158Y-10838246D01*
X7273158Y-10838246D02*
X7263634Y-10790627D01*
X7263634Y-10790627D02*
X7254111Y-10762055D01*
X7254111Y-10762055D02*
X7244587Y-10743008D01*
X7244587Y-10743008D02*
X7225539Y-10714436D01*
X7225539Y-10714436D02*
X7216015Y-10704912D01*
D11*
X2020000Y-11146000D02*
X2060000Y-11106000D01*
X2020000Y-11066000D01*
X1980000Y-11106000D01*
X2020000Y-11146000D01*
D10*
X2358872Y-10997484D02*
X2377920Y-10997484D01*
X2377920Y-10997484D02*
X2396967Y-11007008D01*
X2396967Y-11007008D02*
X2406491Y-11016531D01*
X2406491Y-11016531D02*
X2416015Y-11035579D01*
X2416015Y-11035579D02*
X2425539Y-11073674D01*
X2425539Y-11073674D02*
X2425539Y-11121293D01*
X2425539Y-11121293D02*
X2416015Y-11159389D01*
X2416015Y-11159389D02*
X2406491Y-11178436D01*
X2406491Y-11178436D02*
X2396967Y-11187960D01*
X2396967Y-11187960D02*
X2377920Y-11197484D01*
X2377920Y-11197484D02*
X2358872Y-11197484D01*
X2358872Y-11197484D02*
X2339824Y-11187960D01*
X2339824Y-11187960D02*
X2330301Y-11178436D01*
X2330301Y-11178436D02*
X2320777Y-11159389D01*
X2320777Y-11159389D02*
X2311253Y-11121293D01*
X2311253Y-11121293D02*
X2311253Y-11073674D01*
X2311253Y-11073674D02*
X2320777Y-11035579D01*
X2320777Y-11035579D02*
X2330301Y-11016531D01*
X2330301Y-11016531D02*
X2339824Y-11007008D01*
X2339824Y-11007008D02*
X2358872Y-10997484D01*
X2511253Y-11178436D02*
X2520777Y-11187960D01*
X2520777Y-11187960D02*
X2511253Y-11197484D01*
X2511253Y-11197484D02*
X2501729Y-11187960D01*
X2501729Y-11187960D02*
X2511253Y-11178436D01*
X2511253Y-11178436D02*
X2511253Y-11197484D01*
X2635063Y-11083198D02*
X2616015Y-11073674D01*
X2616015Y-11073674D02*
X2606491Y-11064150D01*
X2606491Y-11064150D02*
X2596967Y-11045103D01*
X2596967Y-11045103D02*
X2596967Y-11035579D01*
X2596967Y-11035579D02*
X2606491Y-11016531D01*
X2606491Y-11016531D02*
X2616015Y-11007008D01*
X2616015Y-11007008D02*
X2635063Y-10997484D01*
X2635063Y-10997484D02*
X2673158Y-10997484D01*
X2673158Y-10997484D02*
X2692205Y-11007008D01*
X2692205Y-11007008D02*
X2701729Y-11016531D01*
X2701729Y-11016531D02*
X2711253Y-11035579D01*
X2711253Y-11035579D02*
X2711253Y-11045103D01*
X2711253Y-11045103D02*
X2701729Y-11064150D01*
X2701729Y-11064150D02*
X2692205Y-11073674D01*
X2692205Y-11073674D02*
X2673158Y-11083198D01*
X2673158Y-11083198D02*
X2635063Y-11083198D01*
X2635063Y-11083198D02*
X2616015Y-11092722D01*
X2616015Y-11092722D02*
X2606491Y-11102246D01*
X2606491Y-11102246D02*
X2596967Y-11121293D01*
X2596967Y-11121293D02*
X2596967Y-11159389D01*
X2596967Y-11159389D02*
X2606491Y-11178436D01*
X2606491Y-11178436D02*
X2616015Y-11187960D01*
X2616015Y-11187960D02*
X2635063Y-11197484D01*
X2635063Y-11197484D02*
X2673158Y-11197484D01*
X2673158Y-11197484D02*
X2692205Y-11187960D01*
X2692205Y-11187960D02*
X2701729Y-11178436D01*
X2701729Y-11178436D02*
X2711253Y-11159389D01*
X2711253Y-11159389D02*
X2711253Y-11121293D01*
X2711253Y-11121293D02*
X2701729Y-11102246D01*
X2701729Y-11102246D02*
X2692205Y-11092722D01*
X2692205Y-11092722D02*
X2673158Y-11083198D01*
X2835062Y-10997484D02*
X2854110Y-10997484D01*
X2854110Y-10997484D02*
X2873158Y-11007008D01*
X2873158Y-11007008D02*
X2882682Y-11016531D01*
X2882682Y-11016531D02*
X2892205Y-11035579D01*
X2892205Y-11035579D02*
X2901729Y-11073674D01*
X2901729Y-11073674D02*
X2901729Y-11121293D01*
X2901729Y-11121293D02*
X2892205Y-11159389D01*
X2892205Y-11159389D02*
X2882682Y-11178436D01*
X2882682Y-11178436D02*
X2873158Y-11187960D01*
X2873158Y-11187960D02*
X2854110Y-11197484D01*
X2854110Y-11197484D02*
X2835062Y-11197484D01*
X2835062Y-11197484D02*
X2816015Y-11187960D01*
X2816015Y-11187960D02*
X2806491Y-11178436D01*
X2806491Y-11178436D02*
X2796967Y-11159389D01*
X2796967Y-11159389D02*
X2787444Y-11121293D01*
X2787444Y-11121293D02*
X2787444Y-11073674D01*
X2787444Y-11073674D02*
X2796967Y-11035579D01*
X2796967Y-11035579D02*
X2806491Y-11016531D01*
X2806491Y-11016531D02*
X2816015Y-11007008D01*
X2816015Y-11007008D02*
X2835062Y-10997484D01*
X3025539Y-10997484D02*
X3044586Y-10997484D01*
X3044586Y-10997484D02*
X3063634Y-11007008D01*
X3063634Y-11007008D02*
X3073158Y-11016531D01*
X3073158Y-11016531D02*
X3082682Y-11035579D01*
X3082682Y-11035579D02*
X3092205Y-11073674D01*
X3092205Y-11073674D02*
X3092205Y-11121293D01*
X3092205Y-11121293D02*
X3082682Y-11159389D01*
X3082682Y-11159389D02*
X3073158Y-11178436D01*
X3073158Y-11178436D02*
X3063634Y-11187960D01*
X3063634Y-11187960D02*
X3044586Y-11197484D01*
X3044586Y-11197484D02*
X3025539Y-11197484D01*
X3025539Y-11197484D02*
X3006491Y-11187960D01*
X3006491Y-11187960D02*
X2996967Y-11178436D01*
X2996967Y-11178436D02*
X2987443Y-11159389D01*
X2987443Y-11159389D02*
X2977920Y-11121293D01*
X2977920Y-11121293D02*
X2977920Y-11073674D01*
X2977920Y-11073674D02*
X2987443Y-11035579D01*
X2987443Y-11035579D02*
X2996967Y-11016531D01*
X2996967Y-11016531D02*
X3006491Y-11007008D01*
X3006491Y-11007008D02*
X3025539Y-10997484D01*
X3177920Y-11197484D02*
X3177920Y-11064150D01*
X3177920Y-11083198D02*
X3187443Y-11073674D01*
X3187443Y-11073674D02*
X3206491Y-11064150D01*
X3206491Y-11064150D02*
X3235063Y-11064150D01*
X3235063Y-11064150D02*
X3254110Y-11073674D01*
X3254110Y-11073674D02*
X3263634Y-11092722D01*
X3263634Y-11092722D02*
X3263634Y-11197484D01*
X3263634Y-11092722D02*
X3273158Y-11073674D01*
X3273158Y-11073674D02*
X3292205Y-11064150D01*
X3292205Y-11064150D02*
X3320777Y-11064150D01*
X3320777Y-11064150D02*
X3339824Y-11073674D01*
X3339824Y-11073674D02*
X3349348Y-11092722D01*
X3349348Y-11092722D02*
X3349348Y-11197484D01*
X3444586Y-11197484D02*
X3444586Y-11064150D01*
X3444586Y-11083198D02*
X3454110Y-11073674D01*
X3454110Y-11073674D02*
X3473158Y-11064150D01*
X3473158Y-11064150D02*
X3501729Y-11064150D01*
X3501729Y-11064150D02*
X3520777Y-11073674D01*
X3520777Y-11073674D02*
X3530301Y-11092722D01*
X3530301Y-11092722D02*
X3530301Y-11197484D01*
X3530301Y-11092722D02*
X3539824Y-11073674D01*
X3539824Y-11073674D02*
X3558872Y-11064150D01*
X3558872Y-11064150D02*
X3587443Y-11064150D01*
X3587443Y-11064150D02*
X3606491Y-11073674D01*
X3606491Y-11073674D02*
X3616015Y-11092722D01*
X3616015Y-11092722D02*
X3616015Y-11197484D01*
X4006491Y-10987960D02*
X3835063Y-11245103D01*
X4263634Y-10997484D02*
X4282682Y-10997484D01*
X4282682Y-10997484D02*
X4301729Y-11007008D01*
X4301729Y-11007008D02*
X4311253Y-11016531D01*
X4311253Y-11016531D02*
X4320777Y-11035579D01*
X4320777Y-11035579D02*
X4330301Y-11073674D01*
X4330301Y-11073674D02*
X4330301Y-11121293D01*
X4330301Y-11121293D02*
X4320777Y-11159389D01*
X4320777Y-11159389D02*
X4311253Y-11178436D01*
X4311253Y-11178436D02*
X4301729Y-11187960D01*
X4301729Y-11187960D02*
X4282682Y-11197484D01*
X4282682Y-11197484D02*
X4263634Y-11197484D01*
X4263634Y-11197484D02*
X4244587Y-11187960D01*
X4244587Y-11187960D02*
X4235063Y-11178436D01*
X4235063Y-11178436D02*
X4225539Y-11159389D01*
X4225539Y-11159389D02*
X4216015Y-11121293D01*
X4216015Y-11121293D02*
X4216015Y-11073674D01*
X4216015Y-11073674D02*
X4225539Y-11035579D01*
X4225539Y-11035579D02*
X4235063Y-11016531D01*
X4235063Y-11016531D02*
X4244587Y-11007008D01*
X4244587Y-11007008D02*
X4263634Y-10997484D01*
X4416015Y-11178436D02*
X4425539Y-11187960D01*
X4425539Y-11187960D02*
X4416015Y-11197484D01*
X4416015Y-11197484D02*
X4406491Y-11187960D01*
X4406491Y-11187960D02*
X4416015Y-11178436D01*
X4416015Y-11178436D02*
X4416015Y-11197484D01*
X4549348Y-10997484D02*
X4568396Y-10997484D01*
X4568396Y-10997484D02*
X4587444Y-11007008D01*
X4587444Y-11007008D02*
X4596968Y-11016531D01*
X4596968Y-11016531D02*
X4606491Y-11035579D01*
X4606491Y-11035579D02*
X4616015Y-11073674D01*
X4616015Y-11073674D02*
X4616015Y-11121293D01*
X4616015Y-11121293D02*
X4606491Y-11159389D01*
X4606491Y-11159389D02*
X4596968Y-11178436D01*
X4596968Y-11178436D02*
X4587444Y-11187960D01*
X4587444Y-11187960D02*
X4568396Y-11197484D01*
X4568396Y-11197484D02*
X4549348Y-11197484D01*
X4549348Y-11197484D02*
X4530301Y-11187960D01*
X4530301Y-11187960D02*
X4520777Y-11178436D01*
X4520777Y-11178436D02*
X4511253Y-11159389D01*
X4511253Y-11159389D02*
X4501729Y-11121293D01*
X4501729Y-11121293D02*
X4501729Y-11073674D01*
X4501729Y-11073674D02*
X4511253Y-11035579D01*
X4511253Y-11035579D02*
X4520777Y-11016531D01*
X4520777Y-11016531D02*
X4530301Y-11007008D01*
X4530301Y-11007008D02*
X4549348Y-10997484D01*
X4682682Y-10997484D02*
X4806491Y-10997484D01*
X4806491Y-10997484D02*
X4739825Y-11073674D01*
X4739825Y-11073674D02*
X4768396Y-11073674D01*
X4768396Y-11073674D02*
X4787444Y-11083198D01*
X4787444Y-11083198D02*
X4796968Y-11092722D01*
X4796968Y-11092722D02*
X4806491Y-11111770D01*
X4806491Y-11111770D02*
X4806491Y-11159389D01*
X4806491Y-11159389D02*
X4796968Y-11178436D01*
X4796968Y-11178436D02*
X4787444Y-11187960D01*
X4787444Y-11187960D02*
X4768396Y-11197484D01*
X4768396Y-11197484D02*
X4711253Y-11197484D01*
X4711253Y-11197484D02*
X4692206Y-11187960D01*
X4692206Y-11187960D02*
X4682682Y-11178436D01*
X4996968Y-11197484D02*
X4882682Y-11197484D01*
X4939825Y-11197484D02*
X4939825Y-10997484D01*
X4939825Y-10997484D02*
X4920777Y-11026055D01*
X4920777Y-11026055D02*
X4901729Y-11045103D01*
X4901729Y-11045103D02*
X4882682Y-11054627D01*
X5177920Y-10997484D02*
X5082682Y-10997484D01*
X5082682Y-10997484D02*
X5073158Y-11092722D01*
X5073158Y-11092722D02*
X5082682Y-11083198D01*
X5082682Y-11083198D02*
X5101729Y-11073674D01*
X5101729Y-11073674D02*
X5149349Y-11073674D01*
X5149349Y-11073674D02*
X5168396Y-11083198D01*
X5168396Y-11083198D02*
X5177920Y-11092722D01*
X5177920Y-11092722D02*
X5187444Y-11111770D01*
X5187444Y-11111770D02*
X5187444Y-11159389D01*
X5187444Y-11159389D02*
X5177920Y-11178436D01*
X5177920Y-11178436D02*
X5168396Y-11187960D01*
X5168396Y-11187960D02*
X5149349Y-11197484D01*
X5149349Y-11197484D02*
X5101729Y-11197484D01*
X5101729Y-11197484D02*
X5082682Y-11187960D01*
X5082682Y-11187960D02*
X5073158Y-11178436D01*
X5263634Y-10997484D02*
X5263634Y-11035579D01*
X5339825Y-10997484D02*
X5339825Y-11035579D01*
X5635063Y-11273674D02*
X5625539Y-11264150D01*
X5625539Y-11264150D02*
X5606491Y-11235579D01*
X5606491Y-11235579D02*
X5596968Y-11216531D01*
X5596968Y-11216531D02*
X5587444Y-11187960D01*
X5587444Y-11187960D02*
X5577920Y-11140341D01*
X5577920Y-11140341D02*
X5577920Y-11102246D01*
X5577920Y-11102246D02*
X5587444Y-11054627D01*
X5587444Y-11054627D02*
X5596968Y-11026055D01*
X5596968Y-11026055D02*
X5606491Y-11007008D01*
X5606491Y-11007008D02*
X5625539Y-10978436D01*
X5625539Y-10978436D02*
X5635063Y-10968912D01*
X5701729Y-11016531D02*
X5711253Y-11007008D01*
X5711253Y-11007008D02*
X5730301Y-10997484D01*
X5730301Y-10997484D02*
X5777920Y-10997484D01*
X5777920Y-10997484D02*
X5796968Y-11007008D01*
X5796968Y-11007008D02*
X5806491Y-11016531D01*
X5806491Y-11016531D02*
X5816015Y-11035579D01*
X5816015Y-11035579D02*
X5816015Y-11054627D01*
X5816015Y-11054627D02*
X5806491Y-11083198D01*
X5806491Y-11083198D02*
X5692206Y-11197484D01*
X5692206Y-11197484D02*
X5816015Y-11197484D01*
X5987444Y-11064150D02*
X5987444Y-11197484D01*
X5939825Y-10987960D02*
X5892206Y-11130817D01*
X5892206Y-11130817D02*
X6016015Y-11130817D01*
X6244587Y-11197484D02*
X6244587Y-10997484D01*
X6330301Y-11197484D02*
X6330301Y-11092722D01*
X6330301Y-11092722D02*
X6320777Y-11073674D01*
X6320777Y-11073674D02*
X6301730Y-11064150D01*
X6301730Y-11064150D02*
X6273158Y-11064150D01*
X6273158Y-11064150D02*
X6254110Y-11073674D01*
X6254110Y-11073674D02*
X6244587Y-11083198D01*
X6454110Y-11197484D02*
X6435063Y-11187960D01*
X6435063Y-11187960D02*
X6425539Y-11178436D01*
X6425539Y-11178436D02*
X6416015Y-11159389D01*
X6416015Y-11159389D02*
X6416015Y-11102246D01*
X6416015Y-11102246D02*
X6425539Y-11083198D01*
X6425539Y-11083198D02*
X6435063Y-11073674D01*
X6435063Y-11073674D02*
X6454110Y-11064150D01*
X6454110Y-11064150D02*
X6482682Y-11064150D01*
X6482682Y-11064150D02*
X6501730Y-11073674D01*
X6501730Y-11073674D02*
X6511253Y-11083198D01*
X6511253Y-11083198D02*
X6520777Y-11102246D01*
X6520777Y-11102246D02*
X6520777Y-11159389D01*
X6520777Y-11159389D02*
X6511253Y-11178436D01*
X6511253Y-11178436D02*
X6501730Y-11187960D01*
X6501730Y-11187960D02*
X6482682Y-11197484D01*
X6482682Y-11197484D02*
X6454110Y-11197484D01*
X6635063Y-11197484D02*
X6616015Y-11187960D01*
X6616015Y-11187960D02*
X6606491Y-11168912D01*
X6606491Y-11168912D02*
X6606491Y-10997484D01*
X6787444Y-11187960D02*
X6768396Y-11197484D01*
X6768396Y-11197484D02*
X6730301Y-11197484D01*
X6730301Y-11197484D02*
X6711253Y-11187960D01*
X6711253Y-11187960D02*
X6701730Y-11168912D01*
X6701730Y-11168912D02*
X6701730Y-11092722D01*
X6701730Y-11092722D02*
X6711253Y-11073674D01*
X6711253Y-11073674D02*
X6730301Y-11064150D01*
X6730301Y-11064150D02*
X6768396Y-11064150D01*
X6768396Y-11064150D02*
X6787444Y-11073674D01*
X6787444Y-11073674D02*
X6796968Y-11092722D01*
X6796968Y-11092722D02*
X6796968Y-11111770D01*
X6796968Y-11111770D02*
X6701730Y-11130817D01*
X6873158Y-11187960D02*
X6892206Y-11197484D01*
X6892206Y-11197484D02*
X6930301Y-11197484D01*
X6930301Y-11197484D02*
X6949349Y-11187960D01*
X6949349Y-11187960D02*
X6958872Y-11168912D01*
X6958872Y-11168912D02*
X6958872Y-11159389D01*
X6958872Y-11159389D02*
X6949349Y-11140341D01*
X6949349Y-11140341D02*
X6930301Y-11130817D01*
X6930301Y-11130817D02*
X6901730Y-11130817D01*
X6901730Y-11130817D02*
X6882682Y-11121293D01*
X6882682Y-11121293D02*
X6873158Y-11102246D01*
X6873158Y-11102246D02*
X6873158Y-11092722D01*
X6873158Y-11092722D02*
X6882682Y-11073674D01*
X6882682Y-11073674D02*
X6901730Y-11064150D01*
X6901730Y-11064150D02*
X6930301Y-11064150D01*
X6930301Y-11064150D02*
X6949349Y-11073674D01*
X7025539Y-11273674D02*
X7035063Y-11264150D01*
X7035063Y-11264150D02*
X7054111Y-11235579D01*
X7054111Y-11235579D02*
X7063634Y-11216531D01*
X7063634Y-11216531D02*
X7073158Y-11187960D01*
X7073158Y-11187960D02*
X7082682Y-11140341D01*
X7082682Y-11140341D02*
X7082682Y-11102246D01*
X7082682Y-11102246D02*
X7073158Y-11054627D01*
X7073158Y-11054627D02*
X7063634Y-11026055D01*
X7063634Y-11026055D02*
X7054111Y-11007008D01*
X7054111Y-11007008D02*
X7035063Y-10978436D01*
X7035063Y-10978436D02*
X7025539Y-10968912D01*
D11*
X1970000Y-11325000D02*
X2060000Y-11415000D01*
X2060000Y-11325000D02*
X1970000Y-11415000D01*
X2060000Y-11370000D02*
G75*
G02*
X1970000Y-11370000I-45000J0D01*
G01*
X1970000Y-11370000D02*
G75*
G02*
X2060000Y-11370000I45000J0D01*
G01*
D10*
X2358872Y-11261484D02*
X2377920Y-11261484D01*
X2377920Y-11261484D02*
X2396967Y-11271008D01*
X2396967Y-11271008D02*
X2406491Y-11280531D01*
X2406491Y-11280531D02*
X2416015Y-11299579D01*
X2416015Y-11299579D02*
X2425539Y-11337674D01*
X2425539Y-11337674D02*
X2425539Y-11385293D01*
X2425539Y-11385293D02*
X2416015Y-11423388D01*
X2416015Y-11423388D02*
X2406491Y-11442436D01*
X2406491Y-11442436D02*
X2396967Y-11451960D01*
X2396967Y-11451960D02*
X2377920Y-11461484D01*
X2377920Y-11461484D02*
X2358872Y-11461484D01*
X2358872Y-11461484D02*
X2339824Y-11451960D01*
X2339824Y-11451960D02*
X2330301Y-11442436D01*
X2330301Y-11442436D02*
X2320777Y-11423388D01*
X2320777Y-11423388D02*
X2311253Y-11385293D01*
X2311253Y-11385293D02*
X2311253Y-11337674D01*
X2311253Y-11337674D02*
X2320777Y-11299579D01*
X2320777Y-11299579D02*
X2330301Y-11280531D01*
X2330301Y-11280531D02*
X2339824Y-11271008D01*
X2339824Y-11271008D02*
X2358872Y-11261484D01*
X2511253Y-11442436D02*
X2520777Y-11451960D01*
X2520777Y-11451960D02*
X2511253Y-11461484D01*
X2511253Y-11461484D02*
X2501729Y-11451960D01*
X2501729Y-11451960D02*
X2511253Y-11442436D01*
X2511253Y-11442436D02*
X2511253Y-11461484D01*
X2616015Y-11461484D02*
X2654110Y-11461484D01*
X2654110Y-11461484D02*
X2673158Y-11451960D01*
X2673158Y-11451960D02*
X2682682Y-11442436D01*
X2682682Y-11442436D02*
X2701729Y-11413865D01*
X2701729Y-11413865D02*
X2711253Y-11375769D01*
X2711253Y-11375769D02*
X2711253Y-11299579D01*
X2711253Y-11299579D02*
X2701729Y-11280531D01*
X2701729Y-11280531D02*
X2692205Y-11271008D01*
X2692205Y-11271008D02*
X2673158Y-11261484D01*
X2673158Y-11261484D02*
X2635063Y-11261484D01*
X2635063Y-11261484D02*
X2616015Y-11271008D01*
X2616015Y-11271008D02*
X2606491Y-11280531D01*
X2606491Y-11280531D02*
X2596967Y-11299579D01*
X2596967Y-11299579D02*
X2596967Y-11347198D01*
X2596967Y-11347198D02*
X2606491Y-11366246D01*
X2606491Y-11366246D02*
X2616015Y-11375769D01*
X2616015Y-11375769D02*
X2635063Y-11385293D01*
X2635063Y-11385293D02*
X2673158Y-11385293D01*
X2673158Y-11385293D02*
X2692205Y-11375769D01*
X2692205Y-11375769D02*
X2701729Y-11366246D01*
X2701729Y-11366246D02*
X2711253Y-11347198D01*
X2835062Y-11261484D02*
X2854110Y-11261484D01*
X2854110Y-11261484D02*
X2873158Y-11271008D01*
X2873158Y-11271008D02*
X2882682Y-11280531D01*
X2882682Y-11280531D02*
X2892205Y-11299579D01*
X2892205Y-11299579D02*
X2901729Y-11337674D01*
X2901729Y-11337674D02*
X2901729Y-11385293D01*
X2901729Y-11385293D02*
X2892205Y-11423388D01*
X2892205Y-11423388D02*
X2882682Y-11442436D01*
X2882682Y-11442436D02*
X2873158Y-11451960D01*
X2873158Y-11451960D02*
X2854110Y-11461484D01*
X2854110Y-11461484D02*
X2835062Y-11461484D01*
X2835062Y-11461484D02*
X2816015Y-11451960D01*
X2816015Y-11451960D02*
X2806491Y-11442436D01*
X2806491Y-11442436D02*
X2796967Y-11423388D01*
X2796967Y-11423388D02*
X2787444Y-11385293D01*
X2787444Y-11385293D02*
X2787444Y-11337674D01*
X2787444Y-11337674D02*
X2796967Y-11299579D01*
X2796967Y-11299579D02*
X2806491Y-11280531D01*
X2806491Y-11280531D02*
X2816015Y-11271008D01*
X2816015Y-11271008D02*
X2835062Y-11261484D01*
X3025539Y-11261484D02*
X3044586Y-11261484D01*
X3044586Y-11261484D02*
X3063634Y-11271008D01*
X3063634Y-11271008D02*
X3073158Y-11280531D01*
X3073158Y-11280531D02*
X3082682Y-11299579D01*
X3082682Y-11299579D02*
X3092205Y-11337674D01*
X3092205Y-11337674D02*
X3092205Y-11385293D01*
X3092205Y-11385293D02*
X3082682Y-11423388D01*
X3082682Y-11423388D02*
X3073158Y-11442436D01*
X3073158Y-11442436D02*
X3063634Y-11451960D01*
X3063634Y-11451960D02*
X3044586Y-11461484D01*
X3044586Y-11461484D02*
X3025539Y-11461484D01*
X3025539Y-11461484D02*
X3006491Y-11451960D01*
X3006491Y-11451960D02*
X2996967Y-11442436D01*
X2996967Y-11442436D02*
X2987443Y-11423388D01*
X2987443Y-11423388D02*
X2977920Y-11385293D01*
X2977920Y-11385293D02*
X2977920Y-11337674D01*
X2977920Y-11337674D02*
X2987443Y-11299579D01*
X2987443Y-11299579D02*
X2996967Y-11280531D01*
X2996967Y-11280531D02*
X3006491Y-11271008D01*
X3006491Y-11271008D02*
X3025539Y-11261484D01*
X3177920Y-11461484D02*
X3177920Y-11328150D01*
X3177920Y-11347198D02*
X3187443Y-11337674D01*
X3187443Y-11337674D02*
X3206491Y-11328150D01*
X3206491Y-11328150D02*
X3235063Y-11328150D01*
X3235063Y-11328150D02*
X3254110Y-11337674D01*
X3254110Y-11337674D02*
X3263634Y-11356722D01*
X3263634Y-11356722D02*
X3263634Y-11461484D01*
X3263634Y-11356722D02*
X3273158Y-11337674D01*
X3273158Y-11337674D02*
X3292205Y-11328150D01*
X3292205Y-11328150D02*
X3320777Y-11328150D01*
X3320777Y-11328150D02*
X3339824Y-11337674D01*
X3339824Y-11337674D02*
X3349348Y-11356722D01*
X3349348Y-11356722D02*
X3349348Y-11461484D01*
X3444586Y-11461484D02*
X3444586Y-11328150D01*
X3444586Y-11347198D02*
X3454110Y-11337674D01*
X3454110Y-11337674D02*
X3473158Y-11328150D01*
X3473158Y-11328150D02*
X3501729Y-11328150D01*
X3501729Y-11328150D02*
X3520777Y-11337674D01*
X3520777Y-11337674D02*
X3530301Y-11356722D01*
X3530301Y-11356722D02*
X3530301Y-11461484D01*
X3530301Y-11356722D02*
X3539824Y-11337674D01*
X3539824Y-11337674D02*
X3558872Y-11328150D01*
X3558872Y-11328150D02*
X3587443Y-11328150D01*
X3587443Y-11328150D02*
X3606491Y-11337674D01*
X3606491Y-11337674D02*
X3616015Y-11356722D01*
X3616015Y-11356722D02*
X3616015Y-11461484D01*
X4006491Y-11251960D02*
X3835063Y-11509103D01*
X4263634Y-11261484D02*
X4282682Y-11261484D01*
X4282682Y-11261484D02*
X4301729Y-11271008D01*
X4301729Y-11271008D02*
X4311253Y-11280531D01*
X4311253Y-11280531D02*
X4320777Y-11299579D01*
X4320777Y-11299579D02*
X4330301Y-11337674D01*
X4330301Y-11337674D02*
X4330301Y-11385293D01*
X4330301Y-11385293D02*
X4320777Y-11423388D01*
X4320777Y-11423388D02*
X4311253Y-11442436D01*
X4311253Y-11442436D02*
X4301729Y-11451960D01*
X4301729Y-11451960D02*
X4282682Y-11461484D01*
X4282682Y-11461484D02*
X4263634Y-11461484D01*
X4263634Y-11461484D02*
X4244587Y-11451960D01*
X4244587Y-11451960D02*
X4235063Y-11442436D01*
X4235063Y-11442436D02*
X4225539Y-11423388D01*
X4225539Y-11423388D02*
X4216015Y-11385293D01*
X4216015Y-11385293D02*
X4216015Y-11337674D01*
X4216015Y-11337674D02*
X4225539Y-11299579D01*
X4225539Y-11299579D02*
X4235063Y-11280531D01*
X4235063Y-11280531D02*
X4244587Y-11271008D01*
X4244587Y-11271008D02*
X4263634Y-11261484D01*
X4416015Y-11442436D02*
X4425539Y-11451960D01*
X4425539Y-11451960D02*
X4416015Y-11461484D01*
X4416015Y-11461484D02*
X4406491Y-11451960D01*
X4406491Y-11451960D02*
X4416015Y-11442436D01*
X4416015Y-11442436D02*
X4416015Y-11461484D01*
X4549348Y-11261484D02*
X4568396Y-11261484D01*
X4568396Y-11261484D02*
X4587444Y-11271008D01*
X4587444Y-11271008D02*
X4596968Y-11280531D01*
X4596968Y-11280531D02*
X4606491Y-11299579D01*
X4606491Y-11299579D02*
X4616015Y-11337674D01*
X4616015Y-11337674D02*
X4616015Y-11385293D01*
X4616015Y-11385293D02*
X4606491Y-11423388D01*
X4606491Y-11423388D02*
X4596968Y-11442436D01*
X4596968Y-11442436D02*
X4587444Y-11451960D01*
X4587444Y-11451960D02*
X4568396Y-11461484D01*
X4568396Y-11461484D02*
X4549348Y-11461484D01*
X4549348Y-11461484D02*
X4530301Y-11451960D01*
X4530301Y-11451960D02*
X4520777Y-11442436D01*
X4520777Y-11442436D02*
X4511253Y-11423388D01*
X4511253Y-11423388D02*
X4501729Y-11385293D01*
X4501729Y-11385293D02*
X4501729Y-11337674D01*
X4501729Y-11337674D02*
X4511253Y-11299579D01*
X4511253Y-11299579D02*
X4520777Y-11280531D01*
X4520777Y-11280531D02*
X4530301Y-11271008D01*
X4530301Y-11271008D02*
X4549348Y-11261484D01*
X4682682Y-11261484D02*
X4806491Y-11261484D01*
X4806491Y-11261484D02*
X4739825Y-11337674D01*
X4739825Y-11337674D02*
X4768396Y-11337674D01*
X4768396Y-11337674D02*
X4787444Y-11347198D01*
X4787444Y-11347198D02*
X4796968Y-11356722D01*
X4796968Y-11356722D02*
X4806491Y-11375769D01*
X4806491Y-11375769D02*
X4806491Y-11423388D01*
X4806491Y-11423388D02*
X4796968Y-11442436D01*
X4796968Y-11442436D02*
X4787444Y-11451960D01*
X4787444Y-11451960D02*
X4768396Y-11461484D01*
X4768396Y-11461484D02*
X4711253Y-11461484D01*
X4711253Y-11461484D02*
X4692206Y-11451960D01*
X4692206Y-11451960D02*
X4682682Y-11442436D01*
X4987444Y-11261484D02*
X4892206Y-11261484D01*
X4892206Y-11261484D02*
X4882682Y-11356722D01*
X4882682Y-11356722D02*
X4892206Y-11347198D01*
X4892206Y-11347198D02*
X4911253Y-11337674D01*
X4911253Y-11337674D02*
X4958872Y-11337674D01*
X4958872Y-11337674D02*
X4977920Y-11347198D01*
X4977920Y-11347198D02*
X4987444Y-11356722D01*
X4987444Y-11356722D02*
X4996968Y-11375769D01*
X4996968Y-11375769D02*
X4996968Y-11423388D01*
X4996968Y-11423388D02*
X4987444Y-11442436D01*
X4987444Y-11442436D02*
X4977920Y-11451960D01*
X4977920Y-11451960D02*
X4958872Y-11461484D01*
X4958872Y-11461484D02*
X4911253Y-11461484D01*
X4911253Y-11461484D02*
X4892206Y-11451960D01*
X4892206Y-11451960D02*
X4882682Y-11442436D01*
X5168396Y-11328150D02*
X5168396Y-11461484D01*
X5120777Y-11251960D02*
X5073158Y-11394817D01*
X5073158Y-11394817D02*
X5196968Y-11394817D01*
X5263634Y-11261484D02*
X5263634Y-11299579D01*
X5339825Y-11261484D02*
X5339825Y-11299579D01*
X5635063Y-11537674D02*
X5625539Y-11528150D01*
X5625539Y-11528150D02*
X5606491Y-11499579D01*
X5606491Y-11499579D02*
X5596968Y-11480531D01*
X5596968Y-11480531D02*
X5587444Y-11451960D01*
X5587444Y-11451960D02*
X5577920Y-11404341D01*
X5577920Y-11404341D02*
X5577920Y-11366246D01*
X5577920Y-11366246D02*
X5587444Y-11318627D01*
X5587444Y-11318627D02*
X5596968Y-11290055D01*
X5596968Y-11290055D02*
X5606491Y-11271008D01*
X5606491Y-11271008D02*
X5625539Y-11242436D01*
X5625539Y-11242436D02*
X5635063Y-11232912D01*
X5701729Y-11280531D02*
X5711253Y-11271008D01*
X5711253Y-11271008D02*
X5730301Y-11261484D01*
X5730301Y-11261484D02*
X5777920Y-11261484D01*
X5777920Y-11261484D02*
X5796968Y-11271008D01*
X5796968Y-11271008D02*
X5806491Y-11280531D01*
X5806491Y-11280531D02*
X5816015Y-11299579D01*
X5816015Y-11299579D02*
X5816015Y-11318627D01*
X5816015Y-11318627D02*
X5806491Y-11347198D01*
X5806491Y-11347198D02*
X5692206Y-11461484D01*
X5692206Y-11461484D02*
X5816015Y-11461484D01*
X6054110Y-11461484D02*
X6054110Y-11261484D01*
X6139825Y-11461484D02*
X6139825Y-11356722D01*
X6139825Y-11356722D02*
X6130301Y-11337674D01*
X6130301Y-11337674D02*
X6111253Y-11328150D01*
X6111253Y-11328150D02*
X6082682Y-11328150D01*
X6082682Y-11328150D02*
X6063634Y-11337674D01*
X6063634Y-11337674D02*
X6054110Y-11347198D01*
X6263634Y-11461484D02*
X6244587Y-11451960D01*
X6244587Y-11451960D02*
X6235063Y-11442436D01*
X6235063Y-11442436D02*
X6225539Y-11423388D01*
X6225539Y-11423388D02*
X6225539Y-11366246D01*
X6225539Y-11366246D02*
X6235063Y-11347198D01*
X6235063Y-11347198D02*
X6244587Y-11337674D01*
X6244587Y-11337674D02*
X6263634Y-11328150D01*
X6263634Y-11328150D02*
X6292206Y-11328150D01*
X6292206Y-11328150D02*
X6311253Y-11337674D01*
X6311253Y-11337674D02*
X6320777Y-11347198D01*
X6320777Y-11347198D02*
X6330301Y-11366246D01*
X6330301Y-11366246D02*
X6330301Y-11423388D01*
X6330301Y-11423388D02*
X6320777Y-11442436D01*
X6320777Y-11442436D02*
X6311253Y-11451960D01*
X6311253Y-11451960D02*
X6292206Y-11461484D01*
X6292206Y-11461484D02*
X6263634Y-11461484D01*
X6444587Y-11461484D02*
X6425539Y-11451960D01*
X6425539Y-11451960D02*
X6416015Y-11432912D01*
X6416015Y-11432912D02*
X6416015Y-11261484D01*
X6596968Y-11451960D02*
X6577920Y-11461484D01*
X6577920Y-11461484D02*
X6539825Y-11461484D01*
X6539825Y-11461484D02*
X6520777Y-11451960D01*
X6520777Y-11451960D02*
X6511253Y-11432912D01*
X6511253Y-11432912D02*
X6511253Y-11356722D01*
X6511253Y-11356722D02*
X6520777Y-11337674D01*
X6520777Y-11337674D02*
X6539825Y-11328150D01*
X6539825Y-11328150D02*
X6577920Y-11328150D01*
X6577920Y-11328150D02*
X6596968Y-11337674D01*
X6596968Y-11337674D02*
X6606491Y-11356722D01*
X6606491Y-11356722D02*
X6606491Y-11375769D01*
X6606491Y-11375769D02*
X6511253Y-11394817D01*
X6682682Y-11451960D02*
X6701730Y-11461484D01*
X6701730Y-11461484D02*
X6739825Y-11461484D01*
X6739825Y-11461484D02*
X6758872Y-11451960D01*
X6758872Y-11451960D02*
X6768396Y-11432912D01*
X6768396Y-11432912D02*
X6768396Y-11423388D01*
X6768396Y-11423388D02*
X6758872Y-11404341D01*
X6758872Y-11404341D02*
X6739825Y-11394817D01*
X6739825Y-11394817D02*
X6711253Y-11394817D01*
X6711253Y-11394817D02*
X6692206Y-11385293D01*
X6692206Y-11385293D02*
X6682682Y-11366246D01*
X6682682Y-11366246D02*
X6682682Y-11356722D01*
X6682682Y-11356722D02*
X6692206Y-11337674D01*
X6692206Y-11337674D02*
X6711253Y-11328150D01*
X6711253Y-11328150D02*
X6739825Y-11328150D01*
X6739825Y-11328150D02*
X6758872Y-11337674D01*
X6835063Y-11537674D02*
X6844587Y-11528150D01*
X6844587Y-11528150D02*
X6863634Y-11499579D01*
X6863634Y-11499579D02*
X6873158Y-11480531D01*
X6873158Y-11480531D02*
X6882682Y-11451960D01*
X6882682Y-11451960D02*
X6892206Y-11404341D01*
X6892206Y-11404341D02*
X6892206Y-11366246D01*
X6892206Y-11366246D02*
X6882682Y-11318627D01*
X6882682Y-11318627D02*
X6873158Y-11290055D01*
X6873158Y-11290055D02*
X6863634Y-11271008D01*
X6863634Y-11271008D02*
X6844587Y-11242436D01*
X6844587Y-11242436D02*
X6835063Y-11232912D01*
D11*
X1960000Y-11584000D02*
X2060000Y-11684000D01*
X2060000Y-11584000D02*
X1960000Y-11684000D01*
X2010000Y-11584000D02*
X2010000Y-11684000D01*
X1960000Y-11634000D02*
X2060000Y-11634000D01*
D10*
X2425539Y-11725484D02*
X2311253Y-11725484D01*
X2368396Y-11725484D02*
X2368396Y-11525484D01*
X2368396Y-11525484D02*
X2349348Y-11554055D01*
X2349348Y-11554055D02*
X2330301Y-11573103D01*
X2330301Y-11573103D02*
X2311253Y-11582627D01*
X2511253Y-11706436D02*
X2520777Y-11715960D01*
X2520777Y-11715960D02*
X2511253Y-11725484D01*
X2511253Y-11725484D02*
X2501729Y-11715960D01*
X2501729Y-11715960D02*
X2511253Y-11706436D01*
X2511253Y-11706436D02*
X2511253Y-11725484D01*
X2644586Y-11525484D02*
X2663634Y-11525484D01*
X2663634Y-11525484D02*
X2682682Y-11535008D01*
X2682682Y-11535008D02*
X2692205Y-11544531D01*
X2692205Y-11544531D02*
X2701729Y-11563579D01*
X2701729Y-11563579D02*
X2711253Y-11601674D01*
X2711253Y-11601674D02*
X2711253Y-11649293D01*
X2711253Y-11649293D02*
X2701729Y-11687388D01*
X2701729Y-11687388D02*
X2692205Y-11706436D01*
X2692205Y-11706436D02*
X2682682Y-11715960D01*
X2682682Y-11715960D02*
X2663634Y-11725484D01*
X2663634Y-11725484D02*
X2644586Y-11725484D01*
X2644586Y-11725484D02*
X2625539Y-11715960D01*
X2625539Y-11715960D02*
X2616015Y-11706436D01*
X2616015Y-11706436D02*
X2606491Y-11687388D01*
X2606491Y-11687388D02*
X2596967Y-11649293D01*
X2596967Y-11649293D02*
X2596967Y-11601674D01*
X2596967Y-11601674D02*
X2606491Y-11563579D01*
X2606491Y-11563579D02*
X2616015Y-11544531D01*
X2616015Y-11544531D02*
X2625539Y-11535008D01*
X2625539Y-11535008D02*
X2644586Y-11525484D01*
X2835062Y-11525484D02*
X2854110Y-11525484D01*
X2854110Y-11525484D02*
X2873158Y-11535008D01*
X2873158Y-11535008D02*
X2882682Y-11544531D01*
X2882682Y-11544531D02*
X2892205Y-11563579D01*
X2892205Y-11563579D02*
X2901729Y-11601674D01*
X2901729Y-11601674D02*
X2901729Y-11649293D01*
X2901729Y-11649293D02*
X2892205Y-11687388D01*
X2892205Y-11687388D02*
X2882682Y-11706436D01*
X2882682Y-11706436D02*
X2873158Y-11715960D01*
X2873158Y-11715960D02*
X2854110Y-11725484D01*
X2854110Y-11725484D02*
X2835062Y-11725484D01*
X2835062Y-11725484D02*
X2816015Y-11715960D01*
X2816015Y-11715960D02*
X2806491Y-11706436D01*
X2806491Y-11706436D02*
X2796967Y-11687388D01*
X2796967Y-11687388D02*
X2787444Y-11649293D01*
X2787444Y-11649293D02*
X2787444Y-11601674D01*
X2787444Y-11601674D02*
X2796967Y-11563579D01*
X2796967Y-11563579D02*
X2806491Y-11544531D01*
X2806491Y-11544531D02*
X2816015Y-11535008D01*
X2816015Y-11535008D02*
X2835062Y-11525484D01*
X3025539Y-11525484D02*
X3044586Y-11525484D01*
X3044586Y-11525484D02*
X3063634Y-11535008D01*
X3063634Y-11535008D02*
X3073158Y-11544531D01*
X3073158Y-11544531D02*
X3082682Y-11563579D01*
X3082682Y-11563579D02*
X3092205Y-11601674D01*
X3092205Y-11601674D02*
X3092205Y-11649293D01*
X3092205Y-11649293D02*
X3082682Y-11687388D01*
X3082682Y-11687388D02*
X3073158Y-11706436D01*
X3073158Y-11706436D02*
X3063634Y-11715960D01*
X3063634Y-11715960D02*
X3044586Y-11725484D01*
X3044586Y-11725484D02*
X3025539Y-11725484D01*
X3025539Y-11725484D02*
X3006491Y-11715960D01*
X3006491Y-11715960D02*
X2996967Y-11706436D01*
X2996967Y-11706436D02*
X2987443Y-11687388D01*
X2987443Y-11687388D02*
X2977920Y-11649293D01*
X2977920Y-11649293D02*
X2977920Y-11601674D01*
X2977920Y-11601674D02*
X2987443Y-11563579D01*
X2987443Y-11563579D02*
X2996967Y-11544531D01*
X2996967Y-11544531D02*
X3006491Y-11535008D01*
X3006491Y-11535008D02*
X3025539Y-11525484D01*
X3177920Y-11725484D02*
X3177920Y-11592150D01*
X3177920Y-11611198D02*
X3187443Y-11601674D01*
X3187443Y-11601674D02*
X3206491Y-11592150D01*
X3206491Y-11592150D02*
X3235063Y-11592150D01*
X3235063Y-11592150D02*
X3254110Y-11601674D01*
X3254110Y-11601674D02*
X3263634Y-11620722D01*
X3263634Y-11620722D02*
X3263634Y-11725484D01*
X3263634Y-11620722D02*
X3273158Y-11601674D01*
X3273158Y-11601674D02*
X3292205Y-11592150D01*
X3292205Y-11592150D02*
X3320777Y-11592150D01*
X3320777Y-11592150D02*
X3339824Y-11601674D01*
X3339824Y-11601674D02*
X3349348Y-11620722D01*
X3349348Y-11620722D02*
X3349348Y-11725484D01*
X3444586Y-11725484D02*
X3444586Y-11592150D01*
X3444586Y-11611198D02*
X3454110Y-11601674D01*
X3454110Y-11601674D02*
X3473158Y-11592150D01*
X3473158Y-11592150D02*
X3501729Y-11592150D01*
X3501729Y-11592150D02*
X3520777Y-11601674D01*
X3520777Y-11601674D02*
X3530301Y-11620722D01*
X3530301Y-11620722D02*
X3530301Y-11725484D01*
X3530301Y-11620722D02*
X3539824Y-11601674D01*
X3539824Y-11601674D02*
X3558872Y-11592150D01*
X3558872Y-11592150D02*
X3587443Y-11592150D01*
X3587443Y-11592150D02*
X3606491Y-11601674D01*
X3606491Y-11601674D02*
X3616015Y-11620722D01*
X3616015Y-11620722D02*
X3616015Y-11725484D01*
X4006491Y-11515960D02*
X3835063Y-11773103D01*
X4263634Y-11525484D02*
X4282682Y-11525484D01*
X4282682Y-11525484D02*
X4301729Y-11535008D01*
X4301729Y-11535008D02*
X4311253Y-11544531D01*
X4311253Y-11544531D02*
X4320777Y-11563579D01*
X4320777Y-11563579D02*
X4330301Y-11601674D01*
X4330301Y-11601674D02*
X4330301Y-11649293D01*
X4330301Y-11649293D02*
X4320777Y-11687388D01*
X4320777Y-11687388D02*
X4311253Y-11706436D01*
X4311253Y-11706436D02*
X4301729Y-11715960D01*
X4301729Y-11715960D02*
X4282682Y-11725484D01*
X4282682Y-11725484D02*
X4263634Y-11725484D01*
X4263634Y-11725484D02*
X4244587Y-11715960D01*
X4244587Y-11715960D02*
X4235063Y-11706436D01*
X4235063Y-11706436D02*
X4225539Y-11687388D01*
X4225539Y-11687388D02*
X4216015Y-11649293D01*
X4216015Y-11649293D02*
X4216015Y-11601674D01*
X4216015Y-11601674D02*
X4225539Y-11563579D01*
X4225539Y-11563579D02*
X4235063Y-11544531D01*
X4235063Y-11544531D02*
X4244587Y-11535008D01*
X4244587Y-11535008D02*
X4263634Y-11525484D01*
X4416015Y-11706436D02*
X4425539Y-11715960D01*
X4425539Y-11715960D02*
X4416015Y-11725484D01*
X4416015Y-11725484D02*
X4406491Y-11715960D01*
X4406491Y-11715960D02*
X4416015Y-11706436D01*
X4416015Y-11706436D02*
X4416015Y-11725484D01*
X4549348Y-11525484D02*
X4568396Y-11525484D01*
X4568396Y-11525484D02*
X4587444Y-11535008D01*
X4587444Y-11535008D02*
X4596968Y-11544531D01*
X4596968Y-11544531D02*
X4606491Y-11563579D01*
X4606491Y-11563579D02*
X4616015Y-11601674D01*
X4616015Y-11601674D02*
X4616015Y-11649293D01*
X4616015Y-11649293D02*
X4606491Y-11687388D01*
X4606491Y-11687388D02*
X4596968Y-11706436D01*
X4596968Y-11706436D02*
X4587444Y-11715960D01*
X4587444Y-11715960D02*
X4568396Y-11725484D01*
X4568396Y-11725484D02*
X4549348Y-11725484D01*
X4549348Y-11725484D02*
X4530301Y-11715960D01*
X4530301Y-11715960D02*
X4520777Y-11706436D01*
X4520777Y-11706436D02*
X4511253Y-11687388D01*
X4511253Y-11687388D02*
X4501729Y-11649293D01*
X4501729Y-11649293D02*
X4501729Y-11601674D01*
X4501729Y-11601674D02*
X4511253Y-11563579D01*
X4511253Y-11563579D02*
X4520777Y-11544531D01*
X4520777Y-11544531D02*
X4530301Y-11535008D01*
X4530301Y-11535008D02*
X4549348Y-11525484D01*
X4682682Y-11525484D02*
X4806491Y-11525484D01*
X4806491Y-11525484D02*
X4739825Y-11601674D01*
X4739825Y-11601674D02*
X4768396Y-11601674D01*
X4768396Y-11601674D02*
X4787444Y-11611198D01*
X4787444Y-11611198D02*
X4796968Y-11620722D01*
X4796968Y-11620722D02*
X4806491Y-11639769D01*
X4806491Y-11639769D02*
X4806491Y-11687388D01*
X4806491Y-11687388D02*
X4796968Y-11706436D01*
X4796968Y-11706436D02*
X4787444Y-11715960D01*
X4787444Y-11715960D02*
X4768396Y-11725484D01*
X4768396Y-11725484D02*
X4711253Y-11725484D01*
X4711253Y-11725484D02*
X4692206Y-11715960D01*
X4692206Y-11715960D02*
X4682682Y-11706436D01*
X4901729Y-11725484D02*
X4939825Y-11725484D01*
X4939825Y-11725484D02*
X4958872Y-11715960D01*
X4958872Y-11715960D02*
X4968396Y-11706436D01*
X4968396Y-11706436D02*
X4987444Y-11677865D01*
X4987444Y-11677865D02*
X4996968Y-11639769D01*
X4996968Y-11639769D02*
X4996968Y-11563579D01*
X4996968Y-11563579D02*
X4987444Y-11544531D01*
X4987444Y-11544531D02*
X4977920Y-11535008D01*
X4977920Y-11535008D02*
X4958872Y-11525484D01*
X4958872Y-11525484D02*
X4920777Y-11525484D01*
X4920777Y-11525484D02*
X4901729Y-11535008D01*
X4901729Y-11535008D02*
X4892206Y-11544531D01*
X4892206Y-11544531D02*
X4882682Y-11563579D01*
X4882682Y-11563579D02*
X4882682Y-11611198D01*
X4882682Y-11611198D02*
X4892206Y-11630246D01*
X4892206Y-11630246D02*
X4901729Y-11639769D01*
X4901729Y-11639769D02*
X4920777Y-11649293D01*
X4920777Y-11649293D02*
X4958872Y-11649293D01*
X4958872Y-11649293D02*
X4977920Y-11639769D01*
X4977920Y-11639769D02*
X4987444Y-11630246D01*
X4987444Y-11630246D02*
X4996968Y-11611198D01*
X5168396Y-11592150D02*
X5168396Y-11725484D01*
X5120777Y-11515960D02*
X5073158Y-11658817D01*
X5073158Y-11658817D02*
X5196968Y-11658817D01*
X5263634Y-11525484D02*
X5263634Y-11563579D01*
X5339825Y-11525484D02*
X5339825Y-11563579D01*
X5635063Y-11801674D02*
X5625539Y-11792150D01*
X5625539Y-11792150D02*
X5606491Y-11763579D01*
X5606491Y-11763579D02*
X5596968Y-11744531D01*
X5596968Y-11744531D02*
X5587444Y-11715960D01*
X5587444Y-11715960D02*
X5577920Y-11668341D01*
X5577920Y-11668341D02*
X5577920Y-11630246D01*
X5577920Y-11630246D02*
X5587444Y-11582627D01*
X5587444Y-11582627D02*
X5596968Y-11554055D01*
X5596968Y-11554055D02*
X5606491Y-11535008D01*
X5606491Y-11535008D02*
X5625539Y-11506436D01*
X5625539Y-11506436D02*
X5635063Y-11496912D01*
X5701729Y-11544531D02*
X5711253Y-11535008D01*
X5711253Y-11535008D02*
X5730301Y-11525484D01*
X5730301Y-11525484D02*
X5777920Y-11525484D01*
X5777920Y-11525484D02*
X5796968Y-11535008D01*
X5796968Y-11535008D02*
X5806491Y-11544531D01*
X5806491Y-11544531D02*
X5816015Y-11563579D01*
X5816015Y-11563579D02*
X5816015Y-11582627D01*
X5816015Y-11582627D02*
X5806491Y-11611198D01*
X5806491Y-11611198D02*
X5692206Y-11725484D01*
X5692206Y-11725484D02*
X5816015Y-11725484D01*
X6054110Y-11725484D02*
X6054110Y-11525484D01*
X6139825Y-11725484D02*
X6139825Y-11620722D01*
X6139825Y-11620722D02*
X6130301Y-11601674D01*
X6130301Y-11601674D02*
X6111253Y-11592150D01*
X6111253Y-11592150D02*
X6082682Y-11592150D01*
X6082682Y-11592150D02*
X6063634Y-11601674D01*
X6063634Y-11601674D02*
X6054110Y-11611198D01*
X6263634Y-11725484D02*
X6244587Y-11715960D01*
X6244587Y-11715960D02*
X6235063Y-11706436D01*
X6235063Y-11706436D02*
X6225539Y-11687388D01*
X6225539Y-11687388D02*
X6225539Y-11630246D01*
X6225539Y-11630246D02*
X6235063Y-11611198D01*
X6235063Y-11611198D02*
X6244587Y-11601674D01*
X6244587Y-11601674D02*
X6263634Y-11592150D01*
X6263634Y-11592150D02*
X6292206Y-11592150D01*
X6292206Y-11592150D02*
X6311253Y-11601674D01*
X6311253Y-11601674D02*
X6320777Y-11611198D01*
X6320777Y-11611198D02*
X6330301Y-11630246D01*
X6330301Y-11630246D02*
X6330301Y-11687388D01*
X6330301Y-11687388D02*
X6320777Y-11706436D01*
X6320777Y-11706436D02*
X6311253Y-11715960D01*
X6311253Y-11715960D02*
X6292206Y-11725484D01*
X6292206Y-11725484D02*
X6263634Y-11725484D01*
X6444587Y-11725484D02*
X6425539Y-11715960D01*
X6425539Y-11715960D02*
X6416015Y-11696912D01*
X6416015Y-11696912D02*
X6416015Y-11525484D01*
X6596968Y-11715960D02*
X6577920Y-11725484D01*
X6577920Y-11725484D02*
X6539825Y-11725484D01*
X6539825Y-11725484D02*
X6520777Y-11715960D01*
X6520777Y-11715960D02*
X6511253Y-11696912D01*
X6511253Y-11696912D02*
X6511253Y-11620722D01*
X6511253Y-11620722D02*
X6520777Y-11601674D01*
X6520777Y-11601674D02*
X6539825Y-11592150D01*
X6539825Y-11592150D02*
X6577920Y-11592150D01*
X6577920Y-11592150D02*
X6596968Y-11601674D01*
X6596968Y-11601674D02*
X6606491Y-11620722D01*
X6606491Y-11620722D02*
X6606491Y-11639769D01*
X6606491Y-11639769D02*
X6511253Y-11658817D01*
X6682682Y-11715960D02*
X6701730Y-11725484D01*
X6701730Y-11725484D02*
X6739825Y-11725484D01*
X6739825Y-11725484D02*
X6758872Y-11715960D01*
X6758872Y-11715960D02*
X6768396Y-11696912D01*
X6768396Y-11696912D02*
X6768396Y-11687388D01*
X6768396Y-11687388D02*
X6758872Y-11668341D01*
X6758872Y-11668341D02*
X6739825Y-11658817D01*
X6739825Y-11658817D02*
X6711253Y-11658817D01*
X6711253Y-11658817D02*
X6692206Y-11649293D01*
X6692206Y-11649293D02*
X6682682Y-11630246D01*
X6682682Y-11630246D02*
X6682682Y-11620722D01*
X6682682Y-11620722D02*
X6692206Y-11601674D01*
X6692206Y-11601674D02*
X6711253Y-11592150D01*
X6711253Y-11592150D02*
X6739825Y-11592150D01*
X6739825Y-11592150D02*
X6758872Y-11601674D01*
X7006492Y-11649293D02*
X7158873Y-11649293D01*
X7082682Y-11725484D02*
X7082682Y-11573103D01*
X7387444Y-11525484D02*
X7511253Y-11525484D01*
X7511253Y-11525484D02*
X7444587Y-11601674D01*
X7444587Y-11601674D02*
X7473158Y-11601674D01*
X7473158Y-11601674D02*
X7492206Y-11611198D01*
X7492206Y-11611198D02*
X7501730Y-11620722D01*
X7501730Y-11620722D02*
X7511253Y-11639769D01*
X7511253Y-11639769D02*
X7511253Y-11687388D01*
X7511253Y-11687388D02*
X7501730Y-11706436D01*
X7501730Y-11706436D02*
X7492206Y-11715960D01*
X7492206Y-11715960D02*
X7473158Y-11725484D01*
X7473158Y-11725484D02*
X7416015Y-11725484D01*
X7416015Y-11725484D02*
X7396968Y-11715960D01*
X7396968Y-11715960D02*
X7387444Y-11706436D01*
X7739825Y-11715960D02*
X7758873Y-11725484D01*
X7758873Y-11725484D02*
X7796968Y-11725484D01*
X7796968Y-11725484D02*
X7816015Y-11715960D01*
X7816015Y-11715960D02*
X7825539Y-11696912D01*
X7825539Y-11696912D02*
X7825539Y-11687388D01*
X7825539Y-11687388D02*
X7816015Y-11668341D01*
X7816015Y-11668341D02*
X7796968Y-11658817D01*
X7796968Y-11658817D02*
X7768396Y-11658817D01*
X7768396Y-11658817D02*
X7749349Y-11649293D01*
X7749349Y-11649293D02*
X7739825Y-11630246D01*
X7739825Y-11630246D02*
X7739825Y-11620722D01*
X7739825Y-11620722D02*
X7749349Y-11601674D01*
X7749349Y-11601674D02*
X7768396Y-11592150D01*
X7768396Y-11592150D02*
X7796968Y-11592150D01*
X7796968Y-11592150D02*
X7816015Y-11601674D01*
X7939825Y-11725484D02*
X7920777Y-11715960D01*
X7920777Y-11715960D02*
X7911254Y-11696912D01*
X7911254Y-11696912D02*
X7911254Y-11525484D01*
X8044587Y-11725484D02*
X8025539Y-11715960D01*
X8025539Y-11715960D02*
X8016015Y-11706436D01*
X8016015Y-11706436D02*
X8006492Y-11687388D01*
X8006492Y-11687388D02*
X8006492Y-11630246D01*
X8006492Y-11630246D02*
X8016015Y-11611198D01*
X8016015Y-11611198D02*
X8025539Y-11601674D01*
X8025539Y-11601674D02*
X8044587Y-11592150D01*
X8044587Y-11592150D02*
X8073158Y-11592150D01*
X8073158Y-11592150D02*
X8092206Y-11601674D01*
X8092206Y-11601674D02*
X8101730Y-11611198D01*
X8101730Y-11611198D02*
X8111254Y-11630246D01*
X8111254Y-11630246D02*
X8111254Y-11687388D01*
X8111254Y-11687388D02*
X8101730Y-11706436D01*
X8101730Y-11706436D02*
X8092206Y-11715960D01*
X8092206Y-11715960D02*
X8073158Y-11725484D01*
X8073158Y-11725484D02*
X8044587Y-11725484D01*
X8168396Y-11592150D02*
X8244587Y-11592150D01*
X8196968Y-11525484D02*
X8196968Y-11696912D01*
X8196968Y-11696912D02*
X8206492Y-11715960D01*
X8206492Y-11715960D02*
X8225539Y-11725484D01*
X8225539Y-11725484D02*
X8244587Y-11725484D01*
X8301730Y-11715960D02*
X8320777Y-11725484D01*
X8320777Y-11725484D02*
X8358873Y-11725484D01*
X8358873Y-11725484D02*
X8377920Y-11715960D01*
X8377920Y-11715960D02*
X8387444Y-11696912D01*
X8387444Y-11696912D02*
X8387444Y-11687388D01*
X8387444Y-11687388D02*
X8377920Y-11668341D01*
X8377920Y-11668341D02*
X8358873Y-11658817D01*
X8358873Y-11658817D02*
X8330301Y-11658817D01*
X8330301Y-11658817D02*
X8311254Y-11649293D01*
X8311254Y-11649293D02*
X8301730Y-11630246D01*
X8301730Y-11630246D02*
X8301730Y-11620722D01*
X8301730Y-11620722D02*
X8311254Y-11601674D01*
X8311254Y-11601674D02*
X8330301Y-11592150D01*
X8330301Y-11592150D02*
X8358873Y-11592150D01*
X8358873Y-11592150D02*
X8377920Y-11601674D01*
X8454111Y-11801674D02*
X8463635Y-11792150D01*
X8463635Y-11792150D02*
X8482682Y-11763579D01*
X8482682Y-11763579D02*
X8492206Y-11744531D01*
X8492206Y-11744531D02*
X8501730Y-11715960D01*
X8501730Y-11715960D02*
X8511254Y-11668341D01*
X8511254Y-11668341D02*
X8511254Y-11630246D01*
X8511254Y-11630246D02*
X8501730Y-11582627D01*
X8501730Y-11582627D02*
X8492206Y-11554055D01*
X8492206Y-11554055D02*
X8482682Y-11535008D01*
X8482682Y-11535008D02*
X8463635Y-11506436D01*
X8463635Y-11506436D02*
X8454111Y-11496912D01*
D12*
X1940000Y-11838000D02*
X2060000Y-11958000D01*
X2060000Y-11838000D02*
X1940000Y-11958000D01*
X2042427Y-11940427D02*
X2042427Y-11855573D01*
X1957573Y-11855573D01*
X1957573Y-11940427D01*
X2042427Y-11940427D01*
D10*
X2425539Y-11989484D02*
X2311253Y-11989484D01*
X2368396Y-11989484D02*
X2368396Y-11789484D01*
X2368396Y-11789484D02*
X2349348Y-11818055D01*
X2349348Y-11818055D02*
X2330301Y-11837103D01*
X2330301Y-11837103D02*
X2311253Y-11846627D01*
X2511253Y-11970436D02*
X2520777Y-11979960D01*
X2520777Y-11979960D02*
X2511253Y-11989484D01*
X2511253Y-11989484D02*
X2501729Y-11979960D01*
X2501729Y-11979960D02*
X2511253Y-11970436D01*
X2511253Y-11970436D02*
X2511253Y-11989484D01*
X2596967Y-11808531D02*
X2606491Y-11799008D01*
X2606491Y-11799008D02*
X2625539Y-11789484D01*
X2625539Y-11789484D02*
X2673158Y-11789484D01*
X2673158Y-11789484D02*
X2692205Y-11799008D01*
X2692205Y-11799008D02*
X2701729Y-11808531D01*
X2701729Y-11808531D02*
X2711253Y-11827579D01*
X2711253Y-11827579D02*
X2711253Y-11846627D01*
X2711253Y-11846627D02*
X2701729Y-11875198D01*
X2701729Y-11875198D02*
X2587444Y-11989484D01*
X2587444Y-11989484D02*
X2711253Y-11989484D01*
X2835062Y-11789484D02*
X2854110Y-11789484D01*
X2854110Y-11789484D02*
X2873158Y-11799008D01*
X2873158Y-11799008D02*
X2882682Y-11808531D01*
X2882682Y-11808531D02*
X2892205Y-11827579D01*
X2892205Y-11827579D02*
X2901729Y-11865674D01*
X2901729Y-11865674D02*
X2901729Y-11913293D01*
X2901729Y-11913293D02*
X2892205Y-11951388D01*
X2892205Y-11951388D02*
X2882682Y-11970436D01*
X2882682Y-11970436D02*
X2873158Y-11979960D01*
X2873158Y-11979960D02*
X2854110Y-11989484D01*
X2854110Y-11989484D02*
X2835062Y-11989484D01*
X2835062Y-11989484D02*
X2816015Y-11979960D01*
X2816015Y-11979960D02*
X2806491Y-11970436D01*
X2806491Y-11970436D02*
X2796967Y-11951388D01*
X2796967Y-11951388D02*
X2787444Y-11913293D01*
X2787444Y-11913293D02*
X2787444Y-11865674D01*
X2787444Y-11865674D02*
X2796967Y-11827579D01*
X2796967Y-11827579D02*
X2806491Y-11808531D01*
X2806491Y-11808531D02*
X2816015Y-11799008D01*
X2816015Y-11799008D02*
X2835062Y-11789484D01*
X3025539Y-11789484D02*
X3044586Y-11789484D01*
X3044586Y-11789484D02*
X3063634Y-11799008D01*
X3063634Y-11799008D02*
X3073158Y-11808531D01*
X3073158Y-11808531D02*
X3082682Y-11827579D01*
X3082682Y-11827579D02*
X3092205Y-11865674D01*
X3092205Y-11865674D02*
X3092205Y-11913293D01*
X3092205Y-11913293D02*
X3082682Y-11951388D01*
X3082682Y-11951388D02*
X3073158Y-11970436D01*
X3073158Y-11970436D02*
X3063634Y-11979960D01*
X3063634Y-11979960D02*
X3044586Y-11989484D01*
X3044586Y-11989484D02*
X3025539Y-11989484D01*
X3025539Y-11989484D02*
X3006491Y-11979960D01*
X3006491Y-11979960D02*
X2996967Y-11970436D01*
X2996967Y-11970436D02*
X2987443Y-11951388D01*
X2987443Y-11951388D02*
X2977920Y-11913293D01*
X2977920Y-11913293D02*
X2977920Y-11865674D01*
X2977920Y-11865674D02*
X2987443Y-11827579D01*
X2987443Y-11827579D02*
X2996967Y-11808531D01*
X2996967Y-11808531D02*
X3006491Y-11799008D01*
X3006491Y-11799008D02*
X3025539Y-11789484D01*
X3177920Y-11989484D02*
X3177920Y-11856150D01*
X3177920Y-11875198D02*
X3187443Y-11865674D01*
X3187443Y-11865674D02*
X3206491Y-11856150D01*
X3206491Y-11856150D02*
X3235063Y-11856150D01*
X3235063Y-11856150D02*
X3254110Y-11865674D01*
X3254110Y-11865674D02*
X3263634Y-11884722D01*
X3263634Y-11884722D02*
X3263634Y-11989484D01*
X3263634Y-11884722D02*
X3273158Y-11865674D01*
X3273158Y-11865674D02*
X3292205Y-11856150D01*
X3292205Y-11856150D02*
X3320777Y-11856150D01*
X3320777Y-11856150D02*
X3339824Y-11865674D01*
X3339824Y-11865674D02*
X3349348Y-11884722D01*
X3349348Y-11884722D02*
X3349348Y-11989484D01*
X3444586Y-11989484D02*
X3444586Y-11856150D01*
X3444586Y-11875198D02*
X3454110Y-11865674D01*
X3454110Y-11865674D02*
X3473158Y-11856150D01*
X3473158Y-11856150D02*
X3501729Y-11856150D01*
X3501729Y-11856150D02*
X3520777Y-11865674D01*
X3520777Y-11865674D02*
X3530301Y-11884722D01*
X3530301Y-11884722D02*
X3530301Y-11989484D01*
X3530301Y-11884722D02*
X3539824Y-11865674D01*
X3539824Y-11865674D02*
X3558872Y-11856150D01*
X3558872Y-11856150D02*
X3587443Y-11856150D01*
X3587443Y-11856150D02*
X3606491Y-11865674D01*
X3606491Y-11865674D02*
X3616015Y-11884722D01*
X3616015Y-11884722D02*
X3616015Y-11989484D01*
X4006491Y-11779960D02*
X3835063Y-12037103D01*
X4263634Y-11789484D02*
X4282682Y-11789484D01*
X4282682Y-11789484D02*
X4301729Y-11799008D01*
X4301729Y-11799008D02*
X4311253Y-11808531D01*
X4311253Y-11808531D02*
X4320777Y-11827579D01*
X4320777Y-11827579D02*
X4330301Y-11865674D01*
X4330301Y-11865674D02*
X4330301Y-11913293D01*
X4330301Y-11913293D02*
X4320777Y-11951388D01*
X4320777Y-11951388D02*
X4311253Y-11970436D01*
X4311253Y-11970436D02*
X4301729Y-11979960D01*
X4301729Y-11979960D02*
X4282682Y-11989484D01*
X4282682Y-11989484D02*
X4263634Y-11989484D01*
X4263634Y-11989484D02*
X4244587Y-11979960D01*
X4244587Y-11979960D02*
X4235063Y-11970436D01*
X4235063Y-11970436D02*
X4225539Y-11951388D01*
X4225539Y-11951388D02*
X4216015Y-11913293D01*
X4216015Y-11913293D02*
X4216015Y-11865674D01*
X4216015Y-11865674D02*
X4225539Y-11827579D01*
X4225539Y-11827579D02*
X4235063Y-11808531D01*
X4235063Y-11808531D02*
X4244587Y-11799008D01*
X4244587Y-11799008D02*
X4263634Y-11789484D01*
X4416015Y-11970436D02*
X4425539Y-11979960D01*
X4425539Y-11979960D02*
X4416015Y-11989484D01*
X4416015Y-11989484D02*
X4406491Y-11979960D01*
X4406491Y-11979960D02*
X4416015Y-11970436D01*
X4416015Y-11970436D02*
X4416015Y-11989484D01*
X4549348Y-11789484D02*
X4568396Y-11789484D01*
X4568396Y-11789484D02*
X4587444Y-11799008D01*
X4587444Y-11799008D02*
X4596968Y-11808531D01*
X4596968Y-11808531D02*
X4606491Y-11827579D01*
X4606491Y-11827579D02*
X4616015Y-11865674D01*
X4616015Y-11865674D02*
X4616015Y-11913293D01*
X4616015Y-11913293D02*
X4606491Y-11951388D01*
X4606491Y-11951388D02*
X4596968Y-11970436D01*
X4596968Y-11970436D02*
X4587444Y-11979960D01*
X4587444Y-11979960D02*
X4568396Y-11989484D01*
X4568396Y-11989484D02*
X4549348Y-11989484D01*
X4549348Y-11989484D02*
X4530301Y-11979960D01*
X4530301Y-11979960D02*
X4520777Y-11970436D01*
X4520777Y-11970436D02*
X4511253Y-11951388D01*
X4511253Y-11951388D02*
X4501729Y-11913293D01*
X4501729Y-11913293D02*
X4501729Y-11865674D01*
X4501729Y-11865674D02*
X4511253Y-11827579D01*
X4511253Y-11827579D02*
X4520777Y-11808531D01*
X4520777Y-11808531D02*
X4530301Y-11799008D01*
X4530301Y-11799008D02*
X4549348Y-11789484D01*
X4787444Y-11856150D02*
X4787444Y-11989484D01*
X4739825Y-11779960D02*
X4692206Y-11922817D01*
X4692206Y-11922817D02*
X4816015Y-11922817D01*
X4873158Y-11789484D02*
X5006491Y-11789484D01*
X5006491Y-11789484D02*
X4920777Y-11989484D01*
X5073158Y-11808531D02*
X5082682Y-11799008D01*
X5082682Y-11799008D02*
X5101729Y-11789484D01*
X5101729Y-11789484D02*
X5149349Y-11789484D01*
X5149349Y-11789484D02*
X5168396Y-11799008D01*
X5168396Y-11799008D02*
X5177920Y-11808531D01*
X5177920Y-11808531D02*
X5187444Y-11827579D01*
X5187444Y-11827579D02*
X5187444Y-11846627D01*
X5187444Y-11846627D02*
X5177920Y-11875198D01*
X5177920Y-11875198D02*
X5063634Y-11989484D01*
X5063634Y-11989484D02*
X5187444Y-11989484D01*
X5263634Y-11789484D02*
X5263634Y-11827579D01*
X5339825Y-11789484D02*
X5339825Y-11827579D01*
X5635063Y-12065674D02*
X5625539Y-12056150D01*
X5625539Y-12056150D02*
X5606491Y-12027579D01*
X5606491Y-12027579D02*
X5596968Y-12008531D01*
X5596968Y-12008531D02*
X5587444Y-11979960D01*
X5587444Y-11979960D02*
X5577920Y-11932341D01*
X5577920Y-11932341D02*
X5577920Y-11894246D01*
X5577920Y-11894246D02*
X5587444Y-11846627D01*
X5587444Y-11846627D02*
X5596968Y-11818055D01*
X5596968Y-11818055D02*
X5606491Y-11799008D01*
X5606491Y-11799008D02*
X5625539Y-11770436D01*
X5625539Y-11770436D02*
X5635063Y-11760912D01*
X5806491Y-11789484D02*
X5711253Y-11789484D01*
X5711253Y-11789484D02*
X5701729Y-11884722D01*
X5701729Y-11884722D02*
X5711253Y-11875198D01*
X5711253Y-11875198D02*
X5730301Y-11865674D01*
X5730301Y-11865674D02*
X5777920Y-11865674D01*
X5777920Y-11865674D02*
X5796968Y-11875198D01*
X5796968Y-11875198D02*
X5806491Y-11884722D01*
X5806491Y-11884722D02*
X5816015Y-11903769D01*
X5816015Y-11903769D02*
X5816015Y-11951388D01*
X5816015Y-11951388D02*
X5806491Y-11970436D01*
X5806491Y-11970436D02*
X5796968Y-11979960D01*
X5796968Y-11979960D02*
X5777920Y-11989484D01*
X5777920Y-11989484D02*
X5730301Y-11989484D01*
X5730301Y-11989484D02*
X5711253Y-11979960D01*
X5711253Y-11979960D02*
X5701729Y-11970436D01*
X6054110Y-11989484D02*
X6054110Y-11789484D01*
X6139825Y-11989484D02*
X6139825Y-11884722D01*
X6139825Y-11884722D02*
X6130301Y-11865674D01*
X6130301Y-11865674D02*
X6111253Y-11856150D01*
X6111253Y-11856150D02*
X6082682Y-11856150D01*
X6082682Y-11856150D02*
X6063634Y-11865674D01*
X6063634Y-11865674D02*
X6054110Y-11875198D01*
X6263634Y-11989484D02*
X6244587Y-11979960D01*
X6244587Y-11979960D02*
X6235063Y-11970436D01*
X6235063Y-11970436D02*
X6225539Y-11951388D01*
X6225539Y-11951388D02*
X6225539Y-11894246D01*
X6225539Y-11894246D02*
X6235063Y-11875198D01*
X6235063Y-11875198D02*
X6244587Y-11865674D01*
X6244587Y-11865674D02*
X6263634Y-11856150D01*
X6263634Y-11856150D02*
X6292206Y-11856150D01*
X6292206Y-11856150D02*
X6311253Y-11865674D01*
X6311253Y-11865674D02*
X6320777Y-11875198D01*
X6320777Y-11875198D02*
X6330301Y-11894246D01*
X6330301Y-11894246D02*
X6330301Y-11951388D01*
X6330301Y-11951388D02*
X6320777Y-11970436D01*
X6320777Y-11970436D02*
X6311253Y-11979960D01*
X6311253Y-11979960D02*
X6292206Y-11989484D01*
X6292206Y-11989484D02*
X6263634Y-11989484D01*
X6444587Y-11989484D02*
X6425539Y-11979960D01*
X6425539Y-11979960D02*
X6416015Y-11960912D01*
X6416015Y-11960912D02*
X6416015Y-11789484D01*
X6596968Y-11979960D02*
X6577920Y-11989484D01*
X6577920Y-11989484D02*
X6539825Y-11989484D01*
X6539825Y-11989484D02*
X6520777Y-11979960D01*
X6520777Y-11979960D02*
X6511253Y-11960912D01*
X6511253Y-11960912D02*
X6511253Y-11884722D01*
X6511253Y-11884722D02*
X6520777Y-11865674D01*
X6520777Y-11865674D02*
X6539825Y-11856150D01*
X6539825Y-11856150D02*
X6577920Y-11856150D01*
X6577920Y-11856150D02*
X6596968Y-11865674D01*
X6596968Y-11865674D02*
X6606491Y-11884722D01*
X6606491Y-11884722D02*
X6606491Y-11903769D01*
X6606491Y-11903769D02*
X6511253Y-11922817D01*
X6682682Y-11979960D02*
X6701730Y-11989484D01*
X6701730Y-11989484D02*
X6739825Y-11989484D01*
X6739825Y-11989484D02*
X6758872Y-11979960D01*
X6758872Y-11979960D02*
X6768396Y-11960912D01*
X6768396Y-11960912D02*
X6768396Y-11951388D01*
X6768396Y-11951388D02*
X6758872Y-11932341D01*
X6758872Y-11932341D02*
X6739825Y-11922817D01*
X6739825Y-11922817D02*
X6711253Y-11922817D01*
X6711253Y-11922817D02*
X6692206Y-11913293D01*
X6692206Y-11913293D02*
X6682682Y-11894246D01*
X6682682Y-11894246D02*
X6682682Y-11884722D01*
X6682682Y-11884722D02*
X6692206Y-11865674D01*
X6692206Y-11865674D02*
X6711253Y-11856150D01*
X6711253Y-11856150D02*
X6739825Y-11856150D01*
X6739825Y-11856150D02*
X6758872Y-11865674D01*
X6835063Y-12065674D02*
X6844587Y-12056150D01*
X6844587Y-12056150D02*
X6863634Y-12027579D01*
X6863634Y-12027579D02*
X6873158Y-12008531D01*
X6873158Y-12008531D02*
X6882682Y-11979960D01*
X6882682Y-11979960D02*
X6892206Y-11932341D01*
X6892206Y-11932341D02*
X6892206Y-11894246D01*
X6892206Y-11894246D02*
X6882682Y-11846627D01*
X6882682Y-11846627D02*
X6873158Y-11818055D01*
X6873158Y-11818055D02*
X6863634Y-11799008D01*
X6863634Y-11799008D02*
X6844587Y-11770436D01*
X6844587Y-11770436D02*
X6835063Y-11760912D01*
D13*
X1900000Y-12082000D02*
X2060000Y-12242000D01*
X2060000Y-12082000D02*
X1900000Y-12242000D01*
X1980000Y-12242000D02*
X2060000Y-12162000D01*
X1980000Y-12082000D01*
X1900000Y-12162000D01*
X1980000Y-12242000D01*
D10*
X2425539Y-12253484D02*
X2311253Y-12253484D01*
X2368396Y-12253484D02*
X2368396Y-12053484D01*
X2368396Y-12053484D02*
X2349348Y-12082055D01*
X2349348Y-12082055D02*
X2330301Y-12101103D01*
X2330301Y-12101103D02*
X2311253Y-12110627D01*
X2511253Y-12234436D02*
X2520777Y-12243960D01*
X2520777Y-12243960D02*
X2511253Y-12253484D01*
X2511253Y-12253484D02*
X2501729Y-12243960D01*
X2501729Y-12243960D02*
X2511253Y-12234436D01*
X2511253Y-12234436D02*
X2511253Y-12253484D01*
X2692205Y-12053484D02*
X2654110Y-12053484D01*
X2654110Y-12053484D02*
X2635063Y-12063008D01*
X2635063Y-12063008D02*
X2625539Y-12072531D01*
X2625539Y-12072531D02*
X2606491Y-12101103D01*
X2606491Y-12101103D02*
X2596967Y-12139198D01*
X2596967Y-12139198D02*
X2596967Y-12215388D01*
X2596967Y-12215388D02*
X2606491Y-12234436D01*
X2606491Y-12234436D02*
X2616015Y-12243960D01*
X2616015Y-12243960D02*
X2635063Y-12253484D01*
X2635063Y-12253484D02*
X2673158Y-12253484D01*
X2673158Y-12253484D02*
X2692205Y-12243960D01*
X2692205Y-12243960D02*
X2701729Y-12234436D01*
X2701729Y-12234436D02*
X2711253Y-12215388D01*
X2711253Y-12215388D02*
X2711253Y-12167769D01*
X2711253Y-12167769D02*
X2701729Y-12148722D01*
X2701729Y-12148722D02*
X2692205Y-12139198D01*
X2692205Y-12139198D02*
X2673158Y-12129674D01*
X2673158Y-12129674D02*
X2635063Y-12129674D01*
X2635063Y-12129674D02*
X2616015Y-12139198D01*
X2616015Y-12139198D02*
X2606491Y-12148722D01*
X2606491Y-12148722D02*
X2596967Y-12167769D01*
X2835062Y-12053484D02*
X2854110Y-12053484D01*
X2854110Y-12053484D02*
X2873158Y-12063008D01*
X2873158Y-12063008D02*
X2882682Y-12072531D01*
X2882682Y-12072531D02*
X2892205Y-12091579D01*
X2892205Y-12091579D02*
X2901729Y-12129674D01*
X2901729Y-12129674D02*
X2901729Y-12177293D01*
X2901729Y-12177293D02*
X2892205Y-12215388D01*
X2892205Y-12215388D02*
X2882682Y-12234436D01*
X2882682Y-12234436D02*
X2873158Y-12243960D01*
X2873158Y-12243960D02*
X2854110Y-12253484D01*
X2854110Y-12253484D02*
X2835062Y-12253484D01*
X2835062Y-12253484D02*
X2816015Y-12243960D01*
X2816015Y-12243960D02*
X2806491Y-12234436D01*
X2806491Y-12234436D02*
X2796967Y-12215388D01*
X2796967Y-12215388D02*
X2787444Y-12177293D01*
X2787444Y-12177293D02*
X2787444Y-12129674D01*
X2787444Y-12129674D02*
X2796967Y-12091579D01*
X2796967Y-12091579D02*
X2806491Y-12072531D01*
X2806491Y-12072531D02*
X2816015Y-12063008D01*
X2816015Y-12063008D02*
X2835062Y-12053484D01*
X3025539Y-12053484D02*
X3044586Y-12053484D01*
X3044586Y-12053484D02*
X3063634Y-12063008D01*
X3063634Y-12063008D02*
X3073158Y-12072531D01*
X3073158Y-12072531D02*
X3082682Y-12091579D01*
X3082682Y-12091579D02*
X3092205Y-12129674D01*
X3092205Y-12129674D02*
X3092205Y-12177293D01*
X3092205Y-12177293D02*
X3082682Y-12215388D01*
X3082682Y-12215388D02*
X3073158Y-12234436D01*
X3073158Y-12234436D02*
X3063634Y-12243960D01*
X3063634Y-12243960D02*
X3044586Y-12253484D01*
X3044586Y-12253484D02*
X3025539Y-12253484D01*
X3025539Y-12253484D02*
X3006491Y-12243960D01*
X3006491Y-12243960D02*
X2996967Y-12234436D01*
X2996967Y-12234436D02*
X2987443Y-12215388D01*
X2987443Y-12215388D02*
X2977920Y-12177293D01*
X2977920Y-12177293D02*
X2977920Y-12129674D01*
X2977920Y-12129674D02*
X2987443Y-12091579D01*
X2987443Y-12091579D02*
X2996967Y-12072531D01*
X2996967Y-12072531D02*
X3006491Y-12063008D01*
X3006491Y-12063008D02*
X3025539Y-12053484D01*
X3177920Y-12253484D02*
X3177920Y-12120150D01*
X3177920Y-12139198D02*
X3187443Y-12129674D01*
X3187443Y-12129674D02*
X3206491Y-12120150D01*
X3206491Y-12120150D02*
X3235063Y-12120150D01*
X3235063Y-12120150D02*
X3254110Y-12129674D01*
X3254110Y-12129674D02*
X3263634Y-12148722D01*
X3263634Y-12148722D02*
X3263634Y-12253484D01*
X3263634Y-12148722D02*
X3273158Y-12129674D01*
X3273158Y-12129674D02*
X3292205Y-12120150D01*
X3292205Y-12120150D02*
X3320777Y-12120150D01*
X3320777Y-12120150D02*
X3339824Y-12129674D01*
X3339824Y-12129674D02*
X3349348Y-12148722D01*
X3349348Y-12148722D02*
X3349348Y-12253484D01*
X3444586Y-12253484D02*
X3444586Y-12120150D01*
X3444586Y-12139198D02*
X3454110Y-12129674D01*
X3454110Y-12129674D02*
X3473158Y-12120150D01*
X3473158Y-12120150D02*
X3501729Y-12120150D01*
X3501729Y-12120150D02*
X3520777Y-12129674D01*
X3520777Y-12129674D02*
X3530301Y-12148722D01*
X3530301Y-12148722D02*
X3530301Y-12253484D01*
X3530301Y-12148722D02*
X3539824Y-12129674D01*
X3539824Y-12129674D02*
X3558872Y-12120150D01*
X3558872Y-12120150D02*
X3587443Y-12120150D01*
X3587443Y-12120150D02*
X3606491Y-12129674D01*
X3606491Y-12129674D02*
X3616015Y-12148722D01*
X3616015Y-12148722D02*
X3616015Y-12253484D01*
X4006491Y-12043960D02*
X3835063Y-12301103D01*
X4263634Y-12053484D02*
X4282682Y-12053484D01*
X4282682Y-12053484D02*
X4301729Y-12063008D01*
X4301729Y-12063008D02*
X4311253Y-12072531D01*
X4311253Y-12072531D02*
X4320777Y-12091579D01*
X4320777Y-12091579D02*
X4330301Y-12129674D01*
X4330301Y-12129674D02*
X4330301Y-12177293D01*
X4330301Y-12177293D02*
X4320777Y-12215388D01*
X4320777Y-12215388D02*
X4311253Y-12234436D01*
X4311253Y-12234436D02*
X4301729Y-12243960D01*
X4301729Y-12243960D02*
X4282682Y-12253484D01*
X4282682Y-12253484D02*
X4263634Y-12253484D01*
X4263634Y-12253484D02*
X4244587Y-12243960D01*
X4244587Y-12243960D02*
X4235063Y-12234436D01*
X4235063Y-12234436D02*
X4225539Y-12215388D01*
X4225539Y-12215388D02*
X4216015Y-12177293D01*
X4216015Y-12177293D02*
X4216015Y-12129674D01*
X4216015Y-12129674D02*
X4225539Y-12091579D01*
X4225539Y-12091579D02*
X4235063Y-12072531D01*
X4235063Y-12072531D02*
X4244587Y-12063008D01*
X4244587Y-12063008D02*
X4263634Y-12053484D01*
X4416015Y-12234436D02*
X4425539Y-12243960D01*
X4425539Y-12243960D02*
X4416015Y-12253484D01*
X4416015Y-12253484D02*
X4406491Y-12243960D01*
X4406491Y-12243960D02*
X4416015Y-12234436D01*
X4416015Y-12234436D02*
X4416015Y-12253484D01*
X4549348Y-12053484D02*
X4568396Y-12053484D01*
X4568396Y-12053484D02*
X4587444Y-12063008D01*
X4587444Y-12063008D02*
X4596968Y-12072531D01*
X4596968Y-12072531D02*
X4606491Y-12091579D01*
X4606491Y-12091579D02*
X4616015Y-12129674D01*
X4616015Y-12129674D02*
X4616015Y-12177293D01*
X4616015Y-12177293D02*
X4606491Y-12215388D01*
X4606491Y-12215388D02*
X4596968Y-12234436D01*
X4596968Y-12234436D02*
X4587444Y-12243960D01*
X4587444Y-12243960D02*
X4568396Y-12253484D01*
X4568396Y-12253484D02*
X4549348Y-12253484D01*
X4549348Y-12253484D02*
X4530301Y-12243960D01*
X4530301Y-12243960D02*
X4520777Y-12234436D01*
X4520777Y-12234436D02*
X4511253Y-12215388D01*
X4511253Y-12215388D02*
X4501729Y-12177293D01*
X4501729Y-12177293D02*
X4501729Y-12129674D01*
X4501729Y-12129674D02*
X4511253Y-12091579D01*
X4511253Y-12091579D02*
X4520777Y-12072531D01*
X4520777Y-12072531D02*
X4530301Y-12063008D01*
X4530301Y-12063008D02*
X4549348Y-12053484D01*
X4787444Y-12053484D02*
X4749348Y-12053484D01*
X4749348Y-12053484D02*
X4730301Y-12063008D01*
X4730301Y-12063008D02*
X4720777Y-12072531D01*
X4720777Y-12072531D02*
X4701729Y-12101103D01*
X4701729Y-12101103D02*
X4692206Y-12139198D01*
X4692206Y-12139198D02*
X4692206Y-12215388D01*
X4692206Y-12215388D02*
X4701729Y-12234436D01*
X4701729Y-12234436D02*
X4711253Y-12243960D01*
X4711253Y-12243960D02*
X4730301Y-12253484D01*
X4730301Y-12253484D02*
X4768396Y-12253484D01*
X4768396Y-12253484D02*
X4787444Y-12243960D01*
X4787444Y-12243960D02*
X4796968Y-12234436D01*
X4796968Y-12234436D02*
X4806491Y-12215388D01*
X4806491Y-12215388D02*
X4806491Y-12167769D01*
X4806491Y-12167769D02*
X4796968Y-12148722D01*
X4796968Y-12148722D02*
X4787444Y-12139198D01*
X4787444Y-12139198D02*
X4768396Y-12129674D01*
X4768396Y-12129674D02*
X4730301Y-12129674D01*
X4730301Y-12129674D02*
X4711253Y-12139198D01*
X4711253Y-12139198D02*
X4701729Y-12148722D01*
X4701729Y-12148722D02*
X4692206Y-12167769D01*
X4873158Y-12053484D02*
X4996968Y-12053484D01*
X4996968Y-12053484D02*
X4930301Y-12129674D01*
X4930301Y-12129674D02*
X4958872Y-12129674D01*
X4958872Y-12129674D02*
X4977920Y-12139198D01*
X4977920Y-12139198D02*
X4987444Y-12148722D01*
X4987444Y-12148722D02*
X4996968Y-12167769D01*
X4996968Y-12167769D02*
X4996968Y-12215388D01*
X4996968Y-12215388D02*
X4987444Y-12234436D01*
X4987444Y-12234436D02*
X4977920Y-12243960D01*
X4977920Y-12243960D02*
X4958872Y-12253484D01*
X4958872Y-12253484D02*
X4901729Y-12253484D01*
X4901729Y-12253484D02*
X4882682Y-12243960D01*
X4882682Y-12243960D02*
X4873158Y-12234436D01*
X5120777Y-12053484D02*
X5139825Y-12053484D01*
X5139825Y-12053484D02*
X5158872Y-12063008D01*
X5158872Y-12063008D02*
X5168396Y-12072531D01*
X5168396Y-12072531D02*
X5177920Y-12091579D01*
X5177920Y-12091579D02*
X5187444Y-12129674D01*
X5187444Y-12129674D02*
X5187444Y-12177293D01*
X5187444Y-12177293D02*
X5177920Y-12215388D01*
X5177920Y-12215388D02*
X5168396Y-12234436D01*
X5168396Y-12234436D02*
X5158872Y-12243960D01*
X5158872Y-12243960D02*
X5139825Y-12253484D01*
X5139825Y-12253484D02*
X5120777Y-12253484D01*
X5120777Y-12253484D02*
X5101729Y-12243960D01*
X5101729Y-12243960D02*
X5092206Y-12234436D01*
X5092206Y-12234436D02*
X5082682Y-12215388D01*
X5082682Y-12215388D02*
X5073158Y-12177293D01*
X5073158Y-12177293D02*
X5073158Y-12129674D01*
X5073158Y-12129674D02*
X5082682Y-12091579D01*
X5082682Y-12091579D02*
X5092206Y-12072531D01*
X5092206Y-12072531D02*
X5101729Y-12063008D01*
X5101729Y-12063008D02*
X5120777Y-12053484D01*
X5263634Y-12053484D02*
X5263634Y-12091579D01*
X5339825Y-12053484D02*
X5339825Y-12091579D01*
X5635063Y-12329674D02*
X5625539Y-12320150D01*
X5625539Y-12320150D02*
X5606491Y-12291579D01*
X5606491Y-12291579D02*
X5596968Y-12272531D01*
X5596968Y-12272531D02*
X5587444Y-12243960D01*
X5587444Y-12243960D02*
X5577920Y-12196341D01*
X5577920Y-12196341D02*
X5577920Y-12158246D01*
X5577920Y-12158246D02*
X5587444Y-12110627D01*
X5587444Y-12110627D02*
X5596968Y-12082055D01*
X5596968Y-12082055D02*
X5606491Y-12063008D01*
X5606491Y-12063008D02*
X5625539Y-12034436D01*
X5625539Y-12034436D02*
X5635063Y-12024912D01*
X5796968Y-12053484D02*
X5758872Y-12053484D01*
X5758872Y-12053484D02*
X5739825Y-12063008D01*
X5739825Y-12063008D02*
X5730301Y-12072531D01*
X5730301Y-12072531D02*
X5711253Y-12101103D01*
X5711253Y-12101103D02*
X5701729Y-12139198D01*
X5701729Y-12139198D02*
X5701729Y-12215388D01*
X5701729Y-12215388D02*
X5711253Y-12234436D01*
X5711253Y-12234436D02*
X5720777Y-12243960D01*
X5720777Y-12243960D02*
X5739825Y-12253484D01*
X5739825Y-12253484D02*
X5777920Y-12253484D01*
X5777920Y-12253484D02*
X5796968Y-12243960D01*
X5796968Y-12243960D02*
X5806491Y-12234436D01*
X5806491Y-12234436D02*
X5816015Y-12215388D01*
X5816015Y-12215388D02*
X5816015Y-12167769D01*
X5816015Y-12167769D02*
X5806491Y-12148722D01*
X5806491Y-12148722D02*
X5796968Y-12139198D01*
X5796968Y-12139198D02*
X5777920Y-12129674D01*
X5777920Y-12129674D02*
X5739825Y-12129674D01*
X5739825Y-12129674D02*
X5720777Y-12139198D01*
X5720777Y-12139198D02*
X5711253Y-12148722D01*
X5711253Y-12148722D02*
X5701729Y-12167769D01*
X6054110Y-12253484D02*
X6054110Y-12053484D01*
X6139825Y-12253484D02*
X6139825Y-12148722D01*
X6139825Y-12148722D02*
X6130301Y-12129674D01*
X6130301Y-12129674D02*
X6111253Y-12120150D01*
X6111253Y-12120150D02*
X6082682Y-12120150D01*
X6082682Y-12120150D02*
X6063634Y-12129674D01*
X6063634Y-12129674D02*
X6054110Y-12139198D01*
X6263634Y-12253484D02*
X6244587Y-12243960D01*
X6244587Y-12243960D02*
X6235063Y-12234436D01*
X6235063Y-12234436D02*
X6225539Y-12215388D01*
X6225539Y-12215388D02*
X6225539Y-12158246D01*
X6225539Y-12158246D02*
X6235063Y-12139198D01*
X6235063Y-12139198D02*
X6244587Y-12129674D01*
X6244587Y-12129674D02*
X6263634Y-12120150D01*
X6263634Y-12120150D02*
X6292206Y-12120150D01*
X6292206Y-12120150D02*
X6311253Y-12129674D01*
X6311253Y-12129674D02*
X6320777Y-12139198D01*
X6320777Y-12139198D02*
X6330301Y-12158246D01*
X6330301Y-12158246D02*
X6330301Y-12215388D01*
X6330301Y-12215388D02*
X6320777Y-12234436D01*
X6320777Y-12234436D02*
X6311253Y-12243960D01*
X6311253Y-12243960D02*
X6292206Y-12253484D01*
X6292206Y-12253484D02*
X6263634Y-12253484D01*
X6444587Y-12253484D02*
X6425539Y-12243960D01*
X6425539Y-12243960D02*
X6416015Y-12224912D01*
X6416015Y-12224912D02*
X6416015Y-12053484D01*
X6596968Y-12243960D02*
X6577920Y-12253484D01*
X6577920Y-12253484D02*
X6539825Y-12253484D01*
X6539825Y-12253484D02*
X6520777Y-12243960D01*
X6520777Y-12243960D02*
X6511253Y-12224912D01*
X6511253Y-12224912D02*
X6511253Y-12148722D01*
X6511253Y-12148722D02*
X6520777Y-12129674D01*
X6520777Y-12129674D02*
X6539825Y-12120150D01*
X6539825Y-12120150D02*
X6577920Y-12120150D01*
X6577920Y-12120150D02*
X6596968Y-12129674D01*
X6596968Y-12129674D02*
X6606491Y-12148722D01*
X6606491Y-12148722D02*
X6606491Y-12167769D01*
X6606491Y-12167769D02*
X6511253Y-12186817D01*
X6682682Y-12243960D02*
X6701730Y-12253484D01*
X6701730Y-12253484D02*
X6739825Y-12253484D01*
X6739825Y-12253484D02*
X6758872Y-12243960D01*
X6758872Y-12243960D02*
X6768396Y-12224912D01*
X6768396Y-12224912D02*
X6768396Y-12215388D01*
X6768396Y-12215388D02*
X6758872Y-12196341D01*
X6758872Y-12196341D02*
X6739825Y-12186817D01*
X6739825Y-12186817D02*
X6711253Y-12186817D01*
X6711253Y-12186817D02*
X6692206Y-12177293D01*
X6692206Y-12177293D02*
X6682682Y-12158246D01*
X6682682Y-12158246D02*
X6682682Y-12148722D01*
X6682682Y-12148722D02*
X6692206Y-12129674D01*
X6692206Y-12129674D02*
X6711253Y-12120150D01*
X6711253Y-12120150D02*
X6739825Y-12120150D01*
X6739825Y-12120150D02*
X6758872Y-12129674D01*
X6835063Y-12329674D02*
X6844587Y-12320150D01*
X6844587Y-12320150D02*
X6863634Y-12291579D01*
X6863634Y-12291579D02*
X6873158Y-12272531D01*
X6873158Y-12272531D02*
X6882682Y-12243960D01*
X6882682Y-12243960D02*
X6892206Y-12196341D01*
X6892206Y-12196341D02*
X6892206Y-12158246D01*
X6892206Y-12158246D02*
X6882682Y-12110627D01*
X6882682Y-12110627D02*
X6873158Y-12082055D01*
X6873158Y-12082055D02*
X6863634Y-12063008D01*
X6863634Y-12063008D02*
X6844587Y-12034436D01*
X6844587Y-12034436D02*
X6835063Y-12024912D01*
M02*
