%TF.GenerationSoftware,KiCad,Pcbnew,8.0.2*%
%TF.CreationDate,2025-04-13T16:48:02+02:00*%
%TF.ProjectId,AES-DAC,4145532d-4441-4432-9e6b-696361645f70,rev?*%
%TF.SameCoordinates,Original*%
%TF.FileFunction,Soldermask,Bot*%
%TF.FilePolarity,Negative*%
%FSLAX46Y46*%
G04 Gerber Fmt 4.6, Leading zero omitted, Abs format (unit mm)*
G04 Created by KiCad (PCBNEW 8.0.2) date 2025-04-13 16:48:02*
%MOMM*%
%LPD*%
G01*
G04 APERTURE LIST*
G04 Aperture macros list*
%AMRoundRect*
0 Rectangle with rounded corners*
0 $1 Rounding radius*
0 $2 $3 $4 $5 $6 $7 $8 $9 X,Y pos of 4 corners*
0 Add a 4 corners polygon primitive as box body*
4,1,4,$2,$3,$4,$5,$6,$7,$8,$9,$2,$3,0*
0 Add four circle primitives for the rounded corners*
1,1,$1+$1,$2,$3*
1,1,$1+$1,$4,$5*
1,1,$1+$1,$6,$7*
1,1,$1+$1,$8,$9*
0 Add four rect primitives between the rounded corners*
20,1,$1+$1,$2,$3,$4,$5,0*
20,1,$1+$1,$4,$5,$6,$7,0*
20,1,$1+$1,$6,$7,$8,$9,0*
20,1,$1+$1,$8,$9,$2,$3,0*%
G04 Aperture macros list end*
%ADD10C,1.600000*%
%ADD11C,2.000000*%
%ADD12C,3.400000*%
%ADD13C,2.900000*%
%ADD14R,2.000000X4.600000*%
%ADD15O,2.000000X4.200000*%
%ADD16O,4.200000X2.000000*%
%ADD17R,1.800000X1.800000*%
%ADD18C,1.800000*%
%ADD19RoundRect,0.250000X0.450000X-0.350000X0.450000X0.350000X-0.450000X0.350000X-0.450000X-0.350000X0*%
%ADD20RoundRect,0.150000X0.200000X-0.150000X0.200000X0.150000X-0.200000X0.150000X-0.200000X-0.150000X0*%
%ADD21C,1.000000*%
%ADD22R,2.160000X1.120000*%
%ADD23RoundRect,0.250000X0.337500X0.475000X-0.337500X0.475000X-0.337500X-0.475000X0.337500X-0.475000X0*%
%ADD24RoundRect,0.250000X-0.337500X-0.475000X0.337500X-0.475000X0.337500X0.475000X-0.337500X0.475000X0*%
%ADD25RoundRect,0.237500X-0.250000X-0.237500X0.250000X-0.237500X0.250000X0.237500X-0.250000X0.237500X0*%
%ADD26RoundRect,0.150000X-0.200000X0.150000X-0.200000X-0.150000X0.200000X-0.150000X0.200000X0.150000X0*%
%ADD27RoundRect,0.250000X-0.450000X0.350000X-0.450000X-0.350000X0.450000X-0.350000X0.450000X0.350000X0*%
G04 APERTURE END LIST*
D10*
%TO.C,C3*%
X91500000Y-68390000D03*
X91500000Y-63390000D03*
%TD*%
D11*
%TO.C,J4*%
X114250000Y-90250000D03*
%TD*%
D10*
%TO.C,C28*%
X91500000Y-45500000D03*
X91500000Y-50500000D03*
%TD*%
%TO.C,J3*%
X109390000Y-45310000D03*
X114470000Y-37690000D03*
D12*
X100500000Y-45310000D03*
X100500000Y-37690000D03*
D13*
X100500000Y-41500000D03*
X105580000Y-41500000D03*
%TD*%
D10*
%TO.C,J1*%
X28000000Y-33500000D03*
X22920000Y-41120000D03*
D12*
X31810000Y-41120000D03*
X32445000Y-33500000D03*
D13*
X36260000Y-37310000D03*
%TD*%
D10*
%TO.C,C29*%
X71000000Y-40500000D03*
X71000000Y-45500000D03*
%TD*%
%TO.C,J2*%
X109390000Y-76010000D03*
X114470000Y-68390000D03*
D12*
X100500000Y-76010000D03*
X100500000Y-68390000D03*
D13*
X100500000Y-72200000D03*
X105580000Y-72200000D03*
%TD*%
D10*
%TO.C,C12*%
X91500000Y-37690000D03*
X91500000Y-32690000D03*
%TD*%
D11*
%TO.C,J5*%
X114250000Y-23250000D03*
%TD*%
D10*
%TO.C,C8*%
X91500000Y-76000000D03*
X91500000Y-81000000D03*
%TD*%
%TO.C,C9*%
X71000000Y-71000000D03*
X71000000Y-76000000D03*
%TD*%
%TO.C,C4*%
X71000000Y-63000000D03*
X71000000Y-58000000D03*
%TD*%
%TO.C,C2*%
X76230000Y-59500000D03*
X81230000Y-59500000D03*
%TD*%
D14*
%TO.C,J6*%
X30500000Y-84700000D03*
D15*
X24200000Y-84700000D03*
D16*
X27600000Y-89500000D03*
%TD*%
D10*
%TO.C,C11*%
X76230000Y-29000000D03*
X81230000Y-29000000D03*
%TD*%
%TO.C,C7*%
X76230000Y-74500000D03*
X81230000Y-74500000D03*
%TD*%
%TO.C,C13*%
X71000000Y-32500000D03*
X71000000Y-27500000D03*
%TD*%
D17*
%TO.C,D5*%
X24250000Y-70710000D03*
D18*
X24250000Y-73250000D03*
%TD*%
D10*
%TO.C,C26*%
X76230000Y-44000000D03*
X81230000Y-44000000D03*
%TD*%
D19*
%TO.C,FB1*%
X47500000Y-43000000D03*
X47500000Y-41000000D03*
%TD*%
D20*
%TO.C,D4*%
X91500000Y-52800000D03*
X91500000Y-54200000D03*
%TD*%
D21*
%TO.C,TP4*%
X48495570Y-45598024D03*
%TD*%
D22*
%TO.C,SW1*%
X38565000Y-45800000D03*
X31835000Y-45800000D03*
%TD*%
D23*
%TO.C,C17*%
X57978657Y-30470510D03*
X55903657Y-30470510D03*
%TD*%
D24*
%TO.C,C23*%
X50546905Y-45511392D03*
X52621905Y-45511392D03*
%TD*%
D23*
%TO.C,C10*%
X79575000Y-69475000D03*
X77500000Y-69475000D03*
%TD*%
D24*
%TO.C,C6*%
X54962500Y-33000000D03*
X57037500Y-33000000D03*
%TD*%
D25*
%TO.C,R31*%
X48875087Y-30462500D03*
X50700087Y-30462500D03*
%TD*%
D20*
%TO.C,D2*%
X91500000Y-83300000D03*
X91500000Y-84700000D03*
%TD*%
D24*
%TO.C,C15*%
X51237500Y-38962500D03*
X53312500Y-38962500D03*
%TD*%
%TO.C,C24*%
X50546905Y-42962500D03*
X52621905Y-42962500D03*
%TD*%
%TO.C,C21*%
X50550000Y-53962500D03*
X52625000Y-53962500D03*
%TD*%
%TO.C,C5*%
X76711114Y-64524222D03*
X78786114Y-64524222D03*
%TD*%
D25*
%TO.C,R29*%
X48875087Y-28462500D03*
X50700087Y-28462500D03*
%TD*%
D26*
%TO.C,D3*%
X91500000Y-30450000D03*
X91500000Y-29050000D03*
%TD*%
D23*
%TO.C,C18*%
X57951940Y-38962500D03*
X55876940Y-38962500D03*
%TD*%
D27*
%TO.C,FB3*%
X55275000Y-43511392D03*
X55275000Y-45511392D03*
%TD*%
D24*
%TO.C,C22*%
X50550000Y-51462500D03*
X52625000Y-51462500D03*
%TD*%
D23*
%TO.C,C32*%
X79575000Y-67000000D03*
X77500000Y-67000000D03*
%TD*%
%TO.C,C19*%
X57978657Y-27970510D03*
X55903657Y-27970510D03*
%TD*%
D26*
%TO.C,D1*%
X91500000Y-61200000D03*
X91500000Y-59800000D03*
%TD*%
D23*
%TO.C,C33*%
X79537500Y-36500000D03*
X77462500Y-36500000D03*
%TD*%
D24*
%TO.C,C14*%
X76673945Y-34044052D03*
X78748945Y-34044052D03*
%TD*%
%TO.C,C16*%
X51237500Y-36462500D03*
X53312500Y-36462500D03*
%TD*%
D23*
%TO.C,C20*%
X57951940Y-36462500D03*
X55876940Y-36462500D03*
%TD*%
D19*
%TO.C,FB2*%
X55275000Y-53462500D03*
X55275000Y-51462500D03*
%TD*%
D23*
%TO.C,C30*%
X79537500Y-39000000D03*
X77462500Y-39000000D03*
%TD*%
M02*
