%TF.GenerationSoftware,KiCad,Pcbnew,8.0.2*%
%TF.CreationDate,2025-04-13T16:48:02+02:00*%
%TF.ProjectId,AES-DAC,4145532d-4441-4432-9e6b-696361645f70,rev?*%
%TF.SameCoordinates,Original*%
%TF.FileFunction,Copper,L2,Inr*%
%TF.FilePolarity,Positive*%
%FSLAX46Y46*%
G04 Gerber Fmt 4.6, Leading zero omitted, Abs format (unit mm)*
G04 Created by KiCad (PCBNEW 8.0.2) date 2025-04-13 16:48:02*
%MOMM*%
%LPD*%
G01*
G04 APERTURE LIST*
%TA.AperFunction,ComponentPad*%
%ADD10C,1.600000*%
%TD*%
%TA.AperFunction,ComponentPad*%
%ADD11C,2.000000*%
%TD*%
%TA.AperFunction,ComponentPad*%
%ADD12C,3.400000*%
%TD*%
%TA.AperFunction,ComponentPad*%
%ADD13C,2.900000*%
%TD*%
%TA.AperFunction,HeatsinkPad*%
%ADD14C,0.600000*%
%TD*%
%TA.AperFunction,ComponentPad*%
%ADD15R,2.000000X4.600000*%
%TD*%
%TA.AperFunction,ComponentPad*%
%ADD16O,2.000000X4.200000*%
%TD*%
%TA.AperFunction,ComponentPad*%
%ADD17O,4.200000X2.000000*%
%TD*%
%TA.AperFunction,ComponentPad*%
%ADD18R,1.800000X1.800000*%
%TD*%
%TA.AperFunction,ComponentPad*%
%ADD19C,1.800000*%
%TD*%
%TA.AperFunction,ViaPad*%
%ADD20C,0.350000*%
%TD*%
%TA.AperFunction,ViaPad*%
%ADD21C,0.700000*%
%TD*%
%TA.AperFunction,ViaPad*%
%ADD22C,0.450000*%
%TD*%
G04 APERTURE END LIST*
D10*
%TO.N,/XLR_L_+*%
%TO.C,C3*%
X91500000Y-68390000D03*
%TO.N,Net-(C3-Pad2)*%
X91500000Y-63390000D03*
%TD*%
D11*
%TO.N,Earth*%
%TO.C,J4*%
X114250000Y-90250000D03*
%TD*%
D10*
%TO.N,/XLR_R_-*%
%TO.C,C28*%
X91500000Y-45500000D03*
%TO.N,Net-(C28-Pad2)*%
X91500000Y-50500000D03*
%TD*%
D12*
%TO.N,Earth*%
%TO.C,J3*%
X100500000Y-45310000D03*
%TO.N,/XLR_R_+*%
X100500000Y-37690000D03*
D13*
%TO.N,/XLR_R_-*%
X100500000Y-41500000D03*
%TO.N,N/C*%
X105580000Y-41500000D03*
%TD*%
D12*
%TO.N,/EARTH_AES*%
%TO.C,J1*%
X31810000Y-41120000D03*
%TO.N,Net-(C1-Pad1)*%
X32445000Y-33500000D03*
D13*
%TO.N,Net-(J1-Pad3)*%
X36260000Y-37310000D03*
%TD*%
D10*
%TO.N,GND*%
%TO.C,C29*%
X71000000Y-40500000D03*
%TO.N,Net-(C29-Pad2)*%
X71000000Y-45500000D03*
%TD*%
D12*
%TO.N,Earth*%
%TO.C,J2*%
X100500000Y-76010000D03*
%TO.N,/XLR_L_+*%
X100500000Y-68390000D03*
D13*
%TO.N,/XLR_L_-*%
X100500000Y-72200000D03*
%TO.N,N/C*%
X105580000Y-72200000D03*
%TD*%
D10*
%TO.N,/XLR_R_+*%
%TO.C,C12*%
X91500000Y-37690000D03*
%TO.N,Net-(C12-Pad2)*%
X91500000Y-32690000D03*
%TD*%
D11*
%TO.N,Earth*%
%TO.C,J5*%
X114250000Y-23250000D03*
%TD*%
D10*
%TO.N,/XLR_L_-*%
%TO.C,C8*%
X91500000Y-76000000D03*
%TO.N,Net-(C8-Pad2)*%
X91500000Y-81000000D03*
%TD*%
%TO.N,GND*%
%TO.C,C9*%
X71000000Y-71000000D03*
%TO.N,Net-(C9-Pad2)*%
X71000000Y-76000000D03*
%TD*%
%TO.N,GND*%
%TO.C,C4*%
X71000000Y-63000000D03*
%TO.N,Net-(C4-Pad2)*%
X71000000Y-58000000D03*
%TD*%
D14*
%TO.N,GND*%
%TO.C,U7*%
X47335000Y-87470000D03*
X47335000Y-86180000D03*
X46365000Y-87470000D03*
X46365000Y-86180000D03*
%TD*%
D10*
%TO.N,Net-(C2-Pad1)*%
%TO.C,C2*%
X76230000Y-59500000D03*
%TO.N,Net-(U2B-+)*%
X81230000Y-59500000D03*
%TD*%
D14*
%TO.N,GND*%
%TO.C,U6*%
X47350000Y-74970000D03*
X47350000Y-73680000D03*
X46380000Y-74970000D03*
X46380000Y-73680000D03*
%TD*%
D15*
%TO.N,GND*%
%TO.C,J6*%
X30500000Y-84700000D03*
D16*
%TO.N,Net-(D6-A)*%
X24200000Y-84700000D03*
D17*
X27600000Y-89500000D03*
%TD*%
D10*
%TO.N,Net-(C11-Pad1)*%
%TO.C,C11*%
X76230000Y-29000000D03*
%TO.N,Net-(U5B-+)*%
X81230000Y-29000000D03*
%TD*%
%TO.N,Net-(C7-Pad1)*%
%TO.C,C7*%
X76230000Y-74500000D03*
%TO.N,Net-(U2A-+)*%
X81230000Y-74500000D03*
%TD*%
%TO.N,GND*%
%TO.C,C13*%
X71000000Y-32500000D03*
%TO.N,Net-(C13-Pad2)*%
X71000000Y-27500000D03*
%TD*%
D18*
%TO.N,Net-(D5-K)*%
%TO.C,D5*%
X24250000Y-70710000D03*
D19*
%TO.N,+3.3V*%
X24250000Y-73250000D03*
%TD*%
D10*
%TO.N,Net-(C26-Pad1)*%
%TO.C,C26*%
X76230000Y-44000000D03*
%TO.N,Net-(U5A-+)*%
X81230000Y-44000000D03*
%TD*%
D20*
%TO.N,Net-(C1-Pad1)*%
X25500000Y-51500000D03*
D21*
%TO.N,Earth*%
X114250000Y-51735288D03*
X104000000Y-58625000D03*
X107218750Y-91000000D03*
X99250000Y-63000000D03*
X114250000Y-45617644D03*
X104031250Y-91000000D03*
X114250000Y-59382343D03*
X100843750Y-91000000D03*
X114250000Y-60911754D03*
X114250000Y-41029411D03*
X114250000Y-33875000D03*
X99250000Y-84500000D03*
X114250000Y-77645830D03*
X114250000Y-42558822D03*
X99250000Y-22500000D03*
X114250000Y-39500000D03*
X99250000Y-82875000D03*
X102437500Y-91000000D03*
X99250000Y-61375000D03*
X114250000Y-56323521D03*
X105625000Y-22500000D03*
X114250000Y-86520826D03*
X107218750Y-22500000D03*
X114250000Y-27375000D03*
X114250000Y-65500000D03*
X108812500Y-91000000D03*
X99250000Y-54125000D03*
X114250000Y-74687498D03*
X114250000Y-80604162D03*
X114250000Y-82083328D03*
X114250000Y-32250000D03*
X104000000Y-61875000D03*
X114250000Y-70250000D03*
X100843750Y-22500000D03*
X114250000Y-57852932D03*
X114250000Y-88000000D03*
X99250000Y-49250000D03*
X114250000Y-76166664D03*
X108812500Y-22500000D03*
X99250000Y-64625000D03*
X114250000Y-30625000D03*
X99250000Y-32500000D03*
X112000000Y-91000000D03*
X114250000Y-73208332D03*
X114250000Y-63970576D03*
X114250000Y-54794110D03*
X104031250Y-22500000D03*
X114250000Y-35500000D03*
X99250000Y-79625000D03*
X112000000Y-22500000D03*
X105625000Y-91000000D03*
X114250000Y-83562494D03*
X114250000Y-44088233D03*
X114250000Y-47147055D03*
X114250000Y-71729166D03*
X99250000Y-50875000D03*
X104000000Y-57000000D03*
X104000000Y-53750000D03*
X110406250Y-22500000D03*
X114250000Y-85041660D03*
X99250000Y-29250000D03*
X104000000Y-52125000D03*
X114250000Y-62441165D03*
X99250000Y-81250000D03*
X99250000Y-91000000D03*
X114250000Y-25750000D03*
X99250000Y-86125000D03*
X99250000Y-30875000D03*
X114250000Y-48676466D03*
X99250000Y-59750000D03*
X99250000Y-34125000D03*
X114250000Y-79124996D03*
X114250000Y-50205877D03*
X114250000Y-29000000D03*
X104000000Y-55375000D03*
X99250000Y-27625000D03*
X110406250Y-91000000D03*
X102437500Y-22500000D03*
X114250000Y-53264699D03*
X99250000Y-52500000D03*
X104000000Y-60250000D03*
%TO.N,GND*%
X84406250Y-22500000D03*
D20*
X61800000Y-53800000D03*
D21*
X41000000Y-48546052D03*
X73400000Y-67000000D03*
X94500000Y-23750000D03*
X73400000Y-65500000D03*
X26113487Y-78500000D03*
D20*
X44227247Y-27540012D03*
D21*
X44648026Y-22500000D03*
X41000000Y-45273026D03*
X60125000Y-74650000D03*
X96500000Y-86500000D03*
X94500000Y-25750000D03*
X56103617Y-22500000D03*
X49000000Y-53250000D03*
D20*
X61800000Y-40200000D03*
D21*
X38500000Y-78500000D03*
X87593750Y-22500000D03*
X94500000Y-55000000D03*
D20*
X44800000Y-41600000D03*
D21*
X64286182Y-22500000D03*
D20*
X67600000Y-57200000D03*
D21*
X94500000Y-56000000D03*
X41375000Y-22500000D03*
X49557565Y-22500000D03*
X27500000Y-83886513D03*
D22*
X40500000Y-55500000D03*
D20*
X44800000Y-43800000D03*
D21*
X49800000Y-69800000D03*
X41000000Y-30544409D03*
X51500000Y-46915004D03*
X70832234Y-22500000D03*
X73400000Y-68500000D03*
D20*
X64000000Y-43800000D03*
D21*
X91500000Y-58750000D03*
X78500000Y-28500000D03*
D20*
X68000000Y-62000000D03*
X55750000Y-65375000D03*
D21*
X85500000Y-45000000D03*
X50546905Y-46911909D03*
D22*
X40500000Y-67412500D03*
D21*
X45300000Y-82200000D03*
D20*
X66000000Y-38000000D03*
D21*
X48300000Y-69800000D03*
D20*
X66000000Y-48800000D03*
X72400000Y-51400000D03*
X68400000Y-81200000D03*
D21*
X76673945Y-32500000D03*
X57740130Y-22500000D03*
D22*
X52795062Y-33831750D03*
D20*
X68000000Y-70400000D03*
D21*
X78500000Y-59000000D03*
X43800000Y-69800000D03*
X63000000Y-83775000D03*
D20*
X68000000Y-64200000D03*
X64000000Y-48800000D03*
D21*
X94500000Y-24750000D03*
D20*
X47677247Y-56577512D03*
D22*
X50400000Y-85600000D03*
D21*
X86000000Y-91000000D03*
X51475000Y-78470000D03*
X78500000Y-30000000D03*
X78500000Y-24000000D03*
X64500000Y-64500000D03*
D20*
X68000000Y-75400000D03*
D21*
X27750000Y-73625000D03*
X78500000Y-25500000D03*
X95500000Y-59250000D03*
X66000000Y-83775000D03*
X41000000Y-38726974D03*
X78500000Y-27000000D03*
X49800000Y-82200000D03*
X60125000Y-87150000D03*
X92375000Y-22500000D03*
X81119052Y-67000000D03*
X54500000Y-26862353D03*
X59376643Y-22500000D03*
X48300000Y-82200000D03*
D20*
X78600000Y-51600000D03*
D22*
X58000000Y-26750000D03*
D21*
X85500000Y-69500000D03*
X85500000Y-43500000D03*
X73400000Y-64000000D03*
D20*
X61800000Y-38400000D03*
D21*
X96500000Y-59250000D03*
X41000000Y-28907896D03*
D20*
X53250000Y-65375000D03*
X64000000Y-51400000D03*
D21*
X79453948Y-91000000D03*
X68500000Y-37000000D03*
X96500000Y-22500000D03*
X94500000Y-26750000D03*
D20*
X44800000Y-64750000D03*
D21*
X94500000Y-89750000D03*
X43011513Y-22500000D03*
X27750000Y-76875000D03*
X41000000Y-53000000D03*
X43800000Y-82200000D03*
X76180922Y-91000000D03*
D20*
X60600000Y-24600000D03*
D21*
X41000000Y-40363487D03*
X94500000Y-59000000D03*
D20*
X68000000Y-77800000D03*
D22*
X48181049Y-54924244D03*
D21*
X61013156Y-22500000D03*
X89273026Y-91000000D03*
X81090461Y-91000000D03*
X94500000Y-86750000D03*
D20*
X47754407Y-30451541D03*
X61800000Y-51800000D03*
D21*
X73000000Y-37000000D03*
X85500000Y-54000000D03*
X85500000Y-39000000D03*
X54875000Y-74650000D03*
X38500000Y-91000000D03*
X78500000Y-74000000D03*
D20*
X62000000Y-23400000D03*
D21*
X54481828Y-24699891D03*
D20*
X64000000Y-38600000D03*
D21*
X85500000Y-42000000D03*
X74544409Y-91000000D03*
D20*
X64000000Y-41400000D03*
D21*
X78500000Y-43500000D03*
D20*
X61800000Y-49800000D03*
D21*
X60500000Y-50000000D03*
X91500000Y-85750000D03*
X60500000Y-48500000D03*
X41000000Y-27271383D03*
X81081552Y-39000000D03*
X81119052Y-69475000D03*
X60500000Y-54500000D03*
X53000000Y-69375000D03*
D20*
X62200000Y-33000000D03*
X66000000Y-46200000D03*
D22*
X56970980Y-28970980D03*
D21*
X54467104Y-22500000D03*
D20*
X65800000Y-34800000D03*
D21*
X85500000Y-71000000D03*
X27500000Y-85523026D03*
X67559208Y-22500000D03*
X41000000Y-32180922D03*
X64500000Y-63000000D03*
X85500000Y-60000000D03*
X45300000Y-69800000D03*
D22*
X59340317Y-37037429D03*
X59283782Y-38959617D03*
D21*
X81081552Y-36500000D03*
X92546052Y-91000000D03*
D20*
X47400000Y-37800000D03*
X65600000Y-58200000D03*
D21*
X25250000Y-75375000D03*
X85500000Y-55500000D03*
X22840461Y-78500000D03*
D22*
X50000000Y-36500000D03*
D21*
X96500000Y-91000000D03*
X73400000Y-70000000D03*
X76711114Y-62980170D03*
X90909539Y-91000000D03*
X27500000Y-82250000D03*
X85500000Y-40500000D03*
X72907896Y-91000000D03*
D20*
X49227247Y-31540012D03*
D21*
X96500000Y-27000000D03*
X41350000Y-91000000D03*
X46284539Y-22500000D03*
D20*
X68000000Y-66200000D03*
X64200000Y-53800000D03*
D21*
X41000000Y-35453948D03*
X95500000Y-22500000D03*
D20*
X46800000Y-44200000D03*
D21*
X64500000Y-61500000D03*
D20*
X60800000Y-37400000D03*
D21*
X70000000Y-37000000D03*
D20*
X70400000Y-51400000D03*
D21*
X94500000Y-58000000D03*
X41000000Y-43636513D03*
X66000000Y-71275000D03*
D20*
X73400000Y-81800000D03*
D21*
X85500000Y-57000000D03*
X78500000Y-75500000D03*
X91500000Y-55250000D03*
D20*
X64800000Y-33000000D03*
D21*
X60500000Y-53000000D03*
X24476974Y-78500000D03*
D20*
X67200000Y-59600000D03*
D21*
X80040000Y-71019052D03*
X90781250Y-22500000D03*
D22*
X56801940Y-37800000D03*
D21*
X84363487Y-91000000D03*
X96500000Y-54750000D03*
X80040000Y-40519052D03*
X82726974Y-91000000D03*
X27500000Y-87159539D03*
X41350000Y-69807500D03*
D20*
X63600000Y-25200000D03*
D21*
X94500000Y-88750000D03*
X41350000Y-78500000D03*
D20*
X68000000Y-72800000D03*
X71400000Y-81200000D03*
D21*
X94500000Y-87750000D03*
D20*
X61800000Y-47800000D03*
D21*
X63000000Y-71275000D03*
X85500000Y-58500000D03*
D20*
X58250000Y-65287500D03*
D21*
X95500000Y-27000000D03*
X94500000Y-22750000D03*
X52830591Y-22500000D03*
D20*
X52200000Y-38400000D03*
X46727247Y-31540012D03*
D21*
X85500000Y-72500000D03*
X74500000Y-37000000D03*
X27750000Y-78500000D03*
X78500000Y-60500000D03*
X47921052Y-22500000D03*
D20*
X64000000Y-56600000D03*
D21*
X64500000Y-81275000D03*
D20*
X66000000Y-51400000D03*
D21*
X72468750Y-22500000D03*
X51475000Y-90855000D03*
D20*
X62600000Y-55400000D03*
D21*
X78500000Y-45000000D03*
X85500000Y-74000000D03*
D20*
X66000000Y-55600000D03*
D22*
X50400000Y-73000000D03*
D21*
X46800000Y-82200000D03*
X41000000Y-25634870D03*
D22*
X54602353Y-37868060D03*
D21*
X86000000Y-22500000D03*
D20*
X44227247Y-31540012D03*
X68000000Y-68200000D03*
D21*
X53000000Y-81875000D03*
X41000000Y-37090461D03*
D20*
X44800000Y-46000000D03*
X66000000Y-41400000D03*
X66000000Y-43800000D03*
X46600000Y-39600000D03*
D21*
X85500000Y-75500000D03*
D20*
X76200000Y-82000000D03*
D21*
X69195721Y-22500000D03*
X78500000Y-56000000D03*
D20*
X61800000Y-45200000D03*
D22*
X49750000Y-38250000D03*
D21*
X41000000Y-42000000D03*
X77817435Y-91000000D03*
D22*
X59250000Y-29975000D03*
D21*
X94500000Y-90750000D03*
X41000000Y-33817435D03*
X78500000Y-46500000D03*
X78500000Y-77000000D03*
X95500000Y-91000000D03*
D20*
X79000000Y-82000000D03*
D21*
X46800000Y-69800000D03*
X89187500Y-22500000D03*
X64500000Y-66000000D03*
X95500000Y-54750000D03*
D20*
X59200000Y-26000000D03*
D21*
X54875000Y-87150000D03*
D20*
X50750000Y-65375000D03*
D21*
X51194078Y-22500000D03*
X51500000Y-50000000D03*
X64500000Y-60000000D03*
D20*
X62600000Y-36000000D03*
X46800000Y-42000000D03*
X60750000Y-65375000D03*
D21*
X62649669Y-22500000D03*
X94500000Y-57000000D03*
X64500000Y-68775000D03*
D20*
X67400000Y-25200000D03*
D21*
X41000000Y-23998354D03*
X71500000Y-37000000D03*
X78500000Y-57500000D03*
X65922695Y-22500000D03*
X41350000Y-82192500D03*
D20*
X60400000Y-28400000D03*
X64000000Y-46200000D03*
X68200000Y-51400000D03*
D21*
X50546905Y-44250000D03*
X95500000Y-86500000D03*
X41000000Y-46909539D03*
D20*
X61800000Y-42800000D03*
D21*
X60500000Y-51500000D03*
D20*
X62000000Y-26800000D03*
D22*
X53250000Y-57000000D03*
D20*
X47754407Y-28451541D03*
D21*
X91500000Y-28000000D03*
X78500000Y-54500000D03*
X49821630Y-49928370D03*
D20*
X49000000Y-39000000D03*
D21*
X87636513Y-91000000D03*
%TO.N,/Vcom*%
X78786114Y-31950178D03*
X78786114Y-62450178D03*
X59070681Y-32957591D03*
X77500000Y-41000000D03*
D22*
X56000000Y-33000000D03*
D21*
X77500000Y-71500000D03*
D22*
%TO.N,Net-(U3B-VDD)*%
X53323060Y-34910908D03*
D21*
%TO.N,Net-(U1A-VCC)*%
X52625000Y-50009996D03*
%TO.N,Net-(U1A-VDD)*%
X52625000Y-46915004D03*
D22*
%TO.N,+3.3V*%
X60200000Y-77750000D03*
D20*
X57275000Y-58575000D03*
D22*
X62750000Y-75500000D03*
X62750000Y-77750000D03*
X66250000Y-74250000D03*
X60200000Y-78750000D03*
X64500000Y-74250000D03*
X61500000Y-78750000D03*
D20*
X54775000Y-58662500D03*
D22*
X43486091Y-67736091D03*
D20*
X50750000Y-59637500D03*
D22*
X61500000Y-75500000D03*
D20*
X46727247Y-27540012D03*
X43284988Y-39327247D03*
X45803896Y-59857793D03*
D22*
X62750000Y-78750000D03*
D20*
X59101322Y-58000000D03*
X53250000Y-59637500D03*
D22*
X61500000Y-77750000D03*
X61500000Y-74500000D03*
X62750000Y-74500000D03*
%TO.N,+5V*%
X67416666Y-88750000D03*
X68583332Y-88750000D03*
X67416666Y-87500000D03*
X66250000Y-87500000D03*
D21*
X76230000Y-66730000D03*
D22*
X69750000Y-88750000D03*
X68583332Y-87500000D03*
X69750000Y-91000000D03*
X68583332Y-86250000D03*
X68583332Y-91000000D03*
X66250000Y-88750000D03*
X67416666Y-86250000D03*
X66250000Y-90000000D03*
X63750000Y-86250000D03*
X66250000Y-86250000D03*
X67416666Y-90000000D03*
X69750000Y-90000000D03*
X69750000Y-87500000D03*
D21*
X76230000Y-36230000D03*
D22*
X68583332Y-90000000D03*
X69750000Y-86250000D03*
X65000000Y-86250000D03*
X55919287Y-31907166D03*
X66250000Y-91000000D03*
X62500000Y-86250000D03*
X55250000Y-35000000D03*
X67416666Y-91000000D03*
D20*
%TO.N,Net-(U1B-RXIN)*%
X48250000Y-52500000D03*
X42999999Y-63418077D03*
%TO.N,Net-(U1C-PSCK1)*%
X46775000Y-46600000D03*
X49775000Y-62462500D03*
%TO.N,Net-(U1C-PSCK0)*%
X47425000Y-46962500D03*
X52275000Y-62462500D03*
%TO.N,/AMUTE*%
X47211517Y-34557724D03*
X46275000Y-37462500D03*
%TO.N,/DEMP*%
X44275000Y-37962500D03*
X47360876Y-33376624D03*
%TO.N,Net-(R29-Pad2)*%
X51350000Y-31600000D03*
%TO.N,Net-(R31-Pad2)*%
X50700087Y-31962500D03*
D21*
%TO.N,Net-(U6-EN)*%
X47099325Y-78470000D03*
X44722575Y-72248601D03*
D20*
%TO.N,Net-(U7-EN)*%
X44699736Y-85212889D03*
X47098762Y-90860210D03*
%TO.N,Net-(U1B-BFRAME)*%
X46500000Y-49500000D03*
X46500000Y-53000000D03*
%TO.N,Net-(U1C-CLKST)*%
X48500000Y-46750000D03*
%TO.N,Net-(J1-Pad3)*%
X25747384Y-65294686D03*
%TD*%
%TA.AperFunction,Conductor*%
%TO.N,/EARTH_AES*%
G36*
X27500000Y-66376000D02*
G01*
X27480315Y-66443039D01*
X27427511Y-66488794D01*
X27376000Y-66500000D01*
X21624000Y-66500000D01*
X21556961Y-66480315D01*
X21511206Y-66427511D01*
X21500000Y-66376000D01*
X21500000Y-65294686D01*
X24816786Y-65294686D01*
X24837122Y-65488169D01*
X24897240Y-65673196D01*
X24897241Y-65673197D01*
X24977543Y-65812283D01*
X24994514Y-65841678D01*
X25039860Y-65892040D01*
X25124686Y-65986250D01*
X25124689Y-65986252D01*
X25124692Y-65986255D01*
X25242736Y-66072019D01*
X25282086Y-66100609D01*
X25350310Y-66130983D01*
X25459813Y-66179737D01*
X25650110Y-66220186D01*
X25844658Y-66220186D01*
X26034955Y-66179737D01*
X26212683Y-66100608D01*
X26370076Y-65986255D01*
X26500254Y-65841678D01*
X26597528Y-65673194D01*
X26657646Y-65488168D01*
X26677982Y-65294686D01*
X26657646Y-65101204D01*
X26597528Y-64916178D01*
X26597527Y-64916177D01*
X26597527Y-64916175D01*
X26597526Y-64916174D01*
X26563586Y-64857389D01*
X26500254Y-64747694D01*
X26449266Y-64691067D01*
X26370081Y-64603121D01*
X26370078Y-64603119D01*
X26370077Y-64603118D01*
X26370076Y-64603117D01*
X26291379Y-64545940D01*
X26212681Y-64488762D01*
X26076232Y-64428012D01*
X26034955Y-64409635D01*
X26034953Y-64409634D01*
X25844658Y-64369186D01*
X25650110Y-64369186D01*
X25459815Y-64409634D01*
X25282086Y-64488762D01*
X25124689Y-64603119D01*
X25124686Y-64603121D01*
X24994513Y-64747695D01*
X24897241Y-64916174D01*
X24897240Y-64916175D01*
X24837122Y-65101202D01*
X24816786Y-65294686D01*
X21500000Y-65294686D01*
X21500000Y-55000000D01*
X27500000Y-55000000D01*
X27500000Y-66376000D01*
G37*
%TD.AperFunction*%
%TD*%
%TA.AperFunction,Conductor*%
%TO.N,Earth*%
G36*
X115892539Y-21519685D02*
G01*
X115938294Y-21572489D01*
X115949500Y-21624000D01*
X115949500Y-22856044D01*
X115929815Y-22923083D01*
X115877011Y-22968838D01*
X115807853Y-22978782D01*
X115744297Y-22949757D01*
X115706523Y-22890979D01*
X115705294Y-22886485D01*
X115673588Y-22761282D01*
X115573731Y-22533630D01*
X115473434Y-22380116D01*
X114732962Y-23120589D01*
X114715925Y-23057007D01*
X114650099Y-22942993D01*
X114557007Y-22849901D01*
X114442993Y-22784075D01*
X114379410Y-22767037D01*
X115120057Y-22026390D01*
X115120056Y-22026389D01*
X115073229Y-21989943D01*
X114854614Y-21871635D01*
X114854603Y-21871630D01*
X114619493Y-21790916D01*
X114374293Y-21750000D01*
X114125707Y-21750000D01*
X113880506Y-21790916D01*
X113645396Y-21871630D01*
X113645390Y-21871632D01*
X113426761Y-21989949D01*
X113379942Y-22026388D01*
X113379942Y-22026390D01*
X114120590Y-22767037D01*
X114057007Y-22784075D01*
X113942993Y-22849901D01*
X113849901Y-22942993D01*
X113784075Y-23057007D01*
X113767037Y-23120589D01*
X113026564Y-22380116D01*
X112926267Y-22533632D01*
X112826412Y-22761282D01*
X112765387Y-23002261D01*
X112765385Y-23002270D01*
X112744859Y-23249994D01*
X112744859Y-23250005D01*
X112765385Y-23497729D01*
X112765387Y-23497738D01*
X112826412Y-23738717D01*
X112926266Y-23966364D01*
X113026564Y-24119882D01*
X113767037Y-23379409D01*
X113784075Y-23442993D01*
X113849901Y-23557007D01*
X113942993Y-23650099D01*
X114057007Y-23715925D01*
X114120590Y-23732962D01*
X113379942Y-24473609D01*
X113426768Y-24510055D01*
X113426770Y-24510056D01*
X113645385Y-24628364D01*
X113645396Y-24628369D01*
X113880506Y-24709083D01*
X114125707Y-24750000D01*
X114374293Y-24750000D01*
X114619493Y-24709083D01*
X114854603Y-24628369D01*
X114854614Y-24628364D01*
X115073228Y-24510057D01*
X115073231Y-24510055D01*
X115120056Y-24473609D01*
X114379409Y-23732962D01*
X114442993Y-23715925D01*
X114557007Y-23650099D01*
X114650099Y-23557007D01*
X114715925Y-23442993D01*
X114732962Y-23379409D01*
X115473434Y-24119882D01*
X115573731Y-23966369D01*
X115673588Y-23738716D01*
X115705294Y-23613515D01*
X115740834Y-23553359D01*
X115803254Y-23521967D01*
X115872738Y-23529305D01*
X115927223Y-23573044D01*
X115949412Y-23639297D01*
X115949500Y-23643955D01*
X115949500Y-89856044D01*
X115929815Y-89923083D01*
X115877011Y-89968838D01*
X115807853Y-89978782D01*
X115744297Y-89949757D01*
X115706523Y-89890979D01*
X115705294Y-89886485D01*
X115673588Y-89761282D01*
X115573731Y-89533630D01*
X115473434Y-89380116D01*
X114732962Y-90120589D01*
X114715925Y-90057007D01*
X114650099Y-89942993D01*
X114557007Y-89849901D01*
X114442993Y-89784075D01*
X114379410Y-89767037D01*
X115120057Y-89026390D01*
X115120056Y-89026389D01*
X115073229Y-88989943D01*
X114854614Y-88871635D01*
X114854603Y-88871630D01*
X114619493Y-88790916D01*
X114374293Y-88750000D01*
X114125707Y-88750000D01*
X113880506Y-88790916D01*
X113645396Y-88871630D01*
X113645390Y-88871632D01*
X113426761Y-88989949D01*
X113379942Y-89026388D01*
X113379942Y-89026390D01*
X114120590Y-89767037D01*
X114057007Y-89784075D01*
X113942993Y-89849901D01*
X113849901Y-89942993D01*
X113784075Y-90057007D01*
X113767037Y-90120589D01*
X113026564Y-89380116D01*
X112926267Y-89533632D01*
X112826412Y-89761282D01*
X112765387Y-90002261D01*
X112765385Y-90002270D01*
X112744859Y-90249994D01*
X112744859Y-90250005D01*
X112765385Y-90497729D01*
X112765387Y-90497738D01*
X112826412Y-90738717D01*
X112926266Y-90966364D01*
X113026564Y-91119882D01*
X113767037Y-90379409D01*
X113784075Y-90442993D01*
X113849901Y-90557007D01*
X113942993Y-90650099D01*
X114057007Y-90715925D01*
X114120590Y-90732962D01*
X113379942Y-91473609D01*
X113426768Y-91510055D01*
X113426770Y-91510056D01*
X113645385Y-91628364D01*
X113645396Y-91628369D01*
X113880506Y-91709083D01*
X114125707Y-91750000D01*
X114374293Y-91750000D01*
X114619493Y-91709083D01*
X114854603Y-91628369D01*
X114854614Y-91628364D01*
X115073228Y-91510057D01*
X115073231Y-91510055D01*
X115120056Y-91473609D01*
X114379409Y-90732962D01*
X114442993Y-90715925D01*
X114557007Y-90650099D01*
X114650099Y-90557007D01*
X114715925Y-90442993D01*
X114732962Y-90379409D01*
X115473434Y-91119882D01*
X115573731Y-90966369D01*
X115673588Y-90738716D01*
X115705294Y-90613515D01*
X115740834Y-90553359D01*
X115803254Y-90521967D01*
X115872738Y-90529305D01*
X115927223Y-90573044D01*
X115949412Y-90639297D01*
X115949500Y-90643955D01*
X115949500Y-91876000D01*
X115929815Y-91943039D01*
X115877011Y-91988794D01*
X115825500Y-92000000D01*
X98124000Y-92000000D01*
X98056961Y-91980315D01*
X98011206Y-91927511D01*
X98000000Y-91876000D01*
X98000000Y-68390000D01*
X98294778Y-68390000D01*
X98313644Y-68677837D01*
X98313646Y-68677849D01*
X98369917Y-68960745D01*
X98369921Y-68960760D01*
X98462642Y-69233905D01*
X98590219Y-69492606D01*
X98590223Y-69492613D01*
X98750478Y-69732452D01*
X98940672Y-69949327D01*
X99157547Y-70139521D01*
X99397386Y-70299776D01*
X99397393Y-70299780D01*
X99452632Y-70327021D01*
X99504052Y-70374326D01*
X99521733Y-70441922D01*
X99500063Y-70508346D01*
X99457216Y-70547065D01*
X99442787Y-70554943D01*
X99442784Y-70554945D01*
X99219439Y-70722138D01*
X99219421Y-70722154D01*
X99022154Y-70919421D01*
X99022138Y-70919439D01*
X98854945Y-71142784D01*
X98854940Y-71142792D01*
X98721233Y-71387657D01*
X98721231Y-71387661D01*
X98623727Y-71649083D01*
X98564422Y-71921700D01*
X98544518Y-72199998D01*
X98544518Y-72200001D01*
X98564422Y-72478299D01*
X98623727Y-72750916D01*
X98623729Y-72750923D01*
X98684266Y-72913230D01*
X98721231Y-73012338D01*
X98721233Y-73012342D01*
X98854940Y-73257207D01*
X98854945Y-73257215D01*
X99022138Y-73480560D01*
X99022154Y-73480578D01*
X99219421Y-73677845D01*
X99219439Y-73677861D01*
X99442784Y-73845054D01*
X99442792Y-73845059D01*
X99457749Y-73853226D01*
X99507155Y-73902630D01*
X99522008Y-73970903D01*
X99497592Y-74036368D01*
X99453169Y-74073270D01*
X99397650Y-74100649D01*
X99397644Y-74100653D01*
X99157851Y-74260878D01*
X99129390Y-74285837D01*
X100137706Y-75294153D01*
X100121058Y-75301049D01*
X99990030Y-75388599D01*
X99878599Y-75500030D01*
X99791049Y-75631058D01*
X99784153Y-75647705D01*
X98775837Y-74639390D01*
X98750878Y-74667851D01*
X98590653Y-74907643D01*
X98463104Y-75166287D01*
X98463100Y-75166297D01*
X98370407Y-75439364D01*
X98370402Y-75439384D01*
X98314144Y-75722215D01*
X98314140Y-75722242D01*
X98295280Y-76009992D01*
X98295280Y-76010007D01*
X98314140Y-76297757D01*
X98314144Y-76297784D01*
X98370402Y-76580615D01*
X98370407Y-76580635D01*
X98463100Y-76853702D01*
X98463104Y-76853712D01*
X98590653Y-77112356D01*
X98750876Y-77352146D01*
X98750881Y-77352152D01*
X98775835Y-77380608D01*
X98775838Y-77380608D01*
X99784153Y-76372293D01*
X99791049Y-76388942D01*
X99878599Y-76519970D01*
X99990030Y-76631401D01*
X100121058Y-76718951D01*
X100137705Y-76725846D01*
X99129390Y-77734160D01*
X99129390Y-77734161D01*
X99157854Y-77759124D01*
X99397643Y-77919346D01*
X99656287Y-78046895D01*
X99656297Y-78046899D01*
X99929364Y-78139592D01*
X99929384Y-78139597D01*
X100212215Y-78195855D01*
X100212242Y-78195859D01*
X100499993Y-78214720D01*
X100500007Y-78214720D01*
X100787757Y-78195859D01*
X100787784Y-78195855D01*
X101070615Y-78139597D01*
X101070635Y-78139592D01*
X101343702Y-78046899D01*
X101343712Y-78046895D01*
X101602356Y-77919346D01*
X101842141Y-77759126D01*
X101842147Y-77759121D01*
X101870608Y-77734162D01*
X101870608Y-77734161D01*
X100862293Y-76725846D01*
X100878942Y-76718951D01*
X101009970Y-76631401D01*
X101121401Y-76519970D01*
X101208951Y-76388942D01*
X101215846Y-76372293D01*
X102224161Y-77380608D01*
X102224162Y-77380608D01*
X102249121Y-77352147D01*
X102249126Y-77352141D01*
X102409346Y-77112356D01*
X102536895Y-76853712D01*
X102536899Y-76853702D01*
X102629592Y-76580635D01*
X102629597Y-76580615D01*
X102685855Y-76297784D01*
X102685859Y-76297757D01*
X102697874Y-76114452D01*
X108329499Y-76114452D01*
X108370253Y-76319329D01*
X108370255Y-76319337D01*
X108450193Y-76512328D01*
X108450200Y-76512341D01*
X108566255Y-76686028D01*
X108566258Y-76686032D01*
X108713967Y-76833741D01*
X108713971Y-76833744D01*
X108887658Y-76949799D01*
X108887671Y-76949806D01*
X109032414Y-77009759D01*
X109080664Y-77029745D01*
X109130834Y-77039724D01*
X109285547Y-77070500D01*
X109285550Y-77070500D01*
X109494452Y-77070500D01*
X109597593Y-77049983D01*
X109699336Y-77029745D01*
X109892335Y-76949803D01*
X110066029Y-76833744D01*
X110213744Y-76686029D01*
X110329803Y-76512335D01*
X110409745Y-76319336D01*
X110450500Y-76114450D01*
X110450500Y-75905550D01*
X110450500Y-75905547D01*
X110409746Y-75700670D01*
X110409745Y-75700664D01*
X110380914Y-75631058D01*
X110329806Y-75507671D01*
X110329799Y-75507658D01*
X110213744Y-75333971D01*
X110213741Y-75333967D01*
X110066032Y-75186258D01*
X110066028Y-75186255D01*
X109892341Y-75070200D01*
X109892328Y-75070193D01*
X109699337Y-74990255D01*
X109699329Y-74990253D01*
X109494452Y-74949500D01*
X109494450Y-74949500D01*
X109285550Y-74949500D01*
X109285548Y-74949500D01*
X109080670Y-74990253D01*
X109080662Y-74990255D01*
X108887671Y-75070193D01*
X108887658Y-75070200D01*
X108713971Y-75186255D01*
X108713967Y-75186258D01*
X108566258Y-75333967D01*
X108566255Y-75333971D01*
X108450200Y-75507658D01*
X108450193Y-75507671D01*
X108370255Y-75700662D01*
X108370253Y-75700670D01*
X108329500Y-75905547D01*
X108329500Y-75905550D01*
X108329500Y-76114450D01*
X108329500Y-76114452D01*
X108329499Y-76114452D01*
X102697874Y-76114452D01*
X102704720Y-76010007D01*
X102704720Y-76009992D01*
X102685859Y-75722242D01*
X102685855Y-75722215D01*
X102629597Y-75439384D01*
X102629592Y-75439364D01*
X102536899Y-75166297D01*
X102536895Y-75166287D01*
X102409346Y-74907643D01*
X102249124Y-74667854D01*
X102224161Y-74639390D01*
X102224160Y-74639390D01*
X101215846Y-75647705D01*
X101208951Y-75631058D01*
X101121401Y-75500030D01*
X101009970Y-75388599D01*
X100878942Y-75301049D01*
X100862294Y-75294153D01*
X101870608Y-74285838D01*
X101870608Y-74285835D01*
X101842152Y-74260881D01*
X101842146Y-74260876D01*
X101602358Y-74100655D01*
X101546830Y-74073271D01*
X101495411Y-74025965D01*
X101477730Y-73958370D01*
X101499400Y-73891945D01*
X101542248Y-73853227D01*
X101557213Y-73845056D01*
X101780568Y-73677855D01*
X101977855Y-73480568D01*
X102145056Y-73257213D01*
X102278769Y-73012337D01*
X102376271Y-72750923D01*
X102435578Y-72478294D01*
X102455482Y-72200000D01*
X102455482Y-72199998D01*
X103624518Y-72199998D01*
X103624518Y-72200001D01*
X103644422Y-72478299D01*
X103703727Y-72750916D01*
X103703729Y-72750923D01*
X103764266Y-72913230D01*
X103801231Y-73012338D01*
X103801233Y-73012342D01*
X103934940Y-73257207D01*
X103934945Y-73257215D01*
X104102138Y-73480560D01*
X104102154Y-73480578D01*
X104299421Y-73677845D01*
X104299439Y-73677861D01*
X104522784Y-73845054D01*
X104522792Y-73845059D01*
X104767657Y-73978766D01*
X104767661Y-73978768D01*
X104767663Y-73978769D01*
X105029077Y-74076271D01*
X105141159Y-74100653D01*
X105301700Y-74135577D01*
X105301702Y-74135577D01*
X105301706Y-74135578D01*
X105549014Y-74153265D01*
X105579999Y-74155482D01*
X105580000Y-74155482D01*
X105580001Y-74155482D01*
X105607881Y-74153487D01*
X105858294Y-74135578D01*
X106130923Y-74076271D01*
X106392337Y-73978769D01*
X106637213Y-73845056D01*
X106860568Y-73677855D01*
X107057855Y-73480568D01*
X107225056Y-73257213D01*
X107358769Y-73012337D01*
X107456271Y-72750923D01*
X107515578Y-72478294D01*
X107535482Y-72200000D01*
X107515578Y-71921706D01*
X107456271Y-71649077D01*
X107358769Y-71387663D01*
X107225056Y-71142787D01*
X107225054Y-71142784D01*
X107057861Y-70919439D01*
X107057845Y-70919421D01*
X106860578Y-70722154D01*
X106860560Y-70722138D01*
X106637215Y-70554945D01*
X106637207Y-70554940D01*
X106392342Y-70421233D01*
X106392338Y-70421231D01*
X106238690Y-70363924D01*
X106130923Y-70323729D01*
X106130919Y-70323728D01*
X106130916Y-70323727D01*
X105858299Y-70264422D01*
X105580001Y-70244518D01*
X105579999Y-70244518D01*
X105301700Y-70264422D01*
X105029083Y-70323727D01*
X105029078Y-70323728D01*
X105029077Y-70323729D01*
X105020251Y-70327021D01*
X104767661Y-70421231D01*
X104767657Y-70421233D01*
X104522792Y-70554940D01*
X104522784Y-70554945D01*
X104299439Y-70722138D01*
X104299421Y-70722154D01*
X104102154Y-70919421D01*
X104102138Y-70919439D01*
X103934945Y-71142784D01*
X103934940Y-71142792D01*
X103801233Y-71387657D01*
X103801231Y-71387661D01*
X103703727Y-71649083D01*
X103644422Y-71921700D01*
X103624518Y-72199998D01*
X102455482Y-72199998D01*
X102435578Y-71921706D01*
X102376271Y-71649077D01*
X102278769Y-71387663D01*
X102145056Y-71142787D01*
X102145054Y-71142784D01*
X101977861Y-70919439D01*
X101977845Y-70919421D01*
X101780578Y-70722154D01*
X101780560Y-70722138D01*
X101557215Y-70554945D01*
X101557213Y-70554944D01*
X101557206Y-70554940D01*
X101542784Y-70547065D01*
X101493380Y-70497661D01*
X101478527Y-70429388D01*
X101502943Y-70363924D01*
X101547365Y-70327021D01*
X101602611Y-70299778D01*
X101842454Y-70139520D01*
X102059327Y-69949327D01*
X102249520Y-69732454D01*
X102409778Y-69492611D01*
X102537359Y-69233902D01*
X102630081Y-68960753D01*
X102686356Y-68677839D01*
X102698376Y-68494452D01*
X113409499Y-68494452D01*
X113450253Y-68699329D01*
X113450255Y-68699337D01*
X113530193Y-68892328D01*
X113530200Y-68892341D01*
X113646255Y-69066028D01*
X113646258Y-69066032D01*
X113793967Y-69213741D01*
X113793971Y-69213744D01*
X113967658Y-69329799D01*
X113967671Y-69329806D01*
X114112414Y-69389759D01*
X114160664Y-69409745D01*
X114210834Y-69419724D01*
X114365547Y-69450500D01*
X114365550Y-69450500D01*
X114574452Y-69450500D01*
X114677593Y-69429983D01*
X114779336Y-69409745D01*
X114972335Y-69329803D01*
X115146029Y-69213744D01*
X115293744Y-69066029D01*
X115409803Y-68892335D01*
X115489745Y-68699336D01*
X115530500Y-68494450D01*
X115530500Y-68285550D01*
X115530500Y-68285547D01*
X115489746Y-68080670D01*
X115489745Y-68080664D01*
X115469759Y-68032414D01*
X115409806Y-67887671D01*
X115409799Y-67887658D01*
X115293744Y-67713971D01*
X115293741Y-67713967D01*
X115146032Y-67566258D01*
X115146028Y-67566255D01*
X114972341Y-67450200D01*
X114972328Y-67450193D01*
X114779337Y-67370255D01*
X114779329Y-67370253D01*
X114574452Y-67329500D01*
X114574450Y-67329500D01*
X114365550Y-67329500D01*
X114365548Y-67329500D01*
X114160670Y-67370253D01*
X114160662Y-67370255D01*
X113967671Y-67450193D01*
X113967658Y-67450200D01*
X113793971Y-67566255D01*
X113793967Y-67566258D01*
X113646258Y-67713967D01*
X113646255Y-67713971D01*
X113530200Y-67887658D01*
X113530193Y-67887671D01*
X113450255Y-68080662D01*
X113450253Y-68080670D01*
X113409500Y-68285547D01*
X113409500Y-68285550D01*
X113409500Y-68494450D01*
X113409500Y-68494452D01*
X113409499Y-68494452D01*
X102698376Y-68494452D01*
X102705222Y-68390000D01*
X102686356Y-68102161D01*
X102630081Y-67819247D01*
X102537359Y-67546098D01*
X102409778Y-67287389D01*
X102249520Y-67047546D01*
X102059327Y-66830672D01*
X101842452Y-66640478D01*
X101602613Y-66480223D01*
X101602606Y-66480219D01*
X101343905Y-66352642D01*
X101070760Y-66259921D01*
X101070754Y-66259919D01*
X101070753Y-66259919D01*
X101070751Y-66259918D01*
X101070745Y-66259917D01*
X100787849Y-66203646D01*
X100787839Y-66203644D01*
X100500000Y-66184778D01*
X100212161Y-66203644D01*
X100212155Y-66203645D01*
X100212150Y-66203646D01*
X99929254Y-66259917D01*
X99929239Y-66259921D01*
X99656094Y-66352642D01*
X99397393Y-66480219D01*
X99397386Y-66480223D01*
X99157547Y-66640478D01*
X98940672Y-66830672D01*
X98750478Y-67047547D01*
X98590223Y-67287386D01*
X98590219Y-67287393D01*
X98462642Y-67546094D01*
X98369921Y-67819239D01*
X98369917Y-67819254D01*
X98313646Y-68102150D01*
X98313644Y-68102162D01*
X98294778Y-68390000D01*
X98000000Y-68390000D01*
X98000000Y-37690000D01*
X98294778Y-37690000D01*
X98313644Y-37977837D01*
X98313646Y-37977849D01*
X98369917Y-38260745D01*
X98369921Y-38260760D01*
X98462642Y-38533905D01*
X98590219Y-38792606D01*
X98590223Y-38792613D01*
X98750478Y-39032452D01*
X98940672Y-39249327D01*
X99157547Y-39439521D01*
X99397386Y-39599776D01*
X99397393Y-39599780D01*
X99452632Y-39627021D01*
X99504052Y-39674326D01*
X99521733Y-39741922D01*
X99500063Y-39808346D01*
X99457216Y-39847065D01*
X99442787Y-39854943D01*
X99442784Y-39854945D01*
X99219439Y-40022138D01*
X99219421Y-40022154D01*
X99022154Y-40219421D01*
X99022138Y-40219439D01*
X98854945Y-40442784D01*
X98854940Y-40442792D01*
X98721233Y-40687657D01*
X98721231Y-40687661D01*
X98623727Y-40949083D01*
X98564422Y-41221700D01*
X98544518Y-41499998D01*
X98544518Y-41500001D01*
X98564422Y-41778299D01*
X98623727Y-42050916D01*
X98623729Y-42050923D01*
X98684266Y-42213230D01*
X98721231Y-42312338D01*
X98721233Y-42312342D01*
X98854940Y-42557207D01*
X98854945Y-42557215D01*
X99022138Y-42780560D01*
X99022154Y-42780578D01*
X99219421Y-42977845D01*
X99219439Y-42977861D01*
X99442784Y-43145054D01*
X99442792Y-43145059D01*
X99457749Y-43153226D01*
X99507155Y-43202630D01*
X99522008Y-43270903D01*
X99497592Y-43336368D01*
X99453169Y-43373270D01*
X99397650Y-43400649D01*
X99397644Y-43400653D01*
X99157851Y-43560878D01*
X99129390Y-43585837D01*
X100137706Y-44594153D01*
X100121058Y-44601049D01*
X99990030Y-44688599D01*
X99878599Y-44800030D01*
X99791049Y-44931058D01*
X99784153Y-44947705D01*
X98775837Y-43939390D01*
X98750878Y-43967851D01*
X98590653Y-44207643D01*
X98463104Y-44466287D01*
X98463100Y-44466297D01*
X98370407Y-44739364D01*
X98370402Y-44739384D01*
X98314144Y-45022215D01*
X98314140Y-45022242D01*
X98295280Y-45309992D01*
X98295280Y-45310007D01*
X98314140Y-45597757D01*
X98314144Y-45597784D01*
X98370402Y-45880615D01*
X98370407Y-45880635D01*
X98463100Y-46153702D01*
X98463104Y-46153712D01*
X98590653Y-46412356D01*
X98750876Y-46652146D01*
X98750881Y-46652152D01*
X98775835Y-46680608D01*
X98775838Y-46680608D01*
X99784153Y-45672293D01*
X99791049Y-45688942D01*
X99878599Y-45819970D01*
X99990030Y-45931401D01*
X100121058Y-46018951D01*
X100137705Y-46025846D01*
X99129390Y-47034160D01*
X99129390Y-47034161D01*
X99157854Y-47059124D01*
X99397643Y-47219346D01*
X99656287Y-47346895D01*
X99656297Y-47346899D01*
X99929364Y-47439592D01*
X99929384Y-47439597D01*
X100212215Y-47495855D01*
X100212242Y-47495859D01*
X100499993Y-47514720D01*
X100500007Y-47514720D01*
X100787757Y-47495859D01*
X100787784Y-47495855D01*
X101070615Y-47439597D01*
X101070635Y-47439592D01*
X101343702Y-47346899D01*
X101343712Y-47346895D01*
X101602356Y-47219346D01*
X101842141Y-47059126D01*
X101842147Y-47059121D01*
X101870608Y-47034162D01*
X101870608Y-47034161D01*
X100862293Y-46025846D01*
X100878942Y-46018951D01*
X101009970Y-45931401D01*
X101121401Y-45819970D01*
X101208951Y-45688942D01*
X101215846Y-45672293D01*
X102224161Y-46680608D01*
X102224162Y-46680608D01*
X102249121Y-46652147D01*
X102249126Y-46652141D01*
X102409346Y-46412356D01*
X102536895Y-46153712D01*
X102536899Y-46153702D01*
X102629592Y-45880635D01*
X102629597Y-45880615D01*
X102685855Y-45597784D01*
X102685859Y-45597757D01*
X102697874Y-45414452D01*
X108329499Y-45414452D01*
X108370253Y-45619329D01*
X108370255Y-45619337D01*
X108450193Y-45812328D01*
X108450200Y-45812341D01*
X108566255Y-45986028D01*
X108566258Y-45986032D01*
X108713967Y-46133741D01*
X108713971Y-46133744D01*
X108887658Y-46249799D01*
X108887671Y-46249806D01*
X109032414Y-46309759D01*
X109080664Y-46329745D01*
X109130834Y-46339724D01*
X109285547Y-46370500D01*
X109285550Y-46370500D01*
X109494452Y-46370500D01*
X109597593Y-46349983D01*
X109699336Y-46329745D01*
X109892335Y-46249803D01*
X110066029Y-46133744D01*
X110213744Y-45986029D01*
X110329803Y-45812335D01*
X110409745Y-45619336D01*
X110450500Y-45414450D01*
X110450500Y-45205550D01*
X110450500Y-45205547D01*
X110409746Y-45000670D01*
X110409745Y-45000664D01*
X110380914Y-44931058D01*
X110329806Y-44807671D01*
X110329799Y-44807658D01*
X110213744Y-44633971D01*
X110213741Y-44633967D01*
X110066032Y-44486258D01*
X110066028Y-44486255D01*
X109892341Y-44370200D01*
X109892328Y-44370193D01*
X109699337Y-44290255D01*
X109699329Y-44290253D01*
X109494452Y-44249500D01*
X109494450Y-44249500D01*
X109285550Y-44249500D01*
X109285548Y-44249500D01*
X109080670Y-44290253D01*
X109080662Y-44290255D01*
X108887671Y-44370193D01*
X108887658Y-44370200D01*
X108713971Y-44486255D01*
X108713967Y-44486258D01*
X108566258Y-44633967D01*
X108566255Y-44633971D01*
X108450200Y-44807658D01*
X108450193Y-44807671D01*
X108370255Y-45000662D01*
X108370253Y-45000670D01*
X108329500Y-45205547D01*
X108329500Y-45205550D01*
X108329500Y-45414450D01*
X108329500Y-45414452D01*
X108329499Y-45414452D01*
X102697874Y-45414452D01*
X102704720Y-45310007D01*
X102704720Y-45309992D01*
X102685859Y-45022242D01*
X102685855Y-45022215D01*
X102629597Y-44739384D01*
X102629592Y-44739364D01*
X102536899Y-44466297D01*
X102536895Y-44466287D01*
X102409346Y-44207643D01*
X102249124Y-43967854D01*
X102224161Y-43939390D01*
X102224160Y-43939390D01*
X101215846Y-44947705D01*
X101208951Y-44931058D01*
X101121401Y-44800030D01*
X101009970Y-44688599D01*
X100878942Y-44601049D01*
X100862294Y-44594153D01*
X101870608Y-43585838D01*
X101870608Y-43585835D01*
X101842152Y-43560881D01*
X101842146Y-43560876D01*
X101602358Y-43400655D01*
X101546830Y-43373271D01*
X101495411Y-43325965D01*
X101477730Y-43258370D01*
X101499400Y-43191945D01*
X101542248Y-43153227D01*
X101557213Y-43145056D01*
X101780568Y-42977855D01*
X101977855Y-42780568D01*
X102145056Y-42557213D01*
X102278769Y-42312337D01*
X102376271Y-42050923D01*
X102435578Y-41778294D01*
X102455482Y-41500000D01*
X102455482Y-41499998D01*
X103624518Y-41499998D01*
X103624518Y-41500001D01*
X103644422Y-41778299D01*
X103703727Y-42050916D01*
X103703729Y-42050923D01*
X103764266Y-42213230D01*
X103801231Y-42312338D01*
X103801233Y-42312342D01*
X103934940Y-42557207D01*
X103934945Y-42557215D01*
X104102138Y-42780560D01*
X104102154Y-42780578D01*
X104299421Y-42977845D01*
X104299439Y-42977861D01*
X104522784Y-43145054D01*
X104522792Y-43145059D01*
X104767657Y-43278766D01*
X104767661Y-43278768D01*
X104767663Y-43278769D01*
X105029077Y-43376271D01*
X105141159Y-43400653D01*
X105301700Y-43435577D01*
X105301702Y-43435577D01*
X105301706Y-43435578D01*
X105549014Y-43453265D01*
X105579999Y-43455482D01*
X105580000Y-43455482D01*
X105580001Y-43455482D01*
X105607881Y-43453487D01*
X105858294Y-43435578D01*
X106130923Y-43376271D01*
X106392337Y-43278769D01*
X106637213Y-43145056D01*
X106860568Y-42977855D01*
X107057855Y-42780568D01*
X107225056Y-42557213D01*
X107358769Y-42312337D01*
X107456271Y-42050923D01*
X107515578Y-41778294D01*
X107535482Y-41500000D01*
X107515578Y-41221706D01*
X107456271Y-40949077D01*
X107358769Y-40687663D01*
X107225056Y-40442787D01*
X107225054Y-40442784D01*
X107057861Y-40219439D01*
X107057845Y-40219421D01*
X106860578Y-40022154D01*
X106860560Y-40022138D01*
X106637215Y-39854945D01*
X106637207Y-39854940D01*
X106392342Y-39721233D01*
X106392338Y-39721231D01*
X106238690Y-39663924D01*
X106130923Y-39623729D01*
X106130919Y-39623728D01*
X106130916Y-39623727D01*
X105858299Y-39564422D01*
X105580001Y-39544518D01*
X105579999Y-39544518D01*
X105301700Y-39564422D01*
X105029083Y-39623727D01*
X105029078Y-39623728D01*
X105029077Y-39623729D01*
X105020251Y-39627021D01*
X104767661Y-39721231D01*
X104767657Y-39721233D01*
X104522792Y-39854940D01*
X104522784Y-39854945D01*
X104299439Y-40022138D01*
X104299421Y-40022154D01*
X104102154Y-40219421D01*
X104102138Y-40219439D01*
X103934945Y-40442784D01*
X103934940Y-40442792D01*
X103801233Y-40687657D01*
X103801231Y-40687661D01*
X103703727Y-40949083D01*
X103644422Y-41221700D01*
X103624518Y-41499998D01*
X102455482Y-41499998D01*
X102435578Y-41221706D01*
X102376271Y-40949077D01*
X102278769Y-40687663D01*
X102145056Y-40442787D01*
X102145054Y-40442784D01*
X101977861Y-40219439D01*
X101977845Y-40219421D01*
X101780578Y-40022154D01*
X101780560Y-40022138D01*
X101557215Y-39854945D01*
X101557213Y-39854944D01*
X101557206Y-39854940D01*
X101542784Y-39847065D01*
X101493380Y-39797661D01*
X101478527Y-39729388D01*
X101502943Y-39663924D01*
X101547365Y-39627021D01*
X101602611Y-39599778D01*
X101842454Y-39439520D01*
X102059327Y-39249327D01*
X102249520Y-39032454D01*
X102409778Y-38792611D01*
X102537359Y-38533902D01*
X102630081Y-38260753D01*
X102686356Y-37977839D01*
X102698376Y-37794452D01*
X113409499Y-37794452D01*
X113450253Y-37999329D01*
X113450255Y-37999337D01*
X113530193Y-38192328D01*
X113530200Y-38192341D01*
X113646255Y-38366028D01*
X113646258Y-38366032D01*
X113793967Y-38513741D01*
X113793971Y-38513744D01*
X113967658Y-38629799D01*
X113967671Y-38629806D01*
X114112414Y-38689759D01*
X114160664Y-38709745D01*
X114210834Y-38719724D01*
X114365547Y-38750500D01*
X114365550Y-38750500D01*
X114574452Y-38750500D01*
X114677593Y-38729983D01*
X114779336Y-38709745D01*
X114972335Y-38629803D01*
X115146029Y-38513744D01*
X115293744Y-38366029D01*
X115409803Y-38192335D01*
X115489745Y-37999336D01*
X115530500Y-37794450D01*
X115530500Y-37585550D01*
X115530500Y-37585547D01*
X115489746Y-37380670D01*
X115489745Y-37380664D01*
X115469759Y-37332414D01*
X115409806Y-37187671D01*
X115409799Y-37187658D01*
X115293744Y-37013971D01*
X115293741Y-37013967D01*
X115146032Y-36866258D01*
X115146028Y-36866255D01*
X114972341Y-36750200D01*
X114972328Y-36750193D01*
X114779337Y-36670255D01*
X114779329Y-36670253D01*
X114574452Y-36629500D01*
X114574450Y-36629500D01*
X114365550Y-36629500D01*
X114365548Y-36629500D01*
X114160670Y-36670253D01*
X114160662Y-36670255D01*
X113967671Y-36750193D01*
X113967658Y-36750200D01*
X113793971Y-36866255D01*
X113793967Y-36866258D01*
X113646258Y-37013967D01*
X113646255Y-37013971D01*
X113530200Y-37187658D01*
X113530193Y-37187671D01*
X113450255Y-37380662D01*
X113450253Y-37380670D01*
X113409500Y-37585547D01*
X113409500Y-37585550D01*
X113409500Y-37794450D01*
X113409500Y-37794452D01*
X113409499Y-37794452D01*
X102698376Y-37794452D01*
X102705222Y-37690000D01*
X102686356Y-37402161D01*
X102630081Y-37119247D01*
X102537359Y-36846098D01*
X102409778Y-36587389D01*
X102249520Y-36347546D01*
X102059327Y-36130672D01*
X101842452Y-35940478D01*
X101602613Y-35780223D01*
X101602606Y-35780219D01*
X101343905Y-35652642D01*
X101070760Y-35559921D01*
X101070754Y-35559919D01*
X101070753Y-35559919D01*
X101070751Y-35559918D01*
X101070745Y-35559917D01*
X100787849Y-35503646D01*
X100787839Y-35503644D01*
X100500000Y-35484778D01*
X100212161Y-35503644D01*
X100212155Y-35503645D01*
X100212150Y-35503646D01*
X99929254Y-35559917D01*
X99929239Y-35559921D01*
X99656094Y-35652642D01*
X99397393Y-35780219D01*
X99397386Y-35780223D01*
X99157547Y-35940478D01*
X98940672Y-36130672D01*
X98750478Y-36347547D01*
X98590223Y-36587386D01*
X98590219Y-36587393D01*
X98462642Y-36846094D01*
X98369921Y-37119239D01*
X98369917Y-37119254D01*
X98313646Y-37402150D01*
X98313644Y-37402162D01*
X98294778Y-37690000D01*
X98000000Y-37690000D01*
X98000000Y-21624000D01*
X98019685Y-21556961D01*
X98072489Y-21511206D01*
X98124000Y-21500000D01*
X115825500Y-21500000D01*
X115892539Y-21519685D01*
G37*
%TD.AperFunction*%
%TD*%
%TA.AperFunction,Conductor*%
%TO.N,/EARTH_AES*%
G36*
X38193039Y-21519685D02*
G01*
X38238794Y-21572489D01*
X38250000Y-21624000D01*
X38250000Y-35918676D01*
X38230315Y-35985715D01*
X38177511Y-36031470D01*
X38108353Y-36041414D01*
X38044797Y-36012389D01*
X38022898Y-35987568D01*
X38021660Y-35985715D01*
X38009520Y-35967546D01*
X37994571Y-35950500D01*
X37819327Y-35750672D01*
X37602452Y-35560478D01*
X37362613Y-35400223D01*
X37362606Y-35400219D01*
X37103905Y-35272642D01*
X36830760Y-35179921D01*
X36830754Y-35179919D01*
X36830753Y-35179919D01*
X36830751Y-35179918D01*
X36830745Y-35179917D01*
X36547849Y-35123646D01*
X36547839Y-35123644D01*
X36260000Y-35104778D01*
X35972161Y-35123644D01*
X35972155Y-35123645D01*
X35972150Y-35123646D01*
X35689254Y-35179917D01*
X35689239Y-35179921D01*
X35416094Y-35272642D01*
X35157393Y-35400219D01*
X35157386Y-35400223D01*
X34917547Y-35560478D01*
X34700672Y-35750672D01*
X34510478Y-35967547D01*
X34350223Y-36207386D01*
X34350219Y-36207393D01*
X34222642Y-36466094D01*
X34129921Y-36739239D01*
X34129917Y-36739254D01*
X34073646Y-37022150D01*
X34073644Y-37022162D01*
X34054778Y-37310000D01*
X34073644Y-37597837D01*
X34073646Y-37597849D01*
X34129917Y-37880745D01*
X34129921Y-37880760D01*
X34222642Y-38153905D01*
X34350219Y-38412606D01*
X34350223Y-38412613D01*
X34510478Y-38652452D01*
X34700672Y-38869327D01*
X34917546Y-39059520D01*
X35157389Y-39219778D01*
X35416098Y-39347359D01*
X35689247Y-39440081D01*
X35972161Y-39496356D01*
X36260000Y-39515222D01*
X36547839Y-39496356D01*
X36830753Y-39440081D01*
X37103902Y-39347359D01*
X37362611Y-39219778D01*
X37602454Y-39059520D01*
X37819327Y-38869327D01*
X38009520Y-38652454D01*
X38022898Y-38632431D01*
X38076509Y-38587628D01*
X38145834Y-38578919D01*
X38208861Y-38609073D01*
X38245581Y-38668516D01*
X38250000Y-38701323D01*
X38250000Y-54876000D01*
X38230315Y-54943039D01*
X38177511Y-54988794D01*
X38126000Y-55000000D01*
X21500000Y-55000000D01*
X21500000Y-51500000D01*
X24569402Y-51500000D01*
X24589738Y-51693483D01*
X24649856Y-51878510D01*
X24649857Y-51878511D01*
X24730159Y-52017597D01*
X24747130Y-52046992D01*
X24792476Y-52097354D01*
X24877302Y-52191564D01*
X24877305Y-52191566D01*
X24877308Y-52191569D01*
X24995352Y-52277333D01*
X25034702Y-52305923D01*
X25102926Y-52336297D01*
X25212429Y-52385051D01*
X25402726Y-52425500D01*
X25597274Y-52425500D01*
X25787571Y-52385051D01*
X25965299Y-52305922D01*
X26122692Y-52191569D01*
X26252870Y-52046992D01*
X26350144Y-51878508D01*
X26410262Y-51693482D01*
X26430598Y-51500000D01*
X26410262Y-51306518D01*
X26350144Y-51121492D01*
X26350143Y-51121491D01*
X26350143Y-51121489D01*
X26350142Y-51121488D01*
X26316202Y-51062703D01*
X26252870Y-50953008D01*
X26201882Y-50896381D01*
X26122697Y-50808435D01*
X26122694Y-50808433D01*
X26122693Y-50808432D01*
X26122692Y-50808431D01*
X26043995Y-50751254D01*
X25965297Y-50694076D01*
X25828848Y-50633326D01*
X25787571Y-50614949D01*
X25787569Y-50614948D01*
X25597274Y-50574500D01*
X25402726Y-50574500D01*
X25212431Y-50614948D01*
X25034702Y-50694076D01*
X24877305Y-50808433D01*
X24877302Y-50808435D01*
X24747129Y-50953009D01*
X24649857Y-51121488D01*
X24649856Y-51121489D01*
X24589738Y-51306516D01*
X24569402Y-51500000D01*
X21500000Y-51500000D01*
X21500000Y-41224452D01*
X21859499Y-41224452D01*
X21900253Y-41429329D01*
X21900255Y-41429337D01*
X21980193Y-41622328D01*
X21980200Y-41622341D01*
X22096255Y-41796028D01*
X22096258Y-41796032D01*
X22243967Y-41943741D01*
X22243971Y-41943744D01*
X22417658Y-42059799D01*
X22417671Y-42059806D01*
X22562414Y-42119759D01*
X22610664Y-42139745D01*
X22660834Y-42149724D01*
X22815547Y-42180500D01*
X22815550Y-42180500D01*
X23024452Y-42180500D01*
X23127593Y-42159983D01*
X23229336Y-42139745D01*
X23422335Y-42059803D01*
X23596029Y-41943744D01*
X23743744Y-41796029D01*
X23859803Y-41622335D01*
X23939745Y-41429336D01*
X23980500Y-41224450D01*
X23980500Y-41119992D01*
X29605280Y-41119992D01*
X29605280Y-41120007D01*
X29624140Y-41407757D01*
X29624144Y-41407784D01*
X29680402Y-41690615D01*
X29680407Y-41690635D01*
X29773100Y-41963702D01*
X29773104Y-41963712D01*
X29900653Y-42222356D01*
X30060876Y-42462146D01*
X30060881Y-42462152D01*
X30085835Y-42490608D01*
X30085838Y-42490608D01*
X31094153Y-41482293D01*
X31101049Y-41498942D01*
X31188599Y-41629970D01*
X31300030Y-41741401D01*
X31431058Y-41828951D01*
X31447705Y-41835846D01*
X30439390Y-42844160D01*
X30439390Y-42844161D01*
X30467854Y-42869124D01*
X30707643Y-43029346D01*
X30966287Y-43156895D01*
X30966297Y-43156899D01*
X31239364Y-43249592D01*
X31239384Y-43249597D01*
X31522215Y-43305855D01*
X31522242Y-43305859D01*
X31809993Y-43324720D01*
X31810007Y-43324720D01*
X32097757Y-43305859D01*
X32097784Y-43305855D01*
X32380615Y-43249597D01*
X32380635Y-43249592D01*
X32653702Y-43156899D01*
X32653712Y-43156895D01*
X32912356Y-43029346D01*
X33152141Y-42869126D01*
X33152147Y-42869121D01*
X33180608Y-42844162D01*
X33180608Y-42844161D01*
X32172293Y-41835846D01*
X32188942Y-41828951D01*
X32319970Y-41741401D01*
X32431401Y-41629970D01*
X32518951Y-41498942D01*
X32525846Y-41482293D01*
X33534161Y-42490608D01*
X33534162Y-42490608D01*
X33559121Y-42462147D01*
X33559126Y-42462141D01*
X33719346Y-42222356D01*
X33846895Y-41963712D01*
X33846899Y-41963702D01*
X33939592Y-41690635D01*
X33939597Y-41690615D01*
X33995855Y-41407784D01*
X33995859Y-41407757D01*
X34014720Y-41120007D01*
X34014720Y-41119992D01*
X33995859Y-40832242D01*
X33995855Y-40832215D01*
X33939597Y-40549384D01*
X33939592Y-40549364D01*
X33846899Y-40276297D01*
X33846895Y-40276287D01*
X33719346Y-40017643D01*
X33559124Y-39777854D01*
X33534161Y-39749390D01*
X33534160Y-39749390D01*
X32525846Y-40757705D01*
X32518951Y-40741058D01*
X32431401Y-40610030D01*
X32319970Y-40498599D01*
X32188942Y-40411049D01*
X32172294Y-40404153D01*
X33180608Y-39395838D01*
X33180608Y-39395835D01*
X33152152Y-39370881D01*
X33152146Y-39370876D01*
X32912356Y-39210653D01*
X32653712Y-39083104D01*
X32653702Y-39083100D01*
X32380635Y-38990407D01*
X32380615Y-38990402D01*
X32097784Y-38934144D01*
X32097757Y-38934140D01*
X31810007Y-38915280D01*
X31809993Y-38915280D01*
X31522242Y-38934140D01*
X31522215Y-38934144D01*
X31239384Y-38990402D01*
X31239364Y-38990407D01*
X30966297Y-39083100D01*
X30966287Y-39083104D01*
X30707643Y-39210653D01*
X30467851Y-39370878D01*
X30439390Y-39395837D01*
X31447706Y-40404153D01*
X31431058Y-40411049D01*
X31300030Y-40498599D01*
X31188599Y-40610030D01*
X31101049Y-40741058D01*
X31094153Y-40757706D01*
X30085837Y-39749390D01*
X30060878Y-39777851D01*
X29900653Y-40017643D01*
X29773104Y-40276287D01*
X29773100Y-40276297D01*
X29680407Y-40549364D01*
X29680402Y-40549384D01*
X29624144Y-40832215D01*
X29624140Y-40832242D01*
X29605280Y-41119992D01*
X23980500Y-41119992D01*
X23980500Y-41015550D01*
X23980500Y-41015547D01*
X23939746Y-40810670D01*
X23939745Y-40810664D01*
X23910914Y-40741058D01*
X23859806Y-40617671D01*
X23859799Y-40617658D01*
X23743744Y-40443971D01*
X23743741Y-40443967D01*
X23596032Y-40296258D01*
X23596028Y-40296255D01*
X23422341Y-40180200D01*
X23422328Y-40180193D01*
X23229337Y-40100255D01*
X23229329Y-40100253D01*
X23024452Y-40059500D01*
X23024450Y-40059500D01*
X22815550Y-40059500D01*
X22815548Y-40059500D01*
X22610670Y-40100253D01*
X22610662Y-40100255D01*
X22417671Y-40180193D01*
X22417658Y-40180200D01*
X22243971Y-40296255D01*
X22243967Y-40296258D01*
X22096258Y-40443967D01*
X22096255Y-40443971D01*
X21980200Y-40617658D01*
X21980193Y-40617671D01*
X21900255Y-40810662D01*
X21900253Y-40810670D01*
X21859500Y-41015547D01*
X21859500Y-41015550D01*
X21859500Y-41224450D01*
X21859500Y-41224452D01*
X21859499Y-41224452D01*
X21500000Y-41224452D01*
X21500000Y-33604452D01*
X26939499Y-33604452D01*
X26980253Y-33809329D01*
X26980255Y-33809337D01*
X27060193Y-34002328D01*
X27060200Y-34002341D01*
X27176255Y-34176028D01*
X27176258Y-34176032D01*
X27323967Y-34323741D01*
X27323971Y-34323744D01*
X27497658Y-34439799D01*
X27497671Y-34439806D01*
X27642414Y-34499759D01*
X27690664Y-34519745D01*
X27740834Y-34529724D01*
X27895547Y-34560500D01*
X27895550Y-34560500D01*
X28104452Y-34560500D01*
X28207593Y-34539983D01*
X28309336Y-34519745D01*
X28502335Y-34439803D01*
X28676029Y-34323744D01*
X28823744Y-34176029D01*
X28939803Y-34002335D01*
X29019745Y-33809336D01*
X29060500Y-33604450D01*
X29060500Y-33499994D01*
X29989655Y-33499994D01*
X29989655Y-33500005D01*
X30009014Y-33807725D01*
X30009015Y-33807732D01*
X30066795Y-34110623D01*
X30162078Y-34403874D01*
X30162080Y-34403879D01*
X30293362Y-34682867D01*
X30293366Y-34682873D01*
X30458577Y-34943206D01*
X30458579Y-34943209D01*
X30458584Y-34943216D01*
X30654403Y-35179919D01*
X30655132Y-35180800D01*
X30879902Y-35391874D01*
X30879912Y-35391882D01*
X31129348Y-35573108D01*
X31129353Y-35573110D01*
X31129360Y-35573116D01*
X31399565Y-35721663D01*
X31399570Y-35721665D01*
X31399572Y-35721666D01*
X31399573Y-35721667D01*
X31686253Y-35835171D01*
X31686256Y-35835172D01*
X31984910Y-35911853D01*
X31984914Y-35911854D01*
X32038916Y-35918676D01*
X32290816Y-35950499D01*
X32290825Y-35950499D01*
X32290828Y-35950500D01*
X32290830Y-35950500D01*
X32599170Y-35950500D01*
X32599172Y-35950500D01*
X32599175Y-35950499D01*
X32599183Y-35950499D01*
X32781722Y-35927438D01*
X32905086Y-35911854D01*
X33203743Y-35835172D01*
X33203746Y-35835171D01*
X33490426Y-35721667D01*
X33490427Y-35721666D01*
X33490425Y-35721666D01*
X33490435Y-35721663D01*
X33760640Y-35573116D01*
X34010096Y-35391876D01*
X34234869Y-35180799D01*
X34431416Y-34943216D01*
X34596635Y-34682871D01*
X34727922Y-34403873D01*
X34823206Y-34110619D01*
X34880984Y-33807736D01*
X34880985Y-33807725D01*
X34900345Y-33500005D01*
X34900345Y-33499994D01*
X34880985Y-33192274D01*
X34880984Y-33192267D01*
X34880984Y-33192264D01*
X34823206Y-32889381D01*
X34727922Y-32596127D01*
X34654219Y-32439500D01*
X34596637Y-32317132D01*
X34596633Y-32317126D01*
X34431422Y-32056793D01*
X34431420Y-32056791D01*
X34431416Y-32056784D01*
X34234869Y-31819201D01*
X34010096Y-31608124D01*
X34010093Y-31608122D01*
X34010087Y-31608117D01*
X33760651Y-31426891D01*
X33760644Y-31426886D01*
X33760640Y-31426884D01*
X33490435Y-31278337D01*
X33490432Y-31278335D01*
X33490427Y-31278333D01*
X33490426Y-31278332D01*
X33203746Y-31164828D01*
X33203743Y-31164827D01*
X32905089Y-31088146D01*
X32905076Y-31088144D01*
X32599183Y-31049500D01*
X32599172Y-31049500D01*
X32290828Y-31049500D01*
X32290816Y-31049500D01*
X31984923Y-31088144D01*
X31984910Y-31088146D01*
X31686256Y-31164827D01*
X31686253Y-31164828D01*
X31399573Y-31278332D01*
X31399572Y-31278333D01*
X31129360Y-31426884D01*
X31129348Y-31426891D01*
X30879912Y-31608117D01*
X30879902Y-31608125D01*
X30655132Y-31819199D01*
X30458577Y-32056793D01*
X30293366Y-32317126D01*
X30293362Y-32317132D01*
X30162080Y-32596120D01*
X30162078Y-32596125D01*
X30066795Y-32889376D01*
X30009015Y-33192267D01*
X30009014Y-33192274D01*
X29989655Y-33499994D01*
X29060500Y-33499994D01*
X29060500Y-33395550D01*
X29060500Y-33395547D01*
X29019746Y-33190670D01*
X29019745Y-33190664D01*
X28999759Y-33142414D01*
X28939806Y-32997671D01*
X28939799Y-32997658D01*
X28823744Y-32823971D01*
X28823741Y-32823967D01*
X28676032Y-32676258D01*
X28676028Y-32676255D01*
X28502341Y-32560200D01*
X28502328Y-32560193D01*
X28309337Y-32480255D01*
X28309329Y-32480253D01*
X28104452Y-32439500D01*
X28104450Y-32439500D01*
X27895550Y-32439500D01*
X27895548Y-32439500D01*
X27690670Y-32480253D01*
X27690662Y-32480255D01*
X27497671Y-32560193D01*
X27497658Y-32560200D01*
X27323971Y-32676255D01*
X27323967Y-32676258D01*
X27176258Y-32823967D01*
X27176255Y-32823971D01*
X27060200Y-32997658D01*
X27060193Y-32997671D01*
X26980255Y-33190662D01*
X26980253Y-33190670D01*
X26939500Y-33395547D01*
X26939500Y-33395550D01*
X26939500Y-33604450D01*
X26939500Y-33604452D01*
X26939499Y-33604452D01*
X21500000Y-33604452D01*
X21500000Y-21624000D01*
X21519685Y-21556961D01*
X21572489Y-21511206D01*
X21624000Y-21500000D01*
X38126000Y-21500000D01*
X38193039Y-21519685D01*
G37*
%TD.AperFunction*%
%TD*%
%TA.AperFunction,Conductor*%
%TO.N,GND*%
G36*
X97437539Y-21519685D02*
G01*
X97483294Y-21572489D01*
X97494500Y-21624000D01*
X97494500Y-91876000D01*
X97474815Y-91943039D01*
X97422011Y-91988794D01*
X97370500Y-92000000D01*
X21624000Y-92000000D01*
X21556961Y-91980315D01*
X21511206Y-91927511D01*
X21500000Y-91876000D01*
X21500000Y-90860206D01*
X46718581Y-90860206D01*
X46718581Y-90860213D01*
X46737186Y-90977687D01*
X46737186Y-90977688D01*
X46737187Y-90977691D01*
X46737188Y-90977692D01*
X46748554Y-91000000D01*
X46791190Y-91083676D01*
X46791193Y-91083680D01*
X46875291Y-91167778D01*
X46875295Y-91167781D01*
X46875297Y-91167783D01*
X46981280Y-91221784D01*
X46981282Y-91221784D01*
X46981284Y-91221785D01*
X47098759Y-91240391D01*
X47098762Y-91240391D01*
X47098765Y-91240391D01*
X47216239Y-91221785D01*
X47216240Y-91221785D01*
X47216241Y-91221784D01*
X47216244Y-91221784D01*
X47322227Y-91167783D01*
X47406335Y-91083675D01*
X47460336Y-90977692D01*
X47478943Y-90860210D01*
X47478943Y-90860206D01*
X47460337Y-90742732D01*
X47460337Y-90742731D01*
X47460336Y-90742729D01*
X47460336Y-90742728D01*
X47406335Y-90636745D01*
X47406333Y-90636743D01*
X47406330Y-90636739D01*
X47322232Y-90552641D01*
X47322228Y-90552638D01*
X47322227Y-90552637D01*
X47216244Y-90498636D01*
X47216242Y-90498635D01*
X47216239Y-90498634D01*
X47098765Y-90480029D01*
X47098759Y-90480029D01*
X46981284Y-90498634D01*
X46981283Y-90498634D01*
X46875295Y-90552638D01*
X46875291Y-90552641D01*
X46791193Y-90636739D01*
X46791190Y-90636743D01*
X46737186Y-90742731D01*
X46737186Y-90742732D01*
X46718581Y-90860206D01*
X21500000Y-90860206D01*
X21500000Y-89405513D01*
X25299500Y-89405513D01*
X25299500Y-89594486D01*
X25329059Y-89781118D01*
X25387454Y-89960836D01*
X25473240Y-90129199D01*
X25584310Y-90282073D01*
X25717927Y-90415690D01*
X25870801Y-90526760D01*
X25940967Y-90562511D01*
X26039163Y-90612545D01*
X26039165Y-90612545D01*
X26039168Y-90612547D01*
X26135497Y-90643846D01*
X26218881Y-90670940D01*
X26405514Y-90700500D01*
X26405519Y-90700500D01*
X28794486Y-90700500D01*
X28981118Y-90670940D01*
X29160832Y-90612547D01*
X29329199Y-90526760D01*
X29482073Y-90415690D01*
X29615690Y-90282073D01*
X29726760Y-90129199D01*
X29792591Y-89999997D01*
X65819196Y-89999997D01*
X65819196Y-90000002D01*
X65840279Y-90133121D01*
X65840280Y-90133124D01*
X65840281Y-90133126D01*
X65893291Y-90237163D01*
X65901473Y-90253221D01*
X65901476Y-90253225D01*
X65996774Y-90348523D01*
X65996776Y-90348524D01*
X65996780Y-90348528D01*
X66077222Y-90389515D01*
X66128018Y-90437490D01*
X66144813Y-90505311D01*
X66122275Y-90571446D01*
X66077222Y-90610484D01*
X65996780Y-90651472D01*
X65996779Y-90651473D01*
X65996774Y-90651476D01*
X65901476Y-90746774D01*
X65901473Y-90746778D01*
X65901472Y-90746780D01*
X65843677Y-90860210D01*
X65840279Y-90866878D01*
X65819196Y-90999997D01*
X65819196Y-91000002D01*
X65840279Y-91133121D01*
X65840280Y-91133124D01*
X65840281Y-91133126D01*
X65901472Y-91253220D01*
X65901473Y-91253221D01*
X65901476Y-91253225D01*
X65996774Y-91348523D01*
X65996778Y-91348526D01*
X65996780Y-91348528D01*
X66116874Y-91409719D01*
X66116876Y-91409719D01*
X66116878Y-91409720D01*
X66249998Y-91430804D01*
X66250000Y-91430804D01*
X66250002Y-91430804D01*
X66383121Y-91409720D01*
X66383121Y-91409719D01*
X66383126Y-91409719D01*
X66503220Y-91348528D01*
X66598528Y-91253220D01*
X66659719Y-91133126D01*
X66659720Y-91133121D01*
X66680804Y-91000002D01*
X66680804Y-90999997D01*
X66659720Y-90866878D01*
X66659719Y-90866876D01*
X66659719Y-90866874D01*
X66598528Y-90746780D01*
X66598526Y-90746778D01*
X66598523Y-90746774D01*
X66503225Y-90651476D01*
X66503221Y-90651473D01*
X66503220Y-90651472D01*
X66422775Y-90610483D01*
X66371981Y-90562511D01*
X66355186Y-90494690D01*
X66377723Y-90428555D01*
X66422774Y-90389516D01*
X66503220Y-90348528D01*
X66598528Y-90253220D01*
X66659719Y-90133126D01*
X66680804Y-90000000D01*
X66680804Y-89999997D01*
X66985862Y-89999997D01*
X66985862Y-90000002D01*
X67006945Y-90133121D01*
X67006946Y-90133124D01*
X67006947Y-90133126D01*
X67059957Y-90237163D01*
X67068139Y-90253221D01*
X67068142Y-90253225D01*
X67163440Y-90348523D01*
X67163442Y-90348524D01*
X67163446Y-90348528D01*
X67243888Y-90389515D01*
X67294684Y-90437490D01*
X67311479Y-90505311D01*
X67288941Y-90571446D01*
X67243888Y-90610484D01*
X67163446Y-90651472D01*
X67163445Y-90651473D01*
X67163440Y-90651476D01*
X67068142Y-90746774D01*
X67068139Y-90746778D01*
X67068138Y-90746780D01*
X67010343Y-90860210D01*
X67006945Y-90866878D01*
X66985862Y-90999997D01*
X66985862Y-91000002D01*
X67006945Y-91133121D01*
X67006946Y-91133124D01*
X67006947Y-91133126D01*
X67068138Y-91253220D01*
X67068139Y-91253221D01*
X67068142Y-91253225D01*
X67163440Y-91348523D01*
X67163444Y-91348526D01*
X67163446Y-91348528D01*
X67283540Y-91409719D01*
X67283542Y-91409719D01*
X67283544Y-91409720D01*
X67416664Y-91430804D01*
X67416666Y-91430804D01*
X67416668Y-91430804D01*
X67549787Y-91409720D01*
X67549787Y-91409719D01*
X67549792Y-91409719D01*
X67669886Y-91348528D01*
X67765194Y-91253220D01*
X67826385Y-91133126D01*
X67826386Y-91133121D01*
X67847470Y-91000002D01*
X67847470Y-90999997D01*
X67826386Y-90866878D01*
X67826385Y-90866876D01*
X67826385Y-90866874D01*
X67765194Y-90746780D01*
X67765192Y-90746778D01*
X67765189Y-90746774D01*
X67669891Y-90651476D01*
X67669887Y-90651473D01*
X67669886Y-90651472D01*
X67589441Y-90610483D01*
X67538647Y-90562511D01*
X67521852Y-90494690D01*
X67544389Y-90428555D01*
X67589440Y-90389516D01*
X67669886Y-90348528D01*
X67765194Y-90253220D01*
X67826385Y-90133126D01*
X67847470Y-90000000D01*
X67847470Y-89999997D01*
X68152528Y-89999997D01*
X68152528Y-90000002D01*
X68173611Y-90133121D01*
X68173612Y-90133124D01*
X68173613Y-90133126D01*
X68226623Y-90237163D01*
X68234805Y-90253221D01*
X68234808Y-90253225D01*
X68330106Y-90348523D01*
X68330108Y-90348524D01*
X68330112Y-90348528D01*
X68410554Y-90389515D01*
X68461350Y-90437490D01*
X68478145Y-90505311D01*
X68455607Y-90571446D01*
X68410554Y-90610484D01*
X68330112Y-90651472D01*
X68330111Y-90651473D01*
X68330106Y-90651476D01*
X68234808Y-90746774D01*
X68234805Y-90746778D01*
X68234804Y-90746780D01*
X68177009Y-90860210D01*
X68173611Y-90866878D01*
X68152528Y-90999997D01*
X68152528Y-91000002D01*
X68173611Y-91133121D01*
X68173612Y-91133124D01*
X68173613Y-91133126D01*
X68234804Y-91253220D01*
X68234805Y-91253221D01*
X68234808Y-91253225D01*
X68330106Y-91348523D01*
X68330110Y-91348526D01*
X68330112Y-91348528D01*
X68450206Y-91409719D01*
X68450208Y-91409719D01*
X68450210Y-91409720D01*
X68583330Y-91430804D01*
X68583332Y-91430804D01*
X68583334Y-91430804D01*
X68716453Y-91409720D01*
X68716453Y-91409719D01*
X68716458Y-91409719D01*
X68836552Y-91348528D01*
X68931860Y-91253220D01*
X68993051Y-91133126D01*
X68993052Y-91133121D01*
X69014136Y-91000002D01*
X69014136Y-90999997D01*
X68993052Y-90866878D01*
X68993051Y-90866876D01*
X68993051Y-90866874D01*
X68931860Y-90746780D01*
X68931858Y-90746778D01*
X68931855Y-90746774D01*
X68836557Y-90651476D01*
X68836553Y-90651473D01*
X68836552Y-90651472D01*
X68756107Y-90610483D01*
X68705313Y-90562511D01*
X68688518Y-90494690D01*
X68711055Y-90428555D01*
X68756106Y-90389516D01*
X68836552Y-90348528D01*
X68931860Y-90253220D01*
X68993051Y-90133126D01*
X69014136Y-90000000D01*
X69014136Y-89999997D01*
X69319196Y-89999997D01*
X69319196Y-90000002D01*
X69340279Y-90133121D01*
X69340280Y-90133124D01*
X69340281Y-90133126D01*
X69393291Y-90237163D01*
X69401473Y-90253221D01*
X69401476Y-90253225D01*
X69496774Y-90348523D01*
X69496776Y-90348524D01*
X69496780Y-90348528D01*
X69577222Y-90389515D01*
X69628018Y-90437490D01*
X69644813Y-90505311D01*
X69622275Y-90571446D01*
X69577222Y-90610484D01*
X69496780Y-90651472D01*
X69496779Y-90651473D01*
X69496774Y-90651476D01*
X69401476Y-90746774D01*
X69401473Y-90746778D01*
X69401472Y-90746780D01*
X69343677Y-90860210D01*
X69340279Y-90866878D01*
X69319196Y-90999997D01*
X69319196Y-91000002D01*
X69340279Y-91133121D01*
X69340280Y-91133124D01*
X69340281Y-91133126D01*
X69401472Y-91253220D01*
X69401473Y-91253221D01*
X69401476Y-91253225D01*
X69496774Y-91348523D01*
X69496778Y-91348526D01*
X69496780Y-91348528D01*
X69616874Y-91409719D01*
X69616876Y-91409719D01*
X69616878Y-91409720D01*
X69749998Y-91430804D01*
X69750000Y-91430804D01*
X69750002Y-91430804D01*
X69883121Y-91409720D01*
X69883121Y-91409719D01*
X69883126Y-91409719D01*
X70003220Y-91348528D01*
X70098528Y-91253220D01*
X70159719Y-91133126D01*
X70159720Y-91133121D01*
X70180804Y-91000002D01*
X70180804Y-90999997D01*
X70159720Y-90866878D01*
X70159719Y-90866876D01*
X70159719Y-90866874D01*
X70098528Y-90746780D01*
X70098526Y-90746778D01*
X70098523Y-90746774D01*
X70003225Y-90651476D01*
X70003221Y-90651473D01*
X70003220Y-90651472D01*
X69922775Y-90610483D01*
X69871981Y-90562511D01*
X69855186Y-90494690D01*
X69877723Y-90428555D01*
X69922774Y-90389516D01*
X70003220Y-90348528D01*
X70098528Y-90253220D01*
X70159719Y-90133126D01*
X70180804Y-90000000D01*
X70174601Y-89960836D01*
X70159720Y-89866878D01*
X70159719Y-89866876D01*
X70159719Y-89866874D01*
X70098528Y-89746780D01*
X70098526Y-89746778D01*
X70098523Y-89746774D01*
X70003225Y-89651476D01*
X70003221Y-89651473D01*
X70003220Y-89651472D01*
X69883126Y-89590281D01*
X69883124Y-89590280D01*
X69883121Y-89590279D01*
X69750002Y-89569196D01*
X69749998Y-89569196D01*
X69616878Y-89590279D01*
X69496778Y-89651473D01*
X69496774Y-89651476D01*
X69401476Y-89746774D01*
X69401473Y-89746778D01*
X69340279Y-89866878D01*
X69319196Y-89999997D01*
X69014136Y-89999997D01*
X69007933Y-89960836D01*
X68993052Y-89866878D01*
X68993051Y-89866876D01*
X68993051Y-89866874D01*
X68931860Y-89746780D01*
X68931858Y-89746778D01*
X68931855Y-89746774D01*
X68836557Y-89651476D01*
X68836553Y-89651473D01*
X68836552Y-89651472D01*
X68716458Y-89590281D01*
X68716456Y-89590280D01*
X68716453Y-89590279D01*
X68583334Y-89569196D01*
X68583330Y-89569196D01*
X68450210Y-89590279D01*
X68330110Y-89651473D01*
X68330106Y-89651476D01*
X68234808Y-89746774D01*
X68234805Y-89746778D01*
X68173611Y-89866878D01*
X68152528Y-89999997D01*
X67847470Y-89999997D01*
X67841267Y-89960836D01*
X67826386Y-89866878D01*
X67826385Y-89866876D01*
X67826385Y-89866874D01*
X67765194Y-89746780D01*
X67765192Y-89746778D01*
X67765189Y-89746774D01*
X67669891Y-89651476D01*
X67669887Y-89651473D01*
X67669886Y-89651472D01*
X67549792Y-89590281D01*
X67549790Y-89590280D01*
X67549787Y-89590279D01*
X67416668Y-89569196D01*
X67416664Y-89569196D01*
X67283544Y-89590279D01*
X67163444Y-89651473D01*
X67163440Y-89651476D01*
X67068142Y-89746774D01*
X67068139Y-89746778D01*
X67006945Y-89866878D01*
X66985862Y-89999997D01*
X66680804Y-89999997D01*
X66674601Y-89960836D01*
X66659720Y-89866878D01*
X66659719Y-89866876D01*
X66659719Y-89866874D01*
X66598528Y-89746780D01*
X66598526Y-89746778D01*
X66598523Y-89746774D01*
X66503225Y-89651476D01*
X66503221Y-89651473D01*
X66503220Y-89651472D01*
X66383126Y-89590281D01*
X66383124Y-89590280D01*
X66383121Y-89590279D01*
X66250002Y-89569196D01*
X66249998Y-89569196D01*
X66116878Y-89590279D01*
X65996778Y-89651473D01*
X65996774Y-89651476D01*
X65901476Y-89746774D01*
X65901473Y-89746778D01*
X65840279Y-89866878D01*
X65819196Y-89999997D01*
X29792591Y-89999997D01*
X29812547Y-89960832D01*
X29870940Y-89781118D01*
X29876379Y-89746778D01*
X29900500Y-89594486D01*
X29900500Y-89405513D01*
X29870940Y-89218881D01*
X29812545Y-89039163D01*
X29767290Y-88950347D01*
X29726760Y-88870801D01*
X29638990Y-88749997D01*
X65819196Y-88749997D01*
X65819196Y-88750002D01*
X65840279Y-88883121D01*
X65840280Y-88883124D01*
X65840281Y-88883126D01*
X65901472Y-89003220D01*
X65901473Y-89003221D01*
X65901476Y-89003225D01*
X65996774Y-89098523D01*
X65996778Y-89098526D01*
X65996780Y-89098528D01*
X66116874Y-89159719D01*
X66116876Y-89159719D01*
X66116878Y-89159720D01*
X66249998Y-89180804D01*
X66250000Y-89180804D01*
X66250002Y-89180804D01*
X66383121Y-89159720D01*
X66383121Y-89159719D01*
X66383126Y-89159719D01*
X66503220Y-89098528D01*
X66598528Y-89003220D01*
X66659719Y-88883126D01*
X66680804Y-88750000D01*
X66680804Y-88749997D01*
X66985862Y-88749997D01*
X66985862Y-88750002D01*
X67006945Y-88883121D01*
X67006946Y-88883124D01*
X67006947Y-88883126D01*
X67068138Y-89003220D01*
X67068139Y-89003221D01*
X67068142Y-89003225D01*
X67163440Y-89098523D01*
X67163444Y-89098526D01*
X67163446Y-89098528D01*
X67283540Y-89159719D01*
X67283542Y-89159719D01*
X67283544Y-89159720D01*
X67416664Y-89180804D01*
X67416666Y-89180804D01*
X67416668Y-89180804D01*
X67549787Y-89159720D01*
X67549787Y-89159719D01*
X67549792Y-89159719D01*
X67669886Y-89098528D01*
X67765194Y-89003220D01*
X67826385Y-88883126D01*
X67847470Y-88750000D01*
X67847470Y-88749997D01*
X68152528Y-88749997D01*
X68152528Y-88750002D01*
X68173611Y-88883121D01*
X68173612Y-88883124D01*
X68173613Y-88883126D01*
X68234804Y-89003220D01*
X68234805Y-89003221D01*
X68234808Y-89003225D01*
X68330106Y-89098523D01*
X68330110Y-89098526D01*
X68330112Y-89098528D01*
X68450206Y-89159719D01*
X68450208Y-89159719D01*
X68450210Y-89159720D01*
X68583330Y-89180804D01*
X68583332Y-89180804D01*
X68583334Y-89180804D01*
X68716453Y-89159720D01*
X68716453Y-89159719D01*
X68716458Y-89159719D01*
X68836552Y-89098528D01*
X68931860Y-89003220D01*
X68993051Y-88883126D01*
X69014136Y-88750000D01*
X69014136Y-88749997D01*
X69319196Y-88749997D01*
X69319196Y-88750002D01*
X69340279Y-88883121D01*
X69340280Y-88883124D01*
X69340281Y-88883126D01*
X69401472Y-89003220D01*
X69401473Y-89003221D01*
X69401476Y-89003225D01*
X69496774Y-89098523D01*
X69496778Y-89098526D01*
X69496780Y-89098528D01*
X69616874Y-89159719D01*
X69616876Y-89159719D01*
X69616878Y-89159720D01*
X69749998Y-89180804D01*
X69750000Y-89180804D01*
X69750002Y-89180804D01*
X69883121Y-89159720D01*
X69883121Y-89159719D01*
X69883126Y-89159719D01*
X70003220Y-89098528D01*
X70098528Y-89003220D01*
X70159719Y-88883126D01*
X70180804Y-88750000D01*
X70175724Y-88717927D01*
X70159720Y-88616878D01*
X70159719Y-88616876D01*
X70159719Y-88616874D01*
X70098528Y-88496780D01*
X70098526Y-88496778D01*
X70098523Y-88496774D01*
X70003225Y-88401476D01*
X70003221Y-88401473D01*
X70003220Y-88401472D01*
X69883126Y-88340281D01*
X69883124Y-88340280D01*
X69883121Y-88340279D01*
X69750002Y-88319196D01*
X69749998Y-88319196D01*
X69616878Y-88340279D01*
X69496778Y-88401473D01*
X69496774Y-88401476D01*
X69401476Y-88496774D01*
X69401473Y-88496778D01*
X69340279Y-88616878D01*
X69319196Y-88749997D01*
X69014136Y-88749997D01*
X69009056Y-88717927D01*
X68993052Y-88616878D01*
X68993051Y-88616876D01*
X68993051Y-88616874D01*
X68931860Y-88496780D01*
X68931858Y-88496778D01*
X68931855Y-88496774D01*
X68836557Y-88401476D01*
X68836553Y-88401473D01*
X68836552Y-88401472D01*
X68716458Y-88340281D01*
X68716456Y-88340280D01*
X68716453Y-88340279D01*
X68583334Y-88319196D01*
X68583330Y-88319196D01*
X68450210Y-88340279D01*
X68330110Y-88401473D01*
X68330106Y-88401476D01*
X68234808Y-88496774D01*
X68234805Y-88496778D01*
X68173611Y-88616878D01*
X68152528Y-88749997D01*
X67847470Y-88749997D01*
X67842390Y-88717927D01*
X67826386Y-88616878D01*
X67826385Y-88616876D01*
X67826385Y-88616874D01*
X67765194Y-88496780D01*
X67765192Y-88496778D01*
X67765189Y-88496774D01*
X67669891Y-88401476D01*
X67669887Y-88401473D01*
X67669886Y-88401472D01*
X67549792Y-88340281D01*
X67549790Y-88340280D01*
X67549787Y-88340279D01*
X67416668Y-88319196D01*
X67416664Y-88319196D01*
X67283544Y-88340279D01*
X67163444Y-88401473D01*
X67163440Y-88401476D01*
X67068142Y-88496774D01*
X67068139Y-88496778D01*
X67006945Y-88616878D01*
X66985862Y-88749997D01*
X66680804Y-88749997D01*
X66675724Y-88717927D01*
X66659720Y-88616878D01*
X66659719Y-88616876D01*
X66659719Y-88616874D01*
X66598528Y-88496780D01*
X66598526Y-88496778D01*
X66598523Y-88496774D01*
X66503225Y-88401476D01*
X66503221Y-88401473D01*
X66503220Y-88401472D01*
X66383126Y-88340281D01*
X66383124Y-88340280D01*
X66383121Y-88340279D01*
X66250002Y-88319196D01*
X66249998Y-88319196D01*
X66116878Y-88340279D01*
X65996778Y-88401473D01*
X65996774Y-88401476D01*
X65901476Y-88496774D01*
X65901473Y-88496778D01*
X65840279Y-88616878D01*
X65819196Y-88749997D01*
X29638990Y-88749997D01*
X29615690Y-88717927D01*
X29482073Y-88584310D01*
X29329199Y-88473240D01*
X29160836Y-88387454D01*
X28981118Y-88329059D01*
X28794486Y-88299500D01*
X28794481Y-88299500D01*
X26405519Y-88299500D01*
X26405514Y-88299500D01*
X26218881Y-88329059D01*
X26039163Y-88387454D01*
X25870800Y-88473240D01*
X25783579Y-88536610D01*
X25717927Y-88584310D01*
X25717925Y-88584312D01*
X25717924Y-88584312D01*
X25584312Y-88717924D01*
X25584312Y-88717925D01*
X25584310Y-88717927D01*
X25561006Y-88750002D01*
X25473240Y-88870800D01*
X25387454Y-89039163D01*
X25329059Y-89218881D01*
X25299500Y-89405513D01*
X21500000Y-89405513D01*
X21500000Y-88186660D01*
X46001892Y-88186660D01*
X46001892Y-88186661D01*
X46015692Y-88195333D01*
X46015691Y-88195333D01*
X46185861Y-88254878D01*
X46364997Y-88275062D01*
X46365003Y-88275062D01*
X46544138Y-88254878D01*
X46544141Y-88254877D01*
X46714305Y-88195334D01*
X46714306Y-88195334D01*
X46728107Y-88186661D01*
X46728106Y-88186660D01*
X46971891Y-88186660D01*
X46985692Y-88195333D01*
X46985691Y-88195333D01*
X47155861Y-88254878D01*
X47334997Y-88275062D01*
X47335003Y-88275062D01*
X47514138Y-88254878D01*
X47514141Y-88254877D01*
X47684305Y-88195334D01*
X47684306Y-88195334D01*
X47698106Y-88186661D01*
X47698106Y-88186660D01*
X47335001Y-87823553D01*
X47335000Y-87823553D01*
X46971891Y-88186660D01*
X46728106Y-88186660D01*
X46365001Y-87823553D01*
X46365000Y-87823553D01*
X46001892Y-88186660D01*
X21500000Y-88186660D01*
X21500000Y-83505513D01*
X22999500Y-83505513D01*
X22999500Y-85894486D01*
X23029059Y-86081118D01*
X23087454Y-86260836D01*
X23158413Y-86400099D01*
X23173240Y-86429199D01*
X23284310Y-86582073D01*
X23417927Y-86715690D01*
X23570801Y-86826760D01*
X23650347Y-86867290D01*
X23739163Y-86912545D01*
X23739165Y-86912545D01*
X23739168Y-86912547D01*
X23835497Y-86943846D01*
X23918881Y-86970940D01*
X24105514Y-87000500D01*
X24105519Y-87000500D01*
X24294486Y-87000500D01*
X24481118Y-86970940D01*
X24660832Y-86912547D01*
X24829199Y-86826760D01*
X24982073Y-86715690D01*
X25115690Y-86582073D01*
X25226760Y-86429199D01*
X25312547Y-86260832D01*
X25370940Y-86081118D01*
X25379036Y-86030000D01*
X25400500Y-85894486D01*
X25400500Y-83505513D01*
X25370940Y-83318881D01*
X25312545Y-83139163D01*
X25226759Y-82970800D01*
X25115690Y-82817927D01*
X24982073Y-82684310D01*
X24829199Y-82573240D01*
X24660836Y-82487454D01*
X24481118Y-82429059D01*
X24294486Y-82399500D01*
X24294481Y-82399500D01*
X24105519Y-82399500D01*
X24105514Y-82399500D01*
X23918881Y-82429059D01*
X23739163Y-82487454D01*
X23570800Y-82573240D01*
X23483579Y-82636610D01*
X23417927Y-82684310D01*
X23417925Y-82684312D01*
X23417924Y-82684312D01*
X23284312Y-82817924D01*
X23284312Y-82817925D01*
X23284310Y-82817927D01*
X23236610Y-82883579D01*
X23173240Y-82970800D01*
X23087454Y-83139163D01*
X23029059Y-83318881D01*
X22999500Y-83505513D01*
X21500000Y-83505513D01*
X21500000Y-82352155D01*
X29000000Y-82352155D01*
X29000000Y-84450000D01*
X30000000Y-84450000D01*
X30000000Y-84950000D01*
X29000000Y-84950000D01*
X29000000Y-87047844D01*
X29006401Y-87107372D01*
X29006403Y-87107379D01*
X29056645Y-87242086D01*
X29056649Y-87242093D01*
X29142809Y-87357187D01*
X29142812Y-87357190D01*
X29257906Y-87443350D01*
X29257913Y-87443354D01*
X29392620Y-87493596D01*
X29392627Y-87493598D01*
X29452155Y-87499999D01*
X29452172Y-87500000D01*
X30250000Y-87500000D01*
X30250000Y-86433012D01*
X30307007Y-86465925D01*
X30434174Y-86500000D01*
X30565826Y-86500000D01*
X30692993Y-86465925D01*
X30750000Y-86433012D01*
X30750000Y-87500000D01*
X31547828Y-87500000D01*
X31547844Y-87499999D01*
X31607372Y-87493598D01*
X31607379Y-87493596D01*
X31670652Y-87469997D01*
X45559938Y-87469997D01*
X45559938Y-87470002D01*
X45580121Y-87649138D01*
X45639665Y-87819304D01*
X45648338Y-87833107D01*
X46011446Y-87470000D01*
X46011446Y-87469999D01*
X45981610Y-87440163D01*
X46215000Y-87440163D01*
X46215000Y-87499837D01*
X46237836Y-87554968D01*
X46280032Y-87597164D01*
X46335163Y-87620000D01*
X46394837Y-87620000D01*
X46449968Y-87597164D01*
X46492164Y-87554968D01*
X46515000Y-87499837D01*
X46515000Y-87469999D01*
X46718553Y-87469999D01*
X46850000Y-87601446D01*
X46981446Y-87470001D01*
X46981446Y-87470000D01*
X46951609Y-87440163D01*
X47185000Y-87440163D01*
X47185000Y-87499837D01*
X47207836Y-87554968D01*
X47250032Y-87597164D01*
X47305163Y-87620000D01*
X47364837Y-87620000D01*
X47419968Y-87597164D01*
X47462164Y-87554968D01*
X47485000Y-87499837D01*
X47485000Y-87470000D01*
X47688553Y-87470000D01*
X48051660Y-87833106D01*
X48051661Y-87833106D01*
X48060334Y-87819306D01*
X48060334Y-87819305D01*
X48119877Y-87649141D01*
X48119878Y-87649138D01*
X48136682Y-87499997D01*
X65819196Y-87499997D01*
X65819196Y-87500000D01*
X65840279Y-87633121D01*
X65840280Y-87633124D01*
X65840281Y-87633126D01*
X65901472Y-87753220D01*
X65901473Y-87753221D01*
X65901476Y-87753225D01*
X65996774Y-87848523D01*
X65996778Y-87848526D01*
X65996780Y-87848528D01*
X66116874Y-87909719D01*
X66116876Y-87909719D01*
X66116878Y-87909720D01*
X66249998Y-87930804D01*
X66250000Y-87930804D01*
X66250002Y-87930804D01*
X66383121Y-87909720D01*
X66383121Y-87909719D01*
X66383126Y-87909719D01*
X66503220Y-87848528D01*
X66598528Y-87753220D01*
X66659719Y-87633126D01*
X66680804Y-87500000D01*
X66680804Y-87499997D01*
X66985862Y-87499997D01*
X66985862Y-87500000D01*
X67006945Y-87633121D01*
X67006946Y-87633124D01*
X67006947Y-87633126D01*
X67068138Y-87753220D01*
X67068139Y-87753221D01*
X67068142Y-87753225D01*
X67163440Y-87848523D01*
X67163444Y-87848526D01*
X67163446Y-87848528D01*
X67283540Y-87909719D01*
X67283542Y-87909719D01*
X67283544Y-87909720D01*
X67416664Y-87930804D01*
X67416666Y-87930804D01*
X67416668Y-87930804D01*
X67549787Y-87909720D01*
X67549787Y-87909719D01*
X67549792Y-87909719D01*
X67669886Y-87848528D01*
X67765194Y-87753220D01*
X67826385Y-87633126D01*
X67847470Y-87500000D01*
X67847470Y-87499997D01*
X68152528Y-87499997D01*
X68152528Y-87500000D01*
X68173611Y-87633121D01*
X68173612Y-87633124D01*
X68173613Y-87633126D01*
X68234804Y-87753220D01*
X68234805Y-87753221D01*
X68234808Y-87753225D01*
X68330106Y-87848523D01*
X68330110Y-87848526D01*
X68330112Y-87848528D01*
X68450206Y-87909719D01*
X68450208Y-87909719D01*
X68450210Y-87909720D01*
X68583330Y-87930804D01*
X68583332Y-87930804D01*
X68583334Y-87930804D01*
X68716453Y-87909720D01*
X68716453Y-87909719D01*
X68716458Y-87909719D01*
X68836552Y-87848528D01*
X68931860Y-87753220D01*
X68993051Y-87633126D01*
X69014136Y-87500000D01*
X69014136Y-87499997D01*
X69319196Y-87499997D01*
X69319196Y-87500000D01*
X69340279Y-87633121D01*
X69340280Y-87633124D01*
X69340281Y-87633126D01*
X69401472Y-87753220D01*
X69401473Y-87753221D01*
X69401476Y-87753225D01*
X69496774Y-87848523D01*
X69496778Y-87848526D01*
X69496780Y-87848528D01*
X69616874Y-87909719D01*
X69616876Y-87909719D01*
X69616878Y-87909720D01*
X69749998Y-87930804D01*
X69750000Y-87930804D01*
X69750002Y-87930804D01*
X69883121Y-87909720D01*
X69883121Y-87909719D01*
X69883126Y-87909719D01*
X70003220Y-87848528D01*
X70098528Y-87753220D01*
X70159719Y-87633126D01*
X70180804Y-87500000D01*
X70180778Y-87499837D01*
X70159720Y-87366878D01*
X70159719Y-87366876D01*
X70159719Y-87366874D01*
X70098528Y-87246780D01*
X70098526Y-87246778D01*
X70098523Y-87246774D01*
X70003225Y-87151476D01*
X70003221Y-87151473D01*
X70003220Y-87151472D01*
X69883126Y-87090281D01*
X69883124Y-87090280D01*
X69883121Y-87090279D01*
X69750002Y-87069196D01*
X69749998Y-87069196D01*
X69616878Y-87090279D01*
X69496778Y-87151473D01*
X69496774Y-87151476D01*
X69401476Y-87246774D01*
X69401473Y-87246778D01*
X69340279Y-87366878D01*
X69319196Y-87499997D01*
X69014136Y-87499997D01*
X69014110Y-87499837D01*
X68993052Y-87366878D01*
X68993051Y-87366876D01*
X68993051Y-87366874D01*
X68931860Y-87246780D01*
X68931858Y-87246778D01*
X68931855Y-87246774D01*
X68836557Y-87151476D01*
X68836553Y-87151473D01*
X68836552Y-87151472D01*
X68716458Y-87090281D01*
X68716456Y-87090280D01*
X68716453Y-87090279D01*
X68583334Y-87069196D01*
X68583330Y-87069196D01*
X68450210Y-87090279D01*
X68330110Y-87151473D01*
X68330106Y-87151476D01*
X68234808Y-87246774D01*
X68234805Y-87246778D01*
X68173611Y-87366878D01*
X68152528Y-87499997D01*
X67847470Y-87499997D01*
X67847444Y-87499837D01*
X67826386Y-87366878D01*
X67826385Y-87366876D01*
X67826385Y-87366874D01*
X67765194Y-87246780D01*
X67765192Y-87246778D01*
X67765189Y-87246774D01*
X67669891Y-87151476D01*
X67669887Y-87151473D01*
X67669886Y-87151472D01*
X67549792Y-87090281D01*
X67549790Y-87090280D01*
X67549787Y-87090279D01*
X67416668Y-87069196D01*
X67416664Y-87069196D01*
X67283544Y-87090279D01*
X67163444Y-87151473D01*
X67163440Y-87151476D01*
X67068142Y-87246774D01*
X67068139Y-87246778D01*
X67006945Y-87366878D01*
X66985862Y-87499997D01*
X66680804Y-87499997D01*
X66680778Y-87499837D01*
X66659720Y-87366878D01*
X66659719Y-87366876D01*
X66659719Y-87366874D01*
X66598528Y-87246780D01*
X66598526Y-87246778D01*
X66598523Y-87246774D01*
X66503225Y-87151476D01*
X66503221Y-87151473D01*
X66503220Y-87151472D01*
X66383126Y-87090281D01*
X66383124Y-87090280D01*
X66383121Y-87090279D01*
X66250002Y-87069196D01*
X66249998Y-87069196D01*
X66116878Y-87090279D01*
X65996778Y-87151473D01*
X65996774Y-87151476D01*
X65901476Y-87246774D01*
X65901473Y-87246778D01*
X65840279Y-87366878D01*
X65819196Y-87499997D01*
X48136682Y-87499997D01*
X48140062Y-87470002D01*
X48140062Y-87469997D01*
X48119878Y-87290861D01*
X48060333Y-87120692D01*
X48051661Y-87106892D01*
X48051660Y-87106892D01*
X47688553Y-87470000D01*
X47485000Y-87470000D01*
X47485000Y-87440163D01*
X47462164Y-87385032D01*
X47419968Y-87342836D01*
X47364837Y-87320000D01*
X47305163Y-87320000D01*
X47250032Y-87342836D01*
X47207836Y-87385032D01*
X47185000Y-87440163D01*
X46951609Y-87440163D01*
X46850000Y-87338553D01*
X46718553Y-87469999D01*
X46515000Y-87469999D01*
X46515000Y-87440163D01*
X46492164Y-87385032D01*
X46449968Y-87342836D01*
X46394837Y-87320000D01*
X46335163Y-87320000D01*
X46280032Y-87342836D01*
X46237836Y-87385032D01*
X46215000Y-87440163D01*
X45981610Y-87440163D01*
X45648338Y-87106891D01*
X45648337Y-87106891D01*
X45639667Y-87120691D01*
X45639662Y-87120701D01*
X45580122Y-87290858D01*
X45580121Y-87290861D01*
X45559938Y-87469997D01*
X31670652Y-87469997D01*
X31742086Y-87443354D01*
X31742093Y-87443350D01*
X31857187Y-87357190D01*
X31857190Y-87357187D01*
X31943350Y-87242093D01*
X31943354Y-87242086D01*
X31993596Y-87107379D01*
X31993598Y-87107372D01*
X31999999Y-87047844D01*
X32000000Y-87047827D01*
X32000000Y-86825000D01*
X46073553Y-86825000D01*
X46365000Y-87116446D01*
X46365001Y-87116446D01*
X46656446Y-86825001D01*
X46656446Y-86825000D01*
X47043553Y-86825000D01*
X47335000Y-87116446D01*
X47335001Y-87116446D01*
X47626446Y-86825001D01*
X47626446Y-86824999D01*
X47335001Y-86533553D01*
X47335000Y-86533553D01*
X47043553Y-86825000D01*
X46656446Y-86825000D01*
X46656446Y-86824999D01*
X46365001Y-86533553D01*
X46365000Y-86533553D01*
X46073553Y-86825000D01*
X32000000Y-86825000D01*
X32000000Y-86179997D01*
X45559938Y-86179997D01*
X45559938Y-86180002D01*
X45580121Y-86359138D01*
X45639665Y-86529304D01*
X45648338Y-86543107D01*
X46011446Y-86180000D01*
X46011446Y-86179999D01*
X45981610Y-86150163D01*
X46215000Y-86150163D01*
X46215000Y-86209837D01*
X46237836Y-86264968D01*
X46280032Y-86307164D01*
X46335163Y-86330000D01*
X46394837Y-86330000D01*
X46449968Y-86307164D01*
X46492164Y-86264968D01*
X46515000Y-86209837D01*
X46515000Y-86179999D01*
X46718553Y-86179999D01*
X46850000Y-86311446D01*
X46981446Y-86180001D01*
X46981446Y-86180000D01*
X46951609Y-86150163D01*
X47185000Y-86150163D01*
X47185000Y-86209837D01*
X47207836Y-86264968D01*
X47250032Y-86307164D01*
X47305163Y-86330000D01*
X47364837Y-86330000D01*
X47419968Y-86307164D01*
X47462164Y-86264968D01*
X47485000Y-86209837D01*
X47485000Y-86180000D01*
X47688553Y-86180000D01*
X48051660Y-86543106D01*
X48051661Y-86543106D01*
X48060334Y-86529306D01*
X48060334Y-86529305D01*
X48119877Y-86359141D01*
X48119878Y-86359138D01*
X48132175Y-86249997D01*
X62069196Y-86249997D01*
X62069196Y-86250002D01*
X62090279Y-86383121D01*
X62090280Y-86383124D01*
X62090281Y-86383126D01*
X62151472Y-86503220D01*
X62151473Y-86503221D01*
X62151476Y-86503225D01*
X62246774Y-86598523D01*
X62246778Y-86598526D01*
X62246780Y-86598528D01*
X62366874Y-86659719D01*
X62366876Y-86659719D01*
X62366878Y-86659720D01*
X62499998Y-86680804D01*
X62500000Y-86680804D01*
X62500002Y-86680804D01*
X62633121Y-86659720D01*
X62633121Y-86659719D01*
X62633126Y-86659719D01*
X62753220Y-86598528D01*
X62848528Y-86503220D01*
X62909719Y-86383126D01*
X62913518Y-86359141D01*
X62930804Y-86250002D01*
X62930804Y-86249997D01*
X63319196Y-86249997D01*
X63319196Y-86250002D01*
X63340279Y-86383121D01*
X63340280Y-86383124D01*
X63340281Y-86383126D01*
X63401472Y-86503220D01*
X63401473Y-86503221D01*
X63401476Y-86503225D01*
X63496774Y-86598523D01*
X63496778Y-86598526D01*
X63496780Y-86598528D01*
X63616874Y-86659719D01*
X63616876Y-86659719D01*
X63616878Y-86659720D01*
X63749998Y-86680804D01*
X63750000Y-86680804D01*
X63750002Y-86680804D01*
X63883121Y-86659720D01*
X63883121Y-86659719D01*
X63883126Y-86659719D01*
X64003220Y-86598528D01*
X64098528Y-86503220D01*
X64159719Y-86383126D01*
X64163518Y-86359141D01*
X64180804Y-86250002D01*
X64180804Y-86249997D01*
X64569196Y-86249997D01*
X64569196Y-86250002D01*
X64590279Y-86383121D01*
X64590280Y-86383124D01*
X64590281Y-86383126D01*
X64651472Y-86503220D01*
X64651473Y-86503221D01*
X64651476Y-86503225D01*
X64746774Y-86598523D01*
X64746778Y-86598526D01*
X64746780Y-86598528D01*
X64866874Y-86659719D01*
X64866876Y-86659719D01*
X64866878Y-86659720D01*
X64999998Y-86680804D01*
X65000000Y-86680804D01*
X65000002Y-86680804D01*
X65133121Y-86659720D01*
X65133121Y-86659719D01*
X65133126Y-86659719D01*
X65253220Y-86598528D01*
X65348528Y-86503220D01*
X65409719Y-86383126D01*
X65413518Y-86359141D01*
X65430804Y-86250002D01*
X65430804Y-86249997D01*
X65819196Y-86249997D01*
X65819196Y-86250002D01*
X65840279Y-86383121D01*
X65840280Y-86383124D01*
X65840281Y-86383126D01*
X65901472Y-86503220D01*
X65901473Y-86503221D01*
X65901476Y-86503225D01*
X65996774Y-86598523D01*
X65996778Y-86598526D01*
X65996780Y-86598528D01*
X66116874Y-86659719D01*
X66116876Y-86659719D01*
X66116878Y-86659720D01*
X66249998Y-86680804D01*
X66250000Y-86680804D01*
X66250002Y-86680804D01*
X66383121Y-86659720D01*
X66383121Y-86659719D01*
X66383126Y-86659719D01*
X66503220Y-86598528D01*
X66598528Y-86503220D01*
X66659719Y-86383126D01*
X66663518Y-86359141D01*
X66680804Y-86250002D01*
X66680804Y-86249997D01*
X66985862Y-86249997D01*
X66985862Y-86250002D01*
X67006945Y-86383121D01*
X67006946Y-86383124D01*
X67006947Y-86383126D01*
X67068138Y-86503220D01*
X67068139Y-86503221D01*
X67068142Y-86503225D01*
X67163440Y-86598523D01*
X67163444Y-86598526D01*
X67163446Y-86598528D01*
X67283540Y-86659719D01*
X67283542Y-86659719D01*
X67283544Y-86659720D01*
X67416664Y-86680804D01*
X67416666Y-86680804D01*
X67416668Y-86680804D01*
X67549787Y-86659720D01*
X67549787Y-86659719D01*
X67549792Y-86659719D01*
X67669886Y-86598528D01*
X67765194Y-86503220D01*
X67826385Y-86383126D01*
X67830184Y-86359141D01*
X67847470Y-86250002D01*
X67847470Y-86249997D01*
X68152528Y-86249997D01*
X68152528Y-86250002D01*
X68173611Y-86383121D01*
X68173612Y-86383124D01*
X68173613Y-86383126D01*
X68234804Y-86503220D01*
X68234805Y-86503221D01*
X68234808Y-86503225D01*
X68330106Y-86598523D01*
X68330110Y-86598526D01*
X68330112Y-86598528D01*
X68450206Y-86659719D01*
X68450208Y-86659719D01*
X68450210Y-86659720D01*
X68583330Y-86680804D01*
X68583332Y-86680804D01*
X68583334Y-86680804D01*
X68716453Y-86659720D01*
X68716453Y-86659719D01*
X68716458Y-86659719D01*
X68836552Y-86598528D01*
X68931860Y-86503220D01*
X68993051Y-86383126D01*
X68996850Y-86359141D01*
X69014136Y-86250002D01*
X69014136Y-86249997D01*
X69319196Y-86249997D01*
X69319196Y-86250002D01*
X69340279Y-86383121D01*
X69340280Y-86383124D01*
X69340281Y-86383126D01*
X69401472Y-86503220D01*
X69401473Y-86503221D01*
X69401476Y-86503225D01*
X69496774Y-86598523D01*
X69496778Y-86598526D01*
X69496780Y-86598528D01*
X69616874Y-86659719D01*
X69616876Y-86659719D01*
X69616878Y-86659720D01*
X69749998Y-86680804D01*
X69750000Y-86680804D01*
X69750002Y-86680804D01*
X69883121Y-86659720D01*
X69883121Y-86659719D01*
X69883126Y-86659719D01*
X70003220Y-86598528D01*
X70098528Y-86503220D01*
X70159719Y-86383126D01*
X70163518Y-86359141D01*
X70180804Y-86250002D01*
X70180804Y-86249997D01*
X70159720Y-86116878D01*
X70159719Y-86116876D01*
X70159719Y-86116874D01*
X70098528Y-85996780D01*
X70098526Y-85996778D01*
X70098523Y-85996774D01*
X70003225Y-85901476D01*
X70003221Y-85901473D01*
X70003220Y-85901472D01*
X69883126Y-85840281D01*
X69883124Y-85840280D01*
X69883121Y-85840279D01*
X69750002Y-85819196D01*
X69749998Y-85819196D01*
X69616878Y-85840279D01*
X69496778Y-85901473D01*
X69496774Y-85901476D01*
X69401476Y-85996774D01*
X69401473Y-85996778D01*
X69340279Y-86116878D01*
X69319196Y-86249997D01*
X69014136Y-86249997D01*
X68993052Y-86116878D01*
X68993051Y-86116876D01*
X68993051Y-86116874D01*
X68931860Y-85996780D01*
X68931858Y-85996778D01*
X68931855Y-85996774D01*
X68836557Y-85901476D01*
X68836553Y-85901473D01*
X68836552Y-85901472D01*
X68716458Y-85840281D01*
X68716456Y-85840280D01*
X68716453Y-85840279D01*
X68583334Y-85819196D01*
X68583330Y-85819196D01*
X68450210Y-85840279D01*
X68330110Y-85901473D01*
X68330106Y-85901476D01*
X68234808Y-85996774D01*
X68234805Y-85996778D01*
X68173611Y-86116878D01*
X68152528Y-86249997D01*
X67847470Y-86249997D01*
X67826386Y-86116878D01*
X67826385Y-86116876D01*
X67826385Y-86116874D01*
X67765194Y-85996780D01*
X67765192Y-85996778D01*
X67765189Y-85996774D01*
X67669891Y-85901476D01*
X67669887Y-85901473D01*
X67669886Y-85901472D01*
X67549792Y-85840281D01*
X67549790Y-85840280D01*
X67549787Y-85840279D01*
X67416668Y-85819196D01*
X67416664Y-85819196D01*
X67283544Y-85840279D01*
X67163444Y-85901473D01*
X67163440Y-85901476D01*
X67068142Y-85996774D01*
X67068139Y-85996778D01*
X67006945Y-86116878D01*
X66985862Y-86249997D01*
X66680804Y-86249997D01*
X66659720Y-86116878D01*
X66659719Y-86116876D01*
X66659719Y-86116874D01*
X66598528Y-85996780D01*
X66598526Y-85996778D01*
X66598523Y-85996774D01*
X66503225Y-85901476D01*
X66503221Y-85901473D01*
X66503220Y-85901472D01*
X66383126Y-85840281D01*
X66383124Y-85840280D01*
X66383121Y-85840279D01*
X66250002Y-85819196D01*
X66249998Y-85819196D01*
X66116878Y-85840279D01*
X65996778Y-85901473D01*
X65996774Y-85901476D01*
X65901476Y-85996774D01*
X65901473Y-85996778D01*
X65840279Y-86116878D01*
X65819196Y-86249997D01*
X65430804Y-86249997D01*
X65409720Y-86116878D01*
X65409719Y-86116876D01*
X65409719Y-86116874D01*
X65348528Y-85996780D01*
X65348526Y-85996778D01*
X65348523Y-85996774D01*
X65253225Y-85901476D01*
X65253221Y-85901473D01*
X65253220Y-85901472D01*
X65133126Y-85840281D01*
X65133124Y-85840280D01*
X65133121Y-85840279D01*
X65000002Y-85819196D01*
X64999998Y-85819196D01*
X64866878Y-85840279D01*
X64746778Y-85901473D01*
X64746774Y-85901476D01*
X64651476Y-85996774D01*
X64651473Y-85996778D01*
X64590279Y-86116878D01*
X64569196Y-86249997D01*
X64180804Y-86249997D01*
X64159720Y-86116878D01*
X64159719Y-86116876D01*
X64159719Y-86116874D01*
X64098528Y-85996780D01*
X64098526Y-85996778D01*
X64098523Y-85996774D01*
X64003225Y-85901476D01*
X64003221Y-85901473D01*
X64003220Y-85901472D01*
X63883126Y-85840281D01*
X63883124Y-85840280D01*
X63883121Y-85840279D01*
X63750002Y-85819196D01*
X63749998Y-85819196D01*
X63616878Y-85840279D01*
X63496778Y-85901473D01*
X63496774Y-85901476D01*
X63401476Y-85996774D01*
X63401473Y-85996778D01*
X63340279Y-86116878D01*
X63319196Y-86249997D01*
X62930804Y-86249997D01*
X62909720Y-86116878D01*
X62909719Y-86116876D01*
X62909719Y-86116874D01*
X62848528Y-85996780D01*
X62848526Y-85996778D01*
X62848523Y-85996774D01*
X62753225Y-85901476D01*
X62753221Y-85901473D01*
X62753220Y-85901472D01*
X62633126Y-85840281D01*
X62633124Y-85840280D01*
X62633121Y-85840279D01*
X62500002Y-85819196D01*
X62499998Y-85819196D01*
X62366878Y-85840279D01*
X62246778Y-85901473D01*
X62246774Y-85901476D01*
X62151476Y-85996774D01*
X62151473Y-85996778D01*
X62090279Y-86116878D01*
X62069196Y-86249997D01*
X48132175Y-86249997D01*
X48140062Y-86180002D01*
X48140062Y-86179997D01*
X48119878Y-86000861D01*
X48060333Y-85830692D01*
X48051661Y-85816892D01*
X48051660Y-85816892D01*
X47688553Y-86180000D01*
X47485000Y-86180000D01*
X47485000Y-86150163D01*
X47462164Y-86095032D01*
X47419968Y-86052836D01*
X47364837Y-86030000D01*
X47305163Y-86030000D01*
X47250032Y-86052836D01*
X47207836Y-86095032D01*
X47185000Y-86150163D01*
X46951609Y-86150163D01*
X46850000Y-86048553D01*
X46718553Y-86179999D01*
X46515000Y-86179999D01*
X46515000Y-86150163D01*
X46492164Y-86095032D01*
X46449968Y-86052836D01*
X46394837Y-86030000D01*
X46335163Y-86030000D01*
X46280032Y-86052836D01*
X46237836Y-86095032D01*
X46215000Y-86150163D01*
X45981610Y-86150163D01*
X45648338Y-85816891D01*
X45648337Y-85816891D01*
X45639667Y-85830691D01*
X45639662Y-85830701D01*
X45580122Y-86000858D01*
X45580121Y-86000861D01*
X45559938Y-86179997D01*
X32000000Y-86179997D01*
X32000000Y-85212885D01*
X44319555Y-85212885D01*
X44319555Y-85212892D01*
X44338160Y-85330366D01*
X44338160Y-85330367D01*
X44338161Y-85330370D01*
X44338162Y-85330371D01*
X44371154Y-85395122D01*
X44392164Y-85436355D01*
X44392167Y-85436359D01*
X44476265Y-85520457D01*
X44476269Y-85520460D01*
X44476271Y-85520462D01*
X44582254Y-85574463D01*
X44582256Y-85574463D01*
X44582258Y-85574464D01*
X44699733Y-85593070D01*
X44699736Y-85593070D01*
X44699739Y-85593070D01*
X44817213Y-85574464D01*
X44817214Y-85574464D01*
X44817215Y-85574463D01*
X44817218Y-85574463D01*
X44923201Y-85520462D01*
X44980326Y-85463337D01*
X46001891Y-85463337D01*
X46001891Y-85463338D01*
X46365000Y-85826446D01*
X46365001Y-85826446D01*
X46728106Y-85463338D01*
X46971891Y-85463338D01*
X47335000Y-85826446D01*
X47335001Y-85826446D01*
X47698107Y-85463338D01*
X47684304Y-85454665D01*
X47514138Y-85395121D01*
X47335003Y-85374938D01*
X47334997Y-85374938D01*
X47155861Y-85395121D01*
X47155858Y-85395122D01*
X46985701Y-85454662D01*
X46985691Y-85454667D01*
X46971891Y-85463338D01*
X46728106Y-85463338D01*
X46714304Y-85454665D01*
X46544138Y-85395121D01*
X46365003Y-85374938D01*
X46364997Y-85374938D01*
X46185861Y-85395121D01*
X46185858Y-85395122D01*
X46015701Y-85454662D01*
X46015691Y-85454667D01*
X46001891Y-85463337D01*
X44980326Y-85463337D01*
X45007309Y-85436354D01*
X45061310Y-85330371D01*
X45079917Y-85212889D01*
X45079917Y-85212885D01*
X45061311Y-85095411D01*
X45061311Y-85095410D01*
X45061310Y-85095408D01*
X45061310Y-85095407D01*
X45007309Y-84989424D01*
X45007307Y-84989422D01*
X45007304Y-84989418D01*
X44923206Y-84905320D01*
X44923202Y-84905317D01*
X44923201Y-84905316D01*
X44817218Y-84851315D01*
X44817216Y-84851314D01*
X44817213Y-84851313D01*
X44699739Y-84832708D01*
X44699733Y-84832708D01*
X44582258Y-84851313D01*
X44582257Y-84851313D01*
X44476269Y-84905317D01*
X44476265Y-84905320D01*
X44392167Y-84989418D01*
X44392164Y-84989422D01*
X44338160Y-85095410D01*
X44338160Y-85095411D01*
X44319555Y-85212885D01*
X32000000Y-85212885D01*
X32000000Y-84950000D01*
X31000000Y-84950000D01*
X31000000Y-84450000D01*
X32000000Y-84450000D01*
X32000000Y-82352172D01*
X31999999Y-82352155D01*
X31993598Y-82292627D01*
X31993596Y-82292620D01*
X31943354Y-82157913D01*
X31943350Y-82157906D01*
X31857190Y-82042812D01*
X31857187Y-82042809D01*
X31742093Y-81956649D01*
X31742086Y-81956645D01*
X31607379Y-81906403D01*
X31607372Y-81906401D01*
X31547844Y-81900000D01*
X30750000Y-81900000D01*
X30750000Y-82966988D01*
X30692993Y-82934075D01*
X30565826Y-82900000D01*
X30434174Y-82900000D01*
X30307007Y-82934075D01*
X30250000Y-82966988D01*
X30250000Y-81900000D01*
X29452155Y-81900000D01*
X29392627Y-81906401D01*
X29392620Y-81906403D01*
X29257913Y-81956645D01*
X29257906Y-81956649D01*
X29142812Y-82042809D01*
X29142809Y-82042812D01*
X29056649Y-82157906D01*
X29056645Y-82157913D01*
X29006403Y-82292620D01*
X29006401Y-82292627D01*
X29000000Y-82352155D01*
X21500000Y-82352155D01*
X21500000Y-81000000D01*
X90494659Y-81000000D01*
X90513975Y-81196129D01*
X90571188Y-81384733D01*
X90664086Y-81558532D01*
X90664090Y-81558539D01*
X90789116Y-81710883D01*
X90941460Y-81835909D01*
X90941467Y-81835913D01*
X91115266Y-81928811D01*
X91115269Y-81928811D01*
X91115273Y-81928814D01*
X91303868Y-81986024D01*
X91500000Y-82005341D01*
X91696132Y-81986024D01*
X91884727Y-81928814D01*
X92058538Y-81835910D01*
X92210883Y-81710883D01*
X92335910Y-81558538D01*
X92428814Y-81384727D01*
X92486024Y-81196132D01*
X92505341Y-81000000D01*
X92486024Y-80803868D01*
X92428814Y-80615273D01*
X92428811Y-80615269D01*
X92428811Y-80615266D01*
X92335913Y-80441467D01*
X92335909Y-80441460D01*
X92210883Y-80289116D01*
X92058539Y-80164090D01*
X92058532Y-80164086D01*
X91884733Y-80071188D01*
X91884727Y-80071186D01*
X91696132Y-80013976D01*
X91696129Y-80013975D01*
X91500000Y-79994659D01*
X91303870Y-80013975D01*
X91115266Y-80071188D01*
X90941467Y-80164086D01*
X90941460Y-80164090D01*
X90789116Y-80289116D01*
X90664090Y-80441460D01*
X90664086Y-80441467D01*
X90571188Y-80615266D01*
X90513975Y-80803870D01*
X90494659Y-81000000D01*
X21500000Y-81000000D01*
X21500000Y-78469999D01*
X46544075Y-78469999D01*
X46544075Y-78470000D01*
X46562995Y-78613708D01*
X46562996Y-78613712D01*
X46618462Y-78747622D01*
X46618463Y-78747624D01*
X46618464Y-78747625D01*
X46706704Y-78862621D01*
X46821700Y-78950861D01*
X46955616Y-79006330D01*
X47082605Y-79023048D01*
X47099324Y-79025250D01*
X47099325Y-79025250D01*
X47099326Y-79025250D01*
X47114302Y-79023278D01*
X47243034Y-79006330D01*
X47376950Y-78950861D01*
X47491946Y-78862621D01*
X47580186Y-78747625D01*
X47635655Y-78613709D01*
X47654575Y-78470000D01*
X47635655Y-78326291D01*
X47580186Y-78192375D01*
X47491946Y-78077379D01*
X47376950Y-77989139D01*
X47376949Y-77989138D01*
X47376947Y-77989137D01*
X47243037Y-77933671D01*
X47243035Y-77933670D01*
X47243034Y-77933670D01*
X47171179Y-77924210D01*
X47099326Y-77914750D01*
X47099324Y-77914750D01*
X46955616Y-77933670D01*
X46955612Y-77933671D01*
X46821702Y-77989137D01*
X46706704Y-78077379D01*
X46618462Y-78192377D01*
X46562996Y-78326287D01*
X46562995Y-78326291D01*
X46544075Y-78469999D01*
X21500000Y-78469999D01*
X21500000Y-77749997D01*
X59769196Y-77749997D01*
X59769196Y-77750002D01*
X59790279Y-77883121D01*
X59790280Y-77883124D01*
X59790281Y-77883126D01*
X59851472Y-78003220D01*
X59851473Y-78003221D01*
X59851476Y-78003225D01*
X59946774Y-78098523D01*
X59946776Y-78098524D01*
X59946780Y-78098528D01*
X60027222Y-78139515D01*
X60078018Y-78187490D01*
X60094813Y-78255311D01*
X60072275Y-78321446D01*
X60027222Y-78360484D01*
X59946780Y-78401472D01*
X59946779Y-78401473D01*
X59946774Y-78401476D01*
X59851476Y-78496774D01*
X59851473Y-78496778D01*
X59790279Y-78616878D01*
X59769196Y-78749997D01*
X59769196Y-78750002D01*
X59790279Y-78883121D01*
X59790280Y-78883124D01*
X59790281Y-78883126D01*
X59851472Y-79003220D01*
X59851473Y-79003221D01*
X59851476Y-79003225D01*
X59946774Y-79098523D01*
X59946778Y-79098526D01*
X59946780Y-79098528D01*
X60066874Y-79159719D01*
X60066876Y-79159719D01*
X60066878Y-79159720D01*
X60199998Y-79180804D01*
X60200000Y-79180804D01*
X60200002Y-79180804D01*
X60333121Y-79159720D01*
X60333121Y-79159719D01*
X60333126Y-79159719D01*
X60453220Y-79098528D01*
X60548528Y-79003220D01*
X60609719Y-78883126D01*
X60630804Y-78750000D01*
X60630427Y-78747622D01*
X60609720Y-78616878D01*
X60609719Y-78616876D01*
X60609719Y-78616874D01*
X60548528Y-78496780D01*
X60548526Y-78496778D01*
X60548523Y-78496774D01*
X60453225Y-78401476D01*
X60453221Y-78401473D01*
X60453220Y-78401472D01*
X60372775Y-78360483D01*
X60321981Y-78312511D01*
X60305186Y-78244690D01*
X60327723Y-78178555D01*
X60372774Y-78139516D01*
X60453220Y-78098528D01*
X60548528Y-78003220D01*
X60609719Y-77883126D01*
X60630804Y-77750000D01*
X60630804Y-77749997D01*
X61069196Y-77749997D01*
X61069196Y-77750002D01*
X61090279Y-77883121D01*
X61090280Y-77883124D01*
X61090281Y-77883126D01*
X61151472Y-78003220D01*
X61151473Y-78003221D01*
X61151476Y-78003225D01*
X61246774Y-78098523D01*
X61246776Y-78098524D01*
X61246780Y-78098528D01*
X61327222Y-78139515D01*
X61378018Y-78187490D01*
X61394813Y-78255311D01*
X61372275Y-78321446D01*
X61327222Y-78360484D01*
X61246780Y-78401472D01*
X61246779Y-78401473D01*
X61246774Y-78401476D01*
X61151476Y-78496774D01*
X61151473Y-78496778D01*
X61090279Y-78616878D01*
X61069196Y-78749997D01*
X61069196Y-78750002D01*
X61090279Y-78883121D01*
X61090280Y-78883124D01*
X61090281Y-78883126D01*
X61151472Y-79003220D01*
X61151473Y-79003221D01*
X61151476Y-79003225D01*
X61246774Y-79098523D01*
X61246778Y-79098526D01*
X61246780Y-79098528D01*
X61366874Y-79159719D01*
X61366876Y-79159719D01*
X61366878Y-79159720D01*
X61499998Y-79180804D01*
X61500000Y-79180804D01*
X61500002Y-79180804D01*
X61633121Y-79159720D01*
X61633121Y-79159719D01*
X61633126Y-79159719D01*
X61753220Y-79098528D01*
X61848528Y-79003220D01*
X61909719Y-78883126D01*
X61930804Y-78750000D01*
X61930427Y-78747622D01*
X61909720Y-78616878D01*
X61909719Y-78616876D01*
X61909719Y-78616874D01*
X61848528Y-78496780D01*
X61848526Y-78496778D01*
X61848523Y-78496774D01*
X61753225Y-78401476D01*
X61753221Y-78401473D01*
X61753220Y-78401472D01*
X61672775Y-78360483D01*
X61621981Y-78312511D01*
X61605186Y-78244690D01*
X61627723Y-78178555D01*
X61672774Y-78139516D01*
X61753220Y-78098528D01*
X61848528Y-78003220D01*
X61909719Y-77883126D01*
X61930804Y-77750000D01*
X61930804Y-77749997D01*
X62319196Y-77749997D01*
X62319196Y-77750002D01*
X62340279Y-77883121D01*
X62340280Y-77883124D01*
X62340281Y-77883126D01*
X62401472Y-78003220D01*
X62401473Y-78003221D01*
X62401476Y-78003225D01*
X62496774Y-78098523D01*
X62496776Y-78098524D01*
X62496780Y-78098528D01*
X62577222Y-78139515D01*
X62628018Y-78187490D01*
X62644813Y-78255311D01*
X62622275Y-78321446D01*
X62577222Y-78360484D01*
X62496780Y-78401472D01*
X62496779Y-78401473D01*
X62496774Y-78401476D01*
X62401476Y-78496774D01*
X62401473Y-78496778D01*
X62340279Y-78616878D01*
X62319196Y-78749997D01*
X62319196Y-78750002D01*
X62340279Y-78883121D01*
X62340280Y-78883124D01*
X62340281Y-78883126D01*
X62401472Y-79003220D01*
X62401473Y-79003221D01*
X62401476Y-79003225D01*
X62496774Y-79098523D01*
X62496778Y-79098526D01*
X62496780Y-79098528D01*
X62616874Y-79159719D01*
X62616876Y-79159719D01*
X62616878Y-79159720D01*
X62749998Y-79180804D01*
X62750000Y-79180804D01*
X62750002Y-79180804D01*
X62883121Y-79159720D01*
X62883121Y-79159719D01*
X62883126Y-79159719D01*
X63003220Y-79098528D01*
X63098528Y-79003220D01*
X63159719Y-78883126D01*
X63180804Y-78750000D01*
X63180427Y-78747622D01*
X63159720Y-78616878D01*
X63159719Y-78616876D01*
X63159719Y-78616874D01*
X63098528Y-78496780D01*
X63098526Y-78496778D01*
X63098523Y-78496774D01*
X63003225Y-78401476D01*
X63003221Y-78401473D01*
X63003220Y-78401472D01*
X62922775Y-78360483D01*
X62871981Y-78312511D01*
X62855186Y-78244690D01*
X62877723Y-78178555D01*
X62922774Y-78139516D01*
X63003220Y-78098528D01*
X63098528Y-78003220D01*
X63159719Y-77883126D01*
X63180804Y-77750000D01*
X63174173Y-77708135D01*
X63159720Y-77616878D01*
X63159719Y-77616876D01*
X63159719Y-77616874D01*
X63098528Y-77496780D01*
X63098526Y-77496778D01*
X63098523Y-77496774D01*
X63003225Y-77401476D01*
X63003221Y-77401473D01*
X63003220Y-77401472D01*
X62883126Y-77340281D01*
X62883124Y-77340280D01*
X62883121Y-77340279D01*
X62750002Y-77319196D01*
X62749998Y-77319196D01*
X62616878Y-77340279D01*
X62496778Y-77401473D01*
X62496774Y-77401476D01*
X62401476Y-77496774D01*
X62401473Y-77496778D01*
X62340279Y-77616878D01*
X62319196Y-77749997D01*
X61930804Y-77749997D01*
X61924173Y-77708135D01*
X61909720Y-77616878D01*
X61909719Y-77616876D01*
X61909719Y-77616874D01*
X61848528Y-77496780D01*
X61848526Y-77496778D01*
X61848523Y-77496774D01*
X61753225Y-77401476D01*
X61753221Y-77401473D01*
X61753220Y-77401472D01*
X61633126Y-77340281D01*
X61633124Y-77340280D01*
X61633121Y-77340279D01*
X61500002Y-77319196D01*
X61499998Y-77319196D01*
X61366878Y-77340279D01*
X61246778Y-77401473D01*
X61246774Y-77401476D01*
X61151476Y-77496774D01*
X61151473Y-77496778D01*
X61090279Y-77616878D01*
X61069196Y-77749997D01*
X60630804Y-77749997D01*
X60624173Y-77708135D01*
X60609720Y-77616878D01*
X60609719Y-77616876D01*
X60609719Y-77616874D01*
X60548528Y-77496780D01*
X60548526Y-77496778D01*
X60548523Y-77496774D01*
X60453225Y-77401476D01*
X60453221Y-77401473D01*
X60453220Y-77401472D01*
X60333126Y-77340281D01*
X60333124Y-77340280D01*
X60333121Y-77340279D01*
X60200002Y-77319196D01*
X60199998Y-77319196D01*
X60066878Y-77340279D01*
X59946778Y-77401473D01*
X59946774Y-77401476D01*
X59851476Y-77496774D01*
X59851473Y-77496778D01*
X59790279Y-77616878D01*
X59769196Y-77749997D01*
X21500000Y-77749997D01*
X21500000Y-76000000D01*
X69994659Y-76000000D01*
X70013975Y-76196129D01*
X70071188Y-76384733D01*
X70164086Y-76558532D01*
X70164090Y-76558539D01*
X70289116Y-76710883D01*
X70441460Y-76835909D01*
X70441467Y-76835913D01*
X70615266Y-76928811D01*
X70615269Y-76928811D01*
X70615273Y-76928814D01*
X70803868Y-76986024D01*
X71000000Y-77005341D01*
X71196132Y-76986024D01*
X71384727Y-76928814D01*
X71558538Y-76835910D01*
X71710883Y-76710883D01*
X71835910Y-76558538D01*
X71928814Y-76384727D01*
X71986024Y-76196132D01*
X72005341Y-76000000D01*
X90494659Y-76000000D01*
X90513975Y-76196129D01*
X90571188Y-76384733D01*
X90664086Y-76558532D01*
X90664090Y-76558539D01*
X90789116Y-76710883D01*
X90941460Y-76835909D01*
X90941467Y-76835913D01*
X91115266Y-76928811D01*
X91115269Y-76928811D01*
X91115273Y-76928814D01*
X91303868Y-76986024D01*
X91500000Y-77005341D01*
X91696132Y-76986024D01*
X91884727Y-76928814D01*
X92058538Y-76835910D01*
X92210883Y-76710883D01*
X92335910Y-76558538D01*
X92428814Y-76384727D01*
X92486024Y-76196132D01*
X92505341Y-76000000D01*
X92486024Y-75803868D01*
X92428814Y-75615273D01*
X92428811Y-75615269D01*
X92428811Y-75615266D01*
X92335913Y-75441467D01*
X92335909Y-75441460D01*
X92210883Y-75289116D01*
X92058539Y-75164090D01*
X92058532Y-75164086D01*
X91884733Y-75071188D01*
X91884727Y-75071186D01*
X91696132Y-75013976D01*
X91696129Y-75013975D01*
X91500000Y-74994659D01*
X91303870Y-75013975D01*
X91115266Y-75071188D01*
X90941467Y-75164086D01*
X90941460Y-75164090D01*
X90789116Y-75289116D01*
X90664090Y-75441460D01*
X90664086Y-75441467D01*
X90571188Y-75615266D01*
X90513975Y-75803870D01*
X90494659Y-76000000D01*
X72005341Y-76000000D01*
X71986024Y-75803868D01*
X71928814Y-75615273D01*
X71928811Y-75615269D01*
X71928811Y-75615266D01*
X71835913Y-75441467D01*
X71835909Y-75441460D01*
X71710883Y-75289116D01*
X71558539Y-75164090D01*
X71558532Y-75164086D01*
X71384733Y-75071188D01*
X71384727Y-75071186D01*
X71196132Y-75013976D01*
X71196129Y-75013975D01*
X71000000Y-74994659D01*
X70803870Y-75013975D01*
X70615266Y-75071188D01*
X70441467Y-75164086D01*
X70441460Y-75164090D01*
X70289116Y-75289116D01*
X70164090Y-75441460D01*
X70164086Y-75441467D01*
X70071188Y-75615266D01*
X70013975Y-75803870D01*
X69994659Y-76000000D01*
X21500000Y-76000000D01*
X21500000Y-75686660D01*
X46016892Y-75686660D01*
X46016892Y-75686661D01*
X46030692Y-75695333D01*
X46030691Y-75695333D01*
X46200861Y-75754878D01*
X46379997Y-75775062D01*
X46380003Y-75775062D01*
X46559138Y-75754878D01*
X46559141Y-75754877D01*
X46729305Y-75695334D01*
X46729306Y-75695334D01*
X46743107Y-75686661D01*
X46743106Y-75686660D01*
X46986891Y-75686660D01*
X47000692Y-75695333D01*
X47000691Y-75695333D01*
X47170861Y-75754878D01*
X47349997Y-75775062D01*
X47350003Y-75775062D01*
X47529138Y-75754878D01*
X47529141Y-75754877D01*
X47699305Y-75695334D01*
X47699306Y-75695334D01*
X47713106Y-75686661D01*
X47713106Y-75686660D01*
X47350001Y-75323553D01*
X47350000Y-75323553D01*
X46986891Y-75686660D01*
X46743106Y-75686660D01*
X46380001Y-75323553D01*
X46380000Y-75323553D01*
X46016892Y-75686660D01*
X21500000Y-75686660D01*
X21500000Y-74969997D01*
X45574938Y-74969997D01*
X45574938Y-74970002D01*
X45595121Y-75149138D01*
X45654665Y-75319304D01*
X45663338Y-75333107D01*
X46026446Y-74970000D01*
X46026446Y-74969999D01*
X45996610Y-74940163D01*
X46230000Y-74940163D01*
X46230000Y-74999837D01*
X46252836Y-75054968D01*
X46295032Y-75097164D01*
X46350163Y-75120000D01*
X46409837Y-75120000D01*
X46464968Y-75097164D01*
X46507164Y-75054968D01*
X46530000Y-74999837D01*
X46530000Y-74969999D01*
X46733553Y-74969999D01*
X46865000Y-75101446D01*
X46996446Y-74970001D01*
X46996446Y-74970000D01*
X46966609Y-74940163D01*
X47200000Y-74940163D01*
X47200000Y-74999837D01*
X47222836Y-75054968D01*
X47265032Y-75097164D01*
X47320163Y-75120000D01*
X47379837Y-75120000D01*
X47434968Y-75097164D01*
X47477164Y-75054968D01*
X47500000Y-74999837D01*
X47500000Y-74970000D01*
X47703553Y-74970000D01*
X48066660Y-75333106D01*
X48066661Y-75333106D01*
X48075334Y-75319306D01*
X48075334Y-75319305D01*
X48134877Y-75149141D01*
X48134878Y-75149138D01*
X48155062Y-74970002D01*
X48155062Y-74969997D01*
X48134878Y-74790861D01*
X48075333Y-74620692D01*
X48066661Y-74606892D01*
X48066660Y-74606892D01*
X47703553Y-74970000D01*
X47500000Y-74970000D01*
X47500000Y-74940163D01*
X47477164Y-74885032D01*
X47434968Y-74842836D01*
X47379837Y-74820000D01*
X47320163Y-74820000D01*
X47265032Y-74842836D01*
X47222836Y-74885032D01*
X47200000Y-74940163D01*
X46966609Y-74940163D01*
X46865000Y-74838553D01*
X46733553Y-74969999D01*
X46530000Y-74969999D01*
X46530000Y-74940163D01*
X46507164Y-74885032D01*
X46464968Y-74842836D01*
X46409837Y-74820000D01*
X46350163Y-74820000D01*
X46295032Y-74842836D01*
X46252836Y-74885032D01*
X46230000Y-74940163D01*
X45996610Y-74940163D01*
X45663338Y-74606891D01*
X45663337Y-74606891D01*
X45654667Y-74620691D01*
X45654662Y-74620701D01*
X45595122Y-74790858D01*
X45595121Y-74790861D01*
X45574938Y-74969997D01*
X21500000Y-74969997D01*
X21500000Y-73249999D01*
X23144785Y-73249999D01*
X23144785Y-73250000D01*
X23163602Y-73453082D01*
X23219417Y-73649247D01*
X23219422Y-73649260D01*
X23310327Y-73831821D01*
X23433237Y-73994581D01*
X23583958Y-74131980D01*
X23583960Y-74131982D01*
X23683141Y-74193392D01*
X23757363Y-74239348D01*
X23947544Y-74313024D01*
X24148024Y-74350500D01*
X24148026Y-74350500D01*
X24351974Y-74350500D01*
X24351976Y-74350500D01*
X24488390Y-74325000D01*
X46088553Y-74325000D01*
X46380000Y-74616446D01*
X46380001Y-74616446D01*
X46671446Y-74325001D01*
X46671446Y-74325000D01*
X47058553Y-74325000D01*
X47350000Y-74616446D01*
X47350001Y-74616446D01*
X47466450Y-74499997D01*
X61069196Y-74499997D01*
X61069196Y-74500002D01*
X61090279Y-74633121D01*
X61090280Y-74633124D01*
X61090281Y-74633126D01*
X61151472Y-74753220D01*
X61151473Y-74753221D01*
X61151476Y-74753225D01*
X61246774Y-74848523D01*
X61246776Y-74848524D01*
X61246780Y-74848528D01*
X61327222Y-74889515D01*
X61378018Y-74937490D01*
X61394813Y-75005311D01*
X61372275Y-75071446D01*
X61327222Y-75110484D01*
X61246780Y-75151472D01*
X61246779Y-75151473D01*
X61246774Y-75151476D01*
X61151476Y-75246774D01*
X61151473Y-75246778D01*
X61090279Y-75366878D01*
X61069196Y-75499997D01*
X61069196Y-75500002D01*
X61090279Y-75633121D01*
X61090280Y-75633124D01*
X61090281Y-75633126D01*
X61148360Y-75747112D01*
X61151473Y-75753221D01*
X61151476Y-75753225D01*
X61246774Y-75848523D01*
X61246778Y-75848526D01*
X61246780Y-75848528D01*
X61366874Y-75909719D01*
X61366876Y-75909719D01*
X61366878Y-75909720D01*
X61499998Y-75930804D01*
X61500000Y-75930804D01*
X61500002Y-75930804D01*
X61633121Y-75909720D01*
X61633121Y-75909719D01*
X61633126Y-75909719D01*
X61753220Y-75848528D01*
X61848528Y-75753220D01*
X61909719Y-75633126D01*
X61912548Y-75615266D01*
X61930804Y-75500002D01*
X61930804Y-75499997D01*
X61909720Y-75366878D01*
X61909719Y-75366876D01*
X61909719Y-75366874D01*
X61848528Y-75246780D01*
X61848526Y-75246778D01*
X61848523Y-75246774D01*
X61753225Y-75151476D01*
X61753221Y-75151473D01*
X61753220Y-75151472D01*
X61672775Y-75110483D01*
X61621981Y-75062511D01*
X61605186Y-74994690D01*
X61627723Y-74928555D01*
X61672774Y-74889516D01*
X61753220Y-74848528D01*
X61848528Y-74753220D01*
X61909719Y-74633126D01*
X61911687Y-74620701D01*
X61930804Y-74500002D01*
X61930804Y-74499997D01*
X62319196Y-74499997D01*
X62319196Y-74500002D01*
X62340279Y-74633121D01*
X62340280Y-74633124D01*
X62340281Y-74633126D01*
X62401472Y-74753220D01*
X62401473Y-74753221D01*
X62401476Y-74753225D01*
X62496774Y-74848523D01*
X62496776Y-74848524D01*
X62496780Y-74848528D01*
X62577222Y-74889515D01*
X62628018Y-74937490D01*
X62644813Y-75005311D01*
X62622275Y-75071446D01*
X62577222Y-75110484D01*
X62496780Y-75151472D01*
X62496779Y-75151473D01*
X62496774Y-75151476D01*
X62401476Y-75246774D01*
X62401473Y-75246778D01*
X62340279Y-75366878D01*
X62319196Y-75499997D01*
X62319196Y-75500002D01*
X62340279Y-75633121D01*
X62340280Y-75633124D01*
X62340281Y-75633126D01*
X62398360Y-75747112D01*
X62401473Y-75753221D01*
X62401476Y-75753225D01*
X62496774Y-75848523D01*
X62496778Y-75848526D01*
X62496780Y-75848528D01*
X62616874Y-75909719D01*
X62616876Y-75909719D01*
X62616878Y-75909720D01*
X62749998Y-75930804D01*
X62750000Y-75930804D01*
X62750002Y-75930804D01*
X62883121Y-75909720D01*
X62883121Y-75909719D01*
X62883126Y-75909719D01*
X63003220Y-75848528D01*
X63098528Y-75753220D01*
X63159719Y-75633126D01*
X63162548Y-75615266D01*
X63180804Y-75500002D01*
X63180804Y-75499997D01*
X63159720Y-75366878D01*
X63159719Y-75366876D01*
X63159719Y-75366874D01*
X63098528Y-75246780D01*
X63098526Y-75246778D01*
X63098523Y-75246774D01*
X63003225Y-75151476D01*
X63003221Y-75151473D01*
X63003220Y-75151472D01*
X62922775Y-75110483D01*
X62871981Y-75062511D01*
X62855186Y-74994690D01*
X62877723Y-74928555D01*
X62922774Y-74889516D01*
X63003220Y-74848528D01*
X63098528Y-74753220D01*
X63159719Y-74633126D01*
X63161687Y-74620701D01*
X63180804Y-74500002D01*
X63180804Y-74499997D01*
X63159720Y-74366878D01*
X63159719Y-74366876D01*
X63159719Y-74366874D01*
X63100167Y-74249997D01*
X64069196Y-74249997D01*
X64069196Y-74250002D01*
X64090279Y-74383121D01*
X64090280Y-74383124D01*
X64090281Y-74383126D01*
X64151472Y-74503220D01*
X64151473Y-74503221D01*
X64151476Y-74503225D01*
X64246774Y-74598523D01*
X64246778Y-74598526D01*
X64246780Y-74598528D01*
X64366874Y-74659719D01*
X64366876Y-74659719D01*
X64366878Y-74659720D01*
X64499998Y-74680804D01*
X64500000Y-74680804D01*
X64500002Y-74680804D01*
X64633121Y-74659720D01*
X64633121Y-74659719D01*
X64633126Y-74659719D01*
X64753220Y-74598528D01*
X64848528Y-74503220D01*
X64909719Y-74383126D01*
X64909720Y-74383121D01*
X64930804Y-74250002D01*
X64930804Y-74249997D01*
X65819196Y-74249997D01*
X65819196Y-74250002D01*
X65840279Y-74383121D01*
X65840280Y-74383124D01*
X65840281Y-74383126D01*
X65901472Y-74503220D01*
X65901473Y-74503221D01*
X65901476Y-74503225D01*
X65996774Y-74598523D01*
X65996778Y-74598526D01*
X65996780Y-74598528D01*
X66116874Y-74659719D01*
X66116876Y-74659719D01*
X66116878Y-74659720D01*
X66249998Y-74680804D01*
X66250000Y-74680804D01*
X66250002Y-74680804D01*
X66383121Y-74659720D01*
X66383121Y-74659719D01*
X66383126Y-74659719D01*
X66503220Y-74598528D01*
X66598528Y-74503220D01*
X66600169Y-74500000D01*
X75224659Y-74500000D01*
X75243975Y-74696129D01*
X75243976Y-74696132D01*
X75290204Y-74848526D01*
X75301188Y-74884733D01*
X75394086Y-75058532D01*
X75394090Y-75058539D01*
X75519116Y-75210883D01*
X75671460Y-75335909D01*
X75671467Y-75335913D01*
X75845266Y-75428811D01*
X75845269Y-75428811D01*
X75845273Y-75428814D01*
X76033868Y-75486024D01*
X76230000Y-75505341D01*
X76426132Y-75486024D01*
X76614727Y-75428814D01*
X76788538Y-75335910D01*
X76940883Y-75210883D01*
X77065910Y-75058538D01*
X77113236Y-74969997D01*
X77158811Y-74884733D01*
X77158811Y-74884732D01*
X77158814Y-74884727D01*
X77216024Y-74696132D01*
X77235341Y-74500000D01*
X80224659Y-74500000D01*
X80243975Y-74696129D01*
X80243976Y-74696132D01*
X80290204Y-74848526D01*
X80301188Y-74884733D01*
X80394086Y-75058532D01*
X80394090Y-75058539D01*
X80519116Y-75210883D01*
X80671460Y-75335909D01*
X80671467Y-75335913D01*
X80845266Y-75428811D01*
X80845269Y-75428811D01*
X80845273Y-75428814D01*
X81033868Y-75486024D01*
X81230000Y-75505341D01*
X81426132Y-75486024D01*
X81614727Y-75428814D01*
X81788538Y-75335910D01*
X81940883Y-75210883D01*
X82065910Y-75058538D01*
X82113236Y-74969997D01*
X82158811Y-74884733D01*
X82158811Y-74884732D01*
X82158814Y-74884727D01*
X82216024Y-74696132D01*
X82235341Y-74500000D01*
X82216024Y-74303868D01*
X82158814Y-74115273D01*
X82158811Y-74115269D01*
X82158811Y-74115266D01*
X82065913Y-73941467D01*
X82065909Y-73941460D01*
X81940883Y-73789116D01*
X81788539Y-73664090D01*
X81788532Y-73664086D01*
X81614733Y-73571188D01*
X81614727Y-73571186D01*
X81438652Y-73517774D01*
X81426129Y-73513975D01*
X81230000Y-73494659D01*
X81033870Y-73513975D01*
X80845266Y-73571188D01*
X80671467Y-73664086D01*
X80671460Y-73664090D01*
X80519116Y-73789116D01*
X80394090Y-73941460D01*
X80394086Y-73941467D01*
X80301188Y-74115266D01*
X80243975Y-74303870D01*
X80224659Y-74500000D01*
X77235341Y-74500000D01*
X77216024Y-74303868D01*
X77158814Y-74115273D01*
X77158811Y-74115269D01*
X77158811Y-74115266D01*
X77065913Y-73941467D01*
X77065909Y-73941460D01*
X76940883Y-73789116D01*
X76788539Y-73664090D01*
X76788532Y-73664086D01*
X76614733Y-73571188D01*
X76614727Y-73571186D01*
X76438652Y-73517774D01*
X76426129Y-73513975D01*
X76230000Y-73494659D01*
X76033870Y-73513975D01*
X75845266Y-73571188D01*
X75671467Y-73664086D01*
X75671460Y-73664090D01*
X75519116Y-73789116D01*
X75394090Y-73941460D01*
X75394086Y-73941467D01*
X75301188Y-74115266D01*
X75243975Y-74303870D01*
X75224659Y-74500000D01*
X66600169Y-74500000D01*
X66659719Y-74383126D01*
X66659720Y-74383121D01*
X66680804Y-74250002D01*
X66680804Y-74249997D01*
X66659720Y-74116878D01*
X66659719Y-74116876D01*
X66659719Y-74116874D01*
X66598528Y-73996780D01*
X66598526Y-73996778D01*
X66598523Y-73996774D01*
X66503225Y-73901476D01*
X66503221Y-73901473D01*
X66503220Y-73901472D01*
X66383126Y-73840281D01*
X66383124Y-73840280D01*
X66383121Y-73840279D01*
X66250002Y-73819196D01*
X66249998Y-73819196D01*
X66116878Y-73840279D01*
X65996778Y-73901473D01*
X65996774Y-73901476D01*
X65901476Y-73996774D01*
X65901473Y-73996778D01*
X65840279Y-74116878D01*
X65819196Y-74249997D01*
X64930804Y-74249997D01*
X64909720Y-74116878D01*
X64909719Y-74116876D01*
X64909719Y-74116874D01*
X64848528Y-73996780D01*
X64848526Y-73996778D01*
X64848523Y-73996774D01*
X64753225Y-73901476D01*
X64753221Y-73901473D01*
X64753220Y-73901472D01*
X64633126Y-73840281D01*
X64633124Y-73840280D01*
X64633121Y-73840279D01*
X64500002Y-73819196D01*
X64499998Y-73819196D01*
X64366878Y-73840279D01*
X64246778Y-73901473D01*
X64246774Y-73901476D01*
X64151476Y-73996774D01*
X64151473Y-73996778D01*
X64090279Y-74116878D01*
X64069196Y-74249997D01*
X63100167Y-74249997D01*
X63098528Y-74246780D01*
X63098526Y-74246778D01*
X63098523Y-74246774D01*
X63003225Y-74151476D01*
X63003221Y-74151473D01*
X63003220Y-74151472D01*
X62883126Y-74090281D01*
X62883124Y-74090280D01*
X62883121Y-74090279D01*
X62750002Y-74069196D01*
X62749998Y-74069196D01*
X62616878Y-74090279D01*
X62616874Y-74090280D01*
X62616874Y-74090281D01*
X62536811Y-74131075D01*
X62496778Y-74151473D01*
X62496774Y-74151476D01*
X62401476Y-74246774D01*
X62401473Y-74246778D01*
X62340279Y-74366878D01*
X62319196Y-74499997D01*
X61930804Y-74499997D01*
X61909720Y-74366878D01*
X61909719Y-74366876D01*
X61909719Y-74366874D01*
X61848528Y-74246780D01*
X61848526Y-74246778D01*
X61848523Y-74246774D01*
X61753225Y-74151476D01*
X61753221Y-74151473D01*
X61753220Y-74151472D01*
X61633126Y-74090281D01*
X61633124Y-74090280D01*
X61633121Y-74090279D01*
X61500002Y-74069196D01*
X61499998Y-74069196D01*
X61366878Y-74090279D01*
X61366874Y-74090280D01*
X61366874Y-74090281D01*
X61286811Y-74131075D01*
X61246778Y-74151473D01*
X61246774Y-74151476D01*
X61151476Y-74246774D01*
X61151473Y-74246778D01*
X61090279Y-74366878D01*
X61069196Y-74499997D01*
X47466450Y-74499997D01*
X47641446Y-74325001D01*
X47641446Y-74324999D01*
X47350001Y-74033553D01*
X47350000Y-74033553D01*
X47058553Y-74325000D01*
X46671446Y-74325000D01*
X46671446Y-74324999D01*
X46380001Y-74033553D01*
X46380000Y-74033553D01*
X46088553Y-74325000D01*
X24488390Y-74325000D01*
X24552456Y-74313024D01*
X24742637Y-74239348D01*
X24916041Y-74131981D01*
X25066764Y-73994579D01*
X25189673Y-73831821D01*
X25265272Y-73679997D01*
X45574938Y-73679997D01*
X45574938Y-73680002D01*
X45595121Y-73859138D01*
X45654665Y-74029304D01*
X45663338Y-74043107D01*
X46026446Y-73680000D01*
X46026446Y-73679999D01*
X45996610Y-73650163D01*
X46230000Y-73650163D01*
X46230000Y-73709837D01*
X46252836Y-73764968D01*
X46295032Y-73807164D01*
X46350163Y-73830000D01*
X46409837Y-73830000D01*
X46464968Y-73807164D01*
X46507164Y-73764968D01*
X46530000Y-73709837D01*
X46530000Y-73679999D01*
X46733553Y-73679999D01*
X46865000Y-73811446D01*
X46996446Y-73680001D01*
X46996446Y-73680000D01*
X46966609Y-73650163D01*
X47200000Y-73650163D01*
X47200000Y-73709837D01*
X47222836Y-73764968D01*
X47265032Y-73807164D01*
X47320163Y-73830000D01*
X47379837Y-73830000D01*
X47434968Y-73807164D01*
X47477164Y-73764968D01*
X47500000Y-73709837D01*
X47500000Y-73680000D01*
X47703553Y-73680000D01*
X48066660Y-74043106D01*
X48066661Y-74043106D01*
X48075334Y-74029306D01*
X48075334Y-74029305D01*
X48134877Y-73859141D01*
X48134878Y-73859138D01*
X48155062Y-73680002D01*
X48155062Y-73679997D01*
X48134878Y-73500861D01*
X48075333Y-73330692D01*
X48066661Y-73316892D01*
X48066660Y-73316892D01*
X47703553Y-73680000D01*
X47500000Y-73680000D01*
X47500000Y-73650163D01*
X47477164Y-73595032D01*
X47434968Y-73552836D01*
X47379837Y-73530000D01*
X47320163Y-73530000D01*
X47265032Y-73552836D01*
X47222836Y-73595032D01*
X47200000Y-73650163D01*
X46966609Y-73650163D01*
X46865000Y-73548553D01*
X46733553Y-73679999D01*
X46530000Y-73679999D01*
X46530000Y-73650163D01*
X46507164Y-73595032D01*
X46464968Y-73552836D01*
X46409837Y-73530000D01*
X46350163Y-73530000D01*
X46295032Y-73552836D01*
X46252836Y-73595032D01*
X46230000Y-73650163D01*
X45996610Y-73650163D01*
X45663338Y-73316891D01*
X45663337Y-73316891D01*
X45654667Y-73330691D01*
X45654662Y-73330701D01*
X45595122Y-73500858D01*
X45595121Y-73500861D01*
X45574938Y-73679997D01*
X25265272Y-73679997D01*
X25280582Y-73649250D01*
X25336397Y-73453083D01*
X25355215Y-73250000D01*
X25336397Y-73046917D01*
X25312616Y-72963337D01*
X46016891Y-72963337D01*
X46016891Y-72963338D01*
X46380000Y-73326446D01*
X46380001Y-73326446D01*
X46743106Y-72963338D01*
X46986891Y-72963338D01*
X47350000Y-73326446D01*
X47350001Y-73326446D01*
X47713107Y-72963338D01*
X47699304Y-72954665D01*
X47529138Y-72895121D01*
X47350003Y-72874938D01*
X47349997Y-72874938D01*
X47170861Y-72895121D01*
X47170858Y-72895122D01*
X47000701Y-72954662D01*
X47000691Y-72954667D01*
X46986891Y-72963338D01*
X46743106Y-72963338D01*
X46729304Y-72954665D01*
X46559138Y-72895121D01*
X46380003Y-72874938D01*
X46379997Y-72874938D01*
X46200861Y-72895121D01*
X46200858Y-72895122D01*
X46030701Y-72954662D01*
X46030691Y-72954667D01*
X46016891Y-72963337D01*
X25312616Y-72963337D01*
X25280582Y-72850750D01*
X25256215Y-72801815D01*
X25223731Y-72736577D01*
X25189673Y-72668179D01*
X25066764Y-72505421D01*
X25066762Y-72505418D01*
X24916041Y-72368019D01*
X24916039Y-72368017D01*
X24742642Y-72260655D01*
X24742635Y-72260651D01*
X24711527Y-72248600D01*
X44167325Y-72248600D01*
X44167325Y-72248601D01*
X44186245Y-72392309D01*
X44186246Y-72392313D01*
X44241712Y-72526223D01*
X44241713Y-72526225D01*
X44241714Y-72526226D01*
X44329954Y-72641222D01*
X44444950Y-72729462D01*
X44578866Y-72784931D01*
X44705855Y-72801649D01*
X44722574Y-72803851D01*
X44722575Y-72803851D01*
X44722576Y-72803851D01*
X44738085Y-72801809D01*
X44866284Y-72784931D01*
X45000200Y-72729462D01*
X45115196Y-72641222D01*
X45203436Y-72526226D01*
X45258905Y-72392310D01*
X45277825Y-72248601D01*
X45258905Y-72104892D01*
X45207531Y-71980862D01*
X45203437Y-71970978D01*
X45203436Y-71970977D01*
X45203436Y-71970976D01*
X45115196Y-71855980D01*
X45000200Y-71767740D01*
X45000199Y-71767739D01*
X45000197Y-71767738D01*
X44866287Y-71712272D01*
X44866285Y-71712271D01*
X44866284Y-71712271D01*
X44794429Y-71702811D01*
X44722576Y-71693351D01*
X44722574Y-71693351D01*
X44578866Y-71712271D01*
X44578862Y-71712272D01*
X44444952Y-71767738D01*
X44329954Y-71855980D01*
X44241712Y-71970978D01*
X44186246Y-72104888D01*
X44186245Y-72104892D01*
X44167325Y-72248600D01*
X24711527Y-72248600D01*
X24586070Y-72199998D01*
X24552456Y-72186976D01*
X24351976Y-72149500D01*
X24148024Y-72149500D01*
X23947544Y-72186976D01*
X23947541Y-72186976D01*
X23947541Y-72186977D01*
X23757364Y-72260651D01*
X23757357Y-72260655D01*
X23583960Y-72368017D01*
X23583958Y-72368019D01*
X23433237Y-72505418D01*
X23310327Y-72668178D01*
X23219422Y-72850739D01*
X23219417Y-72850752D01*
X23163602Y-73046917D01*
X23144785Y-73249999D01*
X21500000Y-73249999D01*
X21500000Y-69790247D01*
X23149500Y-69790247D01*
X23149500Y-71629752D01*
X23161131Y-71688229D01*
X23161132Y-71688230D01*
X23205447Y-71754552D01*
X23271769Y-71798867D01*
X23271770Y-71798868D01*
X23330247Y-71810499D01*
X23330250Y-71810500D01*
X23330252Y-71810500D01*
X25169750Y-71810500D01*
X25169751Y-71810499D01*
X25184568Y-71807552D01*
X25228229Y-71798868D01*
X25228229Y-71798867D01*
X25228231Y-71798867D01*
X25294552Y-71754552D01*
X25338867Y-71688231D01*
X25338867Y-71688229D01*
X25338868Y-71688229D01*
X25350499Y-71629752D01*
X25350500Y-71629750D01*
X25350500Y-70999997D01*
X69695034Y-70999997D01*
X69695034Y-71000002D01*
X69714858Y-71226599D01*
X69714860Y-71226610D01*
X69773730Y-71446317D01*
X69773735Y-71446331D01*
X69869863Y-71652478D01*
X69920974Y-71725472D01*
X70600000Y-71046446D01*
X70600000Y-71052661D01*
X70627259Y-71154394D01*
X70679920Y-71245606D01*
X70754394Y-71320080D01*
X70845606Y-71372741D01*
X70947339Y-71400000D01*
X70953553Y-71400000D01*
X70274526Y-72079025D01*
X70347513Y-72130132D01*
X70347521Y-72130136D01*
X70553668Y-72226264D01*
X70553682Y-72226269D01*
X70773389Y-72285139D01*
X70773400Y-72285141D01*
X70999998Y-72304966D01*
X71000002Y-72304966D01*
X71226599Y-72285141D01*
X71226610Y-72285139D01*
X71446317Y-72226269D01*
X71446331Y-72226264D01*
X71652478Y-72130136D01*
X71725471Y-72079024D01*
X71046447Y-71400000D01*
X71052661Y-71400000D01*
X71154394Y-71372741D01*
X71245606Y-71320080D01*
X71320080Y-71245606D01*
X71372741Y-71154394D01*
X71400000Y-71052661D01*
X71400000Y-71046447D01*
X72079024Y-71725471D01*
X72130136Y-71652478D01*
X72201238Y-71500000D01*
X76944750Y-71500000D01*
X76961832Y-71629752D01*
X76963670Y-71643708D01*
X76963671Y-71643712D01*
X77019137Y-71777622D01*
X77019138Y-71777624D01*
X77019139Y-71777625D01*
X77107379Y-71892621D01*
X77222375Y-71980861D01*
X77356291Y-72036330D01*
X77483280Y-72053048D01*
X77499999Y-72055250D01*
X77500000Y-72055250D01*
X77500001Y-72055250D01*
X77514977Y-72053278D01*
X77643709Y-72036330D01*
X77777625Y-71980861D01*
X77892621Y-71892621D01*
X77980861Y-71777625D01*
X78036330Y-71643709D01*
X78055250Y-71500000D01*
X78036330Y-71356291D01*
X77992844Y-71251305D01*
X77980862Y-71222377D01*
X77980861Y-71222376D01*
X77980861Y-71222375D01*
X77892621Y-71107379D01*
X77777625Y-71019139D01*
X77777624Y-71019138D01*
X77777622Y-71019137D01*
X77643712Y-70963671D01*
X77643710Y-70963670D01*
X77643709Y-70963670D01*
X77571854Y-70954210D01*
X77500001Y-70944750D01*
X77499999Y-70944750D01*
X77356291Y-70963670D01*
X77356287Y-70963671D01*
X77222377Y-71019137D01*
X77107379Y-71107379D01*
X77019137Y-71222377D01*
X76963671Y-71356287D01*
X76963670Y-71356291D01*
X76944750Y-71500000D01*
X72201238Y-71500000D01*
X72226264Y-71446331D01*
X72226269Y-71446317D01*
X72285139Y-71226610D01*
X72285141Y-71226599D01*
X72304966Y-71000002D01*
X72304966Y-70999997D01*
X72285141Y-70773400D01*
X72285139Y-70773389D01*
X72226269Y-70553682D01*
X72226264Y-70553668D01*
X72130136Y-70347521D01*
X72130132Y-70347513D01*
X72079025Y-70274526D01*
X71400000Y-70953551D01*
X71400000Y-70947339D01*
X71372741Y-70845606D01*
X71320080Y-70754394D01*
X71245606Y-70679920D01*
X71154394Y-70627259D01*
X71052661Y-70600000D01*
X71046448Y-70600000D01*
X71725472Y-69920974D01*
X71652478Y-69869863D01*
X71446331Y-69773735D01*
X71446317Y-69773730D01*
X71226610Y-69714860D01*
X71226599Y-69714858D01*
X71000002Y-69695034D01*
X70999998Y-69695034D01*
X70773400Y-69714858D01*
X70773389Y-69714860D01*
X70553682Y-69773730D01*
X70553673Y-69773734D01*
X70347516Y-69869866D01*
X70347512Y-69869868D01*
X70274526Y-69920973D01*
X70274526Y-69920974D01*
X70953553Y-70600000D01*
X70947339Y-70600000D01*
X70845606Y-70627259D01*
X70754394Y-70679920D01*
X70679920Y-70754394D01*
X70627259Y-70845606D01*
X70600000Y-70947339D01*
X70600000Y-70953552D01*
X69920974Y-70274526D01*
X69920973Y-70274526D01*
X69869868Y-70347512D01*
X69869866Y-70347516D01*
X69773734Y-70553673D01*
X69773730Y-70553682D01*
X69714860Y-70773389D01*
X69714858Y-70773400D01*
X69695034Y-70999997D01*
X25350500Y-70999997D01*
X25350500Y-69790249D01*
X25350499Y-69790247D01*
X25338868Y-69731770D01*
X25338867Y-69731769D01*
X25294552Y-69665447D01*
X25228230Y-69621132D01*
X25228229Y-69621131D01*
X25169752Y-69609500D01*
X25169748Y-69609500D01*
X23330252Y-69609500D01*
X23330247Y-69609500D01*
X23271770Y-69621131D01*
X23271769Y-69621132D01*
X23205447Y-69665447D01*
X23161132Y-69731769D01*
X23161131Y-69731770D01*
X23149500Y-69790247D01*
X21500000Y-69790247D01*
X21500000Y-68390000D01*
X90494659Y-68390000D01*
X90513975Y-68586129D01*
X90513976Y-68586132D01*
X90561803Y-68743797D01*
X90571188Y-68774733D01*
X90664086Y-68948532D01*
X90664090Y-68948539D01*
X90789116Y-69100883D01*
X90941460Y-69225909D01*
X90941467Y-69225913D01*
X91115266Y-69318811D01*
X91115269Y-69318811D01*
X91115273Y-69318814D01*
X91303868Y-69376024D01*
X91500000Y-69395341D01*
X91696132Y-69376024D01*
X91884727Y-69318814D01*
X92058538Y-69225910D01*
X92210883Y-69100883D01*
X92335910Y-68948538D01*
X92428814Y-68774727D01*
X92486024Y-68586132D01*
X92505341Y-68390000D01*
X92486024Y-68193868D01*
X92428814Y-68005273D01*
X92428811Y-68005269D01*
X92428811Y-68005266D01*
X92335913Y-67831467D01*
X92335909Y-67831460D01*
X92210883Y-67679116D01*
X92058539Y-67554090D01*
X92058532Y-67554086D01*
X91884733Y-67461188D01*
X91884727Y-67461186D01*
X91696132Y-67403976D01*
X91696129Y-67403975D01*
X91500000Y-67384659D01*
X91303870Y-67403975D01*
X91115266Y-67461188D01*
X90941467Y-67554086D01*
X90941460Y-67554090D01*
X90789116Y-67679116D01*
X90664090Y-67831460D01*
X90664086Y-67831467D01*
X90571188Y-68005266D01*
X90513975Y-68193870D01*
X90494659Y-68390000D01*
X21500000Y-68390000D01*
X21500000Y-68124000D01*
X21519685Y-68056961D01*
X21572489Y-68011206D01*
X21624000Y-68000000D01*
X39500000Y-68000000D01*
X39500000Y-67736088D01*
X43055287Y-67736088D01*
X43055287Y-67736093D01*
X43076370Y-67869212D01*
X43076371Y-67869215D01*
X43076372Y-67869217D01*
X43137563Y-67989311D01*
X43137564Y-67989312D01*
X43137567Y-67989316D01*
X43232865Y-68084614D01*
X43232869Y-68084617D01*
X43232871Y-68084619D01*
X43352965Y-68145810D01*
X43352967Y-68145810D01*
X43352969Y-68145811D01*
X43486089Y-68166895D01*
X43486091Y-68166895D01*
X43486093Y-68166895D01*
X43619212Y-68145811D01*
X43619212Y-68145810D01*
X43619217Y-68145810D01*
X43739311Y-68084619D01*
X43834619Y-67989311D01*
X43895810Y-67869217D01*
X43897851Y-67856329D01*
X43916895Y-67736093D01*
X43916895Y-67736088D01*
X43895811Y-67602969D01*
X43895810Y-67602967D01*
X43895810Y-67602965D01*
X43834619Y-67482871D01*
X43834617Y-67482869D01*
X43834614Y-67482865D01*
X43739316Y-67387567D01*
X43739312Y-67387564D01*
X43739311Y-67387563D01*
X43619217Y-67326372D01*
X43619215Y-67326371D01*
X43619212Y-67326370D01*
X43486093Y-67305287D01*
X43486089Y-67305287D01*
X43352969Y-67326370D01*
X43232869Y-67387564D01*
X43232865Y-67387567D01*
X43137567Y-67482865D01*
X43137564Y-67482869D01*
X43076370Y-67602969D01*
X43055287Y-67736088D01*
X39500000Y-67736088D01*
X39500000Y-66729999D01*
X75674750Y-66729999D01*
X75674750Y-66730000D01*
X75693670Y-66873708D01*
X75693671Y-66873712D01*
X75749137Y-67007622D01*
X75749138Y-67007624D01*
X75749139Y-67007625D01*
X75837379Y-67122621D01*
X75952375Y-67210861D01*
X76086291Y-67266330D01*
X76213280Y-67283048D01*
X76229999Y-67285250D01*
X76230000Y-67285250D01*
X76230001Y-67285250D01*
X76244977Y-67283278D01*
X76373709Y-67266330D01*
X76507625Y-67210861D01*
X76622621Y-67122621D01*
X76710861Y-67007625D01*
X76766330Y-66873709D01*
X76785250Y-66730000D01*
X76766330Y-66586291D01*
X76710861Y-66452375D01*
X76622621Y-66337379D01*
X76507625Y-66249139D01*
X76507624Y-66249138D01*
X76507622Y-66249137D01*
X76373712Y-66193671D01*
X76373710Y-66193670D01*
X76373709Y-66193670D01*
X76301854Y-66184210D01*
X76230001Y-66174750D01*
X76229999Y-66174750D01*
X76086291Y-66193670D01*
X76086287Y-66193671D01*
X75952377Y-66249137D01*
X75837379Y-66337379D01*
X75749137Y-66452377D01*
X75693671Y-66586287D01*
X75693670Y-66586291D01*
X75674750Y-66729999D01*
X39500000Y-66729999D01*
X39500000Y-63418073D01*
X42619818Y-63418073D01*
X42619818Y-63418080D01*
X42638423Y-63535554D01*
X42638423Y-63535555D01*
X42692427Y-63641543D01*
X42692430Y-63641547D01*
X42776528Y-63725645D01*
X42776532Y-63725648D01*
X42776534Y-63725650D01*
X42882517Y-63779651D01*
X42882519Y-63779651D01*
X42882521Y-63779652D01*
X42999996Y-63798258D01*
X42999999Y-63798258D01*
X43000002Y-63798258D01*
X43117476Y-63779652D01*
X43117477Y-63779652D01*
X43117478Y-63779651D01*
X43117481Y-63779651D01*
X43223464Y-63725650D01*
X43307572Y-63641542D01*
X43361573Y-63535559D01*
X43375705Y-63446331D01*
X43380180Y-63418080D01*
X43380180Y-63418073D01*
X43361574Y-63300599D01*
X43361574Y-63300598D01*
X43361573Y-63300596D01*
X43361573Y-63300595D01*
X43307572Y-63194612D01*
X43307570Y-63194610D01*
X43307567Y-63194606D01*
X43223469Y-63110508D01*
X43223465Y-63110505D01*
X43223464Y-63110504D01*
X43117481Y-63056503D01*
X43117479Y-63056502D01*
X43117476Y-63056501D01*
X43000002Y-63037896D01*
X42999996Y-63037896D01*
X42882521Y-63056501D01*
X42882520Y-63056501D01*
X42776532Y-63110505D01*
X42776528Y-63110508D01*
X42692430Y-63194606D01*
X42692427Y-63194610D01*
X42638423Y-63300598D01*
X42638423Y-63300599D01*
X42619818Y-63418073D01*
X39500000Y-63418073D01*
X39500000Y-62999997D01*
X69695034Y-62999997D01*
X69695034Y-63000002D01*
X69714858Y-63226599D01*
X69714860Y-63226610D01*
X69773730Y-63446317D01*
X69773735Y-63446331D01*
X69869863Y-63652478D01*
X69920974Y-63725472D01*
X70600000Y-63046446D01*
X70600000Y-63052661D01*
X70627259Y-63154394D01*
X70679920Y-63245606D01*
X70754394Y-63320080D01*
X70845606Y-63372741D01*
X70947339Y-63400000D01*
X70953553Y-63400000D01*
X70274526Y-64079025D01*
X70347513Y-64130132D01*
X70347521Y-64130136D01*
X70553668Y-64226264D01*
X70553682Y-64226269D01*
X70773389Y-64285139D01*
X70773400Y-64285141D01*
X70999998Y-64304966D01*
X71000002Y-64304966D01*
X71226599Y-64285141D01*
X71226610Y-64285139D01*
X71446317Y-64226269D01*
X71446331Y-64226264D01*
X71652478Y-64130136D01*
X71725471Y-64079024D01*
X71046447Y-63400000D01*
X71052661Y-63400000D01*
X71154394Y-63372741D01*
X71245606Y-63320080D01*
X71320080Y-63245606D01*
X71372741Y-63154394D01*
X71400000Y-63052661D01*
X71400000Y-63046447D01*
X72079024Y-63725471D01*
X72130136Y-63652478D01*
X72226264Y-63446331D01*
X72226269Y-63446317D01*
X72241359Y-63390000D01*
X90494659Y-63390000D01*
X90513975Y-63586129D01*
X90571188Y-63774733D01*
X90664086Y-63948532D01*
X90664090Y-63948539D01*
X90789116Y-64100883D01*
X90941460Y-64225909D01*
X90941467Y-64225913D01*
X91115266Y-64318811D01*
X91115269Y-64318811D01*
X91115273Y-64318814D01*
X91303868Y-64376024D01*
X91500000Y-64395341D01*
X91696132Y-64376024D01*
X91884727Y-64318814D01*
X91947729Y-64285139D01*
X92057866Y-64226269D01*
X92058538Y-64225910D01*
X92210883Y-64100883D01*
X92335910Y-63948538D01*
X92382362Y-63861632D01*
X92428811Y-63774733D01*
X92428811Y-63774732D01*
X92428814Y-63774727D01*
X92486024Y-63586132D01*
X92505341Y-63390000D01*
X92486024Y-63193868D01*
X92428814Y-63005273D01*
X92428811Y-63005269D01*
X92428811Y-63005266D01*
X92335913Y-62831467D01*
X92335909Y-62831460D01*
X92210883Y-62679116D01*
X92058539Y-62554090D01*
X92058532Y-62554086D01*
X91884733Y-62461188D01*
X91884727Y-62461186D01*
X91696132Y-62403976D01*
X91696129Y-62403975D01*
X91500000Y-62384659D01*
X91303870Y-62403975D01*
X91115266Y-62461188D01*
X90941467Y-62554086D01*
X90941460Y-62554090D01*
X90789116Y-62679116D01*
X90664090Y-62831460D01*
X90664086Y-62831467D01*
X90571188Y-63005266D01*
X90513975Y-63193870D01*
X90494659Y-63390000D01*
X72241359Y-63390000D01*
X72285139Y-63226610D01*
X72285141Y-63226599D01*
X72304966Y-63000002D01*
X72304966Y-62999997D01*
X72285141Y-62773400D01*
X72285139Y-62773389D01*
X72226269Y-62553682D01*
X72226264Y-62553668D01*
X72178005Y-62450177D01*
X78230864Y-62450177D01*
X78230864Y-62450178D01*
X78249784Y-62593886D01*
X78249785Y-62593890D01*
X78305251Y-62727800D01*
X78305252Y-62727802D01*
X78305253Y-62727803D01*
X78393493Y-62842799D01*
X78508489Y-62931039D01*
X78642405Y-62986508D01*
X78769394Y-63003226D01*
X78786113Y-63005428D01*
X78786114Y-63005428D01*
X78786115Y-63005428D01*
X78801091Y-63003456D01*
X78929823Y-62986508D01*
X79063739Y-62931039D01*
X79178735Y-62842799D01*
X79266975Y-62727803D01*
X79322444Y-62593887D01*
X79341364Y-62450178D01*
X79322444Y-62306469D01*
X79266975Y-62172553D01*
X79178735Y-62057557D01*
X79063739Y-61969317D01*
X79063738Y-61969316D01*
X79063736Y-61969315D01*
X78929826Y-61913849D01*
X78929824Y-61913848D01*
X78929823Y-61913848D01*
X78857968Y-61904388D01*
X78786115Y-61894928D01*
X78786113Y-61894928D01*
X78642405Y-61913848D01*
X78642401Y-61913849D01*
X78508491Y-61969315D01*
X78393493Y-62057557D01*
X78305251Y-62172555D01*
X78249785Y-62306465D01*
X78249784Y-62306469D01*
X78230864Y-62450177D01*
X72178005Y-62450177D01*
X72130136Y-62347521D01*
X72130132Y-62347513D01*
X72079025Y-62274526D01*
X71400000Y-62953551D01*
X71400000Y-62947339D01*
X71372741Y-62845606D01*
X71320080Y-62754394D01*
X71245606Y-62679920D01*
X71154394Y-62627259D01*
X71052661Y-62600000D01*
X71046448Y-62600000D01*
X71725472Y-61920974D01*
X71652478Y-61869863D01*
X71446331Y-61773735D01*
X71446317Y-61773730D01*
X71226610Y-61714860D01*
X71226599Y-61714858D01*
X71000002Y-61695034D01*
X70999998Y-61695034D01*
X70773400Y-61714858D01*
X70773389Y-61714860D01*
X70553682Y-61773730D01*
X70553673Y-61773734D01*
X70347516Y-61869866D01*
X70347512Y-61869868D01*
X70274526Y-61920973D01*
X70274526Y-61920974D01*
X70953553Y-62600000D01*
X70947339Y-62600000D01*
X70845606Y-62627259D01*
X70754394Y-62679920D01*
X70679920Y-62754394D01*
X70627259Y-62845606D01*
X70600000Y-62947339D01*
X70600000Y-62953552D01*
X69920974Y-62274526D01*
X69920973Y-62274526D01*
X69869868Y-62347512D01*
X69869866Y-62347516D01*
X69773734Y-62553673D01*
X69773730Y-62553682D01*
X69714860Y-62773389D01*
X69714858Y-62773400D01*
X69695034Y-62999997D01*
X39500000Y-62999997D01*
X39500000Y-62462496D01*
X49394819Y-62462496D01*
X49394819Y-62462503D01*
X49413424Y-62579977D01*
X49413424Y-62579978D01*
X49413425Y-62579981D01*
X49413426Y-62579982D01*
X49463937Y-62679116D01*
X49467428Y-62685966D01*
X49467431Y-62685970D01*
X49551529Y-62770068D01*
X49551533Y-62770071D01*
X49551535Y-62770073D01*
X49657518Y-62824074D01*
X49657520Y-62824074D01*
X49657522Y-62824075D01*
X49774997Y-62842681D01*
X49775000Y-62842681D01*
X49775003Y-62842681D01*
X49892477Y-62824075D01*
X49892478Y-62824075D01*
X49892479Y-62824074D01*
X49892482Y-62824074D01*
X49998465Y-62770073D01*
X50082573Y-62685965D01*
X50136574Y-62579982D01*
X50140675Y-62554090D01*
X50155181Y-62462503D01*
X50155181Y-62462496D01*
X51894819Y-62462496D01*
X51894819Y-62462503D01*
X51913424Y-62579977D01*
X51913424Y-62579978D01*
X51913425Y-62579981D01*
X51913426Y-62579982D01*
X51963937Y-62679116D01*
X51967428Y-62685966D01*
X51967431Y-62685970D01*
X52051529Y-62770068D01*
X52051533Y-62770071D01*
X52051535Y-62770073D01*
X52157518Y-62824074D01*
X52157520Y-62824074D01*
X52157522Y-62824075D01*
X52274997Y-62842681D01*
X52275000Y-62842681D01*
X52275003Y-62842681D01*
X52392477Y-62824075D01*
X52392478Y-62824075D01*
X52392479Y-62824074D01*
X52392482Y-62824074D01*
X52498465Y-62770073D01*
X52582573Y-62685965D01*
X52636574Y-62579982D01*
X52640675Y-62554090D01*
X52655181Y-62462503D01*
X52655181Y-62462496D01*
X52636575Y-62345022D01*
X52636575Y-62345021D01*
X52636574Y-62345019D01*
X52636574Y-62345018D01*
X52582573Y-62239035D01*
X52582571Y-62239033D01*
X52582568Y-62239029D01*
X52498470Y-62154931D01*
X52498466Y-62154928D01*
X52498465Y-62154927D01*
X52392482Y-62100926D01*
X52392480Y-62100925D01*
X52392477Y-62100924D01*
X52275003Y-62082319D01*
X52274997Y-62082319D01*
X52157522Y-62100924D01*
X52157521Y-62100924D01*
X52051533Y-62154928D01*
X52051529Y-62154931D01*
X51967431Y-62239029D01*
X51967428Y-62239033D01*
X51913424Y-62345021D01*
X51913424Y-62345022D01*
X51894819Y-62462496D01*
X50155181Y-62462496D01*
X50136575Y-62345022D01*
X50136575Y-62345021D01*
X50136574Y-62345019D01*
X50136574Y-62345018D01*
X50082573Y-62239035D01*
X50082571Y-62239033D01*
X50082568Y-62239029D01*
X49998470Y-62154931D01*
X49998466Y-62154928D01*
X49998465Y-62154927D01*
X49892482Y-62100926D01*
X49892480Y-62100925D01*
X49892477Y-62100924D01*
X49775003Y-62082319D01*
X49774997Y-62082319D01*
X49657522Y-62100924D01*
X49657521Y-62100924D01*
X49551533Y-62154928D01*
X49551529Y-62154931D01*
X49467431Y-62239029D01*
X49467428Y-62239033D01*
X49413424Y-62345021D01*
X49413424Y-62345022D01*
X49394819Y-62462496D01*
X39500000Y-62462496D01*
X39500000Y-59857789D01*
X45423715Y-59857789D01*
X45423715Y-59857796D01*
X45442320Y-59975270D01*
X45442320Y-59975271D01*
X45496324Y-60081259D01*
X45496327Y-60081263D01*
X45580425Y-60165361D01*
X45580429Y-60165364D01*
X45580431Y-60165366D01*
X45686414Y-60219367D01*
X45686416Y-60219367D01*
X45686418Y-60219368D01*
X45803893Y-60237974D01*
X45803896Y-60237974D01*
X45803899Y-60237974D01*
X45921373Y-60219368D01*
X45921374Y-60219368D01*
X45921375Y-60219367D01*
X45921378Y-60219367D01*
X46027361Y-60165366D01*
X46111469Y-60081258D01*
X46165470Y-59975275D01*
X46165471Y-59975270D01*
X46184077Y-59857796D01*
X46184077Y-59857789D01*
X46165471Y-59740315D01*
X46165471Y-59740314D01*
X46165470Y-59740312D01*
X46165470Y-59740311D01*
X46113083Y-59637496D01*
X50369819Y-59637496D01*
X50369819Y-59637503D01*
X50388424Y-59754977D01*
X50388424Y-59754978D01*
X50388425Y-59754981D01*
X50388426Y-59754982D01*
X50440812Y-59857796D01*
X50442428Y-59860966D01*
X50442431Y-59860970D01*
X50526529Y-59945068D01*
X50526533Y-59945071D01*
X50526535Y-59945073D01*
X50632518Y-59999074D01*
X50632520Y-59999074D01*
X50632522Y-59999075D01*
X50749997Y-60017681D01*
X50750000Y-60017681D01*
X50750003Y-60017681D01*
X50867477Y-59999075D01*
X50867478Y-59999075D01*
X50867479Y-59999074D01*
X50867482Y-59999074D01*
X50973465Y-59945073D01*
X51057573Y-59860965D01*
X51111574Y-59754982D01*
X51120895Y-59696132D01*
X51130181Y-59637503D01*
X51130181Y-59637496D01*
X52869819Y-59637496D01*
X52869819Y-59637503D01*
X52888424Y-59754977D01*
X52888424Y-59754978D01*
X52888425Y-59754981D01*
X52888426Y-59754982D01*
X52940812Y-59857796D01*
X52942428Y-59860966D01*
X52942431Y-59860970D01*
X53026529Y-59945068D01*
X53026533Y-59945071D01*
X53026535Y-59945073D01*
X53132518Y-59999074D01*
X53132520Y-59999074D01*
X53132522Y-59999075D01*
X53249997Y-60017681D01*
X53250000Y-60017681D01*
X53250003Y-60017681D01*
X53367477Y-59999075D01*
X53367478Y-59999075D01*
X53367479Y-59999074D01*
X53367482Y-59999074D01*
X53473465Y-59945073D01*
X53557573Y-59860965D01*
X53611574Y-59754982D01*
X53620895Y-59696132D01*
X53630181Y-59637503D01*
X53630181Y-59637496D01*
X53611575Y-59520022D01*
X53611575Y-59520021D01*
X53611574Y-59520019D01*
X53611574Y-59520018D01*
X53601374Y-59500000D01*
X75224659Y-59500000D01*
X75243975Y-59696129D01*
X75243976Y-59696132D01*
X75293014Y-59857789D01*
X75301188Y-59884733D01*
X75394086Y-60058532D01*
X75394090Y-60058539D01*
X75519116Y-60210883D01*
X75671460Y-60335909D01*
X75671467Y-60335913D01*
X75845266Y-60428811D01*
X75845269Y-60428811D01*
X75845273Y-60428814D01*
X76033868Y-60486024D01*
X76230000Y-60505341D01*
X76426132Y-60486024D01*
X76614727Y-60428814D01*
X76788538Y-60335910D01*
X76940883Y-60210883D01*
X77065910Y-60058538D01*
X77158814Y-59884727D01*
X77216024Y-59696132D01*
X77235341Y-59500000D01*
X80224659Y-59500000D01*
X80243975Y-59696129D01*
X80243976Y-59696132D01*
X80293014Y-59857789D01*
X80301188Y-59884733D01*
X80394086Y-60058532D01*
X80394090Y-60058539D01*
X80519116Y-60210883D01*
X80671460Y-60335909D01*
X80671467Y-60335913D01*
X80845266Y-60428811D01*
X80845269Y-60428811D01*
X80845273Y-60428814D01*
X81033868Y-60486024D01*
X81230000Y-60505341D01*
X81426132Y-60486024D01*
X81614727Y-60428814D01*
X81788538Y-60335910D01*
X81940883Y-60210883D01*
X82065910Y-60058538D01*
X82158814Y-59884727D01*
X82216024Y-59696132D01*
X82235341Y-59500000D01*
X82216024Y-59303868D01*
X82158814Y-59115273D01*
X82158811Y-59115269D01*
X82158811Y-59115266D01*
X82065913Y-58941467D01*
X82065909Y-58941460D01*
X81940883Y-58789116D01*
X81788539Y-58664090D01*
X81788532Y-58664086D01*
X81614733Y-58571188D01*
X81614727Y-58571186D01*
X81426132Y-58513976D01*
X81426129Y-58513975D01*
X81230000Y-58494659D01*
X81033870Y-58513975D01*
X80845266Y-58571188D01*
X80671467Y-58664086D01*
X80671460Y-58664090D01*
X80519116Y-58789116D01*
X80394090Y-58941460D01*
X80394086Y-58941467D01*
X80301188Y-59115266D01*
X80243975Y-59303870D01*
X80224659Y-59500000D01*
X77235341Y-59500000D01*
X77216024Y-59303868D01*
X77158814Y-59115273D01*
X77158811Y-59115269D01*
X77158811Y-59115266D01*
X77065913Y-58941467D01*
X77065909Y-58941460D01*
X76940883Y-58789116D01*
X76788539Y-58664090D01*
X76788532Y-58664086D01*
X76614733Y-58571188D01*
X76614727Y-58571186D01*
X76426132Y-58513976D01*
X76426129Y-58513975D01*
X76230000Y-58494659D01*
X76033870Y-58513975D01*
X75845266Y-58571188D01*
X75671467Y-58664086D01*
X75671460Y-58664090D01*
X75519116Y-58789116D01*
X75394090Y-58941460D01*
X75394086Y-58941467D01*
X75301188Y-59115266D01*
X75243975Y-59303870D01*
X75224659Y-59500000D01*
X53601374Y-59500000D01*
X53557573Y-59414035D01*
X53557571Y-59414033D01*
X53557568Y-59414029D01*
X53473470Y-59329931D01*
X53473466Y-59329928D01*
X53473465Y-59329927D01*
X53367482Y-59275926D01*
X53367480Y-59275925D01*
X53367477Y-59275924D01*
X53250003Y-59257319D01*
X53249997Y-59257319D01*
X53132522Y-59275924D01*
X53132521Y-59275924D01*
X53026533Y-59329928D01*
X53026529Y-59329931D01*
X52942431Y-59414029D01*
X52942428Y-59414033D01*
X52888424Y-59520021D01*
X52888424Y-59520022D01*
X52869819Y-59637496D01*
X51130181Y-59637496D01*
X51111575Y-59520022D01*
X51111575Y-59520021D01*
X51111574Y-59520019D01*
X51111574Y-59520018D01*
X51057573Y-59414035D01*
X51057571Y-59414033D01*
X51057568Y-59414029D01*
X50973470Y-59329931D01*
X50973466Y-59329928D01*
X50973465Y-59329927D01*
X50867482Y-59275926D01*
X50867480Y-59275925D01*
X50867477Y-59275924D01*
X50750003Y-59257319D01*
X50749997Y-59257319D01*
X50632522Y-59275924D01*
X50632521Y-59275924D01*
X50526533Y-59329928D01*
X50526529Y-59329931D01*
X50442431Y-59414029D01*
X50442428Y-59414033D01*
X50388424Y-59520021D01*
X50388424Y-59520022D01*
X50369819Y-59637496D01*
X46113083Y-59637496D01*
X46111469Y-59634328D01*
X46111467Y-59634326D01*
X46111464Y-59634322D01*
X46027366Y-59550224D01*
X46027362Y-59550221D01*
X46027361Y-59550220D01*
X45921378Y-59496219D01*
X45921376Y-59496218D01*
X45921373Y-59496217D01*
X45803899Y-59477612D01*
X45803893Y-59477612D01*
X45686418Y-59496217D01*
X45686417Y-59496217D01*
X45580429Y-59550221D01*
X45580425Y-59550224D01*
X45496327Y-59634322D01*
X45496324Y-59634326D01*
X45442320Y-59740314D01*
X45442320Y-59740315D01*
X45423715Y-59857789D01*
X39500000Y-59857789D01*
X39500000Y-58662496D01*
X54394819Y-58662496D01*
X54394819Y-58662503D01*
X54413424Y-58779977D01*
X54413424Y-58779978D01*
X54413425Y-58779981D01*
X54413426Y-58779982D01*
X54465696Y-58882568D01*
X54467428Y-58885966D01*
X54467431Y-58885970D01*
X54551529Y-58970068D01*
X54551533Y-58970071D01*
X54551535Y-58970073D01*
X54657518Y-59024074D01*
X54657520Y-59024074D01*
X54657522Y-59024075D01*
X54774997Y-59042681D01*
X54775000Y-59042681D01*
X54775003Y-59042681D01*
X54892477Y-59024075D01*
X54892478Y-59024075D01*
X54892479Y-59024074D01*
X54892482Y-59024074D01*
X54998465Y-58970073D01*
X55082573Y-58885965D01*
X55136574Y-58779982D01*
X55147518Y-58710883D01*
X55155181Y-58662503D01*
X55155181Y-58662496D01*
X55141322Y-58574996D01*
X56894819Y-58574996D01*
X56894819Y-58575003D01*
X56913424Y-58692477D01*
X56913424Y-58692478D01*
X56913425Y-58692481D01*
X56913426Y-58692482D01*
X56962663Y-58789116D01*
X56967428Y-58798466D01*
X56967431Y-58798470D01*
X57051529Y-58882568D01*
X57051533Y-58882571D01*
X57051535Y-58882573D01*
X57157518Y-58936574D01*
X57157520Y-58936574D01*
X57157522Y-58936575D01*
X57274997Y-58955181D01*
X57275000Y-58955181D01*
X57275003Y-58955181D01*
X57392477Y-58936575D01*
X57392478Y-58936575D01*
X57392479Y-58936574D01*
X57392482Y-58936574D01*
X57498465Y-58882573D01*
X57582573Y-58798465D01*
X57636574Y-58692482D01*
X57641071Y-58664090D01*
X57655181Y-58575003D01*
X57655181Y-58574996D01*
X57636575Y-58457522D01*
X57636575Y-58457521D01*
X57636574Y-58457519D01*
X57636574Y-58457518D01*
X57582573Y-58351535D01*
X57582571Y-58351533D01*
X57582568Y-58351529D01*
X57498470Y-58267431D01*
X57498466Y-58267428D01*
X57498465Y-58267427D01*
X57392482Y-58213426D01*
X57392480Y-58213425D01*
X57392477Y-58213424D01*
X57275003Y-58194819D01*
X57274997Y-58194819D01*
X57157522Y-58213424D01*
X57157521Y-58213424D01*
X57051533Y-58267428D01*
X57051529Y-58267431D01*
X56967431Y-58351529D01*
X56967428Y-58351533D01*
X56913424Y-58457521D01*
X56913424Y-58457522D01*
X56894819Y-58574996D01*
X55141322Y-58574996D01*
X55136575Y-58545022D01*
X55136575Y-58545021D01*
X55136574Y-58545019D01*
X55136574Y-58545018D01*
X55082573Y-58439035D01*
X55082571Y-58439033D01*
X55082568Y-58439029D01*
X54998470Y-58354931D01*
X54998466Y-58354928D01*
X54998465Y-58354927D01*
X54892482Y-58300926D01*
X54892480Y-58300925D01*
X54892477Y-58300924D01*
X54775003Y-58282319D01*
X54774997Y-58282319D01*
X54657522Y-58300924D01*
X54657521Y-58300924D01*
X54551533Y-58354928D01*
X54551529Y-58354931D01*
X54467431Y-58439029D01*
X54467428Y-58439033D01*
X54413424Y-58545021D01*
X54413424Y-58545022D01*
X54394819Y-58662496D01*
X39500000Y-58662496D01*
X39500000Y-57999996D01*
X58721141Y-57999996D01*
X58721141Y-58000003D01*
X58739746Y-58117477D01*
X58739746Y-58117478D01*
X58739747Y-58117481D01*
X58739748Y-58117482D01*
X58779822Y-58196132D01*
X58793750Y-58223466D01*
X58793753Y-58223470D01*
X58877851Y-58307568D01*
X58877855Y-58307571D01*
X58877857Y-58307573D01*
X58983840Y-58361574D01*
X58983842Y-58361574D01*
X58983844Y-58361575D01*
X59101319Y-58380181D01*
X59101322Y-58380181D01*
X59101325Y-58380181D01*
X59218799Y-58361575D01*
X59218800Y-58361575D01*
X59218801Y-58361574D01*
X59218804Y-58361574D01*
X59324787Y-58307573D01*
X59408895Y-58223465D01*
X59462896Y-58117482D01*
X59481503Y-58000000D01*
X69994659Y-58000000D01*
X70013975Y-58196129D01*
X70019222Y-58213426D01*
X70062147Y-58354931D01*
X70071188Y-58384733D01*
X70164086Y-58558532D01*
X70164090Y-58558539D01*
X70289116Y-58710883D01*
X70441460Y-58835909D01*
X70441467Y-58835913D01*
X70615266Y-58928811D01*
X70615269Y-58928811D01*
X70615273Y-58928814D01*
X70803868Y-58986024D01*
X71000000Y-59005341D01*
X71196132Y-58986024D01*
X71384727Y-58928814D01*
X71558538Y-58835910D01*
X71710883Y-58710883D01*
X71835910Y-58558538D01*
X71928814Y-58384727D01*
X71986024Y-58196132D01*
X72005341Y-58000000D01*
X71986024Y-57803868D01*
X71928814Y-57615273D01*
X71928811Y-57615269D01*
X71928811Y-57615266D01*
X71835913Y-57441467D01*
X71835909Y-57441460D01*
X71710883Y-57289116D01*
X71558539Y-57164090D01*
X71558532Y-57164086D01*
X71384733Y-57071188D01*
X71384727Y-57071186D01*
X71196132Y-57013976D01*
X71196129Y-57013975D01*
X71000000Y-56994659D01*
X70803870Y-57013975D01*
X70615266Y-57071188D01*
X70441467Y-57164086D01*
X70441460Y-57164090D01*
X70289116Y-57289116D01*
X70164090Y-57441460D01*
X70164086Y-57441467D01*
X70071188Y-57615266D01*
X70013975Y-57803870D01*
X69994659Y-58000000D01*
X59481503Y-58000000D01*
X59481503Y-57999996D01*
X59462897Y-57882522D01*
X59462897Y-57882521D01*
X59462896Y-57882519D01*
X59462896Y-57882518D01*
X59408895Y-57776535D01*
X59408893Y-57776533D01*
X59408890Y-57776529D01*
X59324792Y-57692431D01*
X59324788Y-57692428D01*
X59324787Y-57692427D01*
X59218804Y-57638426D01*
X59218802Y-57638425D01*
X59218799Y-57638424D01*
X59101325Y-57619819D01*
X59101319Y-57619819D01*
X58983844Y-57638424D01*
X58983843Y-57638424D01*
X58877855Y-57692428D01*
X58877851Y-57692431D01*
X58793753Y-57776529D01*
X58793750Y-57776533D01*
X58739746Y-57882521D01*
X58739746Y-57882522D01*
X58721141Y-57999996D01*
X39500000Y-57999996D01*
X39500000Y-52999996D01*
X46119819Y-52999996D01*
X46119819Y-53000003D01*
X46138424Y-53117477D01*
X46138424Y-53117478D01*
X46192428Y-53223466D01*
X46192431Y-53223470D01*
X46276529Y-53307568D01*
X46276533Y-53307571D01*
X46276535Y-53307573D01*
X46382518Y-53361574D01*
X46382520Y-53361574D01*
X46382522Y-53361575D01*
X46499997Y-53380181D01*
X46500000Y-53380181D01*
X46500003Y-53380181D01*
X46617477Y-53361575D01*
X46617478Y-53361575D01*
X46617479Y-53361574D01*
X46617482Y-53361574D01*
X46723465Y-53307573D01*
X46807573Y-53223465D01*
X46861574Y-53117482D01*
X46880181Y-53000000D01*
X46880181Y-52999996D01*
X46861575Y-52882522D01*
X46861575Y-52882521D01*
X46861574Y-52882519D01*
X46861574Y-52882518D01*
X46807573Y-52776535D01*
X46807571Y-52776533D01*
X46807568Y-52776529D01*
X46723470Y-52692431D01*
X46723466Y-52692428D01*
X46723465Y-52692427D01*
X46617482Y-52638426D01*
X46617480Y-52638425D01*
X46617477Y-52638424D01*
X46500003Y-52619819D01*
X46499997Y-52619819D01*
X46382522Y-52638424D01*
X46382521Y-52638424D01*
X46276533Y-52692428D01*
X46276529Y-52692431D01*
X46192431Y-52776529D01*
X46192428Y-52776533D01*
X46138424Y-52882521D01*
X46138424Y-52882522D01*
X46119819Y-52999996D01*
X39500000Y-52999996D01*
X39500000Y-52499996D01*
X47869819Y-52499996D01*
X47869819Y-52500003D01*
X47888424Y-52617477D01*
X47888424Y-52617478D01*
X47888425Y-52617481D01*
X47888426Y-52617482D01*
X47926614Y-52692431D01*
X47942428Y-52723466D01*
X47942431Y-52723470D01*
X48026529Y-52807568D01*
X48026533Y-52807571D01*
X48026535Y-52807573D01*
X48132518Y-52861574D01*
X48132520Y-52861574D01*
X48132522Y-52861575D01*
X48249997Y-52880181D01*
X48250000Y-52880181D01*
X48250003Y-52880181D01*
X48367477Y-52861575D01*
X48367478Y-52861575D01*
X48367479Y-52861574D01*
X48367482Y-52861574D01*
X48473465Y-52807573D01*
X48557573Y-52723465D01*
X48611574Y-52617482D01*
X48630181Y-52500000D01*
X48630181Y-52499996D01*
X48611575Y-52382522D01*
X48611575Y-52382521D01*
X48611574Y-52382519D01*
X48611574Y-52382518D01*
X48557573Y-52276535D01*
X48557571Y-52276533D01*
X48557568Y-52276529D01*
X48473470Y-52192431D01*
X48473466Y-52192428D01*
X48473465Y-52192427D01*
X48367482Y-52138426D01*
X48367480Y-52138425D01*
X48367477Y-52138424D01*
X48250003Y-52119819D01*
X48249997Y-52119819D01*
X48132522Y-52138424D01*
X48132521Y-52138424D01*
X48026533Y-52192428D01*
X48026529Y-52192431D01*
X47942431Y-52276529D01*
X47942428Y-52276533D01*
X47888424Y-52382521D01*
X47888424Y-52382522D01*
X47869819Y-52499996D01*
X39500000Y-52499996D01*
X39500000Y-50009995D01*
X52069750Y-50009995D01*
X52069750Y-50009996D01*
X52088670Y-50153704D01*
X52088671Y-50153708D01*
X52144137Y-50287618D01*
X52144138Y-50287620D01*
X52144139Y-50287621D01*
X52232379Y-50402617D01*
X52347375Y-50490857D01*
X52481291Y-50546326D01*
X52608280Y-50563044D01*
X52624999Y-50565246D01*
X52625000Y-50565246D01*
X52625001Y-50565246D01*
X52639977Y-50563274D01*
X52768709Y-50546326D01*
X52880552Y-50500000D01*
X90494659Y-50500000D01*
X90513975Y-50696129D01*
X90571188Y-50884733D01*
X90664086Y-51058532D01*
X90664090Y-51058539D01*
X90789116Y-51210883D01*
X90941460Y-51335909D01*
X90941467Y-51335913D01*
X91115266Y-51428811D01*
X91115269Y-51428811D01*
X91115273Y-51428814D01*
X91303868Y-51486024D01*
X91500000Y-51505341D01*
X91696132Y-51486024D01*
X91884727Y-51428814D01*
X92058538Y-51335910D01*
X92210883Y-51210883D01*
X92335910Y-51058538D01*
X92428814Y-50884727D01*
X92486024Y-50696132D01*
X92505341Y-50500000D01*
X92486024Y-50303868D01*
X92428814Y-50115273D01*
X92428811Y-50115269D01*
X92428811Y-50115266D01*
X92335913Y-49941467D01*
X92335909Y-49941460D01*
X92210883Y-49789116D01*
X92058539Y-49664090D01*
X92058532Y-49664086D01*
X91884733Y-49571188D01*
X91884727Y-49571186D01*
X91696132Y-49513976D01*
X91696129Y-49513975D01*
X91500000Y-49494659D01*
X91303870Y-49513975D01*
X91115266Y-49571188D01*
X90941467Y-49664086D01*
X90941460Y-49664090D01*
X90789116Y-49789116D01*
X90664090Y-49941460D01*
X90664086Y-49941467D01*
X90571188Y-50115266D01*
X90513975Y-50303870D01*
X90494659Y-50500000D01*
X52880552Y-50500000D01*
X52902625Y-50490857D01*
X53017621Y-50402617D01*
X53105861Y-50287621D01*
X53161330Y-50153705D01*
X53180250Y-50009996D01*
X53161330Y-49866287D01*
X53105861Y-49732371D01*
X53017621Y-49617375D01*
X52902625Y-49529135D01*
X52902624Y-49529134D01*
X52902622Y-49529133D01*
X52768712Y-49473667D01*
X52768710Y-49473666D01*
X52768709Y-49473666D01*
X52696854Y-49464206D01*
X52625001Y-49454746D01*
X52624999Y-49454746D01*
X52481291Y-49473666D01*
X52481287Y-49473667D01*
X52347377Y-49529133D01*
X52232379Y-49617375D01*
X52144137Y-49732373D01*
X52088671Y-49866283D01*
X52088670Y-49866287D01*
X52069750Y-50009995D01*
X39500000Y-50009995D01*
X39500000Y-49499996D01*
X46119819Y-49499996D01*
X46119819Y-49500003D01*
X46138424Y-49617477D01*
X46138424Y-49617478D01*
X46192428Y-49723466D01*
X46192431Y-49723470D01*
X46276529Y-49807568D01*
X46276533Y-49807571D01*
X46276535Y-49807573D01*
X46382518Y-49861574D01*
X46382520Y-49861574D01*
X46382522Y-49861575D01*
X46499997Y-49880181D01*
X46500000Y-49880181D01*
X46500003Y-49880181D01*
X46617477Y-49861575D01*
X46617478Y-49861575D01*
X46617479Y-49861574D01*
X46617482Y-49861574D01*
X46723465Y-49807573D01*
X46807573Y-49723465D01*
X46861574Y-49617482D01*
X46868906Y-49571188D01*
X46880181Y-49500003D01*
X46880181Y-49499996D01*
X46861575Y-49382522D01*
X46861575Y-49382521D01*
X46861574Y-49382519D01*
X46861574Y-49382518D01*
X46807573Y-49276535D01*
X46807571Y-49276533D01*
X46807568Y-49276529D01*
X46723470Y-49192431D01*
X46723466Y-49192428D01*
X46723465Y-49192427D01*
X46617482Y-49138426D01*
X46617480Y-49138425D01*
X46617477Y-49138424D01*
X46500003Y-49119819D01*
X46499997Y-49119819D01*
X46382522Y-49138424D01*
X46382521Y-49138424D01*
X46276533Y-49192428D01*
X46276529Y-49192431D01*
X46192431Y-49276529D01*
X46192428Y-49276533D01*
X46138424Y-49382521D01*
X46138424Y-49382522D01*
X46119819Y-49499996D01*
X39500000Y-49499996D01*
X39500000Y-46599996D01*
X46394819Y-46599996D01*
X46394819Y-46600003D01*
X46413424Y-46717477D01*
X46413424Y-46717478D01*
X46467428Y-46823466D01*
X46467431Y-46823470D01*
X46551529Y-46907568D01*
X46551533Y-46907571D01*
X46551535Y-46907573D01*
X46657518Y-46961574D01*
X46657520Y-46961574D01*
X46657522Y-46961575D01*
X46774997Y-46980181D01*
X46775000Y-46980181D01*
X46775003Y-46980181D01*
X46892478Y-46961575D01*
X46892480Y-46961574D01*
X46892482Y-46961574D01*
X46892483Y-46961573D01*
X46899138Y-46959411D01*
X46968979Y-46957412D01*
X47028813Y-46993490D01*
X47059644Y-47056190D01*
X47059934Y-47057939D01*
X47063425Y-47079977D01*
X47063426Y-47079982D01*
X47089004Y-47130181D01*
X47117428Y-47185966D01*
X47117431Y-47185970D01*
X47201529Y-47270068D01*
X47201533Y-47270071D01*
X47201535Y-47270073D01*
X47307518Y-47324074D01*
X47307520Y-47324074D01*
X47307522Y-47324075D01*
X47424997Y-47342681D01*
X47425000Y-47342681D01*
X47425003Y-47342681D01*
X47542477Y-47324075D01*
X47542478Y-47324075D01*
X47542479Y-47324074D01*
X47542482Y-47324074D01*
X47648465Y-47270073D01*
X47732573Y-47185965D01*
X47786574Y-47079982D01*
X47790123Y-47057573D01*
X47805181Y-46962503D01*
X47805181Y-46962496D01*
X47786575Y-46845022D01*
X47786575Y-46845021D01*
X47786574Y-46845019D01*
X47786574Y-46845018D01*
X47738158Y-46749996D01*
X48119819Y-46749996D01*
X48119819Y-46750003D01*
X48138424Y-46867477D01*
X48138424Y-46867478D01*
X48138425Y-46867481D01*
X48138426Y-46867482D01*
X48186840Y-46962500D01*
X48192428Y-46973466D01*
X48192431Y-46973470D01*
X48276529Y-47057568D01*
X48276533Y-47057571D01*
X48276535Y-47057573D01*
X48382518Y-47111574D01*
X48382520Y-47111574D01*
X48382522Y-47111575D01*
X48499997Y-47130181D01*
X48500000Y-47130181D01*
X48500003Y-47130181D01*
X48617477Y-47111575D01*
X48617478Y-47111575D01*
X48617479Y-47111574D01*
X48617482Y-47111574D01*
X48723465Y-47057573D01*
X48807573Y-46973465D01*
X48837360Y-46915004D01*
X52069750Y-46915004D01*
X52076003Y-46962503D01*
X52088670Y-47058712D01*
X52088671Y-47058716D01*
X52144137Y-47192626D01*
X52144138Y-47192628D01*
X52144139Y-47192629D01*
X52232379Y-47307625D01*
X52347375Y-47395865D01*
X52481291Y-47451334D01*
X52608280Y-47468052D01*
X52624999Y-47470254D01*
X52625000Y-47470254D01*
X52625001Y-47470254D01*
X52639977Y-47468282D01*
X52768709Y-47451334D01*
X52902625Y-47395865D01*
X53017621Y-47307625D01*
X53105861Y-47192629D01*
X53161330Y-47058713D01*
X53180250Y-46915004D01*
X53161330Y-46771295D01*
X53105861Y-46637379D01*
X53017621Y-46522383D01*
X52902625Y-46434143D01*
X52902624Y-46434142D01*
X52902622Y-46434141D01*
X52768712Y-46378675D01*
X52768710Y-46378674D01*
X52768709Y-46378674D01*
X52696854Y-46369214D01*
X52625001Y-46359754D01*
X52624999Y-46359754D01*
X52481291Y-46378674D01*
X52481287Y-46378675D01*
X52347377Y-46434141D01*
X52232379Y-46522383D01*
X52144137Y-46637381D01*
X52088671Y-46771291D01*
X52088670Y-46771295D01*
X52070729Y-46907571D01*
X52069750Y-46915004D01*
X48837360Y-46915004D01*
X48861574Y-46867482D01*
X48861575Y-46867477D01*
X48880181Y-46750003D01*
X48880181Y-46749996D01*
X48861575Y-46632522D01*
X48861575Y-46632521D01*
X48861574Y-46632519D01*
X48861574Y-46632518D01*
X48807573Y-46526535D01*
X48807571Y-46526533D01*
X48807568Y-46526529D01*
X48723470Y-46442431D01*
X48723466Y-46442428D01*
X48723465Y-46442427D01*
X48617482Y-46388426D01*
X48617480Y-46388425D01*
X48617477Y-46388424D01*
X48500003Y-46369819D01*
X48499997Y-46369819D01*
X48382522Y-46388424D01*
X48382521Y-46388424D01*
X48276533Y-46442428D01*
X48276529Y-46442431D01*
X48192431Y-46526529D01*
X48192428Y-46526533D01*
X48138424Y-46632521D01*
X48138424Y-46632522D01*
X48119819Y-46749996D01*
X47738158Y-46749996D01*
X47732573Y-46739035D01*
X47732571Y-46739033D01*
X47732568Y-46739029D01*
X47648470Y-46654931D01*
X47648466Y-46654928D01*
X47648465Y-46654927D01*
X47542482Y-46600926D01*
X47542480Y-46600925D01*
X47542477Y-46600924D01*
X47425003Y-46582319D01*
X47424997Y-46582319D01*
X47307519Y-46600925D01*
X47300853Y-46603091D01*
X47231011Y-46605084D01*
X47171180Y-46569002D01*
X47140354Y-46506300D01*
X47140065Y-46504556D01*
X47136575Y-46482522D01*
X47136575Y-46482521D01*
X47136574Y-46482519D01*
X47136574Y-46482518D01*
X47082573Y-46376535D01*
X47082571Y-46376533D01*
X47082568Y-46376529D01*
X46998470Y-46292431D01*
X46998466Y-46292428D01*
X46998465Y-46292427D01*
X46892482Y-46238426D01*
X46892480Y-46238425D01*
X46892477Y-46238424D01*
X46775003Y-46219819D01*
X46774997Y-46219819D01*
X46657522Y-46238424D01*
X46657521Y-46238424D01*
X46551533Y-46292428D01*
X46551529Y-46292431D01*
X46467431Y-46376529D01*
X46467428Y-46376533D01*
X46413424Y-46482521D01*
X46413424Y-46482522D01*
X46394819Y-46599996D01*
X39500000Y-46599996D01*
X39500000Y-45500000D01*
X69994659Y-45500000D01*
X70013975Y-45696129D01*
X70013976Y-45696132D01*
X70061924Y-45854196D01*
X70071188Y-45884733D01*
X70164086Y-46058532D01*
X70164090Y-46058539D01*
X70289116Y-46210883D01*
X70441460Y-46335909D01*
X70441467Y-46335913D01*
X70615266Y-46428811D01*
X70615269Y-46428811D01*
X70615273Y-46428814D01*
X70803868Y-46486024D01*
X71000000Y-46505341D01*
X71196132Y-46486024D01*
X71384727Y-46428814D01*
X71558538Y-46335910D01*
X71710883Y-46210883D01*
X71835910Y-46058538D01*
X71928814Y-45884727D01*
X71986024Y-45696132D01*
X72005341Y-45500000D01*
X90494659Y-45500000D01*
X90513975Y-45696129D01*
X90513976Y-45696132D01*
X90561924Y-45854196D01*
X90571188Y-45884733D01*
X90664086Y-46058532D01*
X90664090Y-46058539D01*
X90789116Y-46210883D01*
X90941460Y-46335909D01*
X90941467Y-46335913D01*
X91115266Y-46428811D01*
X91115269Y-46428811D01*
X91115273Y-46428814D01*
X91303868Y-46486024D01*
X91500000Y-46505341D01*
X91696132Y-46486024D01*
X91884727Y-46428814D01*
X92058538Y-46335910D01*
X92210883Y-46210883D01*
X92335910Y-46058538D01*
X92428814Y-45884727D01*
X92486024Y-45696132D01*
X92505341Y-45500000D01*
X92486024Y-45303868D01*
X92428814Y-45115273D01*
X92428811Y-45115269D01*
X92428811Y-45115266D01*
X92335913Y-44941467D01*
X92335909Y-44941460D01*
X92210883Y-44789116D01*
X92058539Y-44664090D01*
X92058532Y-44664086D01*
X91884733Y-44571188D01*
X91884727Y-44571186D01*
X91696132Y-44513976D01*
X91696129Y-44513975D01*
X91500000Y-44494659D01*
X91303870Y-44513975D01*
X91115266Y-44571188D01*
X90941467Y-44664086D01*
X90941460Y-44664090D01*
X90789116Y-44789116D01*
X90664090Y-44941460D01*
X90664086Y-44941467D01*
X90571188Y-45115266D01*
X90513975Y-45303870D01*
X90494659Y-45500000D01*
X72005341Y-45500000D01*
X71986024Y-45303868D01*
X71928814Y-45115273D01*
X71928811Y-45115269D01*
X71928811Y-45115266D01*
X71835913Y-44941467D01*
X71835909Y-44941460D01*
X71710883Y-44789116D01*
X71558539Y-44664090D01*
X71558532Y-44664086D01*
X71384733Y-44571188D01*
X71384727Y-44571186D01*
X71196132Y-44513976D01*
X71196129Y-44513975D01*
X71000000Y-44494659D01*
X70803870Y-44513975D01*
X70615266Y-44571188D01*
X70441467Y-44664086D01*
X70441460Y-44664090D01*
X70289116Y-44789116D01*
X70164090Y-44941460D01*
X70164086Y-44941467D01*
X70071188Y-45115266D01*
X70013975Y-45303870D01*
X69994659Y-45500000D01*
X39500000Y-45500000D01*
X39500000Y-44000000D01*
X75224659Y-44000000D01*
X75243975Y-44196129D01*
X75301188Y-44384733D01*
X75394086Y-44558532D01*
X75394090Y-44558539D01*
X75519116Y-44710883D01*
X75671460Y-44835909D01*
X75671467Y-44835913D01*
X75845266Y-44928811D01*
X75845269Y-44928811D01*
X75845273Y-44928814D01*
X76033868Y-44986024D01*
X76230000Y-45005341D01*
X76426132Y-44986024D01*
X76614727Y-44928814D01*
X76788538Y-44835910D01*
X76940883Y-44710883D01*
X77065910Y-44558538D01*
X77158814Y-44384727D01*
X77216024Y-44196132D01*
X77235341Y-44000000D01*
X80224659Y-44000000D01*
X80243975Y-44196129D01*
X80301188Y-44384733D01*
X80394086Y-44558532D01*
X80394090Y-44558539D01*
X80519116Y-44710883D01*
X80671460Y-44835909D01*
X80671467Y-44835913D01*
X80845266Y-44928811D01*
X80845269Y-44928811D01*
X80845273Y-44928814D01*
X81033868Y-44986024D01*
X81230000Y-45005341D01*
X81426132Y-44986024D01*
X81614727Y-44928814D01*
X81788538Y-44835910D01*
X81940883Y-44710883D01*
X82065910Y-44558538D01*
X82158814Y-44384727D01*
X82216024Y-44196132D01*
X82235341Y-44000000D01*
X82216024Y-43803868D01*
X82158814Y-43615273D01*
X82158811Y-43615269D01*
X82158811Y-43615266D01*
X82065913Y-43441467D01*
X82065909Y-43441460D01*
X81940883Y-43289116D01*
X81788539Y-43164090D01*
X81788532Y-43164086D01*
X81614733Y-43071188D01*
X81614727Y-43071186D01*
X81426132Y-43013976D01*
X81426129Y-43013975D01*
X81230000Y-42994659D01*
X81033870Y-43013975D01*
X80845266Y-43071188D01*
X80671467Y-43164086D01*
X80671460Y-43164090D01*
X80519116Y-43289116D01*
X80394090Y-43441460D01*
X80394086Y-43441467D01*
X80301188Y-43615266D01*
X80243975Y-43803870D01*
X80224659Y-44000000D01*
X77235341Y-44000000D01*
X77216024Y-43803868D01*
X77158814Y-43615273D01*
X77158811Y-43615269D01*
X77158811Y-43615266D01*
X77065913Y-43441467D01*
X77065909Y-43441460D01*
X76940883Y-43289116D01*
X76788539Y-43164090D01*
X76788532Y-43164086D01*
X76614733Y-43071188D01*
X76614727Y-43071186D01*
X76426132Y-43013976D01*
X76426129Y-43013975D01*
X76230000Y-42994659D01*
X76033870Y-43013975D01*
X75845266Y-43071188D01*
X75671467Y-43164086D01*
X75671460Y-43164090D01*
X75519116Y-43289116D01*
X75394090Y-43441460D01*
X75394086Y-43441467D01*
X75301188Y-43615266D01*
X75243975Y-43803870D01*
X75224659Y-44000000D01*
X39500000Y-44000000D01*
X39500000Y-40499997D01*
X69695034Y-40499997D01*
X69695034Y-40500002D01*
X69714858Y-40726599D01*
X69714860Y-40726610D01*
X69773730Y-40946317D01*
X69773735Y-40946331D01*
X69869863Y-41152478D01*
X69920974Y-41225472D01*
X70600000Y-40546446D01*
X70600000Y-40552661D01*
X70627259Y-40654394D01*
X70679920Y-40745606D01*
X70754394Y-40820080D01*
X70845606Y-40872741D01*
X70947339Y-40900000D01*
X70953553Y-40900000D01*
X70274526Y-41579025D01*
X70347513Y-41630132D01*
X70347521Y-41630136D01*
X70553668Y-41726264D01*
X70553682Y-41726269D01*
X70773389Y-41785139D01*
X70773400Y-41785141D01*
X70999998Y-41804966D01*
X71000002Y-41804966D01*
X71226599Y-41785141D01*
X71226610Y-41785139D01*
X71446317Y-41726269D01*
X71446331Y-41726264D01*
X71652478Y-41630136D01*
X71725471Y-41579024D01*
X71046447Y-40900000D01*
X71052661Y-40900000D01*
X71154394Y-40872741D01*
X71245606Y-40820080D01*
X71320080Y-40745606D01*
X71372741Y-40654394D01*
X71400000Y-40552661D01*
X71400000Y-40546447D01*
X72079024Y-41225471D01*
X72130136Y-41152478D01*
X72201238Y-41000000D01*
X76944750Y-41000000D01*
X76956844Y-41091865D01*
X76963670Y-41143708D01*
X76963671Y-41143712D01*
X77019137Y-41277622D01*
X77019138Y-41277624D01*
X77019139Y-41277625D01*
X77107379Y-41392621D01*
X77222375Y-41480861D01*
X77356291Y-41536330D01*
X77483280Y-41553048D01*
X77499999Y-41555250D01*
X77500000Y-41555250D01*
X77500001Y-41555250D01*
X77514977Y-41553278D01*
X77643709Y-41536330D01*
X77777625Y-41480861D01*
X77892621Y-41392621D01*
X77980861Y-41277625D01*
X78036330Y-41143709D01*
X78055250Y-41000000D01*
X78036330Y-40856291D01*
X77999350Y-40767013D01*
X77980862Y-40722377D01*
X77980861Y-40722376D01*
X77980861Y-40722375D01*
X77892621Y-40607379D01*
X77777625Y-40519139D01*
X77777624Y-40519138D01*
X77777622Y-40519137D01*
X77643712Y-40463671D01*
X77643710Y-40463670D01*
X77643709Y-40463670D01*
X77571854Y-40454210D01*
X77500001Y-40444750D01*
X77499999Y-40444750D01*
X77356291Y-40463670D01*
X77356287Y-40463671D01*
X77222377Y-40519137D01*
X77107379Y-40607379D01*
X77019137Y-40722377D01*
X76963671Y-40856287D01*
X76963670Y-40856291D01*
X76944750Y-41000000D01*
X72201238Y-41000000D01*
X72226264Y-40946331D01*
X72226269Y-40946317D01*
X72285139Y-40726610D01*
X72285141Y-40726599D01*
X72304966Y-40500002D01*
X72304966Y-40499997D01*
X72285141Y-40273400D01*
X72285139Y-40273389D01*
X72226269Y-40053682D01*
X72226264Y-40053668D01*
X72130136Y-39847521D01*
X72130132Y-39847513D01*
X72079025Y-39774526D01*
X71400000Y-40453551D01*
X71400000Y-40447339D01*
X71372741Y-40345606D01*
X71320080Y-40254394D01*
X71245606Y-40179920D01*
X71154394Y-40127259D01*
X71052661Y-40100000D01*
X71046448Y-40100000D01*
X71725472Y-39420974D01*
X71652478Y-39369863D01*
X71446331Y-39273735D01*
X71446317Y-39273730D01*
X71226610Y-39214860D01*
X71226599Y-39214858D01*
X71000002Y-39195034D01*
X70999998Y-39195034D01*
X70773400Y-39214858D01*
X70773389Y-39214860D01*
X70553682Y-39273730D01*
X70553673Y-39273734D01*
X70347516Y-39369866D01*
X70347512Y-39369868D01*
X70274526Y-39420973D01*
X70274526Y-39420974D01*
X70953553Y-40100000D01*
X70947339Y-40100000D01*
X70845606Y-40127259D01*
X70754394Y-40179920D01*
X70679920Y-40254394D01*
X70627259Y-40345606D01*
X70600000Y-40447339D01*
X70600000Y-40453552D01*
X69920974Y-39774526D01*
X69920973Y-39774526D01*
X69869868Y-39847512D01*
X69869866Y-39847516D01*
X69773734Y-40053673D01*
X69773730Y-40053682D01*
X69714860Y-40273389D01*
X69714858Y-40273400D01*
X69695034Y-40499997D01*
X39500000Y-40499997D01*
X39500000Y-39327243D01*
X42904807Y-39327243D01*
X42904807Y-39327250D01*
X42923412Y-39444724D01*
X42923412Y-39444725D01*
X42923413Y-39444728D01*
X42923414Y-39444729D01*
X42975221Y-39546407D01*
X42977416Y-39550713D01*
X42977419Y-39550717D01*
X43061517Y-39634815D01*
X43061521Y-39634818D01*
X43061523Y-39634820D01*
X43167506Y-39688821D01*
X43167508Y-39688821D01*
X43167510Y-39688822D01*
X43284985Y-39707428D01*
X43284988Y-39707428D01*
X43284991Y-39707428D01*
X43402465Y-39688822D01*
X43402466Y-39688822D01*
X43402467Y-39688821D01*
X43402470Y-39688821D01*
X43508453Y-39634820D01*
X43592561Y-39550712D01*
X43646562Y-39444729D01*
X43646563Y-39444724D01*
X43665169Y-39327250D01*
X43665169Y-39327243D01*
X43646563Y-39209769D01*
X43646563Y-39209768D01*
X43646562Y-39209766D01*
X43646562Y-39209765D01*
X43592561Y-39103782D01*
X43592559Y-39103780D01*
X43592556Y-39103776D01*
X43508458Y-39019678D01*
X43508454Y-39019675D01*
X43508453Y-39019674D01*
X43402470Y-38965673D01*
X43402468Y-38965672D01*
X43402465Y-38965671D01*
X43284991Y-38947066D01*
X43284985Y-38947066D01*
X43167510Y-38965671D01*
X43167509Y-38965671D01*
X43061521Y-39019675D01*
X43061517Y-39019678D01*
X42977419Y-39103776D01*
X42977416Y-39103780D01*
X42923412Y-39209768D01*
X42923412Y-39209769D01*
X42904807Y-39327243D01*
X39500000Y-39327243D01*
X39500000Y-37962496D01*
X43894819Y-37962496D01*
X43894819Y-37962503D01*
X43913424Y-38079977D01*
X43913424Y-38079978D01*
X43913425Y-38079981D01*
X43913426Y-38079982D01*
X43965322Y-38181834D01*
X43967428Y-38185966D01*
X43967431Y-38185970D01*
X44051529Y-38270068D01*
X44051533Y-38270071D01*
X44051535Y-38270073D01*
X44157518Y-38324074D01*
X44157520Y-38324074D01*
X44157522Y-38324075D01*
X44274997Y-38342681D01*
X44275000Y-38342681D01*
X44275003Y-38342681D01*
X44392477Y-38324075D01*
X44392478Y-38324075D01*
X44392479Y-38324074D01*
X44392482Y-38324074D01*
X44498465Y-38270073D01*
X44582573Y-38185965D01*
X44636574Y-38079982D01*
X44636575Y-38079977D01*
X44655181Y-37962503D01*
X44655181Y-37962496D01*
X44636575Y-37845022D01*
X44636575Y-37845021D01*
X44636574Y-37845019D01*
X44636574Y-37845018D01*
X44582573Y-37739035D01*
X44582571Y-37739033D01*
X44582568Y-37739029D01*
X44498470Y-37654931D01*
X44498466Y-37654928D01*
X44498465Y-37654927D01*
X44392482Y-37600926D01*
X44392480Y-37600925D01*
X44392477Y-37600924D01*
X44275003Y-37582319D01*
X44274997Y-37582319D01*
X44157522Y-37600924D01*
X44157521Y-37600924D01*
X44051533Y-37654928D01*
X44051529Y-37654931D01*
X43967431Y-37739029D01*
X43967428Y-37739033D01*
X43913424Y-37845021D01*
X43913424Y-37845022D01*
X43894819Y-37962496D01*
X39500000Y-37962496D01*
X39500000Y-37462496D01*
X45894819Y-37462496D01*
X45894819Y-37462503D01*
X45913424Y-37579977D01*
X45913424Y-37579978D01*
X45913425Y-37579981D01*
X45913426Y-37579982D01*
X45951614Y-37654931D01*
X45967428Y-37685966D01*
X45967431Y-37685970D01*
X46051529Y-37770068D01*
X46051533Y-37770071D01*
X46051535Y-37770073D01*
X46157518Y-37824074D01*
X46157520Y-37824074D01*
X46157522Y-37824075D01*
X46274997Y-37842681D01*
X46275000Y-37842681D01*
X46275003Y-37842681D01*
X46392477Y-37824075D01*
X46392478Y-37824075D01*
X46392479Y-37824074D01*
X46392482Y-37824074D01*
X46498465Y-37770073D01*
X46578538Y-37690000D01*
X90494659Y-37690000D01*
X90513975Y-37886129D01*
X90513976Y-37886132D01*
X90561803Y-38043797D01*
X90571188Y-38074733D01*
X90664086Y-38248532D01*
X90664090Y-38248539D01*
X90789116Y-38400883D01*
X90941460Y-38525909D01*
X90941467Y-38525913D01*
X91115266Y-38618811D01*
X91115269Y-38618811D01*
X91115273Y-38618814D01*
X91303868Y-38676024D01*
X91500000Y-38695341D01*
X91696132Y-38676024D01*
X91884727Y-38618814D01*
X92058538Y-38525910D01*
X92210883Y-38400883D01*
X92335910Y-38248538D01*
X92428814Y-38074727D01*
X92486024Y-37886132D01*
X92505341Y-37690000D01*
X92486024Y-37493868D01*
X92428814Y-37305273D01*
X92428811Y-37305269D01*
X92428811Y-37305266D01*
X92335913Y-37131467D01*
X92335909Y-37131460D01*
X92210883Y-36979116D01*
X92058539Y-36854090D01*
X92058532Y-36854086D01*
X91884733Y-36761188D01*
X91884727Y-36761186D01*
X91696132Y-36703976D01*
X91696129Y-36703975D01*
X91500000Y-36684659D01*
X91303870Y-36703975D01*
X91115266Y-36761188D01*
X90941467Y-36854086D01*
X90941460Y-36854090D01*
X90789116Y-36979116D01*
X90664090Y-37131460D01*
X90664086Y-37131467D01*
X90571188Y-37305266D01*
X90513975Y-37493870D01*
X90494659Y-37690000D01*
X46578538Y-37690000D01*
X46582573Y-37685965D01*
X46636574Y-37579982D01*
X46636575Y-37579977D01*
X46655181Y-37462503D01*
X46655181Y-37462496D01*
X46636575Y-37345022D01*
X46636575Y-37345021D01*
X46636574Y-37345019D01*
X46636574Y-37345018D01*
X46582573Y-37239035D01*
X46582571Y-37239033D01*
X46582568Y-37239029D01*
X46498470Y-37154931D01*
X46498466Y-37154928D01*
X46498465Y-37154927D01*
X46392482Y-37100926D01*
X46392480Y-37100925D01*
X46392477Y-37100924D01*
X46275003Y-37082319D01*
X46274997Y-37082319D01*
X46157522Y-37100924D01*
X46157521Y-37100924D01*
X46051533Y-37154928D01*
X46051529Y-37154931D01*
X45967431Y-37239029D01*
X45967428Y-37239033D01*
X45913424Y-37345021D01*
X45913424Y-37345022D01*
X45894819Y-37462496D01*
X39500000Y-37462496D01*
X39500000Y-36229999D01*
X75674750Y-36229999D01*
X75674750Y-36230000D01*
X75693670Y-36373708D01*
X75693671Y-36373712D01*
X75749137Y-36507622D01*
X75749138Y-36507624D01*
X75749139Y-36507625D01*
X75837379Y-36622621D01*
X75952375Y-36710861D01*
X76086291Y-36766330D01*
X76213280Y-36783048D01*
X76229999Y-36785250D01*
X76230000Y-36785250D01*
X76230001Y-36785250D01*
X76244977Y-36783278D01*
X76373709Y-36766330D01*
X76507625Y-36710861D01*
X76622621Y-36622621D01*
X76710861Y-36507625D01*
X76766330Y-36373709D01*
X76785250Y-36230000D01*
X76766330Y-36086291D01*
X76710861Y-35952375D01*
X76622621Y-35837379D01*
X76507625Y-35749139D01*
X76507624Y-35749138D01*
X76507622Y-35749137D01*
X76373712Y-35693671D01*
X76373710Y-35693670D01*
X76373709Y-35693670D01*
X76301854Y-35684210D01*
X76230001Y-35674750D01*
X76229999Y-35674750D01*
X76086291Y-35693670D01*
X76086287Y-35693671D01*
X75952377Y-35749137D01*
X75837379Y-35837379D01*
X75749137Y-35952377D01*
X75693671Y-36086287D01*
X75693670Y-36086291D01*
X75674750Y-36229999D01*
X39500000Y-36229999D01*
X39500000Y-34557720D01*
X46831336Y-34557720D01*
X46831336Y-34557727D01*
X46849941Y-34675201D01*
X46849941Y-34675202D01*
X46849942Y-34675205D01*
X46849943Y-34675206D01*
X46902210Y-34777786D01*
X46903945Y-34781190D01*
X46903948Y-34781194D01*
X46988046Y-34865292D01*
X46988050Y-34865295D01*
X46988052Y-34865297D01*
X47094035Y-34919298D01*
X47094037Y-34919298D01*
X47094039Y-34919299D01*
X47211514Y-34937905D01*
X47211517Y-34937905D01*
X47211520Y-34937905D01*
X47328994Y-34919299D01*
X47328995Y-34919299D01*
X47328996Y-34919298D01*
X47328999Y-34919298D01*
X47345471Y-34910905D01*
X52892256Y-34910905D01*
X52892256Y-34910910D01*
X52913339Y-35044029D01*
X52913340Y-35044032D01*
X52913341Y-35044034D01*
X52958736Y-35133126D01*
X52974533Y-35164129D01*
X52974536Y-35164133D01*
X53069834Y-35259431D01*
X53069838Y-35259434D01*
X53069840Y-35259436D01*
X53189934Y-35320627D01*
X53189936Y-35320627D01*
X53189938Y-35320628D01*
X53323058Y-35341712D01*
X53323060Y-35341712D01*
X53323062Y-35341712D01*
X53456181Y-35320628D01*
X53456181Y-35320627D01*
X53456186Y-35320627D01*
X53576280Y-35259436D01*
X53671588Y-35164128D01*
X53732779Y-35044034D01*
X53739753Y-35000002D01*
X53739754Y-34999997D01*
X54819196Y-34999997D01*
X54819196Y-35000002D01*
X54840279Y-35133121D01*
X54840280Y-35133124D01*
X54840281Y-35133126D01*
X54856078Y-35164129D01*
X54901473Y-35253221D01*
X54901476Y-35253225D01*
X54996774Y-35348523D01*
X54996778Y-35348526D01*
X54996780Y-35348528D01*
X55116874Y-35409719D01*
X55116876Y-35409719D01*
X55116878Y-35409720D01*
X55249998Y-35430804D01*
X55250000Y-35430804D01*
X55250002Y-35430804D01*
X55383121Y-35409720D01*
X55383121Y-35409719D01*
X55383126Y-35409719D01*
X55503220Y-35348528D01*
X55598528Y-35253220D01*
X55659719Y-35133126D01*
X55680804Y-35000000D01*
X55670969Y-34937905D01*
X55659720Y-34866878D01*
X55659719Y-34866876D01*
X55659719Y-34866874D01*
X55598528Y-34746780D01*
X55598526Y-34746778D01*
X55598523Y-34746774D01*
X55503225Y-34651476D01*
X55503221Y-34651473D01*
X55503220Y-34651472D01*
X55383126Y-34590281D01*
X55383124Y-34590280D01*
X55383121Y-34590279D01*
X55250002Y-34569196D01*
X55249998Y-34569196D01*
X55116878Y-34590279D01*
X54996778Y-34651473D01*
X54996774Y-34651476D01*
X54901476Y-34746774D01*
X54901473Y-34746778D01*
X54840279Y-34866878D01*
X54819196Y-34999997D01*
X53739754Y-34999997D01*
X53753864Y-34910910D01*
X53753864Y-34910905D01*
X53732780Y-34777786D01*
X53732779Y-34777784D01*
X53732779Y-34777782D01*
X53671588Y-34657688D01*
X53671586Y-34657686D01*
X53671583Y-34657682D01*
X53576285Y-34562384D01*
X53576281Y-34562381D01*
X53576280Y-34562380D01*
X53456186Y-34501189D01*
X53456184Y-34501188D01*
X53456181Y-34501187D01*
X53323062Y-34480104D01*
X53323058Y-34480104D01*
X53189938Y-34501187D01*
X53069838Y-34562381D01*
X53069834Y-34562384D01*
X52974536Y-34657682D01*
X52974533Y-34657686D01*
X52913339Y-34777786D01*
X52892256Y-34910905D01*
X47345471Y-34910905D01*
X47434982Y-34865297D01*
X47519090Y-34781189D01*
X47573091Y-34675206D01*
X47575866Y-34657686D01*
X47591698Y-34557727D01*
X47591698Y-34557720D01*
X47573092Y-34440246D01*
X47573092Y-34440245D01*
X47573091Y-34440243D01*
X47573091Y-34440242D01*
X47519090Y-34334259D01*
X47519088Y-34334257D01*
X47519085Y-34334253D01*
X47434987Y-34250155D01*
X47434983Y-34250152D01*
X47434982Y-34250151D01*
X47328999Y-34196150D01*
X47328997Y-34196149D01*
X47328994Y-34196148D01*
X47211520Y-34177543D01*
X47211514Y-34177543D01*
X47094039Y-34196148D01*
X47094038Y-34196148D01*
X46988050Y-34250152D01*
X46988046Y-34250155D01*
X46903948Y-34334253D01*
X46903945Y-34334257D01*
X46849941Y-34440245D01*
X46849941Y-34440246D01*
X46831336Y-34557720D01*
X39500000Y-34557720D01*
X39500000Y-33376620D01*
X46980695Y-33376620D01*
X46980695Y-33376627D01*
X46999300Y-33494101D01*
X46999300Y-33494102D01*
X46999301Y-33494105D01*
X46999302Y-33494106D01*
X47042570Y-33579025D01*
X47053304Y-33600090D01*
X47053307Y-33600094D01*
X47137405Y-33684192D01*
X47137409Y-33684195D01*
X47137411Y-33684197D01*
X47243394Y-33738198D01*
X47243396Y-33738198D01*
X47243398Y-33738199D01*
X47360873Y-33756805D01*
X47360876Y-33756805D01*
X47360879Y-33756805D01*
X47478353Y-33738199D01*
X47478354Y-33738199D01*
X47478355Y-33738198D01*
X47478358Y-33738198D01*
X47584341Y-33684197D01*
X47668449Y-33600089D01*
X47722450Y-33494106D01*
X47722451Y-33494101D01*
X47741057Y-33376627D01*
X47741057Y-33376620D01*
X47722451Y-33259146D01*
X47722451Y-33259145D01*
X47722450Y-33259143D01*
X47722450Y-33259142D01*
X47668449Y-33153159D01*
X47668447Y-33153157D01*
X47668444Y-33153153D01*
X47584346Y-33069055D01*
X47584342Y-33069052D01*
X47584341Y-33069051D01*
X47478358Y-33015050D01*
X47478356Y-33015049D01*
X47478353Y-33015048D01*
X47383319Y-32999997D01*
X55569196Y-32999997D01*
X55569196Y-33000002D01*
X55590279Y-33133121D01*
X55590280Y-33133124D01*
X55590281Y-33133126D01*
X55649087Y-33248539D01*
X55651473Y-33253221D01*
X55651476Y-33253225D01*
X55746774Y-33348523D01*
X55746778Y-33348526D01*
X55746780Y-33348528D01*
X55866874Y-33409719D01*
X55866876Y-33409719D01*
X55866878Y-33409720D01*
X55999998Y-33430804D01*
X56000000Y-33430804D01*
X56000002Y-33430804D01*
X56133121Y-33409720D01*
X56133121Y-33409719D01*
X56133126Y-33409719D01*
X56253220Y-33348528D01*
X56348528Y-33253220D01*
X56409719Y-33133126D01*
X56418968Y-33074733D01*
X56430804Y-33000002D01*
X56430804Y-32999997D01*
X56424088Y-32957591D01*
X58515431Y-32957591D01*
X58522995Y-33015048D01*
X58534351Y-33101299D01*
X58534352Y-33101303D01*
X58589818Y-33235213D01*
X58589819Y-33235215D01*
X58589820Y-33235216D01*
X58678060Y-33350212D01*
X58793056Y-33438452D01*
X58926972Y-33493921D01*
X59053961Y-33510639D01*
X59070680Y-33512841D01*
X59070681Y-33512841D01*
X59070682Y-33512841D01*
X59085658Y-33510869D01*
X59214390Y-33493921D01*
X59348306Y-33438452D01*
X59463302Y-33350212D01*
X59551542Y-33235216D01*
X59607011Y-33101300D01*
X59625931Y-32957591D01*
X59607011Y-32813882D01*
X59551542Y-32679966D01*
X59463302Y-32564970D01*
X59378628Y-32499997D01*
X69695034Y-32499997D01*
X69695034Y-32500002D01*
X69714858Y-32726599D01*
X69714860Y-32726610D01*
X69773730Y-32946317D01*
X69773735Y-32946331D01*
X69869863Y-33152478D01*
X69920974Y-33225472D01*
X70600000Y-32546446D01*
X70600000Y-32552661D01*
X70627259Y-32654394D01*
X70679920Y-32745606D01*
X70754394Y-32820080D01*
X70845606Y-32872741D01*
X70947339Y-32900000D01*
X70953553Y-32900000D01*
X70274526Y-33579025D01*
X70347513Y-33630132D01*
X70347521Y-33630136D01*
X70553668Y-33726264D01*
X70553682Y-33726269D01*
X70773389Y-33785139D01*
X70773400Y-33785141D01*
X70999998Y-33804966D01*
X71000002Y-33804966D01*
X71226599Y-33785141D01*
X71226610Y-33785139D01*
X71446317Y-33726269D01*
X71446331Y-33726264D01*
X71652478Y-33630136D01*
X71725471Y-33579024D01*
X71046447Y-32900000D01*
X71052661Y-32900000D01*
X71154394Y-32872741D01*
X71245606Y-32820080D01*
X71320080Y-32745606D01*
X71372741Y-32654394D01*
X71400000Y-32552661D01*
X71400000Y-32546447D01*
X72079024Y-33225471D01*
X72130136Y-33152478D01*
X72226264Y-32946331D01*
X72226269Y-32946317D01*
X72285139Y-32726610D01*
X72285141Y-32726599D01*
X72288343Y-32690000D01*
X90494659Y-32690000D01*
X90513975Y-32886129D01*
X90513976Y-32886132D01*
X90569465Y-33069055D01*
X90571188Y-33074733D01*
X90664086Y-33248532D01*
X90664090Y-33248539D01*
X90789116Y-33400883D01*
X90941460Y-33525909D01*
X90941467Y-33525913D01*
X91115266Y-33618811D01*
X91115269Y-33618811D01*
X91115273Y-33618814D01*
X91303868Y-33676024D01*
X91500000Y-33695341D01*
X91696132Y-33676024D01*
X91884727Y-33618814D01*
X92058538Y-33525910D01*
X92210883Y-33400883D01*
X92335910Y-33248538D01*
X92414609Y-33101303D01*
X92428811Y-33074733D01*
X92428811Y-33074732D01*
X92428814Y-33074727D01*
X92486024Y-32886132D01*
X92505341Y-32690000D01*
X92486024Y-32493868D01*
X92428814Y-32305273D01*
X92428811Y-32305269D01*
X92428811Y-32305266D01*
X92335913Y-32131467D01*
X92335909Y-32131460D01*
X92210883Y-31979116D01*
X92058539Y-31854090D01*
X92058532Y-31854086D01*
X91884733Y-31761188D01*
X91884727Y-31761186D01*
X91696132Y-31703976D01*
X91696129Y-31703975D01*
X91500000Y-31684659D01*
X91303870Y-31703975D01*
X91115266Y-31761188D01*
X90941467Y-31854086D01*
X90941460Y-31854090D01*
X90789116Y-31979116D01*
X90664090Y-32131460D01*
X90664086Y-32131467D01*
X90571188Y-32305266D01*
X90513975Y-32493870D01*
X90494659Y-32690000D01*
X72288343Y-32690000D01*
X72304966Y-32500002D01*
X72304966Y-32499997D01*
X72285141Y-32273400D01*
X72285139Y-32273389D01*
X72226269Y-32053682D01*
X72226264Y-32053668D01*
X72178005Y-31950177D01*
X78230864Y-31950177D01*
X78230864Y-31950178D01*
X78249784Y-32093886D01*
X78249785Y-32093890D01*
X78305251Y-32227800D01*
X78305252Y-32227802D01*
X78305253Y-32227803D01*
X78393493Y-32342799D01*
X78508489Y-32431039D01*
X78642405Y-32486508D01*
X78769394Y-32503226D01*
X78786113Y-32505428D01*
X78786114Y-32505428D01*
X78786115Y-32505428D01*
X78801091Y-32503456D01*
X78929823Y-32486508D01*
X79063739Y-32431039D01*
X79178735Y-32342799D01*
X79266975Y-32227803D01*
X79322444Y-32093887D01*
X79341364Y-31950178D01*
X79322444Y-31806469D01*
X79279990Y-31703975D01*
X79266976Y-31672555D01*
X79266975Y-31672554D01*
X79266975Y-31672553D01*
X79178735Y-31557557D01*
X79063739Y-31469317D01*
X79063738Y-31469316D01*
X79063736Y-31469315D01*
X78929826Y-31413849D01*
X78929824Y-31413848D01*
X78929823Y-31413848D01*
X78857968Y-31404388D01*
X78786115Y-31394928D01*
X78786113Y-31394928D01*
X78642405Y-31413848D01*
X78642401Y-31413849D01*
X78508491Y-31469315D01*
X78393493Y-31557557D01*
X78305251Y-31672555D01*
X78249785Y-31806465D01*
X78249784Y-31806469D01*
X78230864Y-31950177D01*
X72178005Y-31950177D01*
X72130136Y-31847521D01*
X72130132Y-31847513D01*
X72079025Y-31774526D01*
X71400000Y-32453551D01*
X71400000Y-32447339D01*
X71372741Y-32345606D01*
X71320080Y-32254394D01*
X71245606Y-32179920D01*
X71154394Y-32127259D01*
X71052661Y-32100000D01*
X71046448Y-32100000D01*
X71725472Y-31420974D01*
X71652478Y-31369863D01*
X71446331Y-31273735D01*
X71446317Y-31273730D01*
X71226610Y-31214860D01*
X71226599Y-31214858D01*
X71000002Y-31195034D01*
X70999998Y-31195034D01*
X70773400Y-31214858D01*
X70773389Y-31214860D01*
X70553682Y-31273730D01*
X70553673Y-31273734D01*
X70347516Y-31369866D01*
X70347512Y-31369868D01*
X70274526Y-31420973D01*
X70274526Y-31420974D01*
X70953553Y-32100000D01*
X70947339Y-32100000D01*
X70845606Y-32127259D01*
X70754394Y-32179920D01*
X70679920Y-32254394D01*
X70627259Y-32345606D01*
X70600000Y-32447339D01*
X70600000Y-32453552D01*
X69920974Y-31774526D01*
X69920973Y-31774526D01*
X69869868Y-31847512D01*
X69869866Y-31847516D01*
X69773734Y-32053673D01*
X69773730Y-32053682D01*
X69714860Y-32273389D01*
X69714858Y-32273400D01*
X69695034Y-32499997D01*
X59378628Y-32499997D01*
X59348306Y-32476730D01*
X59348305Y-32476729D01*
X59348303Y-32476728D01*
X59214393Y-32421262D01*
X59214391Y-32421261D01*
X59214390Y-32421261D01*
X59142535Y-32411801D01*
X59070682Y-32402341D01*
X59070680Y-32402341D01*
X58926972Y-32421261D01*
X58926968Y-32421262D01*
X58793058Y-32476728D01*
X58678060Y-32564970D01*
X58589818Y-32679968D01*
X58534352Y-32813878D01*
X58534351Y-32813882D01*
X58515431Y-32957591D01*
X56424088Y-32957591D01*
X56409720Y-32866878D01*
X56409719Y-32866876D01*
X56409719Y-32866874D01*
X56348528Y-32746780D01*
X56348526Y-32746778D01*
X56348523Y-32746774D01*
X56253225Y-32651476D01*
X56253221Y-32651473D01*
X56253220Y-32651472D01*
X56133126Y-32590281D01*
X56133124Y-32590280D01*
X56133121Y-32590279D01*
X56002958Y-32569664D01*
X55974185Y-32556024D01*
X55916329Y-32582447D01*
X55866878Y-32590279D01*
X55746778Y-32651473D01*
X55746774Y-32651476D01*
X55651476Y-32746774D01*
X55651473Y-32746778D01*
X55590279Y-32866878D01*
X55569196Y-32999997D01*
X47383319Y-32999997D01*
X47360879Y-32996443D01*
X47360873Y-32996443D01*
X47243398Y-33015048D01*
X47243397Y-33015048D01*
X47137409Y-33069052D01*
X47137405Y-33069055D01*
X47053307Y-33153153D01*
X47053304Y-33153157D01*
X46999300Y-33259145D01*
X46999300Y-33259146D01*
X46980695Y-33376620D01*
X39500000Y-33376620D01*
X39500000Y-31962496D01*
X50319906Y-31962496D01*
X50319906Y-31962503D01*
X50338511Y-32079977D01*
X50338511Y-32079978D01*
X50338512Y-32079981D01*
X50338513Y-32079982D01*
X50379483Y-32160391D01*
X50392515Y-32185966D01*
X50392518Y-32185970D01*
X50476616Y-32270068D01*
X50476620Y-32270071D01*
X50476622Y-32270073D01*
X50582605Y-32324074D01*
X50582607Y-32324074D01*
X50582609Y-32324075D01*
X50700084Y-32342681D01*
X50700087Y-32342681D01*
X50700090Y-32342681D01*
X50817564Y-32324075D01*
X50817565Y-32324075D01*
X50817566Y-32324074D01*
X50817569Y-32324074D01*
X50923552Y-32270073D01*
X51007660Y-32185965D01*
X51061661Y-32079982D01*
X51065147Y-32057970D01*
X51095073Y-31994837D01*
X51154383Y-31957903D01*
X51224246Y-31958899D01*
X51225946Y-31959437D01*
X51232511Y-31961570D01*
X51232518Y-31961574D01*
X51232525Y-31961575D01*
X51232528Y-31961576D01*
X51349997Y-31980181D01*
X51350000Y-31980181D01*
X51350003Y-31980181D01*
X51467477Y-31961575D01*
X51467478Y-31961575D01*
X51467479Y-31961574D01*
X51467482Y-31961574D01*
X51573465Y-31907573D01*
X51573875Y-31907163D01*
X55488483Y-31907163D01*
X55488483Y-31907168D01*
X55509566Y-32040287D01*
X55509567Y-32040290D01*
X55509568Y-32040292D01*
X55563657Y-32146447D01*
X55570760Y-32160387D01*
X55570763Y-32160391D01*
X55666061Y-32255689D01*
X55666065Y-32255692D01*
X55666067Y-32255694D01*
X55786161Y-32316885D01*
X55916330Y-32337501D01*
X55945100Y-32351140D01*
X56002956Y-32324718D01*
X56052413Y-32316885D01*
X56172507Y-32255694D01*
X56267815Y-32160386D01*
X56329006Y-32040292D01*
X56329007Y-32040287D01*
X56350091Y-31907168D01*
X56350091Y-31907163D01*
X56329007Y-31774044D01*
X56329006Y-31774042D01*
X56329006Y-31774040D01*
X56267815Y-31653946D01*
X56267813Y-31653944D01*
X56267810Y-31653940D01*
X56172512Y-31558642D01*
X56172508Y-31558639D01*
X56172507Y-31558638D01*
X56052413Y-31497447D01*
X56052411Y-31497446D01*
X56052408Y-31497445D01*
X55919289Y-31476362D01*
X55919285Y-31476362D01*
X55786165Y-31497445D01*
X55666065Y-31558639D01*
X55666061Y-31558642D01*
X55570763Y-31653940D01*
X55570760Y-31653944D01*
X55509566Y-31774044D01*
X55488483Y-31907163D01*
X51573875Y-31907163D01*
X51657573Y-31823465D01*
X51711574Y-31717482D01*
X51713713Y-31703976D01*
X51730181Y-31600003D01*
X51730181Y-31599996D01*
X51711575Y-31482522D01*
X51711575Y-31482521D01*
X51711574Y-31482519D01*
X51711574Y-31482518D01*
X51657573Y-31376535D01*
X51657571Y-31376533D01*
X51657568Y-31376529D01*
X51573470Y-31292431D01*
X51573466Y-31292428D01*
X51573465Y-31292427D01*
X51467482Y-31238426D01*
X51467480Y-31238425D01*
X51467477Y-31238424D01*
X51350003Y-31219819D01*
X51349997Y-31219819D01*
X51232522Y-31238424D01*
X51232521Y-31238424D01*
X51126533Y-31292428D01*
X51126529Y-31292431D01*
X51042431Y-31376529D01*
X51042428Y-31376533D01*
X50988424Y-31482521D01*
X50984939Y-31504531D01*
X50955010Y-31567666D01*
X50895698Y-31604597D01*
X50825836Y-31603599D01*
X50824145Y-31603063D01*
X50817564Y-31600924D01*
X50700090Y-31582319D01*
X50700084Y-31582319D01*
X50582609Y-31600924D01*
X50582608Y-31600924D01*
X50476620Y-31654928D01*
X50476616Y-31654931D01*
X50392518Y-31739029D01*
X50392515Y-31739033D01*
X50338511Y-31845021D01*
X50338511Y-31845022D01*
X50319906Y-31962496D01*
X39500000Y-31962496D01*
X39500000Y-29000000D01*
X75224659Y-29000000D01*
X75243975Y-29196129D01*
X75301188Y-29384733D01*
X75394086Y-29558532D01*
X75394090Y-29558539D01*
X75519116Y-29710883D01*
X75671460Y-29835909D01*
X75671467Y-29835913D01*
X75845266Y-29928811D01*
X75845269Y-29928811D01*
X75845273Y-29928814D01*
X76033868Y-29986024D01*
X76230000Y-30005341D01*
X76426132Y-29986024D01*
X76614727Y-29928814D01*
X76788538Y-29835910D01*
X76940883Y-29710883D01*
X77065910Y-29558538D01*
X77158814Y-29384727D01*
X77216024Y-29196132D01*
X77235341Y-29000000D01*
X80224659Y-29000000D01*
X80243975Y-29196129D01*
X80301188Y-29384733D01*
X80394086Y-29558532D01*
X80394090Y-29558539D01*
X80519116Y-29710883D01*
X80671460Y-29835909D01*
X80671467Y-29835913D01*
X80845266Y-29928811D01*
X80845269Y-29928811D01*
X80845273Y-29928814D01*
X81033868Y-29986024D01*
X81230000Y-30005341D01*
X81426132Y-29986024D01*
X81614727Y-29928814D01*
X81788538Y-29835910D01*
X81940883Y-29710883D01*
X82065910Y-29558538D01*
X82158814Y-29384727D01*
X82216024Y-29196132D01*
X82235341Y-29000000D01*
X82216024Y-28803868D01*
X82158814Y-28615273D01*
X82158811Y-28615269D01*
X82158811Y-28615266D01*
X82065913Y-28441467D01*
X82065909Y-28441460D01*
X81940883Y-28289116D01*
X81788539Y-28164090D01*
X81788532Y-28164086D01*
X81614733Y-28071188D01*
X81614727Y-28071186D01*
X81426132Y-28013976D01*
X81426129Y-28013975D01*
X81230000Y-27994659D01*
X81033870Y-28013975D01*
X80845266Y-28071188D01*
X80671467Y-28164086D01*
X80671460Y-28164090D01*
X80519116Y-28289116D01*
X80394090Y-28441460D01*
X80394086Y-28441467D01*
X80301188Y-28615266D01*
X80243975Y-28803870D01*
X80224659Y-29000000D01*
X77235341Y-29000000D01*
X77216024Y-28803868D01*
X77158814Y-28615273D01*
X77158811Y-28615269D01*
X77158811Y-28615266D01*
X77065913Y-28441467D01*
X77065909Y-28441460D01*
X76940883Y-28289116D01*
X76788539Y-28164090D01*
X76788532Y-28164086D01*
X76614733Y-28071188D01*
X76614727Y-28071186D01*
X76426132Y-28013976D01*
X76426129Y-28013975D01*
X76230000Y-27994659D01*
X76033870Y-28013975D01*
X75845266Y-28071188D01*
X75671467Y-28164086D01*
X75671460Y-28164090D01*
X75519116Y-28289116D01*
X75394090Y-28441460D01*
X75394086Y-28441467D01*
X75301188Y-28615266D01*
X75243975Y-28803870D01*
X75224659Y-29000000D01*
X39500000Y-29000000D01*
X39500000Y-27540008D01*
X46347066Y-27540008D01*
X46347066Y-27540015D01*
X46365671Y-27657489D01*
X46365671Y-27657490D01*
X46419675Y-27763478D01*
X46419678Y-27763482D01*
X46503776Y-27847580D01*
X46503780Y-27847583D01*
X46503782Y-27847585D01*
X46609765Y-27901586D01*
X46609767Y-27901586D01*
X46609769Y-27901587D01*
X46727244Y-27920193D01*
X46727247Y-27920193D01*
X46727250Y-27920193D01*
X46844724Y-27901587D01*
X46844725Y-27901587D01*
X46844726Y-27901586D01*
X46844729Y-27901586D01*
X46950712Y-27847585D01*
X47034820Y-27763477D01*
X47088821Y-27657494D01*
X47107428Y-27540012D01*
X47107428Y-27540008D01*
X47101091Y-27500000D01*
X69994659Y-27500000D01*
X70013975Y-27696129D01*
X70013976Y-27696132D01*
X70059918Y-27847583D01*
X70071188Y-27884733D01*
X70164086Y-28058532D01*
X70164090Y-28058539D01*
X70289116Y-28210883D01*
X70441460Y-28335909D01*
X70441467Y-28335913D01*
X70615266Y-28428811D01*
X70615269Y-28428811D01*
X70615273Y-28428814D01*
X70803868Y-28486024D01*
X71000000Y-28505341D01*
X71196132Y-28486024D01*
X71384727Y-28428814D01*
X71558538Y-28335910D01*
X71710883Y-28210883D01*
X71835910Y-28058538D01*
X71928814Y-27884727D01*
X71986024Y-27696132D01*
X72005341Y-27500000D01*
X71986024Y-27303868D01*
X71928814Y-27115273D01*
X71928811Y-27115269D01*
X71928811Y-27115266D01*
X71835913Y-26941467D01*
X71835909Y-26941460D01*
X71710883Y-26789116D01*
X71558539Y-26664090D01*
X71558532Y-26664086D01*
X71384733Y-26571188D01*
X71384727Y-26571186D01*
X71196132Y-26513976D01*
X71196129Y-26513975D01*
X71000000Y-26494659D01*
X70803870Y-26513975D01*
X70615266Y-26571188D01*
X70441467Y-26664086D01*
X70441460Y-26664090D01*
X70289116Y-26789116D01*
X70164090Y-26941460D01*
X70164086Y-26941467D01*
X70071188Y-27115266D01*
X70013975Y-27303870D01*
X69994659Y-27500000D01*
X47101091Y-27500000D01*
X47088822Y-27422534D01*
X47088822Y-27422533D01*
X47088821Y-27422531D01*
X47088821Y-27422530D01*
X47034820Y-27316547D01*
X47034818Y-27316545D01*
X47034815Y-27316541D01*
X46950717Y-27232443D01*
X46950713Y-27232440D01*
X46950712Y-27232439D01*
X46844729Y-27178438D01*
X46844727Y-27178437D01*
X46844724Y-27178436D01*
X46727250Y-27159831D01*
X46727244Y-27159831D01*
X46609769Y-27178436D01*
X46609768Y-27178436D01*
X46503780Y-27232440D01*
X46503776Y-27232443D01*
X46419678Y-27316541D01*
X46419675Y-27316545D01*
X46365671Y-27422533D01*
X46365671Y-27422534D01*
X46347066Y-27540008D01*
X39500000Y-27540008D01*
X39500000Y-21624000D01*
X39519685Y-21556961D01*
X39572489Y-21511206D01*
X39624000Y-21500000D01*
X97370500Y-21500000D01*
X97437539Y-21519685D01*
G37*
%TD.AperFunction*%
%TD*%
M02*
